<?xml version="1.0" encoding="iso-8859-1"?>
<!-- Generator: Adobe Illustrator 19.0.0, SVG Export Plug-In . SVG Version: 6.00 Build 0)  -->
<svg version="1.1" id="Layer_1" xmlns="http://www.w3.org/2000/svg" xmlns:xlink="http://www.w3.org/1999/xlink" x="0px" y="0px"
	 viewBox="0 0 512.003 512.003" style="enable-background:new 0 0 512.003 512.003;" xml:space="preserve">
<path style="fill:#5DDDD3;" d="M256.004,512.001c140.999,0,255.999-115,255.999-256.001c0-140.999-115-255.999-255.999-255.999
	C115.002,0.001,0.003,115.001,0.003,256C0.003,397.001,115.002,512.001,256.004,512.001z"/>
<path style="fill:#82EDE4;" d="M137.214,168.972L1.595,227.451C0.553,236.826,0,246.347,0,256
	c0,112.991,73.202,208.874,174.767,242.834l78.055-213.588L137.211,168.974L137.214,168.972z"/>
<path style="fill:#0E7886;" d="M280.626,489.11h174.308c13.553,0,22.264,19.785,8.714,19.785H271.912
	c-13.548,0-4.837-19.785,8.716-19.785H280.626z"/>
<path style="fill:#FF5B61;" d="M452.461,316.426L443.33,489.11h-20.606l18.172-164.905c4.577-1.348,8.582-4.1,11.567-7.78H452.461z
	 M377.207,489.11L377.207,489.11h20.522l26.411-166.452c-3.824-1.944-7.066-4.936-9.38-8.617l-37.553,175.072V489.11z"/>
<path style="fill:#0E7886;" d="M211.628,152.578l41.378-41.142c10.214-10.154,26.875-10.106,37.029,0.105l21.094,21.215
	c10.154,10.214,10.106,26.875-0.108,37.031l-41.375,41.142L211.628,152.578z"/>
<path style="fill:#FFFFFF;" d="M171.643,250.353c-15.339-15.426-14.993-40.641,0.771-56.318
	c10.67-10.607,25.663-14.13,38.999-10.518l13.089-13.013c1.561-1.553,4.076-1.574,5.597-0.045l20.36,20.475
	c1.521,1.532,1.485,4.045-0.076,5.597l-12.323,12.252c4.556,13.881,1.159,29.926-10.093,41.118
	c-15.769,15.675-40.984,15.877-56.323,0.449V250.353z"/>
<g>
	<path style="fill:#0E7886;" d="M137.214,168.972c86.776-86.283,202.387,29.991,115.611,116.275L137.214,168.972z"/>
	<path style="fill:#0E7886;" d="M434.462,324.709c12.96,0,23.531-10.571,23.531-23.528c0-12.96-10.571-23.531-23.531-23.531
		s-23.528,10.571-23.528,23.531C410.934,314.141,421.504,324.709,434.462,324.709z"/>
</g>
<path style="fill:#FFFFFF;" d="M434.462,312.358c6.159,0,11.179-5.023,11.179-11.179c0-6.159-5.02-11.177-11.179-11.177
	c-6.156,0-11.179,5.02-11.179,11.177S428.303,312.358,434.462,312.358z"/>
<path style="fill:#FBB429;" d="M309.159,482.826l43.303-6.287v12.572h-43.303v-6.287V482.826z"/>
<path style="fill:#FF5B61;" d="M326.89,172.835L438.669,278.03c-1.364-0.244-2.772-0.375-4.207-0.375
	c-3.3,0-6.439,0.679-9.288,1.904L324.314,179.417l-7.62,6.817l97.137,103.632c-1.847,3.36-2.896,7.213-2.896,11.318
	c0,0.601,0.024,1.199,0.066,1.789L309.82,188.426l-1.933-2.188l2.174-1.944l12.858-11.504l2.009-1.799l1.959,1.847L326.89,172.835z"
	/>
<path style="fill:#0E7886;" d="M277.297,164.271l24.622-24.48l33.178,33.372c6.733,6.77,6.699,17.818-0.071,24.549l-0.003,0.003
	c-6.767,6.731-17.815,6.702-24.549-0.071l-33.178-33.37V164.271z"/>
<path style="fill:#FFFFFF;" d="M323.882,193.937c4.732,0,8.59-3.858,8.59-8.59c0-4.729-3.858-8.588-8.59-8.588
	c-4.732,0-8.59,3.858-8.59,8.588C315.291,190.079,319.147,193.937,323.882,193.937z"/>
<path style="fill:#20D0C2;" d="M31.025,408.595h179.578v6.056c-8.501,10.838-7.098,22.891,0,31.922v6.056H31.025
	c-28.053,0-28.056-44.037,0-44.037V408.595z"/>
<path style="fill:#FFFFFF;" d="M210.603,446.576c-7.247-10.641-7.796-21.28,0-31.922H31.025c-8.443,0-15.373,7.195-15.373,15.961
	c0,8.769,6.927,15.961,15.373,15.961H210.603z"/>
<g>
	<path style="fill:#ECF0F1;" d="M208.882,417.222c0.519-0.855,1.091-1.713,1.721-2.571H31.025c-17.173,0-21.991,24.617-4.669,31.159
		c-11.827-5.76-7.413-25.385,5.002-28.591h177.524V417.222z"/>
	<path style="fill:#ECF0F1;" d="M207.109,420.262H19.358c0.349-0.42,0.713-0.824,1.102-1.204h187.255
		C207.502,419.46,207.295,419.861,207.109,420.262z M17.789,422.534L17.789,422.534c-0.22,0.391-0.43,0.792-0.622,1.207h188.598
		c0.121-0.404,0.257-0.803,0.399-1.207H17.789z M16.312,426.009L16.312,426.009c-0.115,0.396-0.218,0.797-0.304,1.207h188.979
		c0.058-0.401,0.129-0.803,0.207-1.207H16.315H16.312z M15.693,429.487L15.693,429.487c-0.024,0.372-0.039,0.748-0.039,1.125v0.081
		h189.089c0-0.401,0.008-0.803,0.024-1.207H15.691H15.693z M15.822,432.965L15.822,432.965c0.058,0.407,0.134,0.811,0.22,1.204
		h188.987c-0.063-0.399-0.115-0.8-0.157-1.204H15.822z M16.724,436.443L16.724,436.443c0.157,0.409,0.33,0.811,0.517,1.204h188.596
		c-0.123-0.399-0.239-0.8-0.341-1.204H16.724z M18.566,439.922L18.566,439.922c0.291,0.417,0.598,0.818,0.926,1.204h187.712
		c-0.191-0.399-0.37-0.803-0.538-1.204H18.566z M21.86,443.397L21.86,443.397c0.572,0.443,1.172,0.847,1.799,1.204h185.522
		c-0.265-0.396-0.514-0.797-0.758-1.204H21.86z"/>
</g>
<path style="fill:#FF5B61;" d="M226.002,452.633H17.697v7.738c9.862,13.849,8.234,29.249,0,40.79v7.738h208.305
	c32.543,0,32.546-56.263,0-56.263V452.633z"/>
<path style="fill:#FFFFFF;" d="M17.697,501.158c8.409-13.595,9.044-27.193,0-40.79h208.307c9.794,0,17.831,9.194,17.831,20.394
	c0,11.203-8.039,20.394-17.831,20.394H17.697V501.158z"/>
<g>
	<path style="fill:#ECF0F1;" d="M19.693,463.654c-0.603-1.096-1.267-2.19-1.996-3.284h208.307c19.922,0,25.509,31.452,5.414,39.812
		c13.721-7.357,8.598-32.433-5.802-36.525H19.693V463.654z"/>
	<path style="fill:#ECF0F1;" d="M21.752,467.536h217.787c-0.401-0.538-0.826-1.049-1.277-1.54H21.047
		C21.296,466.508,21.532,467.022,21.752,467.536z M241.357,470.44L241.357,470.44c0.26,0.501,0.501,1.012,0.724,1.54H23.311
		c-0.142-0.511-0.294-1.026-0.464-1.54h218.508H241.357z M243.073,474.883L243.073,474.883c0.134,0.506,0.249,1.02,0.349,1.54
		H24.213c-0.068-0.512-0.147-1.026-0.241-1.54H243.07H243.073z M243.791,479.327L243.791,479.327
		c0.029,0.477,0.047,0.955,0.047,1.437v0.102H24.499c0.003-0.511-0.008-1.026-0.029-1.54h219.324H243.791z M243.642,483.77
		L243.642,483.77c-0.068,0.519-0.155,1.033-0.257,1.54H24.166c0.071-0.511,0.134-1.026,0.184-1.54h219.29H243.642z M242.595,488.213
		L242.595,488.213c-0.184,0.525-0.383,1.036-0.603,1.54H23.227c0.142-0.511,0.278-1.026,0.396-1.54h218.97H242.595z M240.46,492.654
		L240.46,492.654c-0.336,0.535-0.695,1.049-1.075,1.54H21.645c0.22-0.509,0.428-1.023,0.622-1.54H240.46z M236.638,497.1
		L236.638,497.1c-0.664,0.567-1.361,1.081-2.088,1.537H19.35c0.304-0.506,0.598-1.02,0.881-1.537h216.405H236.638z"/>
</g>
<path style="fill:#FBB429;" d="M194.356,364.484H55.697v6.056c6.565,10.836,5.482,22.891,0,31.922v6.056h138.659
	c21.663,0,21.663-44.037,0-44.037V364.484z"/>
<path style="fill:#FFFFFF;" d="M55.697,402.463c5.595-10.641,6.02-21.28,0-31.922h138.659c6.521,0,11.869,7.195,11.869,15.961
	c0,8.769-5.348,15.961-11.869,15.961H55.697z"/>
<g>
	<path style="fill:#ECF0F1;" d="M57.026,373.111c-0.401-0.858-0.845-1.715-1.327-2.571h138.659c13.262,0,16.981,24.614,3.607,31.159
		c9.133-5.757,5.723-25.383-3.864-28.588H57.029H57.026z"/>
	<path style="fill:#ECF0F1;" d="M58.398,376.151h144.967c-0.268-0.422-0.553-0.826-0.85-1.207H57.929
		C58.091,375.346,58.249,375.747,58.398,376.151z M204.578,378.423L204.578,378.423c0.171,0.393,0.333,0.795,0.48,1.207H59.434
		c-0.094-0.404-0.197-0.803-0.307-1.207H204.58H204.578z M205.719,381.901L205.719,381.901c0.089,0.396,0.168,0.797,0.233,1.204
		H60.038c-0.047-0.401-0.1-0.803-0.163-1.204h145.841H205.719z M206.196,385.379L206.196,385.379
		c0.021,0.372,0.029,0.748,0.029,1.125v0.079H60.224c0-0.401-0.005-0.803-0.021-1.204H206.196z M206.096,388.857L206.096,388.857
		c-0.045,0.407-0.102,0.808-0.171,1.204H60.004c0.05-0.399,0.092-0.8,0.121-1.204H206.096z M205.399,392.335L205.399,392.335
		c-0.121,0.409-0.257,0.813-0.401,1.204H59.377c0.097-0.399,0.184-0.8,0.265-1.204H205.399z M203.977,395.813L203.977,395.813
		c-0.226,0.417-0.464,0.818-0.716,1.207H58.322c0.144-0.399,0.283-0.8,0.414-1.207H203.977z M201.433,399.289L201.433,399.289
		c-0.441,0.446-0.905,0.847-1.39,1.207H56.796c0.205-0.396,0.399-0.8,0.588-1.207H201.433z"/>
</g>
<g>
</g>
<g>
</g>
<g>
</g>
<g>
</g>
<g>
</g>
<g>
</g>
<g>
</g>
<g>
</g>
<g>
</g>
<g>
</g>
<g>
</g>
<g>
</g>
<g>
</g>
<g>
</g>
<g>
</g>
</svg>
