<?xml version="1.0" encoding="iso-8859-1"?>
<!-- Generator: Adobe Illustrator 19.0.0, SVG Export Plug-In . SVG Version: 6.00 Build 0)  -->
<svg version="1.1" id="Layer_1" xmlns="http://www.w3.org/2000/svg" xmlns:xlink="http://www.w3.org/1999/xlink" x="0px" y="0px"
	 viewBox="0 0 512 512" style="enable-background:new 0 0 512 512;" xml:space="preserve">
<path style="fill:#FF757C;" d="M256.001,0C397.385,0,512,114.613,512,256.001C512,397.385,397.385,512,256.001,512
	S0,397.385,0,256.001C0,114.613,114.615,0,256.001,0z"/>
<path style="fill:#E74E4E;" d="M256.001,380.71c4.463,0,8.083,3.62,8.083,8.083c0,4.467-3.62,8.087-8.083,8.087
	c-4.465,0-8.085-3.62-8.085-8.087C247.916,384.33,251.536,380.71,256.001,380.71z"/>
<path style="fill:#666666;" d="M96.859,155.387h318.279c13.103,0,23.828,10.72,23.828,23.826v154.893v11.055v26.822h-0.117
	l0.009,0.344c0,5.278,0.086,15.82,0.086,21.072c0,4.37-3.572,7.944-7.942,7.944H297.702v33.412h24.467
	c3.801,0,6.914,3.111,6.914,6.914c0,3.806-3.113,6.914-6.914,6.914H189.833c-3.803,0-6.914-3.109-6.914-6.914
	c0-3.803,3.111-6.914,6.914-6.914h24.467v-33.412H81.092c-4.37,0-7.944-3.572-7.944-7.944c0-5.263,0-15.796,0-21.072l0.009-0.344
	h-0.123v-26.822v-11.055V179.213c0-13.103,10.724-23.826,23.828-23.826H96.859z"/>
<path style="fill:#20D0C2;" d="M91.962,171.78h328.076v180.816H91.962V171.78z"/>
<path style="fill:#807D7D;" d="M256.001,380.71c4.463,0,8.083,3.62,8.083,8.083c0,4.467-3.62,8.087-8.083,8.087
	c-4.465,0-8.083-3.62-8.083-8.087C247.918,384.33,251.536,380.71,256.001,380.71z"/>
<path style="fill:#FFFFFF;" d="M143.34,63.414H321.67l46.992,46.992v242.19H143.34V63.414z"/>
<g>
	<path style="fill:#FFBA1B;" d="M321.668,63.414v46.992h46.992L321.668,63.414z"/>
	<path style="fill:#FFBA1B;" d="M370.437,400.404l-24.165-33.251l-16.675,11.897l-13.701-69.387l62.067,34.87l-16.669,11.897
		l24.165,33.251l-15.022,10.724V400.404z"/>
</g>
<path style="fill:#D0D1D4;" d="M170.863,184.196h154.457v5.137H170.863V184.196z M170.863,165.496L170.863,165.496h118.312v5.14
	H170.863V165.496z M170.863,155.965L170.863,155.965h154.465v5.14H170.863V155.965z M170.863,146.433L170.863,146.433h154.457v5.14
	H170.863V146.433z M170.863,136.904L170.863,136.904h154.457v5.14H170.863V136.904z M170.863,127.372L170.863,127.372h154.457v5.14
	H170.863V127.372z M170.863,222.322L170.863,222.322h118.312v5.14H170.863V222.322z M170.863,212.79L170.863,212.79h154.465v5.14
	H170.863V212.79z M170.863,203.259L170.863,203.259h154.457v5.14H170.863V203.259z M170.863,193.727L170.863,193.727h154.457v5.14
	H170.863V193.727z"/>
<path style="fill:#FBB429;" d="M304.918,394.162l-5.402-3.118l10.447-18.097l5.402,3.118l-10.449,18.097H304.918z M367.655,275.518
	L367.655,275.518l5.402,3.12l-10.449,18.095l-5.404-3.118l10.449-18.1L367.655,275.518z M393.112,299.15L393.112,299.15l3.118,5.404
	l-18.095,10.449l-3.12-5.402l18.1-10.449L393.112,299.15z M403.343,332.344L403.343,332.344v6.238h-20.895v-6.238H403.343z
	 M279.461,370.528L279.461,370.528l-3.118-5.402l18.095-10.449l3.12,5.402l-18.1,10.449H279.461z M269.23,337.336L269.23,337.336
	v-6.238h20.895v6.238H269.23z M276.965,303.472L276.965,303.472l3.12-5.402l18.095,10.447l-3.118,5.402l-18.1-10.449
	L276.965,303.472z M300.596,278.014L300.596,278.014l5.404-3.118l10.449,18.095l-5.402,3.12l-10.449-18.1L300.596,278.014z
	 M333.791,267.784L333.791,267.784h6.238v20.895h-6.238V267.784z"/>
<g>
</g>
<g>
</g>
<g>
</g>
<g>
</g>
<g>
</g>
<g>
</g>
<g>
</g>
<g>
</g>
<g>
</g>
<g>
</g>
<g>
</g>
<g>
</g>
<g>
</g>
<g>
</g>
<g>
</g>
</svg>
