<?xml version="1.0" encoding="iso-8859-1"?>
<!-- Generator: Adobe Illustrator 19.0.0, SVG Export Plug-In . SVG Version: 6.00 Build 0)  -->
<svg version="1.1" id="Layer_1" xmlns="http://www.w3.org/2000/svg" xmlns:xlink="http://www.w3.org/1999/xlink" x="0px" y="0px"
	 viewBox="0 0 512 512" style="enable-background:new 0 0 512 512;" xml:space="preserve">
<path style="fill:#0E7886;" d="M256.001,512C397,512,512,397,512,256.001C512,115,397,0,256.001,0C115,0,0,115,0,256.001
	C0,397,115,512,256.001,512z"/>
<path style="fill:#20D0C2;" d="M40.134,340.029h431.731V57.362H40.134V340.029z"/>
<path style="fill:#DFE1E3;" d="M463.385,57.36H255.999v271.078h207.387V57.36z"/>
<path style="fill:#FFFFFF;" d="M456.041,57.36c-66.679,0-130.365-28.433-200.04,0v253.924h200.04V57.36z"/>
<path style="fill:#DFE1E3;" d="M48.615,57.36h207.387v271.078H48.615V57.36z"/>
<path style="fill:#FFFFFF;" d="M55.956,57.36c66.679,0,163.04-27.94,200.042,0v253.924H55.956V57.36z"/>
<path style="fill:#ECF0F1;" d="M252.607,57.36h6.78v253.924h-6.78V57.36z"/>
<path style="fill:#FBB429;" d="M73.05,89.405h77.205V78.797H73.05V89.405z"/>
<path style="fill:#ECF0F1;" d="M73.05,169.731h154.41v5.018H73.05V169.731z M278.813,169.731L278.813,169.731h154.413v5.018H278.813
	V169.731z M278.813,103.556L278.813,103.556h154.413v5.018H278.813V103.556z M278.813,154.148L278.813,154.148h67.608v5.018h-67.608
	V154.148z M278.813,144.031L278.813,144.031h154.413v5.018H278.813V144.031z M278.813,133.912L278.813,133.912h154.413v5.018
	H278.813V133.912z M278.813,123.795L278.813,123.795h67.608v5.018h-67.608V123.795z M278.813,113.675L278.813,113.675h154.413v5.018
	H278.813V113.675z M278.813,220.323L278.813,220.323h53.142v5.018h-53.142V220.323z M278.813,210.204L278.813,210.204h154.413v5.015
	H278.813V210.204z M278.813,200.084L278.813,200.084h154.413v5.018H278.813V200.084z M278.813,189.968L278.813,189.968h154.413
	v5.015H278.813V189.968z M278.813,179.848L278.813,179.848h154.413v5.018H278.813V179.848z M73.05,103.556L73.05,103.556h154.41
	v5.018H73.05V103.556z M73.05,154.148L73.05,154.148h67.61v5.018H73.05V154.148z M73.05,144.031L73.05,144.031h154.41v5.018H73.05
	V144.031z M73.05,133.912L73.05,133.912h154.41v5.018H73.05V133.912z M73.05,123.795L73.05,123.795h154.41v5.018H73.05V123.795z
	 M73.05,113.675L73.05,113.675h154.41v5.018H73.05V113.675z M73.05,220.323L73.05,220.323h53.144v5.018H73.05V220.323z
	 M73.05,210.204L73.05,210.204h154.41v5.015H73.05V210.204z M73.05,200.084L73.05,200.084h154.41v5.018H73.05V200.084z
	 M73.05,189.968L73.05,189.968h154.41v5.015H73.05V189.968z M73.05,179.848L73.05,179.848h154.41v5.018H73.05V179.848z"/>
<path style="fill:#807D7D;" d="M302.255,164.679c44.83,25.548,60.463,82.598,34.915,127.428
	c-15.78,27.694-43.586,44.237-73.105,46.82l0.092,12.147l-12.706,0.058l-0.092-11.953c-14.188-0.692-28.431-4.64-41.616-12.155
	c-44.83-25.548-60.463-82.598-34.915-127.428c25.545-44.827,82.598-60.46,127.428-34.915V164.679z M296.865,174.138L296.865,174.138
	c-39.605-22.568-90.011-8.758-112.579,30.846s-8.758,90.011,30.849,112.581c39.605,22.568,90.011,8.758,112.579-30.846
	C350.282,247.112,336.472,196.706,296.865,174.138z"/>
<path style="fill:#FF5B61;" d="M246.642,351.153l22.185-0.097c3.329-0.016,6.062,2.694,6.072,6.017l0.344,103.834
	c0.013,3.323-2.694,6.059-6.017,6.072l-22.185,0.1c-3.323,0.01-6.062-2.694-6.075-6.02l-0.344-103.836
	c-0.01-3.323,2.694-6.056,6.017-6.07H246.642z"/>
<path style="fill:#ECF0F1;" d="M307.763,181.123c35.749,28.588,41.553,80.741,12.965,116.492
	c-28.585,35.749-80.744,41.556-116.492,12.965c-35.749-28.588-41.553-80.741-12.965-116.49S272.012,152.537,307.763,181.123z"/>
<path style="fill:#C3CCCF;" d="M251.592,251.343l-2.473-36.9c-0.446-7.184-0.685-12.37-0.685-15.499c0-4.262,1.107-7.58,3.342-9.975
	c2.237-2.395,5.159-3.58,8.792-3.58c4.422,0,7.371,1.527,8.845,4.58c1.498,3.051,2.237,7.473,2.237,13.212
	c0,3.397-0.186,6.843-0.527,10.342l-3.315,37.978c-0.37,4.527-1.131,8-2.316,10.424c-1.159,2.395-3.108,3.607-5.844,3.607
	c-2.762,0-4.682-1.159-5.763-3.502c-1.054-2.34-1.844-5.894-2.292-10.683V251.343z M260.119,302.085L260.119,302.085
	c-3.132,0-5.87-1.026-8.186-3.053c-2.34-2.028-3.499-4.868-3.499-8.527c0-3.184,1.107-5.896,3.342-8.134
	c2.237-2.237,4.95-3.342,8.186-3.342c3.237,0,5.975,1.104,8.265,3.342c2.29,2.237,3.423,4.95,3.423,8.134
	c0,3.607-1.159,6.45-3.449,8.501c-2.316,2.054-5.002,3.079-8.079,3.079H260.119z"/>
<path style="fill:#FFFFFF;" d="M250.64,250.818l-2.473-36.898c-0.449-7.184-0.685-12.367-0.685-15.502
	c0-4.262,1.107-7.58,3.342-9.975c2.237-2.395,5.159-3.58,8.79-3.58c4.422,0,7.371,1.527,8.845,4.58
	c1.5,3.053,2.235,7.476,2.235,13.215c0,3.394-0.186,6.843-0.525,10.342l-3.318,37.976c-0.367,4.527-1.131,8.003-2.316,10.424
	c-1.157,2.395-3.106,3.607-5.841,3.607c-2.765,0-4.685-1.157-5.765-3.502c-1.052-2.342-1.841-5.894-2.29-10.686H250.64z
	 M259.167,301.56L259.167,301.56c-3.132,0-5.868-1.026-8.186-3.053c-2.342-2.028-3.499-4.868-3.499-8.525
	c0-3.187,1.107-5.896,3.342-8.134c2.237-2.237,4.947-3.342,8.184-3.342c3.237,0,5.975,1.104,8.265,3.342
	c2.292,2.237,3.423,4.947,3.423,8.134c0,3.604-1.157,6.447-3.447,8.499C264.933,300.534,262.247,301.56,259.167,301.56z"/>
<path style="fill:#C3CCCF;" d="M307.763,181.123c0.504,0.404,0.999,0.813,1.49,1.225h-17.76v-7.494h7.279
	C301.862,176.719,304.868,178.807,307.763,181.123z M317.217,189.968L317.217,189.968c2.193,2.397,4.226,4.9,6.091,7.494h-31.814
	v-7.494H317.217z M328.181,205.081L328.181,205.081c1.38,2.445,2.626,4.947,3.74,7.494h-40.426v-7.494H328.181z M334.814,220.197
	L334.814,220.197c0.8,2.468,1.485,4.968,2.049,7.494h-45.37v-7.494H334.814z M338.203,235.314L338.203,235.314
	c0.32,2.487,0.527,4.986,0.622,7.494h-47.329v-7.494H338.203z M175.121,227.694L175.121,227.694c0.564-2.521,1.249-5.02,2.054-7.494
	h37.611v7.494H175.121z M180.079,212.578L180.079,212.578c1.117-2.542,2.366-5.041,3.756-7.494h30.951v7.494H180.079z
	 M188.714,197.461L188.714,197.461c0.818-1.138,1.673-2.261,2.56-3.371c1.138-1.424,2.319-2.796,3.528-4.123h19.985v7.494H188.714z
	 M202.726,182.348L202.726,182.348c3.326-2.796,6.83-5.296,10.479-7.494h1.582v7.494h-12.058H202.726z"/>
<path style="fill:#FFFFFF;" d="M183.932,234.516c1.406-15.491,8.05-30.592,19.935-42.424c11.801-11.748,26.802-18.319,42.18-19.717
	c1.624-0.15,3.074,0.338,4.278,1.435c1.201,1.096,1.826,2.494,1.828,4.123v0.664c0.008,2.909-2.188,5.322-5.083,5.59
	c-12.703,1.172-25.092,6.602-34.839,16.305c-9.818,9.773-15.316,22.248-16.491,35.043c-0.268,2.893-2.678,5.089-5.584,5.086h-0.664
	c-1.626-0.005-3.027-0.627-4.123-1.826c-1.096-1.204-1.587-2.654-1.44-4.275L183.932,234.516z M192.496,247.067L192.496,247.067
	c2.374,2.384,2.366,6.24-0.018,8.614c-2.387,2.376-6.243,2.366-8.617-0.018c-2.374-2.387-2.366-6.243,0.018-8.617
	c2.384-2.376,6.243-2.366,8.617,0.018V247.067z"/>
<g>
</g>
<g>
</g>
<g>
</g>
<g>
</g>
<g>
</g>
<g>
</g>
<g>
</g>
<g>
</g>
<g>
</g>
<g>
</g>
<g>
</g>
<g>
</g>
<g>
</g>
<g>
</g>
<g>
</g>
</svg>
