<?xml version="1.0" encoding="iso-8859-1"?>
<!-- Generator: Adobe Illustrator 19.0.0, SVG Export Plug-In . SVG Version: 6.00 Build 0)  -->
<svg version="1.1" id="Layer_1" xmlns="http://www.w3.org/2000/svg" xmlns:xlink="http://www.w3.org/1999/xlink" x="0px" y="0px"
	 viewBox="0 0 512 512" style="enable-background:new 0 0 512 512;" xml:space="preserve">
<path style="fill:#FFCA4F;" d="M256,0c141.385,0,256,114.615,256,256S397.385,512,256,512S0,397.385,0,256S114.615,0,256,0z"/>
<path style="fill:#20D0C2;" d="M261.739,106.253c-20.656,138.295,67.516,103.485,71.873,136.858v42.175
	c-4.357,33.375-92.529-1.435-71.873,136.861h87.364h87.367c20.654-138.295-67.521-103.485-71.873-136.861v-42.175
	c4.352-33.372,92.526,1.437,71.873-136.858h-87.367H261.739z"/>
<path style="fill:#15BDB1;" d="M364.6,261.364v-18.253c4.352-33.372,92.526,1.437,71.873-136.858h-17.815
	c0,0,36.483,94.182-39.12,114.033c-20.318,5.335-18.204,19.759-18.188,41.079v0.926c-0.042,21.115-2.007,35.773,18.188,41.071
	c75.603,19.851,39.12,118.785,39.12,118.785h17.815c20.654-138.295-67.521-108.236-71.873-141.611V262.29V261.364z"/>
<g>
	<path style="fill:#FFFFFF;" d="M274.033,150.833c-2.597,25.291,0.698,39.146,20.055,54.296
		c14.739,11.539,36.536,12.189,48.992,26.631c4.018,2.982,8.032,2.841,12.05,0c12.457-14.442,34.251-15.093,48.992-26.634
		c19.358-15.15,22.65-29.005,20.053-54.296H274.033V150.833z M349.368,238.541L349.368,238.541c3.447,0,6.243,2.796,6.243,6.243
		c0,3.447-2.796,6.24-6.243,6.24s-6.24-2.796-6.24-6.24C343.128,241.337,345.924,238.541,349.368,238.541z M349.368,293.003
		L349.368,293.003c3.447,0,6.243,2.796,6.243,6.243c0,3.444-2.796,6.24-6.243,6.24s-6.24-2.796-6.24-6.24
		C343.128,295.799,345.924,293.003,349.368,293.003z M349.368,274.849L349.368,274.849c3.447,0,6.243,2.796,6.243,6.24
		c0,3.447-2.796,6.243-6.243,6.243s-6.24-2.796-6.24-6.243S345.924,274.849,349.368,274.849z M349.368,256.695L349.368,256.695
		c3.447,0,6.243,2.796,6.243,6.24c0,3.447-2.796,6.243-6.243,6.243s-6.24-2.793-6.24-6.243
		C343.128,259.489,345.924,256.695,349.368,256.695z M276.971,404.835L276.971,404.835h144.268
		C405.33,279.875,292.67,278.524,276.971,404.835z"/>
	<path style="fill:#FFFFFF;" d="M236.501,246.458c2.445,0.75,4.787,1.726,7.006,2.906l9.333-6.479l13.729,13.729l-6.481,9.333
		c1.18,2.219,2.156,4.564,2.906,7.006l11.177,2.014v19.413l-11.177,2.014c-0.75,2.445-1.726,4.787-2.909,7.009l6.481,9.33
		l-13.729,13.726l-9.33-6.481c-2.222,1.183-4.564,2.159-7.009,2.909l-2.014,11.177h-19.413l-2.014-11.177
		c-2.445-0.748-4.787-1.726-7.009-2.909l-9.33,6.479l-13.726-13.726l6.481-9.33c-1.18-2.222-2.159-4.564-2.906-7.011l-11.177-2.014
		v-19.415l11.177-2.014c0.748-2.445,1.726-4.79,2.906-7.009l-6.481-9.33l13.726-13.729l9.33,6.481
		c2.222-1.18,4.564-2.156,7.009-2.906l2.014-11.177h19.413l2.014,11.177L236.501,246.458z M224.778,263.937L224.778,263.937
		c-11.452,0-20.735,9.283-20.735,20.735c0,11.452,9.283,20.735,20.735,20.735s20.735-9.283,20.735-20.735
		C245.513,273.223,236.23,263.937,224.778,263.937z"/>
</g>
<path style="fill:#20D0C2;" d="M138.804,119.543c2.799,0.559,5.537,1.296,8.197,2.193l12.284-16.475l18.508,10.686l-8.134,18.891
	c2.119,1.868,4.123,3.872,5.991,5.991l18.891-8.131l10.686,18.505l-16.472,12.284c0.897,2.66,1.634,5.398,2.193,8.2l20.41,2.4v21.37
	l-20.41,2.4c-0.559,2.801-1.293,5.54-2.193,8.2l16.472,12.281l-10.686,18.508l-18.891-8.134c-1.868,2.122-3.872,4.123-5.991,5.991
	l8.131,18.891l-18.505,10.686l-12.284-16.475c-2.66,0.897-5.396,1.634-8.197,2.193l-2.4,20.412h-21.37l-2.4-20.41
	c-2.801-0.559-5.54-1.296-8.2-2.195l-12.281,16.472l-18.505-10.686l8.131-18.891c-2.122-1.868-4.123-3.869-5.991-5.994
	l-18.891,8.134l-10.686-18.505l16.475-12.284c-0.897-2.66-1.634-5.396-2.193-8.197l-20.412-2.403v-21.367l20.41-2.403
	c0.559-2.801,1.296-5.537,2.195-8.2L46.215,151.2l10.686-18.508l18.891,8.134c1.868-2.119,3.869-4.123,5.994-5.991l-8.134-18.891
	l18.505-10.686l12.284,16.475c2.66-0.897,5.396-1.634,8.197-2.193l2.403-20.412h21.367l2.403,20.412L138.804,119.543z
	 M125.718,140.68L125.718,140.68c-24.349,0-44.09,19.741-44.09,44.09s19.741,44.09,44.09,44.09s44.09-19.741,44.09-44.09
	S150.067,140.68,125.718,140.68z"/>
<path style="fill:#FFFFFF;" d="M125.718,130.707c29.858,0,54.063,24.208,54.063,54.063c0,29.86-24.208,54.063-54.063,54.063
	c-29.86,0-54.063-24.202-54.063-54.063C71.655,154.912,95.858,130.707,125.718,130.707z"/>
<path style="fill:#0E7886;" d="M79.01,182.978h11.2v3.586H79.008l0.003-3.588V182.978z M172.423,186.564L172.423,186.564H161.22
	v-3.586h11.203V186.564z M123.921,231.478L123.921,231.478v-11.2h3.586v11.203L123.921,231.478z M127.507,138.064L127.507,138.064
	v11.203h-3.586v-11.203H127.507z"/>
<path style="fill:#FF5B61;" d="M125.671,155.904c1.393,0,2.531,1.141,2.531,2.534v24.617h24.617c1.395,0,2.534,1.138,2.534,2.534
	c0,1.395-1.141,2.534-2.534,2.534h-27.148v-2.534h-2.536V158.44c0-1.395,1.141-2.534,2.536-2.534V155.904z"/>
<g>
	<path style="fill:#0E7886;" d="M125.718,179.836c2.725,0,4.934,2.209,4.934,4.934c0,2.725-2.209,4.937-4.934,4.937
		c-2.725,0-4.936-2.209-4.936-4.937C120.781,182.044,122.99,179.836,125.718,179.836z"/>
	<path style="fill:#0E7886;" d="M212.547,94.641H485.66v11.612h-21.207v315.891h21.207v11.612H212.547v-11.612h21.207V106.253
		h-21.207V94.641z M454.116,106.253L454.116,106.253H244.089v315.891h210.027V106.253z"/>
</g>
<g>
</g>
<g>
</g>
<g>
</g>
<g>
</g>
<g>
</g>
<g>
</g>
<g>
</g>
<g>
</g>
<g>
</g>
<g>
</g>
<g>
</g>
<g>
</g>
<g>
</g>
<g>
</g>
<g>
</g>
</svg>
