<?xml version="1.0" encoding="iso-8859-1"?>
<!-- Generator: Adobe Illustrator 19.0.0, SVG Export Plug-In . SVG Version: 6.00 Build 0)  -->
<svg version="1.1" id="Layer_1" xmlns="http://www.w3.org/2000/svg" xmlns:xlink="http://www.w3.org/1999/xlink" x="0px" y="0px"
	 viewBox="0 0 512 512" style="enable-background:new 0 0 512 512;" xml:space="preserve">
<path style="fill:#FFCA4F;" d="M256,512c141.002,0,256-114.998,256-256S397.002,0,256,0S0,115.003,0,256
	C0,397.002,115.003,512,256,512z"/>
<path style="fill:#807D7D;" d="M60.751,108.306h390.494c4.767,0,8.669,3.903,8.669,8.669v239.257c0,4.767-3.898,8.669-8.669,8.669
	H60.751c-4.767,0-8.669-3.903-8.669-8.669V116.975C52.081,112.208,55.98,108.306,60.751,108.306z"/>
<path style="fill:#5DDDD3;" d="M70.261,125.718h371.474v226.389H70.261V125.718z"/>
<path style="fill:#807D7D;" d="M14.087,370.546h483.826v16.577c0,9.117-7.455,16.572-16.577,16.572H30.659
	c-9.117,0-16.572-7.459-16.572-16.572V370.546z"/>
<path style="fill:#666666;" d="M189.711,370.546h132.577v4.873c0,2.679-2.194,4.873-4.873,4.873H194.584
	c-2.679,0-4.873-2.194-4.873-4.873V370.546z"/>
<path style="fill:#FF757C;" d="M70.261,125.718h37.832v14.217H70.261V125.718z"/>
<path style="fill:#FFFFFF;" d="M441.735,125.718H108.093v14.217h333.642V125.718z"/>
<path style="fill:#666666;" d="M104.019,364.897h27.011v5.644h-27.011V364.897z M380.97,364.897L380.97,364.897h27.011v5.644H380.97
	V364.897z"/>
<path style="fill:#FFFFFF;" d="M237.234,163.869c4.817,0,9.524,0.462,14.087,1.326l0.323,0.065c0.494,0.097,0.988,0.199,1.473,0.3
	l0.129,0.028l0.319,0.069c0.425,0.092,0.85,0.194,1.27,0.296l0.319,0.079c0.527,0.129,1.048,0.263,1.57,0.406l0.314,0.083
	c0.522,0.143,1.039,0.291,1.557,0.443l0.309,0.092c0.416,0.125,0.822,0.249,1.233,0.383l0.309,0.102l0.305,0.097
	c0.406,0.134,0.813,0.273,1.219,0.416l0.305,0.106l0.069,0.028c0.48,0.171,0.961,0.346,1.436,0.527l0,0l0.3,0.115l0.014,0.005
	c0.448,0.171,0.896,0.351,1.344,0.531l0.129,0.055l0.296,0.12c0.383,0.157,0.771,0.323,1.155,0.49l0.023,0.009l0.291,0.129
	l0.291,0.129c0.369,0.162,0.734,0.328,1.099,0.499l0.065,0.032l0.291,0.134c0.476,0.226,0.947,0.453,1.418,0.684l0.014,0.009
	l0.286,0.143c24.59,12.318,41.477,37.754,41.477,67.129c0,29.38-16.882,54.811-41.477,67.129l-0.286,0.143l-0.014,0.009
	c-0.471,0.236-0.942,0.462-1.418,0.684l-0.291,0.134l-0.065,0.032c-0.365,0.166-0.73,0.333-1.099,0.494l-0.291,0.129l-0.291,0.129
	l-0.023,0.009c-0.383,0.166-0.771,0.328-1.155,0.485l-0.296,0.125l-0.129,0.055c-0.448,0.18-0.896,0.356-1.344,0.531l-0.014,0.009
	l-0.3,0.115l0,0c-0.476,0.18-0.956,0.356-1.436,0.527l-0.069,0.023l-0.305,0.106c-0.406,0.143-0.813,0.277-1.219,0.416l-0.305,0.102
	l-0.309,0.097c-0.411,0.134-0.818,0.259-1.233,0.383l-0.309,0.092c-0.517,0.152-1.039,0.3-1.557,0.443l-0.314,0.088
	c-0.522,0.139-1.048,0.273-1.57,0.406l-0.319,0.074c-0.42,0.102-0.845,0.199-1.27,0.296l-0.319,0.069l-0.129,0.028
	c-0.49,0.106-0.979,0.208-1.473,0.305l-0.323,0.06c-4.563,0.868-9.27,1.326-14.087,1.326c-3.603,0-7.141-0.259-10.605-0.748l0,0
	l-0.023-0.005c-1.15-0.162-2.286-0.351-3.418-0.568l-0.43-0.079c-0.425-0.083-0.85-0.171-1.275-0.263l-0.425-0.092l-0.032-0.009
	c-2.924-0.642-5.792-1.46-8.577-2.434l-0.065-0.023l-0.402-0.143c-0.402-0.143-0.804-0.291-1.201-0.439l-0.397-0.152
	c-28.184-10.803-48.197-38.109-48.197-70.094c0-31.98,20.009-59.287,48.197-70.09l0.397-0.148c0.397-0.148,0.799-0.3,1.201-0.439
	l0.402-0.143l0.065-0.023c2.79-0.975,5.653-1.792,8.577-2.439l0.032-0.009l0.425-0.092c0.425-0.088,0.845-0.176,1.275-0.259
	l0.43-0.083c1.132-0.212,2.272-0.402,3.418-0.568l0.023-0.005l0,0c3.464-0.49,7.007-0.753,10.605-0.753V163.869z M226.823,183.712
	L226.823,183.712c-6.688,4.683-12.48,10.549-17.08,17.293c3.783,0.619,7.644,1.113,11.57,1.473
	C222.777,195.938,224.629,189.661,226.823,183.712z M201.572,199.448L201.572,199.448c6.873-11.09,16.554-20.258,28.05-26.507
	c-0.988-0.203-1.986-0.383-2.993-0.54c-16.175,2.559-30.438,10.877-40.617,22.784c4.988,1.667,10.184,3.095,15.556,4.263H201.572z
	 M180.631,202.408L180.631,202.408c-6.014,9.302-9.796,20.184-10.591,31.883h20.466c0.577-9.492,2.914-18.503,6.697-26.715
	C191.443,206.145,185.906,204.413,180.631,202.408z M204.916,209.281L204.916,209.281c-3.746,7.635-6.092,16.083-6.697,25.011
	h19.191c0.208-7.843,0.942-15.478,2.152-22.835c-4.998-0.513-9.889-1.242-14.651-2.171L204.916,209.281z M217.415,243.529
	L217.415,243.529h-19.191c0.522,7.676,2.328,14.997,5.205,21.754c5.062-1.039,10.272-1.852,15.602-2.416
	C218.14,256.6,217.59,250.134,217.415,243.529z M195.822,267.043L195.822,267.043c-2.965-7.335-4.813-15.242-5.312-23.514h-20.466
	c0.711,10.517,3.843,20.369,8.831,29.011c5.376-2.129,11.043-3.972,16.942-5.496H195.822z M183.762,279.851L183.762,279.851
	c10.272,13.394,25.463,22.821,42.871,25.574c1.007-0.162,2.005-0.342,2.993-0.545c-12.568-6.831-22.969-17.15-29.897-29.653
	C194.205,276.503,188.866,278.05,183.762,279.851z M207.683,273.611L207.683,273.611c4.877,8.101,11.413,15.094,19.14,20.503
	c-2.582-7.002-4.688-14.457-6.254-22.262C216.186,272.277,211.886,272.863,207.683,273.611z M247.908,298.243L247.908,298.243
	c10.221-5.506,18.854-13.57,25.043-23.339c-5.566-1.229-11.321-2.175-17.233-2.822c-1.875,9.279-4.513,18.055-7.81,26.165V298.243z
	 M280.78,276.849L280.78,276.849c-6.794,11.57-16.6,21.159-28.345,27.69c15.441-3.561,28.849-12.434,38.202-24.586
	C287.435,278.817,284.151,277.782,280.78,276.849z M295.532,272.646L295.532,272.646c5.025-8.665,8.175-18.558,8.891-29.112h-13.501
	c-0.545,8.97-2.665,17.51-6.088,25.352C288.507,270.013,292.082,271.274,295.532,272.646z M277.339,266.794L277.339,266.794
	c3.265-7.168,5.312-15.011,5.866-23.26h-24.29c-0.176,6.693-0.739,13.233-1.654,19.579c6.928,0.822,13.644,2.065,20.073,3.681
	H277.339z M258.914,234.292L258.914,234.292h24.29c-0.642-9.487-3.252-18.434-7.418-26.442c-6.129,1.473-12.503,2.605-19.066,3.362
	c1.233,7.432,1.981,15.15,2.194,23.075V234.292z M283.385,205.817L283.385,205.817c4.272,8.679,6.919,18.3,7.538,28.475h13.501
	c-0.794-11.741-4.605-22.66-10.655-31.985c-3.358,1.284-6.822,2.457-10.383,3.515V205.817z M288.378,195.097L288.378,195.097
	c-9.196-10.725-21.708-18.526-35.948-21.81c10.697,5.944,19.787,14.434,26.456,24.641
	C282.124,197.078,285.292,196.131,288.378,195.097z M270.859,199.808L270.859,199.808c-5.981-8.378-13.838-15.32-22.951-20.226
	c2.877,7.09,5.261,14.688,7.062,22.687c5.436-0.568,10.734-1.395,15.884-2.457L270.859,199.808z M230.324,203.064L230.324,203.064
	c2.231,0.088,4.476,0.134,6.743,0.134c3.002,0,5.977-0.079,8.919-0.231c-1.945-8.799-4.586-17.126-7.82-24.831
	C234.92,185.869,232.269,194.229,230.324,203.064z M247.709,212.011L247.709,212.011c-3.506,0.217-7.057,0.333-10.646,0.333
	c-2.85,0-5.672-0.074-8.466-0.208c-1.145,7.145-1.843,14.558-2.046,22.156h23.219c-0.203-7.644-0.91-15.094-2.065-22.281H247.709z
	 M226.555,243.529L226.555,243.529c0.166,6.355,0.684,12.582,1.52,18.628c2.965-0.152,5.963-0.236,8.993-0.236
	c3.769,0,7.496,0.125,11.173,0.365c0.845-6.088,1.367-12.355,1.533-18.757H226.555z M229.59,271.228L229.59,271.228
	c1.991,10.147,4.901,19.704,8.577,28.456c3.663-8.725,6.563-18.244,8.554-28.35c-3.182-0.18-6.402-0.273-9.653-0.273
	C234.555,271.062,232.066,271.122,229.59,271.228z"/>
<path style="fill:#FF757C;" d="M304.322,308.645c25.052,0,45.481-20.433,45.481-45.486s-20.433-45.486-45.481-45.486
	c-25.052,0-45.486,20.433-45.486,45.486S279.269,308.645,304.322,308.645z"/>
<path style="fill:#FFFFFF;" d="M305.444,294.206c-4.295,0-8.231-0.674-11.787-2.074c-3.552-1.376-6.6-3.404-9.141-6.074
	c-2.536-2.665-4.503-5.921-5.921-9.75c-1.395-3.852-2.092-8.231-2.092-13.14c0-4.845,0.674-9.182,2.028-12.988
	c1.376-3.829,3.279-7.09,5.713-9.773c2.434-2.688,5.372-4.734,8.799-6.152c3.427-1.441,7.196-2.138,11.279-2.138
	c4.254,0,8.101,0.697,11.528,2.097c3.427,1.418,6.346,3.45,8.757,6.115c2.429,2.665,4.291,5.921,5.584,9.755
	c1.312,3.852,1.949,8.208,1.949,13.094v2.54h-44.617c0.254,3.423,0.864,6.388,1.82,8.928c0.97,2.517,2.263,4.614,3.847,6.282
	c1.589,1.672,3.427,2.919,5.478,3.746c2.074,0.822,4.319,1.247,6.771,1.247c1.732,0,3.469-0.236,5.201-0.721
	c1.737-0.466,3.302-1.164,4.674-2.074c1.376-0.91,2.517-2.032,3.386-3.386c0.868-1.335,1.312-2.878,1.353-4.614h11.043
	c-0.466,3.072-1.418,5.778-2.901,8.148c-1.455,2.388-3.321,4.379-5.561,5.986c-2.263,1.607-4.845,2.831-7.783,3.681
	c-2.942,0.845-6.074,1.27-9.413,1.27L305.444,294.206z M320.991,257.395L320.991,257.395c-0.822-5.626-2.73-9.856-5.732-12.692
	c-3.002-2.859-6.642-4.295-10.937-4.295c-2.115,0-4.083,0.36-5.944,1.058s-3.515,1.755-4.974,3.173
	c-1.436,1.395-2.665,3.173-3.64,5.288c-0.993,2.134-1.709,4.614-2.115,7.464h33.343V257.395z"/>
<g>
</g>
<g>
</g>
<g>
</g>
<g>
</g>
<g>
</g>
<g>
</g>
<g>
</g>
<g>
</g>
<g>
</g>
<g>
</g>
<g>
</g>
<g>
</g>
<g>
</g>
<g>
</g>
<g>
</g>
</svg>
