<?xml version="1.0" encoding="iso-8859-1"?>
<!-- Generator: Adobe Illustrator 19.0.0, SVG Export Plug-In . SVG Version: 6.00 Build 0)  -->
<svg version="1.1" id="Layer_1" xmlns="http://www.w3.org/2000/svg" xmlns:xlink="http://www.w3.org/1999/xlink" x="0px" y="0px"
	 viewBox="0 0 512 512" style="enable-background:new 0 0 512 512;" xml:space="preserve">
<path style="fill:#0E7886;" d="M256,0.001c141.385,0,256,114.615,256,255.997c0,141.385-114.615,256-256,256
	c-141.388,0-256-114.615-256-256C0,114.616,114.615,0.001,256,0.001z"/>
<path style="fill:#15BDB1;" d="M145.603,155.073l31.245-4.575l8.632,4.575v180.263c0,41.087,33.755,74.837,74.84,74.837
	s74.837-33.753,74.837-74.837V155.073l31.245-4.575l8.632,4.575v180.263c0,63.096-51.618,114.712-114.712,114.712
	c-63.096,0-114.714-51.616-114.714-114.712V155.073H145.603z"/>
<path style="fill:#20D0C2;" d="M136.971,150.499h39.875v180.266c0,41.087,33.755,74.837,74.84,74.837
	c41.087,0,74.837-33.753,74.837-74.837V150.499h39.875v180.266c0,63.094-51.618,114.712-114.712,114.712h-0.003
	c-63.094,0-114.712-51.618-114.712-114.712V150.499z"/>
<g>
	<path style="fill:#FFFFFF;" d="M136.971,150.499h39.875v5.165v36.347h-39.875v-41.509V150.499z M326.522,192.008L326.522,192.008
		v-41.509h39.875v41.509H326.522z"/>
	<path style="fill:#FFFFFF;" d="M295.371,63.491l-84.469,115.305l39.51-6.508l-35.054,100.729l84.469-115.302l-39.51,6.505
		L295.371,63.491z"/>
</g>
<g>
	<path style="fill:#D0D1D4;" d="M176.846,150.499l8.632,4.575v40.35l-8.632-3.413v-41.509V150.499z"/>
	<path style="fill:#D0D1D4;" d="M366.4,150.499l8.632,4.575v40.35l-8.632-3.413v-41.509V150.499z"/>
</g>
<path style="fill:#FFFFFF;" d="M343.997,55.654v64.741h-3.562V55.654H343.997z M168.003,55.654L168.003,55.654v64.741h3.559V55.654
	H168.003z M158.582,81.301L158.582,81.301v52.617h3.562V81.301H158.582z M353.413,81.301L353.413,81.301v52.617h-3.562V81.301
	H353.413z"/>
<g>
</g>
<g>
</g>
<g>
</g>
<g>
</g>
<g>
</g>
<g>
</g>
<g>
</g>
<g>
</g>
<g>
</g>
<g>
</g>
<g>
</g>
<g>
</g>
<g>
</g>
<g>
</g>
<g>
</g>
</svg>
