<?xml version="1.0" encoding="iso-8859-1"?>
<!-- Generator: Adobe Illustrator 19.0.0, SVG Export Plug-In . SVG Version: 6.00 Build 0)  -->
<svg version="1.1" id="Layer_1" xmlns="http://www.w3.org/2000/svg" xmlns:xlink="http://www.w3.org/1999/xlink" x="0px" y="0px"
	 viewBox="0 0 512 512" style="enable-background:new 0 0 512 512;" xml:space="preserve">
<path style="fill:#5DDDD3;" d="M256,512c141.002,0,256-115.003,256-256S397.002,0,256,0S0,115.003,0,256
	C0,397.002,115.003,512,256,512z"/>
<path style="fill:#F06D64;" d="M164.216,375.723l-9.302-9.302l233.705-233.705l9.307,9.307L164.22,375.728L164.216,375.723z"/>
<path style="fill:#FF816F;" d="M144.766,356.278l10.983,10.979l233.705-233.705l-10.983-10.983L144.766,356.273V356.278z"/>
<path style="fill:#F06D64;" d="M145.607,357.114l-9.302-9.302L370.01,114.107l9.302,9.302L145.607,357.114z"/>
<path style="fill:#FED198;" d="M100.458,411.533l35.842-63.725l27.916,27.916L100.458,411.533z"/>
<path style="fill:#FFFFFF;" d="M397.921,142.018l-27.916-27.916l7.381-7.381l27.916,27.911l-7.381,7.381V142.018z"/>
<g>
	<path style="fill:#666666;" d="M412.683,112.499l-13.154-13.154c-4.055-4.06-10.702-4.06-14.757,0l-7.385,7.381l27.916,27.911
		l7.381-7.381C416.742,123.196,416.742,116.555,412.683,112.499z"/>
	<path style="fill:#666666;" d="M97.433,415.703l-1.164-1.164l17.616-26.904l10.411,10.411L97.433,415.703z"/>
</g>
<path style="fill:#F06D64;" d="M347.784,375.723l9.302-9.302L123.381,132.716l-9.302,9.307l233.705,233.705V375.723z"/>
<path style="fill:#FF816F;" d="M367.234,356.278l-10.983,10.979L122.545,133.552l10.983-10.983l233.705,233.705V356.278z"/>
<path style="fill:#F06D64;" d="M366.393,357.114l9.302-9.302L141.99,114.107l-9.307,9.302l233.705,233.705H366.393z"/>
<path style="fill:#FED198;" d="M411.542,411.533L375.7,347.807l-27.911,27.916l63.758,35.809H411.542z"/>
<path style="fill:#FFFFFF;" d="M114.079,142.018l27.911-27.916l-7.381-7.381l-27.911,27.911l7.381,7.381V142.018z"/>
<g>
	<path style="fill:#666666;" d="M99.317,112.499l13.154-13.154c4.06-4.06,10.702-4.06,14.757,0l7.381,7.381l-27.911,27.911
		l-7.381-7.381C95.262,123.196,95.258,116.555,99.317,112.499z"/>
	<path style="fill:#666666;" d="M414.562,415.703l1.164-1.164l-17.621-26.904l-10.411,10.411L414.562,415.703z"/>
	<path style="fill:#666666;" d="M376.134,233.927l2.919,58.621c-16.577,32.308-69.503,56.289-121.608,55.679
		c-49.656-0.582-98.648-24.267-112.116-54.095l-0.277-57.43L256,271.912l120.139-37.985H376.134z"/>
</g>
<path style="fill:#C8CACC;" d="M76.602,219.502v-3.067l179.393-69.106l179.393,69.106v3.067L255.995,292.16L76.602,219.502z"/>
<path style="fill:#FF816F;" d="M140.374,402.498l-8.217,52.599c-0.134,0.854,2.757,2.014,4.134,0.3
	c1.811,2.171,4.212,1.284,4.933-0.217c0.91,1.487,3.053,2.309,4.61,0.088c1.376,1.709,4.457,0.522,4.235-0.915l-8.161-51.901
	c-0.208-0.776-1.423-0.642-1.529,0.046H140.374z"/>
<path style="fill:#807D7D;" d="M76.602,216.436l179.393-71.217l179.393,71.217l-179.393,71.212L76.602,216.436z"/>
<path style="fill:#FFFFFF;" d="M257.224,215.715c1.085-0.323,2.226,0.296,2.55,1.376c0.323,1.085-0.296,2.226-1.381,2.55
	l-115.377,34.696v150.517c0,1.136-0.919,2.051-2.051,2.051c-1.132,0-2.051-0.919-2.051-2.051V252.813h0.005
	c0-0.882,0.573-1.7,1.464-1.963l116.846-35.135H257.224z"/>
<path style="fill:#FFBA1B;" d="M141.113,394.244c4.499,0,8.143,3.644,8.143,8.143s-3.644,8.143-8.143,8.143
	s-8.143-3.644-8.143-8.143S136.614,394.244,141.113,394.244z"/>
<path style="fill:#F5A209;" d="M147.713,400.314c0,3.409-2.166,6.309-5.196,7.399c-0.831,0.3-1.727,0.462-2.665,0.462
	c-0.051,0-0.102,0-0.152,0c-2.679-0.051-5.034-1.446-6.415-3.533c0.818,2.85,3.155,5.058,6.074,5.7
	c0.568,0.12,1.155,0.189,1.755,0.189c0.624,0,1.233-0.069,1.815-0.203c3.626-0.827,6.328-4.065,6.328-7.94
	c0-2.323-0.975-4.42-2.531-5.903c0.633,1.136,0.993,2.439,0.993,3.829H147.713z"/>
<g>
</g>
<g>
</g>
<g>
</g>
<g>
</g>
<g>
</g>
<g>
</g>
<g>
</g>
<g>
</g>
<g>
</g>
<g>
</g>
<g>
</g>
<g>
</g>
<g>
</g>
<g>
</g>
<g>
</g>
</svg>
