<?xml version="1.0" encoding="iso-8859-1"?>
<!-- Generator: Adobe Illustrator 19.0.0, SVG Export Plug-In . SVG Version: 6.00 Build 0)  -->
<svg version="1.1" id="Layer_1" xmlns="http://www.w3.org/2000/svg" xmlns:xlink="http://www.w3.org/1999/xlink" x="0px" y="0px"
	 viewBox="0 0 512 512" style="enable-background:new 0 0 512 512;" xml:space="preserve">
<path style="fill:#1A91A1;" d="M256.001,512C397,512,512,397,512,256.001C512,115,397,0,256.001,0C115.001,0,0,115,0,256.001
	C0,397,115.001,512,256.001,512z"/>
<path style="fill:#D0D1D4;" d="M314.869,128.279l-113.165-1.757c2.932,47.19-9.055,96.359-32.269,147.007l82.135,187.101
	l-4.433-162.867l-0.138-5.808c-4.732-3.199-7.829-8.862-7.732-15.277c0.153-9.815,7.751-17.648,16.975-17.507
	c9.225,0.142,16.578,8.209,16.426,18.027c-0.1,6.414-3.378,11.986-8.211,15.033l-0.315,5.798l-9.484,162.666l87.906-184.479
	C320.932,224.873,310.477,175.354,314.869,128.279L314.869,128.279z"/>
<path style="fill:#FFFFFF;" d="M259.358,127.417l-57.654-0.896c2.932,47.19-9.055,96.359-32.269,147.007l82.135,187.101
	l-4.433-162.867l-0.138-5.808c-4.732-3.199-7.829-8.862-7.732-15.277c0.153-9.815,7.751-17.648,16.975-17.507
	c0.494,0.008,0.98,0.038,1.457,0.089L259.358,127.417L259.358,127.417z M255.312,449.473L255.312,449.473l-0.127,10.115
	l-0.526,1.107L255.312,449.473L255.312,449.473z"/>
<path style="fill:#EC4B53;" d="M183.479,10.509l2.848,98.069l-0.129,8.128c-0.217,14.086,9.542,12.861,21.42,13.048l96.673,1.497
	c11.872,0.187,21.595,1.73,21.817-12.375l0.116-7.671l5.801-99.648C307.99,4.048,282.453,0,256.001,0
	C230.827,0,206.489,3.684,183.479,10.509L183.479,10.509z"/>
<path style="fill:#FF5B61;" d="M183.479,10.509l2.848,98.069l-0.129,8.126c-0.217,14.087,9.542,12.863,21.42,13.049l50.647,0.783
	l1.483-130.488C258.5,0.029,257.254,0,256.001,0C230.827,0,206.489,3.684,183.479,10.509L183.479,10.509z"/>
<g>
</g>
<g>
</g>
<g>
</g>
<g>
</g>
<g>
</g>
<g>
</g>
<g>
</g>
<g>
</g>
<g>
</g>
<g>
</g>
<g>
</g>
<g>
</g>
<g>
</g>
<g>
</g>
<g>
</g>
</svg>
