<?xml version="1.0" encoding="iso-8859-1"?>
<!-- Generator: Adobe Illustrator 19.0.0, SVG Export Plug-In . SVG Version: 6.00 Build 0)  -->
<svg version="1.1" id="Layer_1" xmlns="http://www.w3.org/2000/svg" xmlns:xlink="http://www.w3.org/1999/xlink" x="0px" y="0px"
	 viewBox="0 0 512 512" style="enable-background:new 0 0 512 512;" xml:space="preserve">
<path style="fill:#5DDDD3;" d="M256,0c141.385,0,256,114.615,256,256S397.385,512,256,512S0,397.385,0,256S114.615,0,256,0z"/>
<path style="fill:#FF816F;" d="M401.621,269.621c0.037,0.018,8.027,4.623,16.078,8.706c0.129-2.314,0.744-4.489,1.714-6.392
	c1.099-2.143,2.656-3.972,4.503-5.335c4.259-3.136,10.018-3.907,15.427-0.697c4.914,2.914,7.099,6.924,7.422,11.011
	c0.189,2.406-0.3,4.799-1.284,6.96c-0.938,2.06-2.346,3.949-4.046,5.473c-1.206,1.081-2.568,1.986-4.028,2.642
	c18.748,9.741,20.466-6.711,20.493-6.753c1.164-3.219,4.411-0.563,3.547,2.707c0.568-2.439-2.231,20.798-29.301,11.344
	c-5.104-2.845-8.651-6.083-10.956-9.413c-10.378-4.637-24.161-2.61-24.207-2.637L401.621,269.621z M427.416,282.872L427.416,282.872
	c1.418,0.577,2.684,1.03,3.727,1.321c1.399,0.379,3.03-0.291,4.355-1.483c0.771-0.688,1.418-1.557,1.848-2.503
	c0.383-0.85,0.577-1.741,0.513-2.591c-0.106-1.372-1.002-2.813-3.053-4.028c-1.986-1.178-4.078-0.915-5.607,0.212
	c-0.757,0.559-1.399,1.307-1.848,2.189c-0.471,0.919-0.748,1.986-0.762,3.132c-0.014,1.178,0.245,2.443,0.831,3.75H427.416z"/>
<path style="fill:#FF5B61;" d="M405.089,293.407c0,41.236-20.623,74.367-51.116,96.874l-1.764,54.552l-3.307,13.454l-21.08,0.956
	l13.302-17.736l-19.985-32.595c-35.089,14.956-76.261,18.918-113.419,9.51l-6.997,24.743l-5.547,14.969l-24.387,1.108l13.302-17.736
	l-10.937-36.548c-24.309-13.297-44.793-34.026-57.559-63.125c-17.487-0.947-33.472-1.39-39.999-3.071
	c-6.526-1.681-3.871-3.261-5.252-7.321l31.685-10.766l-34.322-0.984c-2.854-18.803-2.808-43.818-1.376-51.938
	c1.432-8.115,33.269-6.78,40.086-8.757C147.468,112.67,405.089,122.162,405.089,293.407z"/>
<path style="fill:#EC4B53;" d="M353.973,390.282l-1.764,54.552l-3.307,13.454l-21.08,0.956l13.302-17.736l-19.985-32.595
	c-35.089,14.956-76.261,18.918-113.419,9.51l-6.997,24.743l-5.547,14.969l-24.387,1.108l13.302-17.736l-10.937-36.548
	c-24.309-13.297-44.793-34.026-57.559-63.125c83.798,119.432,294.807,76.644,284.803-86.311c3.039,11.602,4.688,24.225,4.688,37.888
	c0,41.236-20.623,74.367-51.116,96.874L353.973,390.282z"/>
<path style="fill:#FF5B61;" d="M120.906,172.65l2.859,63.799l57.277-1.718c-13.718-30.188-34.599-49.629-60.141-62.076
	L120.906,172.65z"/>
<g>
	<path style="fill:#EC4B53;" d="M120.906,172.65c0,0,10.619,14.046,13.667,35.384c3.044,21.343-10.808,28.415-10.808,28.415
		L120.906,172.65z"/>
	<path style="fill:#EC4B53;" d="M132.055,243.737c10.753,0,19.468,8.72,19.468,19.473s-8.72,19.468-19.468,19.468
		c-10.753,0-19.473-8.72-19.473-19.468C112.583,252.457,121.303,243.737,132.055,243.737z"/>
</g>
<path style="fill:#FFFFFF;" d="M132.055,245.538c9.755,0,17.667,7.912,17.667,17.671c0,9.755-7.912,17.667-17.667,17.667
	c-9.759,0-17.671-7.912-17.671-17.667S122.296,245.538,132.055,245.538z"/>
<path style="fill:#807D7D;" d="M133.413,248.25c4.319,0,7.82,3.501,7.82,7.82s-3.501,7.82-7.82,7.82c-4.319,0-7.82-3.501-7.82-7.82
	S129.095,248.25,133.413,248.25z"/>
<path style="fill:#EC4B53;" d="M327.642,183.906l7.021,13.51c-39.911-20.23-109.885-20.512-146.979-3.358l5.33-12.909
	c38.331-16.979,96.297-15.972,134.623,2.757H327.642z"/>
<path style="fill:#ECF0F1;" d="M189.785,110.887c0-37.874,30.706-68.58,68.58-68.58s68.579,30.706,68.579,68.58
	s-30.701,68.58-68.579,68.58C220.491,179.467,189.785,148.761,189.785,110.887z"/>
<path style="fill:#FFFFFF;" d="M199.018,110.887c0-32.775,26.567-59.342,59.347-59.342c32.775,0,59.342,26.567,59.342,59.342
	s-26.567,59.347-59.342,59.347S199.018,143.667,199.018,110.887z"/>
<g>
	<path style="fill:#807D7D;" d="M258.365,66.436c1.815,0,3.298,1.483,3.298,3.298v37.463h-6.6V69.734
		c0-1.815,1.487-3.298,3.298-3.298H258.365z"/>
	<path style="fill:#807D7D;" d="M295.638,112.135c-0.166,2.3-2.189,4.125-4.499,4.06l-32.779-0.933l0.605-8.36l32.779,0.933
		c2.309,0.065,4.055,2,3.889,4.3H295.638z"/>
</g>
<path style="fill:#FF5B61;" d="M228.135,147.699l-2.568-2.332l31.144-34.257l2.568,2.332L228.135,147.699z"/>
<path style="fill:#EC4B53;" d="M258.365,102.246c4.776,0,8.646,3.871,8.646,8.642c0,4.776-3.871,8.646-8.646,8.646
	c-4.776,0-8.646-3.871-8.646-8.646S253.589,102.246,258.365,102.246z"/>
<g>
	<path style="fill:#FF5B61;" d="M257.954,102.578c4.319,0,7.824,3.506,7.824,7.824s-3.506,7.824-7.824,7.824
		c-4.323,0-7.824-3.501-7.824-7.824C250.13,106.084,253.631,102.578,257.954,102.578z"/>
	<path style="fill:#FF5B61;" d="M257.058,58.515h2.61v4.988h-2.61V58.515z"/>
	<path style="fill:#FF5B61;" d="M205.988,112.19v-2.61h4.988v2.61H205.988z"/>
	<path style="fill:#FF5B61;" d="M259.667,163.26h-2.61v-4.988h2.61V163.26z"/>
	<path style="fill:#FF5B61;" d="M310.737,109.585v2.61h-4.988v-2.61H310.737z"/>
</g>
<g>
	<path style="fill:#807D7D;" d="M242.005,62.127l0.901-0.291l0.956,2.947l-0.901,0.296l-0.956-2.947V62.127z"/>
	<path style="fill:#807D7D;" d="M227.719,69.568l0.767-0.554l1.824,2.508l-0.767,0.559l-1.82-2.508L227.719,69.568z"/>
	<path style="fill:#807D7D;" d="M216.431,81.069l0.554-0.767l2.503,1.82l-0.554,0.767L216.431,81.069z"/>
	<path style="fill:#807D7D;" d="M209.249,95.488l0.296-0.901l2.947,0.956l-0.291,0.901l-2.947-0.956H209.249z"/>
	<path style="fill:#807D7D;" d="M209.54,127.307l-0.291-0.901l2.947-0.956l0.291,0.901L209.54,127.307z"/>
	<path style="fill:#807D7D;" d="M216.99,141.593l-0.554-0.767l2.503-1.82l0.554,0.767L216.99,141.593z"/>
	<path style="fill:#807D7D;" d="M228.481,152.881l-0.762-0.559l1.82-2.503l0.767,0.554L228.481,152.881z"/>
	<path style="fill:#807D7D;" d="M242.901,160.059l-0.896-0.291l0.956-2.947l0.901,0.296l-0.956,2.947L242.901,160.059z"/>
	<path style="fill:#807D7D;" d="M274.724,159.768l-0.901,0.291l-0.956-2.947l0.901-0.291L274.724,159.768z"/>
	<path style="fill:#807D7D;" d="M289.01,152.322l-0.767,0.554l-1.82-2.508l0.767-0.554l1.824,2.508H289.01z"/>
	<path style="fill:#807D7D;" d="M300.294,140.826l-0.554,0.767l-2.508-1.824l0.554-0.762L300.294,140.826z"/>
	<path style="fill:#807D7D;" d="M307.476,126.407l-0.296,0.901l-2.947-0.956l0.291-0.901l2.947,0.956H307.476z"/>
	<path style="fill:#807D7D;" d="M307.185,94.588l0.291,0.901l-2.947,0.956l-0.291-0.896l2.947-0.956V94.588z"/>
	<path style="fill:#807D7D;" d="M299.74,80.302l0.554,0.767l-2.503,1.82l-0.554-0.767l2.503-1.824V80.302z"/>
	<path style="fill:#807D7D;" d="M288.244,69.014l0.767,0.554l-1.82,2.508l-0.767-0.554l1.824-2.508H288.244z"/>
	<path style="fill:#807D7D;" d="M273.824,61.836l0.901,0.291l-0.956,2.947l-0.901-0.291L273.824,61.836z"/>
</g>
<g>
</g>
<g>
</g>
<g>
</g>
<g>
</g>
<g>
</g>
<g>
</g>
<g>
</g>
<g>
</g>
<g>
</g>
<g>
</g>
<g>
</g>
<g>
</g>
<g>
</g>
<g>
</g>
<g>
</g>
</svg>
