<?xml version="1.0" encoding="iso-8859-1"?>
<!-- Generator: Adobe Illustrator 19.0.0, SVG Export Plug-In . SVG Version: 6.00 Build 0)  -->
<svg version="1.1" id="Layer_1" xmlns="http://www.w3.org/2000/svg" xmlns:xlink="http://www.w3.org/1999/xlink" x="0px" y="0px"
	 viewBox="0 0 512 512" style="enable-background:new 0 0 512 512;" xml:space="preserve">
<path style="fill:#FFCA4F;" d="M256.001,0C397.385,0,512,114.614,512,255.999C512,397.385,397.385,512,256.001,512
	C114.616,512,0,397.385,0,255.999C0,114.614,114.616,0,256.001,0z"/>
<path style="fill:#20D0C2;" d="M44.223,49.819h423.552v277.315H44.223V49.819z"/>
<path style="fill:#DFE1E3;" d="M459.456,49.819H256v265.943h203.456V49.819z"/>
<path style="fill:#FFFFFF;" d="M452.255,49.819c-65.419,0-127.901-27.894-196.255,0v249.114h196.255V49.819z"/>
<path style="fill:#DFE1E3;" d="M52.543,49.819H256v265.943H52.543V49.819z"/>
<path style="fill:#FFFFFF;" d="M59.744,49.819c65.419,0,159.954-27.412,196.256,0v249.114H59.744V49.819z"/>
<path style="fill:#ECF0F1;" d="M252.672,49.819h6.654v249.114h-6.654V49.819z"/>
<path style="fill:#FBB429;" d="M76.516,63.609h104.78v14.395H76.516V63.609z"/>
<path style="fill:#C3CCCF;" d="M76.516,149.009h151.486v4.704H76.516V149.009z M278.384,149.009L278.384,149.009H429.87v4.704
	H278.384V149.009z M278.384,86.963L278.384,86.963H429.87v4.704H278.384V86.963z M278.384,134.4L278.384,134.4h66.328v4.703h-66.328
	V134.4z M278.384,124.913L278.384,124.913H429.87v4.702H278.384V124.913z M278.384,115.425L278.384,115.425H429.87v4.702H278.384
	V115.425z M278.384,105.939L278.384,105.939h66.328v4.703h-66.328V105.939z M278.384,96.45L278.384,96.45H429.87v4.704H278.384
	V96.45z M278.384,158.497L278.384,158.497H379.97v4.702H278.384V158.497z M76.516,86.963L76.516,86.963h151.486v4.704H76.516V86.963
	z M76.516,134.4L76.516,134.4h66.329v4.703H76.516V134.4z M76.516,124.913L76.516,124.913h151.486v4.702H76.516V124.913z
	 M76.516,115.425L76.516,115.425h151.486v4.702H76.516V115.425z M76.516,105.939L76.516,105.939h151.486v4.703H76.516V105.939z
	 M76.516,96.45L76.516,96.45h151.486v4.704H76.516V96.45z M76.516,196.445L76.516,196.445h52.138v4.704H76.516V196.445z
	 M76.516,186.958L76.516,186.958h151.486v4.703H76.516V186.958z M76.516,177.471L76.516,177.471h151.486v4.703H76.516V177.471z
	 M76.516,167.985L76.516,167.985h151.486v4.702H76.516V167.985z M76.516,158.497L76.516,158.497h151.486v4.702H76.516V158.497z"/>
<path style="fill:#FED198;" d="M102.906,312.121l-4.947,132.039c19.485,5.652,41.356,10.068,64.586,13.239
	c3.764-0.284,7.496-0.665,11.197-1.141l-6.056-146.673c6.465-3.033,15.169-10.523,17.083-15.907l0.019,0.032l38.765-53.515
	c3.138-4.332,2.161-10.446-2.171-13.583h-0.001c-4.333-3.141-9.489-1.274-13.585,2.17l-25.23,21.231l-3.664-32.435l1.409-54.189
	c0.139-5.449-4.202-10.023-9.65-10.164c-5.447-0.143-10.023,4.199-10.163,9.647l-1.426,54.876l-3.163,0.112l1.946-74.885
	c0.139-5.447-4.203-10.021-9.649-10.163c-5.449-0.139-10.023,4.202-10.166,9.649l-1.976,76.092l-3.165,0.111l1.675-64.456
	c0.142-5.447-4.199-10.022-9.65-10.163c-5.447-0.143-10.019,4.202-10.162,9.649l-1.707,65.661l-3.164,0.11l1.232-47.368
	c0.142-5.448-4.2-10.021-9.648-10.162c-5.451-0.142-10.023,4.199-10.163,9.647l-1.262,48.577l-0.34,6.761l2.45,62.568
	c0.335,8.491,3.754,15.677,7.507,19.841C100.74,310.519,101.84,311.464,102.906,312.121L102.906,312.121z"/>
<path style="fill:#666666;" d="M176.353,344.706l-79.724-0.918L88.136,449.28c25.992,22.593,56.587,40.018,90.185,50.705
	L176.353,344.706z"/>
<path style="fill:#FFFFFF;" d="M174.059,330.492l-74.857-1.238l-0.074,14.489l74.858,1.235L174.059,330.492L174.059,330.492z"/>
<path style="fill:#C8CACC;" d="M113.825,359.929c-4.116-0.038-7.484,3.183-7.525,7.19c-0.042,4.011,3.261,7.293,7.376,7.331
	c4.115,0.04,7.482-3.179,7.525-7.188C121.241,363.251,117.94,359.969,113.825,359.929L113.825,359.929z"/>
<g>
	<path style="fill:#FFFFFF;" d="M164.085,161.359l-0.314,8.551l13.315,0.317l0.315-8.548
		C177.649,154.949,163.664,154.692,164.085,161.359z"/>
	<path style="fill:#FFFFFF;" d="M141.494,141.588l-0.314,8.549l13.316,0.316l0.314-8.548
		C155.057,135.175,141.073,134.919,141.494,141.588L141.494,141.588z"/>
	<path style="fill:#FFFFFF;" d="M117.821,152.077l-0.315,8.551l13.316,0.317l0.315-8.548
		C131.385,145.667,117.399,145.41,117.821,152.077z"/>
	<path style="fill:#FFFFFF;" d="M93.985,170.642l-0.316,8.549l13.316,0.317l0.315-8.548
		C107.547,164.23,93.563,163.973,93.985,170.642L93.985,170.642z"/>
	<path style="fill:#FFFFFF;" d="M213.089,229.398l-7.385,7.266l9.395,9.439l7.385-7.267
		C227.281,234.113,217.85,224.71,213.089,229.398L213.089,229.398z"/>
</g>
<path style="fill:#FED198;" d="M283.542,199.676c4.341-3.145,9.51-1.277,13.613,2.177l25.472,21.433l1.901-6.406l1.848-15.899
	l-0.898-34.591l-0.783-34.875c-0.123-5.46,4.209-10.186,9.671-10.186c5.462,0,10.051,4.211,10.182,9.667L346,190.797l2.637,0.093
	l-0.941-13.938c-0.368-5.451,4.208-10.044,9.668-10.184c5.458-0.143,9.815,4.22,10.182,9.666l1.024,15.152l2.987,0.104l-0.832-9.764
	c-0.463-5.441,4.209-10.183,9.667-10.183h0.005c5.46,0,9.716,4.228,10.182,9.667l0.937,10.978l3.58,0.125l-0.243-5.606
	c-0.233-5.454,4.208-10.184,9.669-10.184c5.46,0,9.949,4.215,10.184,9.669l0.5,11.621l0.272,1.975l-2.454,62.692
	c-0.334,8.51-3.759,15.71-7.522,19.884c-1.076,1.193-2.181,2.139-3.248,2.797l3.982,106.281
	c-14.875,4.043-30.519,6.216-46.676,6.216c-9.138,0-18.115-0.695-26.884-2.026l4.668-113.014
	c-6.478-3.038-15.202-10.543-17.12-15.937l-0.017,0.032l-38.843-53.623C278.222,208.947,279.199,202.82,283.542,199.676
	L283.542,199.676z"/>
<path style="fill:#666666;" d="M328.662,318.012l79.884-0.921l11.901,135.091c-26.963,22.626-58.656,39.795-93.381,49.812
	L328.662,318.012z"/>
<path style="fill:#FFFFFF;" d="M330.957,303.768l75.01-1.24l0.073,14.519l-75.009,1.239L330.957,303.768L330.957,303.768z"/>
<path style="fill:#C8CACC;" d="M391.312,333.265c4.124-0.037,7.5,3.189,7.543,7.207c0.041,4.016-3.269,7.306-7.392,7.344
	c-4.122,0.04-7.496-3.186-7.539-7.202C383.883,336.595,387.191,333.308,391.312,333.265L391.312,333.265z"/>
<path style="fill:#FFFFFF;" d="M340.952,127.896l0.315,8.567l-13.344,0.318l-0.314-8.566
	C327.361,121.474,341.374,121.216,340.952,127.896L340.952,127.896z M291.851,200.449L291.851,200.449l7.399,7.28l-9.415,9.461
	l-7.4-7.281C277.63,205.172,287.08,195.752,291.851,200.449L291.851,200.449z"/>
<g>
</g>
<g>
</g>
<g>
</g>
<g>
</g>
<g>
</g>
<g>
</g>
<g>
</g>
<g>
</g>
<g>
</g>
<g>
</g>
<g>
</g>
<g>
</g>
<g>
</g>
<g>
</g>
<g>
</g>
</svg>
