<?xml version="1.0" encoding="utf-8"?>
<!-- Generator: Adobe Illustrator 19.0.0, SVG Export Plug-In . SVG Version: 6.00 Build 0)  -->
<svg version="1.0" id="Capa_1" xmlns="http://www.w3.org/2000/svg" xmlns:xlink="http://www.w3.org/1999/xlink" x="0px" y="0px"
	 viewBox="0 0 428.8 388" style="enable-background:new 0 0 428.8 388;" xml:space="preserve">
<style type="text/css">
	.st0{display:none;fill:#FFFFFF;stroke:#000000;stroke-miterlimit:10;}
	.st1{fill:#FFFFFF;}
	.st2{display:none;fill:#00E9C5;}
	.st3{display:none;fill:#4CA2E8;}
	.st4{display:none;fill:#00A7AA;}
	.st5{display:none;fill:url(#XMLID_6_);}
	.st6{display:none;}
	.st7{display:inline;fill:#444444;}
	.st8{display:none;fill:none;stroke:#000000;stroke-miterlimit:10;}
</style>
<polyline id="XMLID_1_" class="st0" points="94.2,356.7 228.8,29.3 363.5,356.7 "/>
<path id="XMLID_27_" class="st1" d="M334.3,382c-1.3,0-2.6-0.3-3.9-0.8L287,362.9c-2.4-1-4.4-3-5.4-5.4l-99.8-243.7
	c-1-2.4-1-5.2,0-7.6l17.7-42.9c1.5-3.7,5.2-6.2,9.2-6.2s7.7,2.4,9.2,6.2l125.4,304.9c1.5,3.7,0.7,8.1-2.2,10.9
	C339.4,381,336.8,382,334.3,382z"/>
<path id="XMLID_21_" class="st2" d="M326.3,372l-43.3-18.3L183.2,110l17.7-42.9"/>
<path id="XMLID_26_" class="st1" d="M54,382.4c-1.6,0-3.2-0.4-4.6-1.1l-38.5-19.9c-4.6-2.4-6.6-7.9-4.6-12.8L148,11.1
	c1.6-3.7,5.2-6.1,9.2-6.1h43.7c3.3,0,6.5,1.7,8.3,4.4c1.9,2.8,2.2,6.3,0.9,9.4L63.2,376.2c-1.1,2.6-3.2,4.6-5.8,5.6
	C56.3,382.2,55.1,382.4,54,382.4z"/>
<path id="XMLID_23_" class="st3" d="M54,372.4l-38.5-19.9L157.2,15h43.7"/>
<path id="XMLID_28_" class="st1" d="M358.3,363c-4,0-7.6-2.6-9.2-6.3l-22.6-54.2c-1-2.4-1-5.2,0-7.7l40.8-100.2
	c0.8-1.9,2.1-3.6,3.9-4.7l37.3-23.8c1.6-1,3.5-1.6,5.4-1.6c1.7,0,3.3,0.4,4.8,1.2c3.2,1.8,5.2,5.1,5.2,8.8v48.9
	c0,1.4-0.3,2.7-0.8,3.9c0,0-37,86.3-55.5,129.3C365.9,360.4,362.3,363,358.3,363C358.3,363,358.3,363,358.3,363z"/>
<path id="XMLID_20_" class="st4" d="M317.7,298.5l40.7-100.2l37.3-23.8v48.9c0,0-37,86.1-55.5,129.1"/>
<path id="XMLID_32_" class="st1" d="M116.6,304.2c-2.3,0-4.5-0.9-6.2-2.5c-2.5-2.4-3.3-6.1-2-9.3l21.3-56.5c0.8-2,2.3-3.7,4.2-4.7
	l65.5-33.8c1.3-0.7,2.6-1,4-1c1,0,2.1,0.2,3.1,0.6c2.3,0.9,4.2,2.7,5.1,5l19.5,48.8c0.9,2.2,0.8,4.6-0.1,6.7
	c-0.9,2.1-2.7,3.8-4.9,4.7l-106.3,41.5C118.7,304,117.6,304.2,116.6,304.2z"/>
<linearGradient id="XMLID_6_" gradientUnits="userSpaceOnUse" x1="105.7793" y1="244.6989" x2="226.7763" y2="244.6989">
	<stop  offset="0" style="stop-color:#4CA2E8"/>
	<stop  offset="1" style="stop-color:#00A7AA"/>
</linearGradient>
<path id="XMLID_25_" class="st5" d="M105.8,296.1l24.3-64.3l74.6-38.5l22.2,55.5"/>
<rect id="XMLID_54_" x="539.1" y="19.7" style="fill:none;" width="1182.3" height="353.1"/>
<text id="XMLID_53_" transform="matrix(1 0 0 1 539.0873 285.6799)" style="display:none;fill:#444444; font-family:'Futura-Medium'; font-size:302px;">Appunta</text>
<path id="XMLID_18_" class="st8" d="M441.6,57.1C474,103,493,159,493,219.5c0,155.9-126.4,282.2-282.2,282.2S-71.4,375.4-71.4,219.5
	S55-62.7,210.8-62.7c47.7,0,92.6,11.8,132,32.7"/>
</svg>
