<?xml version="1.0" encoding="utf-8"?>
<!-- Generator: Adobe Illustrator 19.0.0, SVG Export Plug-In . SVG Version: 6.00 Build 0)  -->
<svg version="1.1" id="Layer_1" xmlns="http://www.w3.org/2000/svg" xmlns:xlink="http://www.w3.org/1999/xlink" x="0px" y="0px"
	 viewBox="-877 2579.3 512 512" style="enable-background:new -877 2579.3 512 512;" xml:space="preserve">
<style type="text/css">
	.st0{fill:#EFA467;}
	.st1{fill:#5DDDD3;}
	.st2{fill:#FFFFFF;}
	.st3{fill:#FF757C;}
	.st4{fill:#ECF0F1;}
</style>
<path class="st0" d="M-621,3091.3c141,0,256-115,256-256s-115-256-256-256c-141,0-256,115-256,256S-762,3091.3-621,3091.3z"/>
<path class="st1" d="M-723.9,2714.8v282.6l62.2-54.6v-282.6h-8.1l-4.3,3.3H-715l0-3.3l-6.7,0.1l-62.2,54.6L-723.9,2714.8
	L-723.9,2714.8z"/>
<path class="st2" d="M-775.3,2714.8h44.4l56.9-51.3h-44.4L-775.3,2714.8z"/>
<path class="st3" d="M-708.2,2701l-7.4-0.1l-15.4,13.9h-44.4l16.1-14.6l-8-0.1l-16.7,14.7v282.6h60l15.7-13.8L-708.2,2701
	L-708.2,2701z"/>
<path class="st4" d="M-627.3,2714.8v282.6l62.2-54.6v-282.6v0h-8.1l-4.3,3.3h-40.9l0-3.3l-6.7,0.1l-62.2,54.6L-627.3,2714.8
	L-627.3,2714.8L-627.3,2714.8L-627.3,2714.8z"/>
<path class="st2" d="M-678.8,2714.8h44.4l56.9-51.3h-44.4L-678.8,2714.8z"/>
<path class="st3" d="M-611.6,2701l-7.4-0.1l-15.4,13.9h-44.4l16.1-14.6l-8-0.1l-16.7,14.7v282.6h60l15.7-13.8L-611.6,2701
	L-611.6,2701z"/>
<path class="st1" d="M-496.1,2650.1l-46,68.8l72.7,273.1l46-68.8L-496.1,2650.1l-7.8,2.1l-3.3,4.3l-39.5,10.5l-0.9-3.2l-6.5,1.8
	l-46,68.8l58-15.4L-496.1,2650.1z"/>
<path class="st2" d="M-591.8,2732.2l42.9-11.4l41.7-64.2l-42.9,11.4L-591.8,2732.2L-591.8,2732.2L-591.8,2732.2z"/>
<path class="st3" d="M-530.5,2701.5l-7.1,1.8l-11.3,17.4l-42.9,11.4l11.8-18.2l-7.7,1.9l-12.4,18.5l72.7,273.1l58-15.4l11.6-17.4
	L-530.5,2701.5L-530.5,2701.5z"/>
<g>
	<path class="st2" d="M-482.6,2726l-3.7-13.9l-25.7,42.1l3.6,13.9L-482.6,2726L-482.6,2726z"/>
	<path class="st2" d="M-496.5,2718.2l-1.9-9l-17.4,28.4l1.9,9L-496.5,2718.2L-496.5,2718.2L-496.5,2718.2z"/>
</g>
</svg>
