<?xml version="1.0" encoding="iso-8859-1"?>
<!-- Generator: Adobe Illustrator 19.0.0, SVG Export Plug-In . SVG Version: 6.00 Build 0)  -->
<svg version="1.1" id="Layer_1" xmlns="http://www.w3.org/2000/svg" xmlns:xlink="http://www.w3.org/1999/xlink" x="0px" y="0px"
	 viewBox="0 0 508 508" style="enable-background:new 0 0 508 508;" xml:space="preserve">
<circle style="fill:#84DBFF;" cx="254" cy="254" r="254"/>
<g>
	<rect x="123.6" y="161.6" style="fill:#E6E9EE;" width="260.8" height="12.4"/>
	<rect x="123.6" y="250.8" style="fill:#E6E9EE;" width="260.8" height="12.4"/>
	<rect x="123.6" y="340.4" style="fill:#E6E9EE;" width="260.8" height="12.4"/>
</g>
<path style="fill:#54C0EB;" d="M51.2,407.2C97.6,468.4,171.2,508,254,508s156.4-39.6,202.8-100.8H51.2z"/>
<g>
	<path style="fill:#FFFFFF;" d="M395.6,407.2h-18.8c-2.4,0-4.4-2-4.4-4.4V111.6c0-2.4,2-4.4,4.4-4.4h18.8c2.4,0,4.4,2,4.4,4.4v291.2
		C400,405.2,398,407.2,395.6,407.2z"/>
	<path style="fill:#FFFFFF;" d="M131.2,407.2h-18.8c-2.4,0-4.4-2-4.4-4.4V111.6c0-2.4,2-4.4,4.4-4.4h18.8c2.4,0,4.4,2,4.4,4.4v291.2
		C135.6,405.2,133.6,407.2,131.2,407.2z"/>
</g>
<circle style="fill:#FF7058;" cx="166.4" cy="167.6" r="20.8"/>
<ellipse transform="matrix(-0.7071 -0.7072 0.7072 -0.7071 153.1594 377.8329)" style="fill:#FFFFFF;" cx="154.839" cy="157.193" rx="1.6" ry="4"/>
<circle style="fill:#FF7058;" cx="208" cy="167.6" r="20.8"/>
<ellipse transform="matrix(-0.7071 -0.7072 0.7072 -0.7071 224.1884 407.1144)" style="fill:#FFFFFF;" cx="196.419" cy="157.122" rx="1.6" ry="4"/>
<circle style="fill:#FF7058;" cx="249.6" cy="167.6" r="20.8"/>
<ellipse transform="matrix(-0.7071 -0.7072 0.7072 -0.7071 295.1949 436.4504)" style="fill:#FFFFFF;" cx="237.998" cy="157.082" rx="1.6" ry="4"/>
<circle style="fill:#324A5E;" cx="253.6" cy="257.2" r="20.8"/>
<ellipse transform="matrix(-0.7071 -0.7072 0.7072 -0.7071 238.6371 591.5287)" style="fill:#FFFFFF;" cx="241.84" cy="246.336" rx="1.6" ry="4"/>
<circle style="fill:#324A5E;" cx="295.2" cy="257.2" r="20.8"/>
<ellipse transform="matrix(-0.7071 -0.7072 0.7072 -0.7071 309.0003 621.052)" style="fill:#FFFFFF;" cx="283.137" cy="246.524" rx="1.6" ry="4"/>
<circle style="fill:#324A5E;" cx="336.8" cy="257.2" r="20.8"/>
<ellipse transform="matrix(-0.7071 -0.7071 0.7071 -0.7071 379.9857 650.3459)" style="fill:#FFFFFF;" cx="324.684" cy="246.475" rx="1.6" ry="4"/>
<circle style="fill:#FFD05B;" cx="200.4" cy="346.4" r="20.8"/>
<ellipse transform="matrix(-0.7071 -0.7071 0.7071 -0.7071 84.017 706.8969)" style="fill:#FFFFFF;" cx="188.412" cy="336.048" rx="1.6" ry="4"/>
<circle style="fill:#FFD05B;" cx="242" cy="346.4" r="20.8"/>
<ellipse transform="matrix(-0.7071 -0.7071 0.7071 -0.7071 155.0337 736.2103)" style="fill:#FFFFFF;" cx="229.991" cy="335.997" rx="1.6" ry="4"/>
<circle style="fill:#FFD05B;" cx="283.2" cy="346.4" r="20.8"/>
<ellipse transform="matrix(-0.7071 -0.7072 0.7072 -0.7071 226.0417 765.581)" style="fill:#FFFFFF;" cx="271.594" cy="335.971" rx="1.6" ry="4"/>
<g>
</g>
<g>
</g>
<g>
</g>
<g>
</g>
<g>
</g>
<g>
</g>
<g>
</g>
<g>
</g>
<g>
</g>
<g>
</g>
<g>
</g>
<g>
</g>
<g>
</g>
<g>
</g>
<g>
</g>
</svg>
