<?xml version="1.0" encoding="iso-8859-1"?>
<!-- Generator: Adobe Illustrator 19.0.0, SVG Export Plug-In . SVG Version: 6.00 Build 0)  -->
<svg version="1.1" id="Layer_1" xmlns="http://www.w3.org/2000/svg" xmlns:xlink="http://www.w3.org/1999/xlink" x="0px" y="0px"
	 viewBox="0 0 508 508" style="enable-background:new 0 0 508 508;" xml:space="preserve">
<circle style="fill:#90DFAA;" cx="254" cy="254" r="254"/>
<path style="fill:#2C9984;" d="M85.2,444c44.8,40,104,64,168.8,64s123.6-24.4,168.8-64H85.2z"/>
<g>
	
		<rect x="355.868" y="132.439" transform="matrix(-0.7071 -0.7071 0.7071 -0.7071 508.9976 532.9117)" style="fill:#2B3B4E;" width="18" height="57.199"/>
	
		<rect x="134.093" y="132.072" transform="matrix(0.7071 -0.7071 0.7071 0.7071 -71.7014 148.242)" style="fill:#2B3B4E;" width="18" height="57.199"/>
	<path style="fill:#2B3B4E;" d="M344.4,432.4l-49.6-65.6l-30,12.8l38.4,61.2c1.2,2,3.6,3.2,6,3.2h29.2
		C344.4,443.6,347.6,437.2,344.4,432.4z"/>
	<path style="fill:#2B3B4E;" d="M204.4,440.4l38.4-61.2l-30-12.8l-49.2,66c-3.6,4.4,0,11.2,5.6,11.2h29.2
		C201.2,443.6,203.2,442.4,204.4,440.4z"/>
</g>
<circle style="fill:#324A5E;" cx="254" cy="264.4" r="145.6"/>
<circle style="fill:#FFFFFF;" cx="254" cy="264.4" r="117.6"/>
<g>
	<rect x="250.8" y="160.4" style="fill:#84DBFF;" width="6.4" height="19.6"/>
	<rect x="250.8" y="348.8" style="fill:#84DBFF;" width="6.4" height="19.6"/>
	<rect x="338.4" y="261.2" style="fill:#84DBFF;" width="19.6" height="6.4"/>
	<rect x="150" y="261.2" style="fill:#84DBFF;" width="19.6" height="6.4"/>
	
		<rect x="197.243" y="179.686" transform="matrix(0.5 0.866 -0.866 0.5 261.9021 -87.8624)" style="fill:#84DBFF;" width="19.6" height="6.4"/>
	
		<rect x="291.228" y="342.962" transform="matrix(0.5 0.866 -0.866 0.5 450.2935 -87.6188)" style="fill:#84DBFF;" width="19.6" height="6.4"/>
	
		<rect x="325.669" y="214.438" transform="matrix(-0.866 0.5 -0.5 -0.866 734.8116 238.378)" style="fill:#84DBFF;" width="19.6" height="6.4"/>
	
		<rect x="162.764" y="308.318" transform="matrix(-0.866 0.5 -0.5 -0.866 477.7692 495.0141)" style="fill:#84DBFF;" width="19.6" height="6.4"/>
	
		<rect x="162.657" y="214.126" transform="matrix(0.866 0.5 -0.5 0.866 131.7715 -57.1125)" style="fill:#84DBFF;" width="19.6" height="6.4"/>
	
		<rect x="325.812" y="308.483" transform="matrix(0.866 0.5 -0.5 0.866 200.8102 -126.05)" style="fill:#84DBFF;" width="19.6" height="6.4"/>
	
		<rect x="291.367" y="179.962" transform="matrix(-0.5 0.866 -0.866 -0.5 610.3759 13.9284)" style="fill:#84DBFF;" width="19.6" height="6.4"/>
	
		<rect x="197.108" y="342.766" transform="matrix(-0.5 0.866 -0.866 -0.5 609.9774 339.7665)" style="fill:#84DBFF;" width="19.6" height="6.4"/>
</g>
<circle style="fill:#324A5E;" cx="254" cy="264.4" r="11.6"/>
<g>
	<path style="fill:#FF7058;" d="M416.4,196.8c20-24.4,18.8-60.4-4-83.2s-58.8-24-83.2-4L416.4,196.8z"/>
	<path style="fill:#FF7058;" d="M91.6,196.8c-20-24.4-18.8-60.4,4-83.2s58.8-24,83.2-4L91.6,196.8z"/>
</g>
<g>
</g>
<g>
</g>
<g>
</g>
<g>
</g>
<g>
</g>
<g>
</g>
<g>
</g>
<g>
</g>
<g>
</g>
<g>
</g>
<g>
</g>
<g>
</g>
<g>
</g>
<g>
</g>
<g>
</g>
</svg>
