<?xml version="1.0" encoding="iso-8859-1"?>
<!-- Generator: Adobe Illustrator 19.0.0, SVG Export Plug-In . SVG Version: 6.00 Build 0)  -->
<svg version="1.1" id="Layer_1" xmlns="http://www.w3.org/2000/svg" xmlns:xlink="http://www.w3.org/1999/xlink" x="0px" y="0px"
	 viewBox="0 0 508 508" style="enable-background:new 0 0 508 508;" xml:space="preserve">
<circle style="fill:#84DBFF;" cx="254" cy="254" r="254"/>
<path style="fill:#FFD05B;" d="M228.8,130.4c17.6,23.6,25.2,56.4,16.4,90c20-28.4,27.6-66.8,16.4-105.6
	C250.4,120,239.6,125.2,228.8,130.4z"/>
<path style="fill:#FF7058;" d="M332.4,164c-12.8-0.8-25.6,2-38,7.6c-25.2,12-55.6,12-80.8,0c-12-6-24.8-8.4-38-7.6
	c-52.4,3.6-86.4,66.4-76,140s61.2,130.4,113.6,126.8c5.2-0.4,10-1.2,14.8-2.8c16.8-5.2,35.2-5.2,52,0c4.8,1.6,9.6,2.4,14.8,2.8
	c52.4,3.6,103.2-53.2,113.6-126.8C418.4,230.4,384.4,168,332.4,164z"/>
<path style="fill:#324A5E;" d="M354.4,78L354.4,78c-50.8-8-86,26.8-77.6,77.6l0,0l0,0C327.6,164,362.4,129.2,354.4,78z"/>
<ellipse transform="matrix(0.7071 -0.7071 0.7071 0.7071 -100.3621 159.3947)" style="fill:#FFFFFF;" cx="142.225" cy="200.845" rx="25.6" ry="7.2"/>
<g>
</g>
<g>
</g>
<g>
</g>
<g>
</g>
<g>
</g>
<g>
</g>
<g>
</g>
<g>
</g>
<g>
</g>
<g>
</g>
<g>
</g>
<g>
</g>
<g>
</g>
<g>
</g>
<g>
</g>
</svg>
