<?xml version="1.0" encoding="iso-8859-1"?>
<!-- Generator: Adobe Illustrator 19.0.0, SVG Export Plug-In . SVG Version: 6.00 Build 0)  -->
<svg version="1.1" id="Layer_1" xmlns="http://www.w3.org/2000/svg" xmlns:xlink="http://www.w3.org/1999/xlink" x="0px" y="0px"
	 viewBox="0 0 508 508" style="enable-background:new 0 0 508 508;" xml:space="preserve">
<circle style="fill:#324A5E;" cx="254" cy="254" r="254"/>
<path style="fill:#FFFFFF;" d="M184,390.4h-72c-6,0-10.8-4.8-10.8-10.8V128.4c0-6,4.8-10.8,10.8-10.8h72c6,0,10.8,4.8,10.8,10.8
	v250.8C194.8,385.6,190,390.4,184,390.4z"/>
<rect x="110.4" y="140.8" style="fill:#FF7058;" width="75.2" height="126.4"/>
<circle style="fill:#E6E9EE;" cx="148" cy="343.6" r="25.6"/>
<path style="fill:#FFFFFF;" d="M290,390.4h-72c-6,0-10.8-4.8-10.8-10.8V128.4c0-6,4.8-10.8,10.8-10.8h72c6,0,10.8,4.8,10.8,10.8
	v250.8C300.8,385.6,296,390.4,290,390.4z"/>
<rect x="216.4" y="140.8" style="fill:#4CDBC4;" width="75.2" height="126.4"/>
<circle style="fill:#E6E9EE;" cx="254" cy="343.6" r="25.6"/>
<path style="fill:#FFFFFF;" d="M396,390.4h-72c-6,0-10.8-4.8-10.8-10.8V128.4c0-6,4.8-10.8,10.8-10.8h72c6,0,10.8,4.8,10.8,10.8
	v250.8C407.2,385.6,402,390.4,396,390.4z"/>
<rect x="322.4" y="140.8" style="fill:#84DBFF;" width="75.2" height="126.4"/>
<circle style="fill:#E6E9EE;" cx="360" cy="343.6" r="25.6"/>
<g>
	<circle style="fill:#CED5E0;" cx="360" cy="343.6" r="16"/>
	<circle style="fill:#CED5E0;" cx="254" cy="343.6" r="16"/>
	<circle style="fill:#CED5E0;" cx="148" cy="343.6" r="16"/>
</g>
<g>
</g>
<g>
</g>
<g>
</g>
<g>
</g>
<g>
</g>
<g>
</g>
<g>
</g>
<g>
</g>
<g>
</g>
<g>
</g>
<g>
</g>
<g>
</g>
<g>
</g>
<g>
</g>
<g>
</g>
</svg>
