<?xml version="1.0" encoding="iso-8859-1"?>
<!-- Generator: Adobe Illustrator 19.0.0, SVG Export Plug-In . SVG Version: 6.00 Build 0)  -->
<svg version="1.1" id="Layer_1" xmlns="http://www.w3.org/2000/svg" xmlns:xlink="http://www.w3.org/1999/xlink" x="0px" y="0px"
	 viewBox="0 0 508 508" style="enable-background:new 0 0 508 508;" xml:space="preserve">
<circle style="fill:#84DBFF;" cx="254" cy="254" r="254"/>
<path style="fill:#54C0EB;" d="M72.4,431.6c46,47.2,110.4,76.4,181.6,76.4s135.2-29.2,181.6-76.4H72.4z"/>
<path style="fill:#FFFFFF;" d="M355.6,285.2c49.2,49.2,69.2,76.8,64.4,81.2c-4.8,4.8-32.4-15.6-81.2-64.4
	c-48.8-49.2-100.8-108.4-96-113.2C247.2,184,306.8,236,355.6,285.2z"/>
<path style="fill:#2B3B4E;" d="M263.6,200l-9.6,9.6c-4,4-4,10.8,0,14.8l0,0c4,4,10.8,4,14.8,0l9.6-9.6c4-4,4-10.8,0-14.8l0,0
	C274,196,267.6,196,263.6,200z"/>
<g>
	<path style="fill:#324A5E;" d="M218,246.4l-66.8-66.8c-4-4-4-10.4,0-14l68.4-68.4c4-4,10.4-4,14,0l66.8,66.8c4,4,4,10.4,0,14
		L232,246.4C228,250.4,221.6,250.4,218,246.4z"/>
	<path style="fill:#324A5E;" d="M310,154.8l-67.6-67.6c-3.6-3.6-3.6-9.6,0-13.2l0,0c3.6-3.6,9.6-3.6,13.2,0l67.6,67.6
		c3.6,3.6,3.6,9.6,0,13.2l0,0C320,158.4,314,158.4,310,154.8z"/>
</g>
<rect x="264.645" y="78.86" transform="matrix(-0.7071 0.7071 -0.7071 -0.7071 552.2394 22.5738)" style="fill:#FFD05B;" width="13.6" height="93.599"/>
<path style="fill:#324A5E;" d="M141.2,188.8l67.6,67.6c3.6,3.6,3.6,9.6,0,13.2l0,0c-3.6,3.6-9.6,3.6-13.2,0l-68-67.6
	c-3.6-3.6-3.6-9.6,0-13.2l0,0C131.6,185.2,137.6,185.2,141.2,188.8z"/>
<g>
	
		<rect x="173.032" y="170.971" transform="matrix(0.7071 -0.7071 0.7071 0.7071 -101.3154 190.9435)" style="fill:#FFD05B;" width="13.6" height="93.599"/>
	<path style="fill:#FFD05B;" d="M247.2,376.8h-118v-11.2c0-4.4,3.6-7.6,7.6-7.6h102.4c4.4,0,7.6,3.6,7.6,7.6v11.2H247.2z"/>
</g>
<path style="fill:#F9B54C;" d="M266,431.6H110v-38c0-11.6,9.2-20.8,20.8-20.8h114c11.6,0,20.8,9.2,20.8,20.8v38H266z"/>
<g>
</g>
<g>
</g>
<g>
</g>
<g>
</g>
<g>
</g>
<g>
</g>
<g>
</g>
<g>
</g>
<g>
</g>
<g>
</g>
<g>
</g>
<g>
</g>
<g>
</g>
<g>
</g>
<g>
</g>
</svg>
