<?xml version="1.0" encoding="iso-8859-1"?>
<!-- Generator: Adobe Illustrator 19.0.0, SVG Export Plug-In . SVG Version: 6.00 Build 0)  -->
<svg version="1.1" id="Layer_1" xmlns="http://www.w3.org/2000/svg" xmlns:xlink="http://www.w3.org/1999/xlink" x="0px" y="0px"
	 viewBox="0 0 508 508" style="enable-background:new 0 0 508 508;" xml:space="preserve">
<circle style="fill:#FFD05B;" cx="254" cy="254" r="254"/>
<g>
	<path style="fill:#F1543F;" d="M343.2,172.4l-25.2-14c-6.4-3.6-8.4-11.2-5.2-17.6l30-54.4c3.6-6.4,11.2-8.4,17.6-5.2l25.2,14
		c6.4,3.6,8.4,11.2,5.2,17.6l-30,54.4C357.2,173.6,349.2,176,343.2,172.4z"/>
	<path style="fill:#F1543F;" d="M164.8,172.4l25.2-14c6.4-3.6,8.4-11.2,5.2-17.6l-30-54.4c-3.6-6.4-11.2-8.4-17.6-5.2l-25.2,14
		c-6.4,3.6-8.4,11.2-5.2,17.6l30,54.4C150.8,173.6,158.8,176,164.8,172.4z"/>
</g>
<path style="fill:#FFFFFF;" d="M290.4,118.4h-72.8c-9.2,0-16.4-7.2-16.4-16.4V81.2c0-9.2,7.2-16.4,16.4-16.4h72.8
	c9.2,0,16.4,7.2,16.4,16.4V102C306.8,111.2,299.2,118.4,290.4,118.4z M217.6,77.2c-2.4,0-4,2-4,4V102c0,2.4,2,4,4,4h72.8
	c2.4,0,4-2,4-4V81.2c0-2.4-2-4-4-4H217.6z"/>
<g>
	<path style="fill:#F1543F;" d="M362.8,408.4H388c18.8,0,33.6-15.2,33.6-33.6v-45.2c0-32.4-26.4-58.8-58.8-58.8l0,0L362.8,408.4
		L362.8,408.4z"/>
	<path style="fill:#F1543F;" d="M145.2,408.4H120c-18.8,0-33.6-15.2-33.6-33.6v-45.2c0-32.4,26.4-58.8,58.8-58.8l0,0V408.4z"/>
</g>
<path style="fill:#FF7058;" d="M355.2,443.2H152.8c-15.2,0-27.6-12.4-27.6-27.6V162.4c0-35.6,28.8-64.4,64.4-64.4h129.2
	c35.6,0,64.4,28.8,64.4,64.4v253.2C382.8,430.8,370.4,443.2,355.2,443.2z"/>
<g>
	<path style="fill:#F1543F;" d="M368,196.4V164c0-28.8-23.2-52-52-52H192c-28.8,0-52,23.2-52,52v32.4c0,7.2,6,13.2,13.2,13.2h202
		C362,209.6,368,204,368,196.4z"/>
	<path style="fill:#F1543F;" d="M350.8,423.6H152c-6.4,0-12-5.2-12-12V282.8c0-6.4,5.2-12,12-12h198.8c6.4,0,12,5.2,12,12v128.8
		C362.8,418.4,357.2,423.6,350.8,423.6z"/>
</g>
<rect x="168.4" y="291.6" style="fill:#FFFFFF;" width="166" height="10"/>
<g>
</g>
<g>
</g>
<g>
</g>
<g>
</g>
<g>
</g>
<g>
</g>
<g>
</g>
<g>
</g>
<g>
</g>
<g>
</g>
<g>
</g>
<g>
</g>
<g>
</g>
<g>
</g>
<g>
</g>
</svg>
