<?xml version="1.0" encoding="iso-8859-1"?>
<!-- Generator: Adobe Illustrator 19.0.0, SVG Export Plug-In . SVG Version: 6.00 Build 0)  -->
<svg version="1.1" id="Layer_1" xmlns="http://www.w3.org/2000/svg" xmlns:xlink="http://www.w3.org/1999/xlink" x="0px" y="0px"
	 viewBox="0 0 508 508" style="enable-background:new 0 0 508 508;" xml:space="preserve">
<circle style="fill:#FD8469;" cx="254" cy="254" r="254"/>
<path style="fill:#231F20;" d="M311.2,149.6h-114c-2.4,0-4.4-1.2-5.6-2.8c-1.2-2-1.6-4-0.8-6.4l16.8-46c0.8-2.8,3.6-4.4,6.4-4.4
	h80.8c2.8,0,5.6,2,6.4,4.4l16.8,46c0.8,2,0.4,4.4-0.8,6.4C315.6,148.4,313.6,149.6,311.2,149.6z M206.8,136h94.4l-11.6-32h-70.8
	L206.8,136z"/>
<path style="fill:#2B3B4E;" d="M369.6,418H138.4c-10.4,0-19.2-8.4-19.2-19.2V147.6c0-10.4,8.4-19.2,19.2-19.2h231.2
	c10.4,0,19.2,8.4,19.2,19.2v251.2C388.8,409.6,380,418,369.6,418z"/>
<g>
	<path style="fill:#324A5E;" d="M334.8,223.2H173.6c-29.6,0-54-24-54-54v-22.4c0-10.4,8.4-18.4,18.4-18.4h232
		c10.4,0,18.4,8.4,18.4,18.4v22.4C388.8,199.2,364.4,223.2,334.8,223.2z"/>
	<path style="fill:#324A5E;" d="M199.6,300.8h109.6c22.4,0,40.8,18.4,40.8,40.8V418H158.4v-76.4
		C158.4,319.2,176.8,300.8,199.6,300.8z"/>
</g>
<path style="fill:#E6E9EE;" d="M269.2,265.6h-30.4c-3.6,0-6.8-2.4-7.6-6l-10.4-42.4c-1.2-5.2,2.4-10,7.6-10h51.2
	c5.2,0,8.8,4.8,7.6,10l-10.4,42.4C276,263.2,272.8,265.6,269.2,265.6z"/>
<g>
</g>
<g>
</g>
<g>
</g>
<g>
</g>
<g>
</g>
<g>
</g>
<g>
</g>
<g>
</g>
<g>
</g>
<g>
</g>
<g>
</g>
<g>
</g>
<g>
</g>
<g>
</g>
<g>
</g>
</svg>
