<?xml version="1.0" encoding="iso-8859-1"?>
<!-- Generator: Adobe Illustrator 19.0.0, SVG Export Plug-In . SVG Version: 6.00 Build 0)  -->
<svg version="1.1" id="Layer_1" xmlns="http://www.w3.org/2000/svg" xmlns:xlink="http://www.w3.org/1999/xlink" x="0px" y="0px"
	 viewBox="0 0 508 508" style="enable-background:new 0 0 508 508;" xml:space="preserve">
<circle style="fill:#FFD05B;" cx="254" cy="254" r="254"/>
<path style="fill:#324A5E;" d="M391.2,214H116.8L254,76.8L391.2,214z M145.6,202h216.8L254,93.6L145.6,202z"/>
<g>
	<path style="fill:#FFFFFF;" d="M404.8,407.2H103.2c-10,0-18.4-8-18.4-18.4V210c0-10,8-18.4,18.4-18.4h302c10,0,18.4,8,18.4,18.4
		v178.8C423.2,399.2,415.2,407.2,404.8,407.2z"/>
	<circle style="fill:#FFFFFF;" cx="254" cy="87.6" r="39.6"/>
</g>
<circle style="fill:#FF7058;" cx="254" cy="87.6" r="24.4"/>
<g>
	<path style="fill:#54C0EB;" d="M156.4,282.8h-19.2v-43.6H154c2.8,0,5.6,0.4,7.6,1.2s3.6,1.6,4.8,2.8c2,2.4,2.8,4.8,2.8,7.6
		c0,3.6-1.2,6-3.2,7.6c-0.8,0.4-1.2,0.8-1.6,1.2c-0.4,0-0.8,0.4-1.6,0.8c2.8,0.4,4.8,1.6,6.4,3.6c1.6,2,2.4,4,2.4,6.8
		c0,3.2-1.2,5.6-3.2,8C166.4,281.2,162.4,282.8,156.4,282.8z M146.8,256.8h4.8c2.8,0,4.8-0.4,6-0.8s2-2,2-3.6c0-2-0.8-3.2-2-4
		s-3.2-0.8-6-0.8h-4.8V256.8z M146.8,274.4h6.8c2.8,0,4.8-0.4,6.4-1.2c1.2-0.8,2-2,2-4s-0.8-3.2-2.4-4c-1.6-0.8-4-0.8-7.2-0.8h-5.6
		V274.4z"/>
	<path style="fill:#54C0EB;" d="M207.6,282.8h-8.8v-4c-2.4,3.2-5.2,4.4-8.8,4.4s-6.4-1.2-8.8-3.2c-2.4-2-3.6-4.8-3.6-8.4
		s1.2-6,3.6-7.6c2.4-1.6,6-2.4,10.4-2.4h6.8l0,0c0-3.6-2-5.2-5.6-5.2c-1.6,0-3.2,0.4-5.2,0.8c-2,0.8-3.2,1.6-4.4,2.4l-4-6
		c4.4-3.2,9.6-4.8,15.2-4.8c4,0,7.2,1.2,10,3.2c2.4,2,4,5.2,4,9.6v21.2H207.6z M198.4,270v-1.6h-6c-3.6,0-5.6,1.2-5.6,3.6
		c0,1.2,0.4,2,1.2,2.8s2,0.8,4,0.8c1.6,0,3.2-0.4,4.4-1.6C197.6,273.2,198.4,271.6,198.4,270z"/>
	<path style="fill:#54C0EB;" d="M232.4,274.8c3.2,0,6-1.6,8.4-4.8l5.6,6.4c-4.4,4.4-8.8,6.8-14,6.8s-9.2-1.6-12.8-4.8
		c-3.6-3.2-5.2-7.2-5.2-12.4c0-5.2,1.6-9.2,5.2-12.4c3.6-3.2,7.6-4.8,12.4-4.8c2.4,0,4.8,0.4,7.2,1.6c2.4,0.8,4.8,2.4,6.4,4.4
		l-4.8,6.4c-1.2-1.2-2.4-2.4-4-2.8c-1.6-0.8-3.2-1.2-4.8-1.2c-2.4,0-4.4,0.8-6.4,2.4c-1.6,1.6-2.8,4-2.8,6.8s0.8,5.2,2.8,6.8
		C228,274,230,274.8,232.4,274.8z"/>
	<path style="fill:#54C0EB;" d="M262,282.8h-9.2v-46.4h9.2V260l10.4-11.2H284l-12.8,13.6l13.2,20h-11.2l-8.4-12.4l-2.8,3.2V282.8z"
		/>
	<path style="fill:#54C0EB;" d="M325.2,247.6v35.2h-9.6v-35.2h-12.4v-8.4h34.4v8.4L325.2,247.6L325.2,247.6z"/>
	<path style="fill:#54C0EB;" d="M373.6,266c0,4.8-1.6,8.8-5.2,12.4c-3.2,3.2-7.6,4.8-12.8,4.8c-5.2,0-9.2-1.6-12.8-4.8
		c-2.8-3.6-4.8-7.6-4.8-12.4s1.6-8.8,5.2-12.4c3.2-3.2,7.6-5.2,12.8-5.2c5.2,0,9.2,1.6,12.8,5.2C372,257.2,373.6,261.2,373.6,266z
		 M347.6,266c0,2.8,0.8,4.8,2.4,6.8c1.6,1.6,3.6,2.4,6,2.4s4.4-0.8,6-2.4s2.4-4,2.4-6.8s-0.8-4.8-2.4-6.8c-1.6-1.6-3.6-2.8-6-2.8
		s-4.4,0.8-6,2.8C348.4,260.8,347.6,263.2,347.6,266z"/>
	<path style="fill:#54C0EB;" d="M162,322.8c-0.8,0.8-1.6,1.6-1.6,3.2c0,1.2,0.4,2.4,1.6,3.2c1.2,0.8,3.6,1.6,8,2.8
		c4,1.2,7.2,2.4,9.6,4.4c2.4,2,3.6,5.2,3.6,8.8c0,4-1.6,7.2-4.4,9.6c-2.8,2.4-6.8,3.6-11.6,3.6c-6.8,0-13.2-2.4-18.8-7.6l5.6-7.2
		c4.8,4,9.2,6,13.2,6c1.6,0,3.2-0.4,4.4-1.2c1.2-0.8,1.6-2,1.6-3.2s-0.4-2.4-1.6-3.2c-1.2-0.8-3.2-1.6-6.4-2.4
		c-5.2-1.2-8.8-2.8-11.2-4.8s-3.6-4.8-3.6-9.2c0-4,1.6-7.2,4.4-9.6c2.8-2.4,6.8-3.2,11.2-3.2c2.8,0,6,0.4,8.8,1.6
		c2.8,0.8,5.6,2.4,7.6,4.4l-4.8,7.2c-3.6-3.2-7.6-4.4-11.6-4.4C164.4,321.6,163.2,322,162,322.8z"/>
	<path style="fill:#54C0EB;" d="M206.8,349.6c3.2,0,6-1.6,8.4-4.8l5.6,6.4c-4.4,4.4-8.8,6.8-14,6.8s-9.2-1.6-12.8-4.8
		c-3.6-3.2-5.2-7.2-5.2-12.4s1.6-9.2,5.2-12.4c3.6-3.2,7.6-4.8,12.4-4.8c2.4,0,4.8,0.4,7.2,1.6c2.4,0.8,4.8,2.4,6.4,4.4l-4.8,6.4
		c-1.2-1.2-2.4-2.4-4-2.8c-1.6-0.8-3.2-1.2-4.8-1.2c-2.4,0-4.4,0.8-6.4,2.4c-1.6,1.6-2.8,4-2.8,6.8s0.8,5.2,2.8,6.8
		C202.4,348.8,204.4,349.6,206.8,349.6z"/>
	<path style="fill:#54C0EB;" d="M236.4,339.6v18h-9.2v-46.4h9.2v16.4c2.8-2.8,6-4.4,9.6-4.4s6.4,1.2,8.8,3.6s3.6,6,3.6,10v20.4h-9.2
		v-18.4c0-5.2-2-7.6-5.6-7.6c-2,0-3.6,0.8-4.8,2C237.2,334.8,236.4,336.8,236.4,339.6z"/>
	<path style="fill:#54C0EB;" d="M300.4,340.8c0,4.8-1.6,8.8-5.2,12.4c-3.2,3.2-7.6,4.8-12.8,4.8c-5.2,0-9.2-1.6-12.8-4.8
		c-3.2-3.2-5.2-7.6-5.2-12.4s1.6-8.8,5.2-12.4c3.2-3.2,7.6-5.2,12.8-5.2c5.2,0,9.2,1.6,12.8,5.2C298.8,331.6,300.4,336,300.4,340.8z
		 M274.4,340.8c0,2.8,0.8,4.8,2.4,6.8c1.6,1.6,3.6,2.4,6,2.4s4.4-0.8,6-2.4s2.4-4,2.4-6.8s-0.8-4.8-2.4-6.8c-1.6-1.6-3.6-2.8-6-2.8
		s-4.4,0.8-6,2.8C275.2,335.6,274.4,338,274.4,340.8z"/>
	<path style="fill:#54C0EB;" d="M340.8,340.8c0,4.8-1.6,8.8-5.2,12.4c-3.2,3.2-7.6,4.8-12.8,4.8c-5.2,0-9.2-1.6-12.8-4.8
		c-3.2-3.2-5.2-7.6-5.2-12.4s1.6-8.8,5.2-12.4c3.2-3.2,7.6-5.2,12.8-5.2c5.2,0,9.2,1.6,12.8,5.2C339.2,331.6,340.8,336,340.8,340.8z
		 M314.8,340.8c0,2.8,0.8,4.8,2.4,6.8c1.6,1.6,3.6,2.4,6,2.4s4.4-0.8,6-2.4s2.4-4,2.4-6.8s-0.8-4.8-2.4-6.8c-1.6-1.6-3.6-2.8-6-2.8
		s-4.4,0.8-6,2.8C315.6,335.6,314.8,338,314.8,340.8z"/>
	<path style="fill:#54C0EB;" d="M357.2,357.6H348v-46.4h9.2V357.6z"/>
</g>
<g>
</g>
<g>
</g>
<g>
</g>
<g>
</g>
<g>
</g>
<g>
</g>
<g>
</g>
<g>
</g>
<g>
</g>
<g>
</g>
<g>
</g>
<g>
</g>
<g>
</g>
<g>
</g>
<g>
</g>
</svg>
