<?xml version="1.0" encoding="iso-8859-1"?>
<!-- Generator: Adobe Illustrator 19.0.0, SVG Export Plug-In . SVG Version: 6.00 Build 0)  -->
<svg version="1.1" id="Layer_1" xmlns="http://www.w3.org/2000/svg" xmlns:xlink="http://www.w3.org/1999/xlink" x="0px" y="0px"
	 viewBox="0 0 508 508" style="enable-background:new 0 0 508 508;" xml:space="preserve">
<circle style="fill:#84DBFF;" cx="254" cy="254" r="254"/>
<path style="fill:#54C0EB;" d="M80,438.8c45.6,42.8,106.8,69.2,174,69.2s128.4-26.4,174-69.2H80z"/>
<g>
	
		<rect x="380.723" y="149.616" transform="matrix(-0.8998 -0.4362 0.4362 -0.8998 639.0454 548.7581)" style="fill:#FFFFFF;" width="3.6" height="102.795"/>
	
		<rect x="375.822" y="199.185" transform="matrix(-0.4361 -0.8999 0.8999 -0.4361 432.6663 673.0911)" style="fill:#FFFFFF;" width="102.8" height="3.6"/>
	<rect x="403.2" y="154.8" style="fill:#FFFFFF;" width="3.6" height="91.6"/>
</g>
<path style="fill:#324A5E;" d="M436.8,271.6h-64c-8.4,0-15.2-6.8-15.2-15.2V246h94.8v10C452.4,264.8,445.2,271.6,436.8,271.6z"/>
<g>
	
		<rect x="78.755" y="149.562" transform="matrix(-0.8998 -0.4363 0.4363 -0.8998 65.3579 416.9334)" style="fill:#FFFFFF;" width="3.6" height="102.8"/>
	
		<rect x="73.919" y="199.044" transform="matrix(-0.4361 -0.8999 0.8999 -0.4361 -0.7677 401.2061)" style="fill:#FFFFFF;" width="102.8" height="3.6"/>
	<rect x="101.2" y="154.8" style="fill:#FFFFFF;" width="3.6" height="91.6"/>
</g>
<path style="fill:#324A5E;" d="M135.2,271.6h-64c-8.4,0-15.2-6.8-15.2-15.2V246h94.8v10C150.4,264.8,143.6,271.6,135.2,271.6z"/>
<g>
	<path style="fill:#FFFFFF;" d="M244.4,200.8c2.4,4,2.8,8,4,12c0.8,4,1.6,8.4,1.6,12.4c0,4.4-0.4,8.4-0.8,12.8
		c-1.2,8.8-4,17.6-6.4,26.4c-2.8,8.8-4,17.6-3.6,26.4c0,8.8,1.6,17.2,3.2,25.6c2,8.4,3.6,16.4,4.4,23.6c0.8,7.6,1.2,14.8,2,21.2
		c0.4,6.4,0.8,12.8,0.8,18s0.4,10,0.4,14c0,3.2,0,6,0,8h9.6c0-2,0-4.8,0-8c0-4,0-8.4,0.4-14c0.4-5.2,0.4-11.6,0.8-18
		s1.2-13.6,2-21.2s2.8-15.6,4.4-23.6c2-8.4,3.2-16.8,3.2-25.6c0-8.8-1.2-17.6-3.6-26.4s-5.6-17.6-6.4-26.4
		c-0.4-4.4-0.8-8.8-0.8-12.8c0-4.4,0.8-8.4,1.6-12.4c1.2-4,1.6-8,4-12c2-4,5.6-8,6.8-11.6c1.6-3.6,1.6-7.6,0.4-11.2
		c-1.2-3.6-4-6.8-5.6-10.4c-0.8-1.6-1.6-3.2-2-4.8s-0.8-3.2-1.2-4.8c-0.8-3.2-1.2-6-1.6-8.4c-0.8-5.2-1.6-10-1.6-14
		c-0.4-4-0.4-6.8-0.4-8.8s0-3.2,0-3.2c0-0.4,0-0.8,0-1.2c-0.4-3.2-2.8-5.2-5.2-4.8c-2.8,0.4-4.8,2.8-4.4,6c0,0,0,1.2,0,3.2
		s0,5.2-0.4,8.8c-0.4,4-0.8,8.4-1.6,14c-0.4,2.8-0.8,5.6-1.6,8.4c-0.4,1.6-0.8,3.2-1.2,4.8s-1.2,3.2-2,4.8c-2,3.2-4.4,6.8-5.6,10.4
		c-1.2,3.6-1.2,7.2,0.4,11.2C239.2,193.2,242.4,196.8,244.4,200.8z"/>
	<path style="fill:#FFFFFF;" d="M406.8,154.4c0,0-1.2,0-3.6,0.4s-5.6,0.8-9.6,1.6s-9.2,2-14.8,4c-5.6,1.6-11.6,4-18,7.2
		c-6.4,2.8-13.2,6.8-21.6,10c-8,3.2-16.8,5.6-26,7.6s-18.8,3.6-28.4,4.4c-9.6,0.8-19.6,1.6-29.6,1.6H248l-7.6-0.4
		c-4.8-0.4-10-0.8-14.8-1.2c-9.6-0.8-19.2-2.4-28.4-4.4s-18-4.4-26-7.6c-4-1.6-8-3.2-11.6-5.2c-3.6-1.6-6.8-3.6-10-4.8
		c-6.4-2.8-12.8-5.2-18-7.2c-5.6-1.6-10.4-3.2-14.8-4c-4-0.8-7.6-1.6-9.6-1.6c-2.4-0.4-3.6-0.4-3.6-0.4s1.2,0,3.6-0.4
		c2.4,0,5.6-0.4,10-0.4c8.8,0,21.2,1.6,35.6,6c3.6,1.2,7.2,2.4,11.2,3.6c3.6,1.2,7.2,2.4,11.2,3.6c7.6,2,16.4,3.6,24.8,5.2
		c8.8,1.6,18,2,27.2,2.8c4.8,0.4,9.2,0.4,14,0.8h7.2h7.2c9.2,0,19.2-0.4,28.4-0.8c9.2-0.8,18.4-1.6,27.2-2.8
		c8.8-1.6,17.2-2.8,24.8-5.2c7.6-2,14.8-5.2,22-7.2c14.4-4.4,26.8-6,35.6-6c4.4,0,7.6,0,10,0.4C405.6,154,406.8,154.4,406.8,154.4z"
		/>
</g>
<path style="fill:#2B3B4E;" d="M282.4,401.6h-54.8c-8,0-14,6.4-14,14v4.4h83.2v-4.4C296.4,407.6,290,401.6,282.4,401.6z"/>
<g>
	<path style="fill:#324A5E;" d="M309.2,420H200.8c-10.4,0-18.8,8.4-18.8,18.8l0,0h145.6l0,0C327.6,428.4,319.2,420,309.2,420z"/>
	<circle style="fill:#324A5E;" cx="404.8" cy="154.8" r="9.6"/>
	<circle style="fill:#324A5E;" cx="103.2" cy="154.8" r="9.6"/>
</g>
<circle style="fill:#E6E9EE;" cx="254.8" cy="183.6" r="22.4"/>
<g>
</g>
<g>
</g>
<g>
</g>
<g>
</g>
<g>
</g>
<g>
</g>
<g>
</g>
<g>
</g>
<g>
</g>
<g>
</g>
<g>
</g>
<g>
</g>
<g>
</g>
<g>
</g>
<g>
</g>
</svg>
