<?xml version="1.0" encoding="iso-8859-1"?>
<!-- Generator: Adobe Illustrator 19.0.0, SVG Export Plug-In . SVG Version: 6.00 Build 0)  -->
<svg version="1.1" id="Layer_1" xmlns="http://www.w3.org/2000/svg" xmlns:xlink="http://www.w3.org/1999/xlink" x="0px" y="0px"
	 viewBox="0 0 508 508" style="enable-background:new 0 0 508 508;" xml:space="preserve">
<circle style="fill:#90DFAA;" cx="254" cy="254" r="254"/>
<path style="fill:#FFFFFF;" d="M411.6,374H96.4c-10.8,0-19.6-8.8-19.6-19.6V153.6c0-10.8,8.8-19.6,19.6-19.6H412
	c10.8,0,19.6,8.8,19.6,19.6v200.8C431.6,365.2,422.8,374,411.6,374z"/>
<rect x="99.2" y="155.6" style="fill:#324A5E;" width="309.6" height="197.2"/>
<g>
	<path style="fill:#FFFFFF;" d="M174,240l2.4,8.4l-17.2,5.2l2,7.2c1.2-0.8,2.4-1.2,4.4-2c4-1.2,8-1.2,12,0.4
		c3.6,1.6,6.4,4.4,7.6,8.8s0.8,8.4-1.6,12c-2.4,3.6-5.6,6.4-10.4,7.6c-6,1.6-11.6,1.2-16.8-2l2.8-8.8c0.4,0.4,1.2,0.4,2,0.8
		s2,0.8,4,1.2c2,0.4,3.6,0.4,5.2,0c1.6-0.4,2.8-1.6,4-2.8c0.8-1.2,1.2-3.2,0.8-4.8c-0.4-2-1.6-3.2-3.6-4c-1.6-0.8-3.6-0.8-6,0
		c-2,0.8-4.4,2.4-6.8,4.8l-4.8-2.8l-6.4-21.2L174,240z"/>
	<path style="fill:#FFFFFF;" d="M204.4,270.8l-3.2-11.2l-11.2,3.2l-2.4-7.6l10.8-3.2l-3.2-11.2l8.4-2.4l3.2,11.2l10.8-3.2l2.4,7.6
		l-10.8,3.2l3.2,11.2L204.4,270.8z"/>
	<path style="fill:#FFFFFF;" d="M243.6,258c2.8-0.8,4.4-2.4,5.6-4.4c0.8-2.4,1.2-4.8,0.4-8c-2,2.4-4.8,4.4-7.6,5.2
		c-4,1.2-8,0.8-11.2-0.8c-3.6-2-6-4.8-7.2-9.2s-0.8-8.4,1.2-12s5.2-6,10-7.2c3.2-0.8,6-1.2,8.4-0.8c2.8,0.4,4.8,1.6,6.8,3.2
		c3.6,3.2,6.4,8,8.4,14.4c1.2,4,1.6,7.6,1.6,10.8s-0.8,6-2,8.4c-2.4,4.4-6,7.6-10.8,8.8c-2,0.8-4,0.8-6,0.8s-3.6-0.4-4.8-0.4
		c-1.2-0.4-2.4-0.8-4-1.2l2.8-8.4c0.4,0,0.8,0.4,1.6,0.8c0.4,0.4,1.6,0.4,3.2,0.8C241.2,258.4,242.4,258.4,243.6,258z M240.4,242
		c2-0.4,3.2-1.6,4.4-3.2c0.8-1.6,1.2-3.2,0.4-4.8c-0.4-2-1.6-3.2-3.2-4c-1.6-0.8-3.2-1.2-5.2-0.4c-2,0.4-3.2,1.6-4,3.2
		c-0.8,1.6-0.8,3.2-0.4,5.2c0.4,2,1.6,3.2,3.2,4C236.8,242.4,238.4,242.4,240.4,242z"/>
	<path style="fill:#FFFFFF;" d="M261.2,224.8l30.4-9.2l2.4,7.6l-30.4,9.2L261.2,224.8z M265.6,240l30.4-9.2l2.4,7.6l-30.4,9.2
		L265.6,240z"/>
	<path style="fill:#FFFFFF;" d="M293.2,204l17.6-5.2l13.2,43.6l-9.2,2.8L304,210l-8.4,2.4L293.2,204z"/>
	<path style="fill:#FFFFFF;" d="M343.6,216l-2.4-7.6l9.2-2.8l2.4,7.6l4.8-1.6l2.4,8.4l-4.8,1.6l3.2,10.4l-9.2,2.8l-3.2-10.4
		l-17.6,5.2l-2-7.6l7.6-30.4l10.4-3.2l-7.2,29.2L343.6,216z"/>
	<path style="fill:#FFFFFF;" d="M346.4,328.4c-5.6,0-17.2,4.4-17.2,10l0,0c0,5.6,11.6,10,17.2,10h32.4c2,0,3.6-1.6,3.6-3.6v-12.4
		c0-2-1.6-3.6-3.6-3.6h-32.4V328.4z"/>
</g>
<g>
</g>
<g>
</g>
<g>
</g>
<g>
</g>
<g>
</g>
<g>
</g>
<g>
</g>
<g>
</g>
<g>
</g>
<g>
</g>
<g>
</g>
<g>
</g>
<g>
</g>
<g>
</g>
<g>
</g>
</svg>
