<?xml version="1.0" encoding="iso-8859-1"?>
<!-- Generator: Adobe Illustrator 19.0.0, SVG Export Plug-In . SVG Version: 6.00 Build 0)  -->
<svg version="1.1" id="Layer_1" xmlns="http://www.w3.org/2000/svg" xmlns:xlink="http://www.w3.org/1999/xlink" x="0px" y="0px"
	 viewBox="0 0 508 508" style="enable-background:new 0 0 508 508;" xml:space="preserve">
<circle style="fill:#84DBFF;" cx="254" cy="254" r="254"/>
<path style="fill:#324A5E;" d="M413.6,384.8H94.4c-12,0-22-10-22-22V145.2c0-12,10-22,22-22H414c12,0,22,10,22,22v217.6
	C435.6,374.8,426,384.8,413.6,384.8z"/>
<rect x="96" y="147.2" style="fill:#E6E9EE;" width="316" height="214"/>
<rect x="100" y="155.2" style="fill:#FFFFFF;" width="312" height="206"/>
<g>
	<path style="fill:#FF7058;" d="M194,230.8l-11.2,3.2l-6.8-25.6l10-2.8c1.6-0.4,3.2-0.8,4.8-0.4c1.2,0,2.4,0.4,3.2,0.8
		c1.6,1.2,2.4,2.4,2.8,4c0.4,2,0.4,3.6-0.8,4.8c-0.4,0.4-0.4,0.8-0.8,0.8c0,0-0.4,0.4-0.8,0.8c1.6,0,3.2,0.4,4.4,1.2s2,2,2.4,3.6
		s0.4,3.6-0.4,5.2C200,228.4,197.6,229.6,194,230.8z M184.4,216.8l2.8-0.8c1.6-0.4,2.8-0.8,3.2-1.6c0.8-0.4,0.8-1.2,0.4-2.4
		c-0.4-1.2-0.8-1.6-1.6-2c-0.8,0-2,0-3.6,0.4l-2.8,0.8L184.4,216.8z M187.2,227.2l4-1.2c1.6-0.4,2.8-0.8,3.6-1.6s0.8-1.6,0.4-2.8
		c-0.4-1.2-0.8-2-2-2c-0.8,0-2.4,0-4.4,0.4l-3.2,0.8L187.2,227.2z"/>
	<path style="fill:#FF7058;" d="M226,222l-4-4.8l-10.8,2.8l-0.8,6l-6,1.6l4-28.4l5.6-1.2l18,22.4L226,222z M213.6,206l-1.2,8.4
		l6.4-1.6L213.6,206z"/>
	<path style="fill:#FF7058;" d="M245.6,211.2c2.8-0.8,4.8-2.4,6-5.2l4.8,2.8c-2,4-4.8,6.8-8.8,7.6c-4,1.2-7.6,0.8-10.8-1.2
		s-5.2-4.4-6.4-8.4c-1.2-3.6-0.4-7.2,1.2-10.4c2-3.2,4.8-5.2,8.4-6.4c4-1.2,8-0.4,12,2l-2.4,4.8c-2.4-1.6-4.8-2.4-7.6-1.6
		c-2,0.4-3.6,1.6-4.8,3.6s-1.2,4-0.8,6.4c0.8,2.4,2,4,3.6,5.2C241.6,211.6,243.2,212,245.6,211.2z"/>
	<path style="fill:#FF7058;" d="M254.8,186.8l5.6-1.6l2.8,10.4l6.8-13.2l7.2-2l-7.2,14c1.2,0.8,3.6,2.8,6.8,5.6
		c3.2,2.8,5.6,4.8,7.2,6l-6.8,2l-10.4-8l-1.6,3.6l2,7.2l-5.2,1.6L254.8,186.8z"/>
	<path style="fill:#FF7058;" d="M226.4,246.8l5.6,20.8l-5.6,1.6l-5.6-20.8l-7.2,2l-1.2-4.8l20.4-5.6l1.2,4.8L226.4,246.8z"/>
	<path style="fill:#FF7058;" d="M263.6,255.2c-2,3.2-4.8,5.2-8.4,6.4c-3.6,1.2-7.2,0.8-10.4-1.2s-5.6-4.8-6.4-8.4
		c-1.2-3.6-0.4-7.2,1.2-10.4c2-3.2,4.8-5.2,8.4-6.4c3.6-1.2,7.2-0.8,10.4,1.2s5.6,4.8,6.4,8.4C266,248.4,265.2,252,263.6,255.2z
		 M258.8,246.4c-0.8-2.4-2-4-3.6-5.2c-2-1.2-4-1.6-6-0.8c-2,0.4-3.6,2-4.8,4s-1.2,4-0.8,6.4c0.8,2.4,2,4,3.6,5.2c2,1.2,4,1.6,6,0.8
		c2-0.4,3.6-2,4.8-4C259.2,250.8,259.6,248.8,258.8,246.4z"/>
	<path style="fill:#FF7058;" d="M180,306.8c-0.4,0.8-0.4,1.2-0.4,2c0.4,0.8,0.8,1.2,1.6,1.6s2.4,0.4,5.2,0.4c2.4,0,4.8,0.4,6.4,1.2
		c1.6,0.8,2.8,2.4,3.6,4.8s0.4,4.4-1.2,6.4c-1.2,2-3.6,3.2-6.4,4c-4,1.2-8,0.4-12-1.6l2.4-5.2c3.6,1.6,6.4,2,8.8,1.6
		c1.2-0.4,2-0.8,2.4-1.2c0.4-0.8,0.8-1.2,0.4-2c-0.4-0.8-0.8-1.2-1.6-1.6s-2-0.4-4-0.4c-3.2,0-5.6-0.4-7.2-0.8
		c-1.6-0.8-2.8-2.4-3.6-4.8s-0.4-4.4,1.2-6.4c1.2-1.6,3.2-3.2,6-3.6c1.6-0.4,3.6-0.8,5.2-0.4c2,0,3.6,0.4,5.2,1.2l-2.4,4
		c-2.8-1.2-5.2-1.2-7.6-0.8C181.2,305.6,180.4,306.4,180,306.8z"/>
	<path style="fill:#FF7058;" d="M213.2,314.4c2.8-0.8,4.8-2.4,6-5.2l4.8,2.8c-2,4-4.8,6.8-8.8,7.6c-4,1.2-7.6,0.8-10.8-1.2
		c-3.6-1.6-5.6-4.4-6.4-8.4c-1.2-3.6-0.4-7.2,1.2-10.4c2-3.2,4.8-5.2,8.4-6.4c4-1.2,8-0.4,12,2l-2.4,4.8c-2.4-1.6-4.8-2.4-7.6-1.6
		c-2,0.4-3.6,1.6-4.8,3.6s-1.2,4-0.8,6.4c0.8,2.4,2,4,3.6,5.2C209.2,314.8,211.2,314.8,213.2,314.4z"/>
	<path style="fill:#FF7058;" d="M238.4,285.6l5.6-1.6l6.8,25.6l-5.6,1.6l-2.8-10l-10,2.8l2.8,10l-5.6,1.6l-6.8-25.6l5.6-1.6
		l2.8,10.8l10-2.8L238.4,285.6z"/>
	<path style="fill:#FF7058;" d="M278,298.4c-2,3.2-4.8,5.2-8.4,6.4c-3.6,1.2-7.2,0.8-10.4-1.2c-3.2-2-5.6-4.8-6.4-8.4
		c-1.2-3.6-0.4-7.2,1.2-10.4c2-3.2,4.8-5.2,8.4-6.4c3.6-1.2,7.2-0.8,10.4,1.2c3.2,2,5.6,4.8,6.4,8.4
		C280.4,291.6,280,295.2,278,298.4z M273.6,289.6c-0.8-2.4-2-4-3.6-5.2c-2-1.2-4-1.6-6-0.8c-2,0.4-3.6,2-4.8,4c-1.2,2-1.2,4-0.8,6.4
		c0.8,2.4,2,4,3.6,5.2c2,1.2,4,1.6,6,0.8c2-0.4,3.6-2,4.8-4S274.4,292,273.6,289.6z"/>
	<path style="fill:#FF7058;" d="M308.4,290.4c-2,3.2-4.8,5.2-8.4,6.4c-3.6,1.2-7.2,0.8-10.4-1.2c-3.2-2-5.6-4.8-6.4-8.4
		c-1.2-3.6-0.4-7.2,1.2-10.4c2-3.2,4.8-5.2,8.4-6.4c3.6-1.2,7.2-0.8,10.4,1.2c3.2,2,5.6,4.8,6.4,8.4
		C310.8,283.6,310.4,287.2,308.4,290.4z M304,281.2c-0.8-2.4-2-4-3.6-5.2c-2-1.2-4-1.6-6-0.8c-2,0.4-3.6,2-4.8,4
		c-1.2,2-1.2,4-0.8,6.4c0.8,2.4,2,4,3.6,5.2c2,1.2,4,1.6,6,0.8c2-0.4,3.6-2,4.8-4S304.4,283.6,304,281.2z"/>
	<path style="fill:#FF7058;" d="M318,291.6l-6.8-25.6l5.6-1.6l5.6,20.4l10.8-2.8l1.2,5.2L318,291.6z"/>
</g>
<g>
</g>
<g>
</g>
<g>
</g>
<g>
</g>
<g>
</g>
<g>
</g>
<g>
</g>
<g>
</g>
<g>
</g>
<g>
</g>
<g>
</g>
<g>
</g>
<g>
</g>
<g>
</g>
<g>
</g>
</svg>
