<?xml version="1.0" encoding="iso-8859-1"?>
<!-- Generator: Adobe Illustrator 19.0.0, SVG Export Plug-In . SVG Version: 6.00 Build 0)  -->
<svg version="1.1" id="Layer_1" xmlns="http://www.w3.org/2000/svg" xmlns:xlink="http://www.w3.org/1999/xlink" x="0px" y="0px"
	 viewBox="0 0 508 508" style="enable-background:new 0 0 508 508;" xml:space="preserve">
<circle style="fill:#FFD05B;" cx="254" cy="254" r="254"/>
<path style="fill:#E6E9EE;" d="M372.8,339.6h-194c-21.2,0-38.4,17.2-38.4,38.4c0,21.2,17.2,38.4,38.4,38.4h194V339.6z"/>
<path style="fill:#FFFFFF;" d="M377.2,96.8v238c0,2.8-2,4.8-4.8,4.8H178.8c-21.6,0-39.2,18-38.4,40c0.8,20.8,18.4,37.2,39.2,37.2
	h192.8c2.8,0,4.8,2,4.8,4.8s-2,4.8-4.8,4.8H178.8c-26.4,0-48-21.6-48-48V136.8c0-30.4,24.4-54.8,54.8-54.8h176.8
	C370.8,81.6,377.2,88.4,377.2,96.8z"/>
<path style="fill:#324A5E;" d="M176.4,416.4c-19.2-1.6-35.2-17.2-36-36.8c-0.8-21.2,15.2-38.4,36-40V82.8c-26,4.4-45.6,26.8-45.6,54
	V378c0,25.6,20.4,46.8,45.6,48V416.4z"/>
<g>
	<rect x="198.4" y="123.2" style="fill:#84DBFF;" width="155.6" height="9.2"/>
	<rect x="198.4" y="147.2" style="fill:#84DBFF;" width="155.6" height="9.2"/>
	<rect x="198.4" y="170.8" style="fill:#84DBFF;" width="155.6" height="9.2"/>
	<rect x="198.4" y="194.8" style="fill:#84DBFF;" width="155.6" height="9.2"/>
</g>
<polygon style="fill:#FF7058;" points="217.6,383.2 217.6,445.2 241.6,432.4 265.6,445.2 265.6,383.2 "/>
<g>
</g>
<g>
</g>
<g>
</g>
<g>
</g>
<g>
</g>
<g>
</g>
<g>
</g>
<g>
</g>
<g>
</g>
<g>
</g>
<g>
</g>
<g>
</g>
<g>
</g>
<g>
</g>
<g>
</g>
</svg>
