<?xml version="1.0" encoding="iso-8859-1"?>
<!-- Generator: Adobe Illustrator 19.0.0, SVG Export Plug-In . SVG Version: 6.00 Build 0)  -->
<svg version="1.1" id="Layer_1" xmlns="http://www.w3.org/2000/svg" xmlns:xlink="http://www.w3.org/1999/xlink" x="0px" y="0px"
	 viewBox="0 0 508 508" style="enable-background:new 0 0 508 508;" xml:space="preserve">
<circle style="fill:#84DBFF;" cx="254" cy="254" r="254"/>
<path style="fill:#E6E9EE;" d="M342.4,149.6c0,12.4,2.4,23.6,6,32.4H152c-18,0-32.4-14.4-32.4-32.4s14.4-32.4,32.4-32.4h196.4
	C344.8,125.6,342.4,137.2,342.4,149.6z"/>
<path style="fill:#FFFFFF;" d="M356.8,386.4V186c0-2.4-1.6-4-4-4H152c-18.4,0-33.2-15.2-32.4-33.6c0.8-17.6,15.6-31.2,33.2-31.2h200
	c2.4,0,4-1.6,4-4s-1.6-4-4-4H152c-22.4,0-40.4,18-40.4,40.4v203.6c0,25.6,20.8,46.4,46.4,46.4h186.8
	C351.2,399.2,356.8,393.6,356.8,386.4z"/>
<path style="fill:#324A5E;" d="M150,117.2c-16.4,1.6-29.6,14.4-30.4,31.2c-0.8,17.6,12.8,32.4,30.4,33.6v216.4
	c-21.6-3.6-38.4-22.8-38.4-45.6V149.6c0-21.6,17.2-39.2,38.4-40.4V117.2z"/>
<polygon style="fill:#FF7058;" points="271.6,182 254,182 254,244 271.6,232.8 289.2,244 289.2,182 "/>
<g>
	<rect x="176.4" y="289.6" style="fill:#E6E9EE;" width="153.6" height="7.6"/>
	<rect x="176.4" y="309.2" style="fill:#E6E9EE;" width="153.6" height="7.6"/>
	<rect x="176.4" y="329.2" style="fill:#E6E9EE;" width="153.6" height="7.6"/>
	<rect x="176.4" y="348.8" style="fill:#E6E9EE;" width="153.6" height="7.6"/>
</g>
<g>
</g>
<g>
</g>
<g>
</g>
<g>
</g>
<g>
</g>
<g>
</g>
<g>
</g>
<g>
</g>
<g>
</g>
<g>
</g>
<g>
</g>
<g>
</g>
<g>
</g>
<g>
</g>
<g>
</g>
</svg>
