<?xml version="1.0" encoding="iso-8859-1"?>
<!-- Generator: Adobe Illustrator 19.0.0, SVG Export Plug-In . SVG Version: 6.00 Build 0)  -->
<svg version="1.1" id="Layer_1" xmlns="http://www.w3.org/2000/svg" xmlns:xlink="http://www.w3.org/1999/xlink" x="0px" y="0px"
	 viewBox="0 0 508 508" style="enable-background:new 0 0 508 508;" xml:space="preserve">
<circle style="fill:#324A5E;" cx="254" cy="254" r="254"/>
<path style="fill:#FFFFFF;" d="M437.2,386.8H98.4c-3.6,0-6-2.8-6-6V127.2c0-3.6,2.8-6,6-6h338.8c3.6,0,6,2.8,6,6v253.6
	C443.2,384.4,440.4,386.8,437.2,386.8z"/>
<path style="fill:#FF7058;" d="M443.2,171.6v-44.4c0-3.2-2.8-6-6-6H98.4c-3.2,0-6,2.8-6,6v44.4H443.2z"/>
<path style="fill:#FFFFFF;" d="M319.6,156H112.8c-2.8,0-4.8-2-4.8-4.8V140c0-2.8,2-4.8,4.8-4.8H320c2.8,0,4.8,2,4.8,4.8v11.2
	C324.8,154,322.4,156,319.6,156z"/>
<g>
	<path style="fill:#324A5E;" d="M120,149.6h-2.4l-2.8-8h2.4l1.6,4.8l1.6-4.8h2l1.6,4.8l1.6-4.8h2.4l-2.8,8h-2.4l-1.6-4.4L120,149.6z
		"/>
	<path style="fill:#324A5E;" d="M133.2,149.6h-2.4l-2.8-8h2.4l1.6,4.8l1.6-4.8h2l1.6,4.8l1.6-4.8h2.4l-2.8,8H136l-1.6-4.4
		L133.2,149.6z"/>
	<path style="fill:#324A5E;" d="M146.4,149.6H144l-2.8-8h2.4l1.6,4.8l1.6-4.8h2l1.6,4.8l1.6-4.8h2.4l-2.8,8h-2.4l-1.6-4.4
		L146.4,149.6z"/>
</g>
<g>
	<rect x="118.8" y="255.6" style="fill:#E6E9EE;" width="80.8" height="14"/>
	<rect x="118.8" y="222" style="fill:#E6E9EE;" width="80.8" height="14"/>
	<rect x="118.8" y="188.4" style="fill:#E6E9EE;" width="80.8" height="14"/>
	<rect x="118.8" y="288.8" style="fill:#E6E9EE;" width="80.8" height="14"/>
	<rect x="118.8" y="322.4" style="fill:#E6E9EE;" width="80.8" height="14"/>
	<rect x="118.8" y="356" style="fill:#E6E9EE;" width="80.8" height="14"/>
</g>
<g>
	<path style="fill:#324A5E;" d="M409.2,224H282.8c-0.8,0-1.6,0.4-2,1.6l-23.6,80l-10-26c-0.4-0.8-1.2-1.2-2-1.2H234
		c-1.2,0-2,0.8-2,2s0.8,2,2,2h10l11.6,30.4c0.4,0.8,1.2,1.2,2,1.2l0,0c0.8,0,1.6-0.8,2-1.6l24.8-84h125.2c1.2,0,2-0.8,2-2
		C411.2,224.8,410.4,224,409.2,224z"/>
	<path style="fill:#324A5E;" d="M325.2,251.6H336l-12.4,19.2l13.6,20.8H326l-8.4-13.2l-8.4,13.2h-10.8l13.6-20.4l-12.4-19.6H310
		l7.6,12L325.2,251.6z"/>
	<path style="fill:#324A5E;" d="M339.6,278v-7.6H360v7.6H339.6z"/>
	<path style="fill:#324A5E;" d="M384,258.4c-2.4,0-4.4,0.8-5.6,2.4s-2,4-2.4,6.8c2.4-1.6,5.2-2.4,8-2.4c3.6,0,6.8,1.2,9.2,3.6
		c2.4,2.4,3.6,5.6,3.6,9.6s-1.2,7.2-4,9.6s-6,3.6-10,3.6c-2.8,0-5.2-0.4-7.2-1.6s-3.6-2.8-4.8-4.4c-2.4-3.6-3.6-8.4-3.6-14
		c0-3.6,0.4-6.8,1.2-9.6c0.8-2.8,2-4.8,3.6-6.4c3.2-3.2,6.8-4.8,11.2-4.8c2,0,3.6,0.4,5.2,0.8c1.6,0.4,3.2,1.2,4,1.6
		c0.8,0.4,2,1.2,3.2,2l-4.4,6.4c-0.4-0.4-0.4-0.4-1.2-0.8c-0.4-0.4-1.2-0.8-2.8-1.6C386.4,258.8,385.2,258.4,384,258.4z
		 M382.8,272.8c-1.6,0-3.2,0.4-4.4,1.6c-1.2,1.2-2,2.4-2,4s0.4,3.2,1.6,4.4c1.2,1.2,2.4,2,4.4,2c1.6,0,3.2-0.4,4.4-1.6
		c1.2-1.2,1.6-2.4,1.6-4s-0.4-3.2-1.6-4.4C386,273.2,384.8,272.8,382.8,272.8z"/>
</g>
<g>
</g>
<g>
</g>
<g>
</g>
<g>
</g>
<g>
</g>
<g>
</g>
<g>
</g>
<g>
</g>
<g>
</g>
<g>
</g>
<g>
</g>
<g>
</g>
<g>
</g>
<g>
</g>
<g>
</g>
</svg>
