<?xml version="1.0" encoding="iso-8859-1"?>
<!-- Generator: Adobe Illustrator 19.0.0, SVG Export Plug-In . SVG Version: 6.00 Build 0)  -->
<svg version="1.1" id="Layer_1" xmlns="http://www.w3.org/2000/svg" xmlns:xlink="http://www.w3.org/1999/xlink" x="0px" y="0px"
	 viewBox="0 0 508 508" style="enable-background:new 0 0 508 508;" xml:space="preserve">
<circle style="fill:#90DFAA;" cx="254" cy="254" r="254"/>
<path style="fill:#FFFFFF;" d="M363.2,420H144.8c-11.6,0-20.8-9.2-20.8-20.8V108.4c0-11.6,9.2-20.8,20.8-20.8h218.8
	c11.6,0,20.8,9.2,20.8,20.8v290.8C384,410.8,374.8,420,363.2,420z"/>
<rect x="138.8" y="110" style="fill:#84DBFF;" width="230.8" height="60.4"/>
<polygon style="fill:#54C0EB;" points="352,110 184.8,170.4 369.2,170.4 369.2,110 "/>
<rect x="138.8" y="185.2" style="fill:#FFD05B;" width="46" height="45.6"/>
<g>
	<rect x="200" y="185.2" style="fill:#E6E9EE;" width="46" height="45.6"/>
	<rect x="261.6" y="185.2" style="fill:#E6E9EE;" width="46" height="45.6"/>
	<rect x="323.2" y="185.2" style="fill:#E6E9EE;" width="46" height="45.6"/>
	<rect x="138.8" y="242.8" style="fill:#E6E9EE;" width="46" height="45.6"/>
	<rect x="200" y="242.8" style="fill:#E6E9EE;" width="46" height="45.6"/>
	<rect x="261.6" y="242.8" style="fill:#E6E9EE;" width="46" height="45.6"/>
	<rect x="323.2" y="242.8" style="fill:#E6E9EE;" width="46" height="45.6"/>
	<rect x="138.8" y="300.4" style="fill:#E6E9EE;" width="46" height="45.6"/>
	<rect x="200" y="300.4" style="fill:#E6E9EE;" width="46" height="45.6"/>
	<rect x="261.6" y="300.4" style="fill:#E6E9EE;" width="46" height="45.6"/>
	<rect x="138.8" y="358" style="fill:#E6E9EE;" width="46" height="45.6"/>
	<rect x="200" y="358" style="fill:#E6E9EE;" width="46" height="45.6"/>
	<rect x="261.6" y="358" style="fill:#E6E9EE;" width="46" height="45.6"/>
</g>
<rect x="323.2" y="300.4" style="fill:#324A5E;" width="46" height="103.2"/>
<g>
</g>
<g>
</g>
<g>
</g>
<g>
</g>
<g>
</g>
<g>
</g>
<g>
</g>
<g>
</g>
<g>
</g>
<g>
</g>
<g>
</g>
<g>
</g>
<g>
</g>
<g>
</g>
<g>
</g>
</svg>
