<?xml version="1.0" encoding="iso-8859-1"?>
<!-- Generator: Adobe Illustrator 19.0.0, SVG Export Plug-In . SVG Version: 6.00 Build 0)  -->
<svg version="1.1" id="Layer_1" xmlns="http://www.w3.org/2000/svg" xmlns:xlink="http://www.w3.org/1999/xlink" x="0px" y="0px"
	 viewBox="0 0 508 508" style="enable-background:new 0 0 508 508;" xml:space="preserve">
<circle style="fill:#54C0EB;" cx="254" cy="254" r="254"/>
<path style="fill:#FFFFFF;" d="M370.4,430.4H137.6c-12,0-21.6-9.6-21.6-21.6V99.2c0-12,9.6-21.6,21.6-21.6h232.8
	c12,0,21.6,9.6,21.6,21.6v309.6C392,420.8,382.4,430.4,370.4,430.4z"/>
<path style="fill:#CED5E0;" d="M365.6,170.8H142.4c-3.2,0-5.6-2.4-5.6-5.6v-62.4c0-3.2,2.4-5.6,5.6-5.6h222.8c3.2,0,5.6,2.4,5.6,5.6
	v62.8C371.2,168.4,368.4,170.8,365.6,170.8z"/>
<path style="fill:#ACB3BA;" d="M365.6,97.2h-36.4L250,170.8h115.6c3.2,0,5.6-2.4,5.6-5.6v-62.4C371.2,99.6,368.4,97.2,365.6,97.2z"
	/>
<g>
	<path style="fill:#324A5E;" d="M173.2,365.2h-32.4c-2.4,0-4,1.6-4,4v32.4c0,2.4,1.6,4,4,4h32.4c2.4,0,4-1.6,4-4v-32.4
		C177.2,367.2,175.6,365.2,173.2,365.2z"/>
	<path style="fill:#324A5E;" d="M238,365.2h-32.4c-2.4,0-4,1.6-4,4v32.4c0,2.4,1.6,4,4,4H238c2.4,0,4-1.6,4-4v-32.4
		C242,367.2,240,365.2,238,365.2z"/>
	<path style="fill:#324A5E;" d="M302.4,365.2H270c-2.4,0-4,1.6-4,4v32.4c0,2.4,1.6,4,4,4h32.4c2.4,0,4-1.6,4-4v-32.4
		C306.4,367.2,304.8,365.2,302.4,365.2z"/>
	<path style="fill:#324A5E;" d="M173.2,307.2h-32.4c-2.4,0-4,1.6-4,4v32.4c0,2.4,1.6,4,4,4h32.4c2.4,0,4-1.6,4-4v-32.4
		C177.2,308.8,175.6,307.2,173.2,307.2z"/>
	<path style="fill:#324A5E;" d="M238,307.2h-32.4c-2.4,0-4,1.6-4,4v32.4c0,2.4,1.6,4,4,4H238c2.4,0,4-1.6,4-4v-32.4
		C242,308.8,240,307.2,238,307.2z"/>
	<path style="fill:#324A5E;" d="M302.4,307.2H270c-2.4,0-4,1.6-4,4v32.4c0,2.4,1.6,4,4,4h32.4c2.4,0,4-1.6,4-4v-32.4
		C306.4,308.8,304.8,307.2,302.4,307.2z"/>
	<path style="fill:#324A5E;" d="M367.2,307.2h-32.4c-2,0-4,1.6-4,4V402c0,2,1.6,4,4,4h32.4c2,0,4-1.6,4-4v-90.8
		C371.2,308.8,369.2,307.2,367.2,307.2z"/>
	<path style="fill:#324A5E;" d="M173.2,248.8h-32.4c-2.4,0-4,1.6-4,4v32.4c0,2.4,1.6,4,4,4h32.4c2.4,0,4-1.6,4-4v-32.4
		C177.2,250.4,175.6,248.8,173.2,248.8z"/>
	<path style="fill:#324A5E;" d="M238,248.8h-32.4c-2.4,0-4,1.6-4,4v32.4c0,2.4,1.6,4,4,4H238c2.4,0,4-1.6,4-4v-32.4
		C242,250.4,240,248.8,238,248.8z"/>
	<path style="fill:#324A5E;" d="M302.4,248.8H270c-2.4,0-4,1.6-4,4v32.4c0,2.4,1.6,4,4,4h32.4c2.4,0,4-1.6,4-4v-32.4
		C306.4,250.4,304.8,248.8,302.4,248.8z"/>
	<path style="fill:#324A5E;" d="M367.2,248.8h-32.4c-2.4,0-4,1.6-4,4v32.4c0,2.4,1.6,4,4,4h32.4c2.4,0,4-1.6,4-4v-32.4
		C371.2,250.4,369.2,248.8,367.2,248.8z"/>
	<path style="fill:#324A5E;" d="M173.2,190.4h-32.4c-2.4,0-4,1.6-4,4v32.4c0,2.4,1.6,4,4,4h32.4c2.4,0,4-1.6,4-4v-32.4
		C177.2,192.4,175.6,190.4,173.2,190.4z"/>
	<path style="fill:#324A5E;" d="M238,190.4h-32.4c-2.4,0-4,1.6-4,4v32.4c0,2.4,1.6,4,4,4H238c2.4,0,4-1.6,4-4v-32.4
		C242,192.4,240,190.4,238,190.4z"/>
	<path style="fill:#324A5E;" d="M302.4,190.4H270c-2.4,0-4,1.6-4,4v32.4c0,2.4,1.6,4,4,4h32.4c2.4,0,4-1.6,4-4v-32.4
		C306.4,192.4,304.8,190.4,302.4,190.4z"/>
	<path style="fill:#324A5E;" d="M367.2,190.4h-32.4c-2.4,0-4,1.6-4,4v32.4c0,2.4,1.6,4,4,4h32.4c2.4,0,4-1.6,4-4v-32.4
		C371.2,192.4,369.2,190.4,367.2,190.4z"/>
</g>
<g>
</g>
<g>
</g>
<g>
</g>
<g>
</g>
<g>
</g>
<g>
</g>
<g>
</g>
<g>
</g>
<g>
</g>
<g>
</g>
<g>
</g>
<g>
</g>
<g>
</g>
<g>
</g>
<g>
</g>
</svg>
