<?xml version="1.0" encoding="iso-8859-1"?>
<!-- Generator: Adobe Illustrator 19.0.0, SVG Export Plug-In . SVG Version: 6.00 Build 0)  -->
<svg version="1.1" id="Layer_1" xmlns="http://www.w3.org/2000/svg" xmlns:xlink="http://www.w3.org/1999/xlink" x="0px" y="0px"
	 viewBox="0 0 508 508" style="enable-background:new 0 0 508 508;" xml:space="preserve">
<circle style="fill:#FFD05B;" cx="254" cy="254" r="254"/>
<path style="fill:#FFFFFF;" d="M231.6,246.4H114c-8.4,0-14.8-6.8-14.8-14.8V114c0-8.4,6.8-14.8,14.8-14.8h117.6
	c8.4,0,14.8,6.8,14.8,14.8v117.6C246.4,239.6,239.6,246.4,231.6,246.4z"/>
<rect x="114.8" y="114.8" style="fill:#84DBFF;" width="115.6" height="115.6"/>
<path style="fill:#FFFFFF;" d="M394,246.4H276.4c-8.4,0-14.8-6.8-14.8-14.8V114c0-8.4,6.8-14.8,14.8-14.8H394
	c8.4,0,14.8,6.8,14.8,14.8v117.6C409.2,239.6,402.4,246.4,394,246.4z"/>
<rect x="277.6" y="114.8" style="fill:#FF7058;" width="115.6" height="115.6"/>
<path style="fill:#FFFFFF;" d="M231.6,409.2H114c-8.4,0-14.8-6.8-14.8-14.8v-118c0-8.4,6.8-14.8,14.8-14.8h117.6
	c8.4,0,14.8,6.8,14.8,14.8V394C246.4,402.4,239.6,409.2,231.6,409.2z"/>
<rect x="114.8" y="277.6" style="fill:#4CDBC4;" width="115.6" height="115.6"/>
<path style="fill:#FFFFFF;" d="M394,409.2H276.4c-8.4,0-14.8-6.8-14.8-14.8v-118c0-8.4,6.8-14.8,14.8-14.8H394
	c8.4,0,14.8,6.8,14.8,14.8V394C409.2,402.4,402.4,409.2,394,409.2z"/>
<rect x="277.6" y="277.6" style="fill:#324A5E;" width="115.6" height="115.6"/>
<g>
	<path style="fill:#FFFFFF;" d="M326,205.2v-24.4h-23.6V164H326v-24.4h18.8V164h23.6v16.8h-23.6v24.4H326z"/>
	<path style="fill:#FFFFFF;" d="M142.8,189.2L160,172l-16.8-16.8l11.6-11.6l16.8,16.8l17.2-17.2l13.2,13.2l-17.2,17.2L202,190
		l-12,12l-16.8-16.8L156,202.4L142.8,189.2z"/>
	<path style="fill:#FFFFFF;" d="M302.4,310h66v16.8h-66V310z M302.4,344h66v16.8h-66V344z"/>
	<rect x="139.6" y="326.8" style="fill:#FFFFFF;" width="66" height="16.8"/>
</g>
<g>
</g>
<g>
</g>
<g>
</g>
<g>
</g>
<g>
</g>
<g>
</g>
<g>
</g>
<g>
</g>
<g>
</g>
<g>
</g>
<g>
</g>
<g>
</g>
<g>
</g>
<g>
</g>
<g>
</g>
</svg>
