<?xml version="1.0" encoding="iso-8859-1"?>
<!-- Generator: Adobe Illustrator 19.0.0, SVG Export Plug-In . SVG Version: 6.00 Build 0)  -->
<svg version="1.1" id="Layer_1" xmlns="http://www.w3.org/2000/svg" xmlns:xlink="http://www.w3.org/1999/xlink" x="0px" y="0px"
	 viewBox="0 0 508 508" style="enable-background:new 0 0 508 508;" xml:space="preserve">
<circle style="fill:#324A5E;" cx="254" cy="254" r="254"/>
<path style="fill:#FFFFFF;" d="M391.6,401.2H116.4c-11.2,0-20-9.2-20-20V126.8c0-11.2,9.2-20,20-20h275.2c11.2,0,20,9.2,20,20v254
	C411.6,392,402.8,401.2,391.6,401.2z"/>
<path style="fill:#FF7058;" d="M411.6,168v-41.2c0-11.2-8.8-20-20-20H116.4c-11.2,0-20,8.8-20,20V168H411.6z"/>
<g>
	<rect x="183.2" y="207.2" style="fill:#E6E9EE;" width="31.6" height="31.6"/>
	<rect x="238" y="207.2" style="fill:#E6E9EE;" width="31.6" height="31.6"/>
	<rect x="293.2" y="207.2" style="fill:#E6E9EE;" width="31.6" height="31.6"/>
	<rect x="348" y="207.2" style="fill:#E6E9EE;" width="31.6" height="31.6"/>
	<rect x="128.4" y="259.6" style="fill:#E6E9EE;" width="31.6" height="31.6"/>
</g>
<rect x="183.2" y="259.6" style="fill:#4CDBC4;" width="31.6" height="31.6"/>
<g>
	<rect x="238" y="259.6" style="fill:#E6E9EE;" width="31.6" height="31.6"/>
	<rect x="293.2" y="259.6" style="fill:#E6E9EE;" width="31.6" height="31.6"/>
	<rect x="348" y="259.6" style="fill:#E6E9EE;" width="31.6" height="31.6"/>
	<rect x="128.4" y="312" style="fill:#E6E9EE;" width="31.6" height="31.6"/>
	<rect x="183.2" y="312" style="fill:#E6E9EE;" width="31.6" height="31.6"/>
	<rect x="238" y="312" style="fill:#E6E9EE;" width="31.6" height="31.6"/>
	<rect x="293.2" y="312" style="fill:#E6E9EE;" width="31.6" height="31.6"/>
</g>
<g>
	<circle style="fill:#324A5E;" cx="343.6" cy="137.2" r="14.4"/>
	<circle style="fill:#324A5E;" cx="164.4" cy="137.2" r="14.4"/>
</g>
<g>
</g>
<g>
</g>
<g>
</g>
<g>
</g>
<g>
</g>
<g>
</g>
<g>
</g>
<g>
</g>
<g>
</g>
<g>
</g>
<g>
</g>
<g>
</g>
<g>
</g>
<g>
</g>
<g>
</g>
</svg>
