<?xml version="1.0" encoding="iso-8859-1"?>
<!-- Generator: Adobe Illustrator 19.0.0, SVG Export Plug-In . SVG Version: 6.00 Build 0)  -->
<svg version="1.1" id="Layer_1" xmlns="http://www.w3.org/2000/svg" xmlns:xlink="http://www.w3.org/1999/xlink" x="0px" y="0px"
	 viewBox="0 0 508 508" style="enable-background:new 0 0 508 508;" xml:space="preserve">
<circle style="fill:#324A5E;" cx="254" cy="254" r="254"/>
<path style="fill:#E6E9EE;" d="M402,395.6H106c-6.4,0-11.2-5.2-11.2-11.2V123.6c0-6.4,5.2-11.2,11.2-11.2h296
	c6.4,0,11.2,5.2,11.2,11.2v260.8C413.2,390.8,408.4,395.6,402,395.6z"/>
<rect x="115.2" y="154" style="fill:#FF7058;" width="277.6" height="62.8"/>
<polygon style="fill:#FFFFFF;" points="115.2,216.8 115.2,375.2 350,375.2 350,332.4 392.8,332.4 392.8,216.8 "/>
<polygon style="fill:#CED5E0;" points="350,375.2 392.8,332.4 350,332.4 "/>
<g>
	<rect x="183.6" y="231.6" style="fill:#84DBFF;" width="32.4" height="32.4"/>
	<rect x="235.2" y="231.6" style="fill:#84DBFF;" width="32.4" height="32.4"/>
	<rect x="287.2" y="231.6" style="fill:#84DBFF;" width="32.4" height="32.4"/>
	<rect x="338.8" y="231.6" style="fill:#84DBFF;" width="32.4" height="32.4"/>
	<rect x="132" y="278" style="fill:#84DBFF;" width="32.4" height="32.4"/>
	<rect x="183.6" y="278" style="fill:#84DBFF;" width="32.4" height="32.4"/>
	<rect x="235.2" y="278" style="fill:#84DBFF;" width="32.4" height="32.4"/>
	<rect x="287.2" y="278" style="fill:#84DBFF;" width="32.4" height="32.4"/>
	<rect x="338.8" y="278" style="fill:#84DBFF;" width="32.4" height="32.4"/>
	<rect x="132" y="324.4" style="fill:#84DBFF;" width="32.4" height="32.4"/>
	<rect x="183.6" y="324.4" style="fill:#84DBFF;" width="32.4" height="32.4"/>
	<rect x="235.2" y="324.4" style="fill:#84DBFF;" width="32.4" height="32.4"/>
	<rect x="287.2" y="324.4" style="fill:#84DBFF;" width="32.4" height="32.4"/>
</g>
<g>
	<rect x="335.6" y="136.4" style="fill:#324A5E;" width="16" height="31.6"/>
	<rect x="276" y="136.4" style="fill:#324A5E;" width="16" height="31.6"/>
	<rect x="216" y="136.4" style="fill:#324A5E;" width="16" height="31.6"/>
	<rect x="156.4" y="136.4" style="fill:#324A5E;" width="16" height="31.6"/>
</g>
<g>
</g>
<g>
</g>
<g>
</g>
<g>
</g>
<g>
</g>
<g>
</g>
<g>
</g>
<g>
</g>
<g>
</g>
<g>
</g>
<g>
</g>
<g>
</g>
<g>
</g>
<g>
</g>
<g>
</g>
</svg>
