<?xml version="1.0" encoding="iso-8859-1"?>
<!-- Generator: Adobe Illustrator 19.0.0, SVG Export Plug-In . SVG Version: 6.00 Build 0)  -->
<svg version="1.1" id="Layer_1" xmlns="http://www.w3.org/2000/svg" xmlns:xlink="http://www.w3.org/1999/xlink" x="0px" y="0px"
	 viewBox="0 0 508 508" style="enable-background:new 0 0 508 508;" xml:space="preserve">
<circle style="fill:#324A5E;" cx="254" cy="254" r="254"/>
<path style="fill:#FFFFFF;" d="M375.6,405.6H132.4c-10.4,0-18.8-8.4-18.8-18.8V121.6c0-10.4,8.4-18.8,18.8-18.8h243.2
	c10.4,0,18.8,8.4,18.8,18.8v265.2C394.8,397.2,386,405.6,375.6,405.6z"/>
<path style="fill:#FF7058;" d="M394.8,161.6v-40c0-10.4-8.4-18.8-18.8-18.8H132c-10.4,0-18.8,8.4-18.8,18.8v40H394.8z"/>
<g>
	<circle style="fill:#FFFFFF;" cx="346" cy="132" r="13.6"/>
	<circle style="fill:#FFFFFF;" cx="284.8" cy="132" r="13.6"/>
	<circle style="fill:#FFFFFF;" cx="223.2" cy="132" r="13.6"/>
	<circle style="fill:#FFFFFF;" cx="162" cy="132" r="13.6"/>
</g>
<g>
	<path style="fill:#54C0EB;" d="M215.2,270.8c2.8-4,4-7.6,4-11.2s-1.2-6.8-3.6-9.2c-2.4-2.4-5.6-3.6-9.2-3.6
		c-6.8,0-13.6,4.8-19.6,14.8L167.2,250c5.2-8,10.8-14,16.8-18s14-6,23.2-6c9.6,0,17.6,3.2,24.8,9.2s10.8,14,10.8,24.4
		c0,5.6-1.6,11.2-4.4,16.4c-2.8,5.2-8,11.6-16,20l-19.6,20.4H246v22h-76.8v-18l32-32.8C207.6,280,212.4,274.8,215.2,270.8z"/>
	<path style="fill:#54C0EB;" d="M334,228v21.2h-43.2v18.4c3.2-0.8,7.2-1.6,11.2-1.6c10.4,0,19.6,3.2,27.2,9.6s11.6,14.8,11.6,25.6
		c0,10.8-4,19.6-12,26.8c-8,7.2-17.6,10.4-29.2,10.4c-14.8,0-27.2-5.6-37.2-16.4l12.8-18c0.8,0.8,2,2,3.6,3.6
		c1.6,1.2,4.4,3.2,8.8,5.6c4,2.4,8.4,3.2,12.4,3.2s8-1.2,11.2-3.6s4.8-6.4,4.8-11.2c0-4.8-1.6-8.8-5.2-11.2c-3.6-2.8-8-4-13.6-4
		s-12,2-19.2,6l-10-10.8V228H334z"/>
</g>
<g>
	<path style="fill:#FFD05B;" d="M346.4,134.8L346.4,134.8c-3.6,0-6-2.8-6-6V91.2c0-3.6,2.8-6,6-6l0,0c3.6,0,6,2.8,6,6v37.6
		C352.4,132,349.6,134.8,346.4,134.8z"/>
	<path style="fill:#FFD05B;" d="M284.8,134.8L284.8,134.8c-3.6,0-6-2.8-6-6V91.2c0-3.6,2.8-6,6-6l0,0c3.6,0,6,2.8,6,6v37.6
		C290.8,132,288,134.8,284.8,134.8z"/>
	<path style="fill:#FFD05B;" d="M223.2,134.8L223.2,134.8c-3.6,0-6-2.8-6-6V91.2c0-3.6,2.8-6,6-6l0,0c3.6,0,6,2.8,6,6v37.6
		C229.2,132,226.4,134.8,223.2,134.8z"/>
	<path style="fill:#FFD05B;" d="M161.2,134.8L161.2,134.8c-3.6,0-6-2.8-6-6V91.2c0-3.6,2.8-6,6-6l0,0c3.6,0,6,2.8,6,6v37.6
		C167.6,132,164.8,134.8,161.2,134.8z"/>
</g>
<g>
</g>
<g>
</g>
<g>
</g>
<g>
</g>
<g>
</g>
<g>
</g>
<g>
</g>
<g>
</g>
<g>
</g>
<g>
</g>
<g>
</g>
<g>
</g>
<g>
</g>
<g>
</g>
<g>
</g>
</svg>
