<?xml version="1.0" encoding="iso-8859-1"?>
<!-- Generator: Adobe Illustrator 19.0.0, SVG Export Plug-In . SVG Version: 6.00 Build 0)  -->
<svg version="1.1" id="Layer_1" xmlns="http://www.w3.org/2000/svg" xmlns:xlink="http://www.w3.org/1999/xlink" x="0px" y="0px"
	 viewBox="0 0 508 508" style="enable-background:new 0 0 508 508;" xml:space="preserve">
<circle style="fill:#FD8469;" cx="254" cy="254" r="254"/>
<path style="fill:#FFD05B;" d="M312,204.8c-73.2,0-132.4,43.2-132.4,96.4c0,23.2,11.6,44.8,30.4,61.6c-9.6,7.6-21.2,15.6-32.8,20.4
	c-7.2,2.8-6.8,13.6,0.8,15.6c6.8,2,14,3.2,21.2,3.6c19.2,1.2,44,0,64.8-11.6c14.8,4.4,31.2,6.8,48,6.8c73.2,0,132.4-43.2,132.4-96.4
	S385.2,204.8,312,204.8z"/>
<g>
	<circle style="fill:#324A5E;" cx="370" cy="303.2" r="19.2"/>
	<circle style="fill:#324A5E;" cx="308.4" cy="303.2" r="19.2"/>
	<circle style="fill:#324A5E;" cx="246.4" cy="303.2" r="19.2"/>
</g>
<path style="fill:#FFFFFF;" d="M330,109.2c-6.8-2-14-3.2-21.2-3.6c-19.2-1.2-44,0-64.8,11.6c-14.8-4.4-31.2-6.8-48-6.8
	c-73.2,0-132.4,43.2-132.4,96.4s59.2,96.4,132.4,96.4s132.4-43.2,132.4-96.4c0-23.2-11.6-44.8-30.4-61.6
	c9.6-7.6,21.2-15.6,32.8-20.4C338,122,337.6,111.2,330,109.2z"/>
<g>
	<circle style="fill:#84DBFF;" cx="252.4" cy="204.8" r="19.2"/>
	<circle style="fill:#84DBFF;" cx="190.8" cy="204.8" r="19.2"/>
	<circle style="fill:#84DBFF;" cx="128.8" cy="204.8" r="19.2"/>
</g>
<g>
</g>
<g>
</g>
<g>
</g>
<g>
</g>
<g>
</g>
<g>
</g>
<g>
</g>
<g>
</g>
<g>
</g>
<g>
</g>
<g>
</g>
<g>
</g>
<g>
</g>
<g>
</g>
<g>
</g>
</svg>
