<?xml version="1.0" encoding="iso-8859-1"?>
<!-- Generator: Adobe Illustrator 19.0.0, SVG Export Plug-In . SVG Version: 6.00 Build 0)  -->
<svg version="1.1" id="Layer_1" xmlns="http://www.w3.org/2000/svg" xmlns:xlink="http://www.w3.org/1999/xlink" x="0px" y="0px"
	 viewBox="0 0 508 508" style="enable-background:new 0 0 508 508;" xml:space="preserve">
<circle style="fill:#FF7058;" cx="254" cy="254" r="254"/>
<path style="fill:#324A5E;" d="M415.2,388H96.4V210.4c0-6.8,5.6-12.4,12.4-12.4h294c6.8,0,12.4,5.6,12.4,12.4L415.2,388L415.2,388z"
	/>
<rect x="185.2" y="366.8" style="fill:#2B3B4E;" width="137.2" height="21.2"/>
<path style="fill:#FFFFFF;" d="M376.4,382h-36c-2,0-4-1.6-4.4-3.6l-46-207.2c-3.2-14.8,2.8-30.4,15.6-38.4c3.6-2.4,9.6-7.2,9.2-13.2
	C314,108.4,290,96.4,256,96.4c-34.4,0-58.4,12-59.2,23.2c-0.4,5.6,4.8,10,9.2,12.8c12.4,8,18.8,23.6,15.6,38.4l-46.4,207.6
	c-0.4,2-2.4,3.6-4.4,3.6h-35.6c-2.4,0-4.8-2-4.8-4.8c0-2.4,2-4.8,4.8-4.8h31.6L212,168.8c2.4-11.2-2-22.8-11.6-28.8
	c-11.6-7.6-13.6-16-13.2-21.2c1.2-18.4,30.8-32,68.4-32s66.8,13.6,68.4,32c0.4,5.6-1.6,14-13.6,21.6c-9.2,6-14,17.6-11.6,28.8
	l44.8,203.6H376c2.4,0,4.8,2,4.8,4.8C381.2,380,379.2,382,376.4,382z"/>
<g>
	<rect x="349.6" y="366.8" style="fill:#2B3B4E;" width="72.8" height="21.2"/>
	<rect x="85.6" y="366.8" style="fill:#2B3B4E;" width="72.8" height="21.2"/>
</g>
<g>
</g>
<g>
</g>
<g>
</g>
<g>
</g>
<g>
</g>
<g>
</g>
<g>
</g>
<g>
</g>
<g>
</g>
<g>
</g>
<g>
</g>
<g>
</g>
<g>
</g>
<g>
</g>
<g>
</g>
</svg>
