<?xml version="1.0" encoding="iso-8859-1"?>
<!-- Generator: Adobe Illustrator 19.0.0, SVG Export Plug-In . SVG Version: 6.00 Build 0)  -->
<svg version="1.1" id="Layer_1" xmlns="http://www.w3.org/2000/svg" xmlns:xlink="http://www.w3.org/1999/xlink" x="0px" y="0px"
	 viewBox="0 0 508 508" style="enable-background:new 0 0 508 508;" xml:space="preserve">
<circle style="fill:#FFD05B;" cx="254" cy="254" r="254"/>
<path style="fill:#324A5E;" d="M377.2,102.8H130.8c-5.2,0-9.2,4-9.2,9.2v284.4c0,5.2,4,9.2,9.2,9.2h246c5.2,0,9.2-4,9.2-9.2V111.6
	C386,106.8,382,102.8,377.2,102.8z"/>
<polygon style="fill:#FFFFFF;" points="144.8,114 144.8,356 323.2,356 323.2,316 363.2,316 363.2,114 "/>
<polygon style="fill:#E6E9EE;" points="323.2,356 363.2,316 323.2,316 "/>
<rect x="196.4" y="89.6" style="fill:#FF7058;" width="115.2" height="36.8"/>
<g>
	<rect x="166.4" y="148.4" style="fill:#E6E9EE;" width="34.4" height="34.4"/>
	<rect x="216.4" y="148.4" style="fill:#E6E9EE;" width="124.8" height="7.6"/>
	<rect x="216.4" y="167.2" style="fill:#E6E9EE;" width="95.6" height="7.6"/>
	<rect x="166.4" y="206" style="fill:#E6E9EE;" width="34.4" height="34.4"/>
	<rect x="216.4" y="206" style="fill:#E6E9EE;" width="124.8" height="7.6"/>
	<rect x="216.4" y="224.4" style="fill:#E6E9EE;" width="95.6" height="7.6"/>
	<rect x="166.4" y="263.2" style="fill:#E6E9EE;" width="34.4" height="34.4"/>
	<rect x="216.4" y="263.2" style="fill:#E6E9EE;" width="124.8" height="7.6"/>
	<rect x="216.4" y="281.6" style="fill:#E6E9EE;" width="95.6" height="7.6"/>
</g>
<g>
</g>
<g>
</g>
<g>
</g>
<g>
</g>
<g>
</g>
<g>
</g>
<g>
</g>
<g>
</g>
<g>
</g>
<g>
</g>
<g>
</g>
<g>
</g>
<g>
</g>
<g>
</g>
<g>
</g>
</svg>
