<?xml version="1.0" encoding="iso-8859-1"?>
<!-- Generator: Adobe Illustrator 19.0.0, SVG Export Plug-In . SVG Version: 6.00 Build 0)  -->
<svg version="1.1" id="Layer_1" xmlns="http://www.w3.org/2000/svg" xmlns:xlink="http://www.w3.org/1999/xlink" x="0px" y="0px"
	 viewBox="0 0 508 508" style="enable-background:new 0 0 508 508;" xml:space="preserve">
<circle style="fill:#FD8469;" cx="254" cy="254" r="254"/>
<circle style="fill:#54C0EB;" cx="254" cy="254" r="204.8"/>
<circle style="fill:#FFFFFF;" cx="254" cy="254" r="168.8"/>
<g>
	<path style="fill:#324A5E;" d="M234,102h12v29.6h-6.4v-24H234V102z"/>
	<path style="fill:#324A5E;" d="M264.8,113.6c0.8-1.2,1.2-2,1.2-3.2c0-0.8-0.4-2-0.8-2.4c-0.8-0.8-1.6-1.2-2.4-1.2
		c-2,0-3.6,1.2-5.2,4l-5.2-3.2c1.2-2,2.8-3.6,4.4-4.8c1.6-1.2,3.6-1.6,6.4-1.6c2.4,0,4.8,0.8,6.8,2.4s2.8,4,2.8,6.8
		c0,1.6-0.4,3.2-1.2,4.4c-0.8,1.6-2.4,3.2-4.4,5.2l-5.2,5.6h11.6v6h-20.8v-4.8l8.8-8.8C262.8,116,264,114.4,264.8,113.6z"/>
	<path style="fill:#324A5E;" d="M315.6,122h12v29.6h-6.4v-24h-5.6V122z"/>
	<path style="fill:#324A5E;" d="M373.2,183.6c0.8-1.2,1.2-2,1.2-3.2c0-0.8-0.4-2-0.8-2.4c-0.8-0.8-1.6-1.2-2.4-1.2
		c-2,0-3.6,1.2-5.2,4l-5.6-2.8c1.2-2,2.8-3.6,4.4-4.8s3.6-1.6,6.4-1.6c2.4,0,4.8,0.8,6.8,2.4c2,1.6,2.8,4,2.8,6.8
		c0,1.6-0.4,3.2-1.2,4.4c-0.8,1.6-2.4,3.2-4.4,5.2l-5.2,5.2h11.6v6h-20.8v-4.8l8.8-8.8C371.2,186,372.4,184.4,373.2,183.6z"/>
	<path style="fill:#324A5E;" d="M380,244.8v-5.6h18.4v4.4l-6,6.8c2.4,0.4,4.4,1.2,5.6,3.2c1.2,1.6,2,3.6,2,5.6
		c0,3.2-1.2,5.6-3.2,7.2s-4.8,2.8-8,2.8s-6.8-1.2-10-3.6l2.8-5.2c2.8,2,5.2,2.8,7.6,2.8c1.2,0,2.4-0.4,3.2-0.8
		c0.8-0.8,1.2-1.6,1.2-2.8c0-1.2-0.4-2.4-1.6-2.8c-0.8-0.8-2.4-1.2-4-1.2c-0.8,0-2.4,0.4-4,0.8v-4.8l5.6-6.8L380,244.8L380,244.8z"
		/>
	<path style="fill:#324A5E;" d="M372,323.6v-5.2h6.4v5.2h3.6v5.6h-3.2v7.2h-6.4v-7.2h-12V324l10.4-17.6h7.2l-10,16.8h4V323.6z"/>
	<path style="fill:#324A5E;" d="M330.4,356v5.6h-11.6v4.8c0.8-0.4,2-0.4,3.2-0.4c2.8,0,5.2,0.8,7.6,2.4c2,1.6,3.2,4,3.2,6.8
		s-1.2,5.2-3.2,7.2s-4.8,2.8-8,2.8c-4,0-7.2-1.6-10-4.4l3.6-4.8c0.4,0.4,0.4,0.4,1.2,0.8c0.4,0.4,1.2,0.8,2.4,1.6
		c1.2,0.8,2.4,0.8,3.6,0.8s2-0.4,3.2-1.2c0.8-0.8,1.2-1.6,1.2-3.2s-0.4-2.4-1.6-3.2c-0.8-0.8-2-1.2-3.6-1.2s-3.2,0.4-5.2,1.6
		l-2.8-2.8v-14.4h16.8V356z"/>
	<path style="fill:#324A5E;" d="M255.6,379.2c-2,0-3.2,0.8-4.4,2s-1.6,2.8-2,5.2c2-1.2,4-1.6,6-1.6c2.8,0,5.2,0.8,6.8,2.8
		c2,2,2.8,4.4,2.8,7.2c0,3.2-0.8,5.6-2.8,7.2c-2,2-4.4,2.8-7.6,2.8c-2,0-4-0.4-5.6-1.2s-2.8-2-3.6-3.2c-1.6-2.8-2.4-6.4-2.4-10.4
		c0-2.8,0.4-5.2,0.8-7.2c0.8-2,1.6-3.6,2.8-4.8c2.4-2.4,5.2-3.6,8.4-3.6c1.2,0,2.8,0.4,4,0.8s2.4,0.8,2.8,1.2
		c0.8,0.4,1.6,0.8,2.4,1.6l-2.8,4c0,0-0.4-0.4-0.8-0.8s-0.8-0.8-2-1.2C257.6,379.6,256.4,379.2,255.6,379.2z M254.8,390
		c-1.2,0-2.4,0.4-3.2,1.2c-0.8,0.8-1.2,1.6-1.2,3.2c0,1.2,0.4,2.4,1.2,3.2c0.8,0.8,2,1.2,3.2,1.2c1.2,0,2.4-0.4,3.2-1.2
		c0.8-0.8,1.2-2,1.2-3.2s-0.4-2.4-1.2-3.2C257.2,390.4,256,390,254.8,390z"/>
	<path style="fill:#324A5E;" d="M175.6,365.6V356h21.6v5.2l-12,24.8H178l11.6-24H182v4h-6.4V365.6z"/>
	<path style="fill:#324A5E;" d="M129.6,308.4c2-1.6,4.4-2.4,7.2-2.4s5.6,0.8,7.2,2.4c2,1.6,2.8,3.6,2.8,5.6c0,2.4-0.8,4.4-2.8,6
		c2.4,2,3.6,4.4,3.6,7.6c0,2.8-1.2,4.8-3.2,6.4s-4.8,2.8-8.4,2.8c-3.2,0-6-0.8-8.4-2.8c-2-1.6-3.2-4-3.2-6.4c0-3.2,1.2-5.6,3.6-7.6
		c-1.6-1.6-2.8-3.6-2.8-6C126.8,312,127.6,310,129.6,308.4z M133.6,330.4c0.8,0.8,2,1.2,3.2,1.2s2.4-0.4,3.2-1.2
		c0.8-0.8,1.6-1.6,1.6-2.8c0-1.2-0.4-2.4-1.6-2.8c-0.8-0.8-2-1.2-3.2-1.2s-2.4,0.4-3.2,1.2c-0.8,0.8-1.6,1.6-1.6,2.8
		C132.4,328.8,132.8,329.6,133.6,330.4z M134,317.2c0.8,0.8,1.6,1.2,2.8,1.2s2-0.4,2.8-1.2c0.8-0.8,1.2-1.6,1.2-2.4
		c0-1.2-0.4-2-1.2-2.4c-0.8-0.8-1.6-1.2-2.8-1.2s-2,0.4-2.8,1.2c-0.8,0.8-1.2,1.6-1.2,2.4C132.8,316,133.2,316.8,134,317.2z"/>
	<path style="fill:#324A5E;" d="M117.2,263.6c2,0,3.2-0.8,4.4-2c1.2-1.2,1.6-2.8,2-5.2c-2,1.2-3.6,2-6,2c-2.8,0-5.2-0.8-6.8-2.8
		c-2-2-2.8-4.4-2.8-7.2c0-3.2,1.2-5.6,3.2-7.2c2-2,4.4-2.8,7.6-2.8c2,0,4,0.4,5.6,1.2s2.8,2,3.6,3.2c1.6,2.8,2.4,6.4,2.4,10.4
		c0,2.8-0.4,5.2-1.2,7.2s-1.6,3.6-2.8,4.8c-2.4,2.4-5.2,3.6-8.4,3.6c-1.2,0-2.8-0.4-4-0.8s-2.4-0.8-2.8-1.2
		c-0.8-0.4-1.6-0.8-2.4-1.6l3.2-4.8c0,0,0.4,0.4,0.8,0.8s0.8,0.8,2,1.2C115.6,263.6,116.4,263.6,117.2,263.6z M118.4,252.8
		c1.2,0,2.4-0.4,3.2-1.2c0.8-0.8,1.2-1.6,1.2-3.2c0-1.2-0.4-2.4-1.2-3.2c-0.8-0.8-2-1.2-3.2-1.2s-2.4,0.4-3.2,1.2
		c-0.8,0.8-1.2,2-1.2,3.2s0.4,2.4,1.2,3.2C116,252.4,116.8,252.8,118.4,252.8z"/>
	<path style="fill:#324A5E;" d="M115.6,171.6h12v29.6h-6.4v-24h-5.6C115.6,177.2,115.6,171.6,115.6,171.6z"/>
	<path style="fill:#324A5E;" d="M146,202c-4,0-7.2-1.2-9.2-4s-3.2-6.4-3.2-11.2s1.2-8.4,3.2-11.2s5.2-4,9.2-4s7.2,1.2,9.2,4
		s3.2,6.4,3.2,11.2s-1.2,8.4-3.2,11.2C153.2,200.4,150.4,202,146,202z M141.6,179.2c-0.8,2-1.6,4.4-1.6,7.2s0.4,5.2,1.6,7.2
		c0.8,2,2.4,2.8,4.4,2.8s3.6-0.8,4.4-2.8c0.8-2,1.2-4.4,1.2-7.2s-0.4-5.2-1.2-7.2s-2.4-2.8-4.4-2.8S142.8,177.6,141.6,179.2z"/>
	<path style="fill:#324A5E;" d="M172,122h12v29.6h-6.4v-24H172V122z"/>
	<path style="fill:#324A5E;" d="M189.2,122h12v29.6h-6.4v-24h-5.6V122z"/>
</g>
<path style="fill:#FF7058;" d="M180.8,328.8c-0.4,0-0.8,0-1.2-0.4c-0.8-0.8-0.8-2,0-2.4l73.2-73.2c0.8-0.8,2-0.8,2.4,0
	c0.8,0.8,0.8,2,0,2.4L182,328.4C181.6,328.8,181.2,328.8,180.8,328.8z"/>
<path style="fill:#2B3B4E;" d="M254,257.6c-2,0-3.6-1.6-3.6-3.6v-98c0-2,1.6-3.6,3.6-3.6s3.6,1.6,3.6,3.6v98
	C257.6,256,256,257.6,254,257.6z"/>
<path style="fill:#2B3B4E;" d="M336,258.4L336,258.4l-82-0.8c-2,0-3.6-1.6-3.6-3.6s1.6-3.6,3.6-3.6l0,0l82,1.2c2,0,3.6,1.6,3.6,3.6
	C339.6,256.8,338,258.4,336,258.4z"/>
<circle style="fill:#324A5E;" cx="254" cy="254" r="8.8"/>
<g>
</g>
<g>
</g>
<g>
</g>
<g>
</g>
<g>
</g>
<g>
</g>
<g>
</g>
<g>
</g>
<g>
</g>
<g>
</g>
<g>
</g>
<g>
</g>
<g>
</g>
<g>
</g>
<g>
</g>
</svg>
