<?xml version="1.0" encoding="iso-8859-1"?>
<!-- Generator: Adobe Illustrator 19.0.0, SVG Export Plug-In . SVG Version: 6.00 Build 0)  -->
<svg version="1.1" id="Layer_1" xmlns="http://www.w3.org/2000/svg" xmlns:xlink="http://www.w3.org/1999/xlink" x="0px" y="0px"
	 viewBox="0 0 508 508" style="enable-background:new 0 0 508 508;" xml:space="preserve">
<circle style="fill:#324A5E;" cx="254" cy="254" r="254"/>
<path style="fill:#4CDBC4;" d="M339.6,116.8v2.4c0,12-10,22-22,22h-46c-7.6,0-14,6.4-14,14v42.4h-8v-42.8c0-12,9.6-21.6,21.6-21.6
	H318c7.6,0,14-6.4,14-14v-2.4c0-7.6-6.4-14-14-14H202.8c-12,0-22-10-22-22s9.6-22,22-22h46.8c9.6,0,17.6-8,17.6-17.6V0
	c2.8,0,5.2,0.4,8,0.4v41.2c0,14-11.6,25.6-25.6,25.6h-46.8c-7.6,0-14,6.4-14,14s6.4,14,14,14H318C330,94.8,339.6,104.8,339.6,116.8z
	"/>
<path style="fill:#FFFFFF;" d="M254.4,182.8h-1.2c-47.2,0-85.6,38.4-85.6,85.6v110c0,47.2,38.4,85.6,85.6,85.6h1.2
	c47.2,0,85.6-38.4,85.6-85.6v-110C340,221.2,301.6,182.8,254.4,182.8z"/>
<path style="fill:#E6E9EE;" d="M340,268.4V294H168v-25.6c0-46,36.4-83.6,82-85.2v51.6h8v-52C303.6,184.8,340,222.4,340,268.4z"/>
<path style="fill:#324A5E;" d="M254,278.4L254,278.4c-6.8,0-12.4-5.6-12.4-12.4v-32.8c0-6.8,5.6-12.4,12.4-12.4l0,0
	c6.8,0,12.4,5.6,12.4,12.4V266C266.4,272.8,260.8,278.4,254,278.4z"/>
<g>
</g>
<g>
</g>
<g>
</g>
<g>
</g>
<g>
</g>
<g>
</g>
<g>
</g>
<g>
</g>
<g>
</g>
<g>
</g>
<g>
</g>
<g>
</g>
<g>
</g>
<g>
</g>
<g>
</g>
</svg>
