<?xml version="1.0" encoding="iso-8859-1"?>
<!-- Generator: Adobe Illustrator 19.0.0, SVG Export Plug-In . SVG Version: 6.00 Build 0)  -->
<svg version="1.1" id="Layer_1" xmlns="http://www.w3.org/2000/svg" xmlns:xlink="http://www.w3.org/1999/xlink" x="0px" y="0px"
	 viewBox="0 0 508 508" style="enable-background:new 0 0 508 508;" xml:space="preserve">
<circle style="fill:#324A5E;" cx="254" cy="254" r="254"/>
<path style="fill:#2B3B4E;" d="M56.4,413.2C102.8,471.2,174,508,254,508s151.2-36.8,197.6-94.8H56.4z"/>
<polygon style="fill:#FFFFFF;" points="290.4,289.2 217.6,289.2 196,390 312,390 "/>
<g>
	<polygon style="fill:#E6E9EE;" points="306,362 290.4,289.2 217.6,289.2 202,362 	"/>
	<path style="fill:#E6E9EE;" d="M315.2,388.8H192.8c-8.8,0-16,7.2-16,16v8.8h154v-8.8C330.8,395.6,324,388.8,315.2,388.8z"/>
</g>
<path style="fill:#FFFFFF;" d="M411.2,351.2H96.8c-8,0-14-6.4-14-14V134.4c0-8,6.4-14,14-14h314c8,0,14,6.4,14,14v202.4
	C425.2,344.8,418.8,351.2,411.2,351.2z"/>
<rect x="102.8" y="140.4" style="fill:#84DBFF;" width="302.8" height="173.2"/>
<g>
	<circle style="fill:#E6E9EE;" cx="398" cy="331.2" r="7.2"/>
	<circle style="fill:#E6E9EE;" cx="376" cy="331.2" r="7.2"/>
	<circle style="fill:#E6E9EE;" cx="354" cy="331.2" r="7.2"/>
</g>
<polygon style="fill:#FF7058;" points="146.4,140.4 127.6,140.4 127.6,239.2 146.4,220.4 165.2,239.2 165.2,140.4 "/>
<g>
	<rect x="202" y="161.2" style="fill:#54C0EB;" width="174" height="7.6"/>
	<rect x="202" y="182" style="fill:#54C0EB;" width="174" height="7.6"/>
	<rect x="202" y="202.8" style="fill:#54C0EB;" width="174" height="7.6"/>
	<rect x="202" y="223.6" style="fill:#54C0EB;" width="174" height="7.6"/>
	<rect x="202" y="244.4" style="fill:#54C0EB;" width="174" height="7.6"/>
	<rect x="202" y="265.2" style="fill:#54C0EB;" width="174" height="7.6"/>
</g>
<g>
</g>
<g>
</g>
<g>
</g>
<g>
</g>
<g>
</g>
<g>
</g>
<g>
</g>
<g>
</g>
<g>
</g>
<g>
</g>
<g>
</g>
<g>
</g>
<g>
</g>
<g>
</g>
<g>
</g>
</svg>
