<?xml version="1.0" encoding="iso-8859-1"?>
<!-- Generator: Adobe Illustrator 19.0.0, SVG Export Plug-In . SVG Version: 6.00 Build 0)  -->
<svg version="1.1" id="Layer_1" xmlns="http://www.w3.org/2000/svg" xmlns:xlink="http://www.w3.org/1999/xlink" x="0px" y="0px"
	 viewBox="0 0 508 508" style="enable-background:new 0 0 508 508;" xml:space="preserve">
<circle style="fill:#FD8469;" cx="254" cy="254" r="254"/>
<path style="fill:#F1543F;" d="M74,433.2c46,46.4,109.6,74.8,180,74.8s134-28.8,180-74.8H74z"/>
<path style="fill:#2B3B4E;" d="M338.8,431.2H173.2l0,0c0-12,10-22,22-22h121.6C328.8,409.2,338.8,419.2,338.8,431.2L338.8,431.2z"/>
<polygon style="fill:#324A5E;" points="298.8,409.2 212.8,409.2 193.2,347.2 318.8,347.2 "/>
<polygon style="fill:#2B3B4E;" points="308.4,379.2 318.8,347.2 193.2,347.2 203.2,379.2 "/>
<path style="fill:#324A5E;" d="M421.2,369.2H86.8c-9.2,0-16.4-7.2-16.4-16.4V140.4c0-9.2,7.2-16.4,16.4-16.4h334.4
	c9.2,0,16.4,7.2,16.4,16.4v212.4C437.6,361.6,430.4,369.2,421.2,369.2z"/>
<rect x="84.4" y="137.2" style="fill:#54C0EB;" width="338.8" height="200.8"/>
<polygon style="fill:#84DBFF;" points="382,137.2 84.4,137.2 84.4,338 206,338 "/>
<g>
</g>
<g>
</g>
<g>
</g>
<g>
</g>
<g>
</g>
<g>
</g>
<g>
</g>
<g>
</g>
<g>
</g>
<g>
</g>
<g>
</g>
<g>
</g>
<g>
</g>
<g>
</g>
<g>
</g>
</svg>
