<?xml version="1.0" encoding="iso-8859-1"?>
<!-- Generator: Adobe Illustrator 19.0.0, SVG Export Plug-In . SVG Version: 6.00 Build 0)  -->
<svg version="1.1" id="Layer_1" xmlns="http://www.w3.org/2000/svg" xmlns:xlink="http://www.w3.org/1999/xlink" x="0px" y="0px"
	 viewBox="0 0 508 508" style="enable-background:new 0 0 508 508;" xml:space="preserve">
<circle style="fill:#324A5E;" cx="254" cy="254" r="254"/>
<circle style="fill:#FFFFFF;" cx="254" cy="254" r="191.6"/>
<g>
	<path style="fill:#E6E9EE;" d="M206,292.4l-78.4,78.4c-25.6-27.6-42-63.2-45.2-102.8H194C196,277.2,200.4,285.2,206,292.4z"/>
	<path style="fill:#E6E9EE;" d="M244.4,314.8v110.8c-39.2-2-74.8-17.6-102.4-41.6l78.8-78.8C227.6,310.4,235.6,313.6,244.4,314.8z"
		/>
	<path style="fill:#E6E9EE;" d="M370.8,127.6L292.4,206c-8-6.4-18-10.8-28.8-12.8V82.4C304.8,84.4,342.4,101.2,370.8,127.6z"/>
	<path style="fill:#E6E9EE;" d="M426,248.4H315.2c-0.8-10.4-4.4-20-9.6-28l78.8-78.8C409.2,170.4,424.8,207.6,426,248.4z"/>
</g>
<circle style="fill:#CED5E0;" cx="254" cy="254" r="48"/>
<circle style="fill:#E6E9EE;" cx="254" cy="254" r="50.4"/>
<circle style="fill:#324A5E;" cx="254" cy="254" r="22"/>
<g>
</g>
<g>
</g>
<g>
</g>
<g>
</g>
<g>
</g>
<g>
</g>
<g>
</g>
<g>
</g>
<g>
</g>
<g>
</g>
<g>
</g>
<g>
</g>
<g>
</g>
<g>
</g>
<g>
</g>
</svg>
