<?xml version="1.0" encoding="iso-8859-1"?>
<!-- Generator: Adobe Illustrator 19.0.0, SVG Export Plug-In . SVG Version: 6.00 Build 0)  -->
<svg version="1.1" id="Layer_1" xmlns="http://www.w3.org/2000/svg" xmlns:xlink="http://www.w3.org/1999/xlink" x="0px" y="0px"
	 viewBox="0 0 508 508" style="enable-background:new 0 0 508 508;" xml:space="preserve">
<circle style="fill:#324A5E;" cx="254" cy="254" r="254"/>
<path style="fill:#FFFFFF;" d="M100.8,116.4V376h259.6L100.8,116.4z M149.6,234l93.6,93.6h-93.6V234z"/>
<g>
	<rect x="130.4" y="362" style="fill:#E6E9EE;" width="6" height="14"/>
	<rect x="146.4" y="362" style="fill:#E6E9EE;" width="6" height="14"/>
	<rect x="162.4" y="362" style="fill:#E6E9EE;" width="6" height="14"/>
	<rect x="178.4" y="362" style="fill:#E6E9EE;" width="6" height="14"/>
	<rect x="194.4" y="362" style="fill:#E6E9EE;" width="6" height="14"/>
	<rect x="210.4" y="362" style="fill:#E6E9EE;" width="6" height="14"/>
	<rect x="226.4" y="362" style="fill:#E6E9EE;" width="6" height="14"/>
	<rect x="242.8" y="362" style="fill:#E6E9EE;" width="6" height="14"/>
	<rect x="258.8" y="362" style="fill:#E6E9EE;" width="6" height="14"/>
	<rect x="274.8" y="362" style="fill:#E6E9EE;" width="6" height="14"/>
	<rect x="290.8" y="362" style="fill:#E6E9EE;" width="6" height="14"/>
	<rect x="306.8" y="362" style="fill:#E6E9EE;" width="6" height="14"/>
	<rect x="100.8" y="154.4" style="fill:#E6E9EE;" width="14" height="6"/>
	<rect x="100.8" y="170.4" style="fill:#E6E9EE;" width="14" height="6"/>
	<rect x="100.8" y="186.4" style="fill:#E6E9EE;" width="14" height="6"/>
	<rect x="100.8" y="202.4" style="fill:#E6E9EE;" width="14" height="6"/>
	<rect x="100.8" y="218.4" style="fill:#E6E9EE;" width="14" height="6"/>
	<rect x="100.8" y="234.8" style="fill:#E6E9EE;" width="14" height="6"/>
	<rect x="100.8" y="250.8" style="fill:#E6E9EE;" width="14" height="6"/>
	<rect x="100.8" y="266.8" style="fill:#E6E9EE;" width="14" height="6"/>
	<rect x="100.8" y="282.8" style="fill:#E6E9EE;" width="14" height="6"/>
	<rect x="100.8" y="298.8" style="fill:#E6E9EE;" width="14" height="6"/>
	<rect x="100.8" y="314.8" style="fill:#E6E9EE;" width="14" height="6"/>
	<rect x="100.8" y="330.8" style="fill:#E6E9EE;" width="14" height="6"/>
</g>
<rect x="244.4" y="252" style="fill:#FFFFFF;" width="143.2" height="6"/>
<rect x="312.8" y="104" style="fill:#E6E9EE;" width="6.8" height="107.2"/>
<path style="fill:#4CDBC4;" d="M344,202.4l63.2,164.4L396.8,412l-55.2-143.2l3.2-0.4l-9.6-25.2l-3.2,0.4l-10-26.4
	c-2-5.6-0.8-11.2,3.6-16l0,0C329.6,196,342,197.2,344,202.4z"/>
<polygon style="fill:#2C9984;" points="389.6,392.8 396.8,412 401.6,391.2 "/>
<path style="fill:#4CDBC4;" d="M288.4,202.4l-63.2,164.4l10.4,45.2l55.2-143.6l-3.2-0.4l9.6-25.2l3.2,0.4l10-26.4
	c2-5.6,0.8-11.2-3.6-16l0,0C302.8,196,290.4,197.2,288.4,202.4z"/>
<polygon style="fill:#2C9984;" points="242.8,392.8 235.6,412 230.8,391.2 "/>
<g>
	<path style="fill:#4CDBC4;" d="M391.2,262.8L391.2,262.8c-2,0-3.6-1.6-3.6-3.6v-8.8c0-2,1.6-3.6,3.6-3.6l0,0c2,0,3.6,1.6,3.6,3.6
		v8.8C394.8,261.2,393.2,262.8,391.2,262.8z"/>
	<path style="fill:#4CDBC4;" d="M247.2,262.8L247.2,262.8c-2,0-3.6-1.6-3.6-3.6v-8.8c0-2,1.6-3.6,3.6-3.6l0,0c2,0,3.6,1.6,3.6,3.6
		v8.8C250.8,261.2,249.2,262.8,247.2,262.8z"/>
	<path style="fill:#4CDBC4;" d="M316,272L316,272c-2.8,0-5.6-2.4-5.6-5.6v-23.2c0-2.8,2.4-5.6,5.6-5.6l0,0c2.8,0,5.6,2.4,5.6,5.6
		v23.2C321.6,269.6,319.2,272,316,272z"/>
</g>
<g>
	<path style="fill:#FFFFFF;" d="M330,211.2c-1.2,0-2-0.4-2.4-1.6c-0.4-1.2,0-2.8,1.2-3.6c11.6-5.2,18.8-16.4,18.8-29.2
		c0-17.6-14.4-31.6-31.6-31.6c-17.6,0-31.6,14.4-31.6,31.6c0,12.4,7.6,24,18.8,29.2c1.2,0.4,2,2,1.2,3.6c-0.4,1.2-2,2-3.6,1.2
		c-13.6-6-22-19.2-22-34c0-20.4,16.8-37.2,37.2-37.2c20.4,0,37.2,16.8,37.2,37.2c0,14.8-8.8,28-22,34
		C330.8,211.2,330.4,211.2,330,211.2z"/>
	<circle style="fill:#FFFFFF;" cx="316" cy="210.8" r="12"/>
</g>
<circle style="fill:#E6E9EE;" cx="316" cy="210.8" r="6"/>
<path style="fill:#FFFFFF;" d="M320.4,131.6H312c-2.4,0-4-2-4-4V100c0-2.4,2-4,4-4h8.4c2.4,0,4,2,4,4v27.6
	C324.4,130,322.8,131.6,320.4,131.6z"/>
<g>
</g>
<g>
</g>
<g>
</g>
<g>
</g>
<g>
</g>
<g>
</g>
<g>
</g>
<g>
</g>
<g>
</g>
<g>
</g>
<g>
</g>
<g>
</g>
<g>
</g>
<g>
</g>
<g>
</g>
</svg>
