<?xml version="1.0" encoding="iso-8859-1"?>
<!-- Generator: Adobe Illustrator 19.0.0, SVG Export Plug-In . SVG Version: 6.00 Build 0)  -->
<svg version="1.1" id="Layer_1" xmlns="http://www.w3.org/2000/svg" xmlns:xlink="http://www.w3.org/1999/xlink" x="0px" y="0px"
	 viewBox="0 0 508 508" style="enable-background:new 0 0 508 508;" xml:space="preserve">
<circle style="fill:#324A5E;" cx="254" cy="254" r="254"/>
<g>
	<path style="fill:#F9B54C;" d="M271.6,353.2H254h-17.6c0,0-6.4,51.6-41.6,71.2H254h59.2C278.4,404.8,271.6,353.2,271.6,353.2z"/>
	<path style="fill:#F9B54C;" d="M269.2,270h-30.4c2.4,24.8-2.4,71.2-2.4,71.2h35.2C271.6,341.2,266.8,294.8,269.2,270z"/>
	<path style="fill:#F9B54C;" d="M320.8,278.4l-1.6-1.2l-1.2-2c-0.8-1.2-1.6-2.4-2-3.6s-0.8-2.8-1.2-4c-0.4-1.6-0.8-2.8-0.8-4.4
		c0-1.6,0.4-2.8,0.4-4.4c0.4-1.2,0.8-2.8,1.6-4c0.8-1.2,1.6-2.4,2.4-3.6c0.8-1.2,2-2,3.2-3.2l0,0l50-48l12.4-12l3.2-3.2l2.8-2.8
		c0.8-1.2,1.6-2,2.4-2.8c0.8-1.2,1.6-2,2-3.2c4.8-9.2,5.6-20.8,1.2-30c-2.4-4.4-5.6-8.4-10-11.2c-4-2.8-9.2-4.4-14-4.4
		c-2.4,0-4.8,0.4-7.2,0.8l-1.6,0.4l-2,0.8l-1.6,0.8l-1.6,0.8c-4,2.4-7.2,6.4-9.2,10.8c-1.6,4.4-1.6,9.2,0,13.2
		c1.6,4.4,4.8,8,8.8,9.6c2,0.8,4,1.2,6,1.2c0.8,0,2-0.4,2.8-0.4c0,0,1.2-0.4,1.6-0.4s0.8-0.4,1.2-0.8c3.2-2,5.2-6,4.4-9.6
		c-0.4-3.2,1.6-6,4.8-6.4c3.2-0.4,6,1.6,6.4,4.8l0,0v0.4c1.2,8-3.2,16-9.6,20c-0.8,0.4-1.6,0.8-2.8,1.6c-0.4,0.4-0.8,0.4-1.2,0.4
		h-0.4l0,0c-0.4,0.4-0.4,0-0.4,0l0,0h-0.4c-1.6,0.4-3.6,0.8-5.6,0.8c-3.6,0-7.6-0.8-10.8-2.4c-6.4-3.2-11.2-8.8-13.6-15.6
		c-2.4-6.4-2-14,0.4-20.4c2.8-6.4,7.2-11.6,13.2-14.8l2-1.2l2.4-1.2l2-0.8h0.4h0.4h0.4l1.2-0.4c3.2-0.8,6.4-0.8,9.6-0.8
		c6.4,0.4,12.8,2.4,18.4,6c5.2,3.6,9.6,8.8,12.4,14.8c5.2,11.6,4,25.6-2,36.4c-0.8,1.2-1.6,2.8-2.4,4c-1.2,1.2-2,2.4-3.2,3.6l-6.4,6
		L375.6,204l-51.2,47.6l0,0c-0.8,0.8-1.6,1.6-2.4,2.4s-1.2,2-2,2.8c-0.4,1.2-0.8,2-1.2,3.2c-0.4,1.2-0.4,2.4-0.4,3.2
		c0,1.2,0,2.4,0,3.6s0.4,2.4,0.8,3.2c0.4,1.2,0.8,2,1.6,2.8l1.2,1.2l1.6,1.2c0.8,0.8,0.8,2,0,2.4
		C322.8,278.8,321.6,278.8,320.8,278.4z"/>
	<path style="fill:#F9B54C;" d="M184.8,275.6l1.6-1.2l1.2-1.2c0.8-0.8,1.2-2,1.6-2.8c0.4-1.2,0.8-2,0.8-3.2s0.4-2.4,0-3.6
		c0-1.2-0.4-2.4-0.4-3.2c-0.4-1.2-0.8-2-1.2-3.2s-1.2-2-2-2.8c-0.8-0.8-1.6-1.6-2.4-2.4l0,0l-51.2-47.2L120,193.2l-6.4-6
		c-1.2-1.2-2-2.4-3.2-3.6c-0.8-1.2-2-2.4-2.4-4c-6-10.8-7.2-24.8-2-36.4c2.8-6,6.8-11.2,12.4-14.8c5.6-3.6,11.6-6,18.4-6
		c3.2,0,6.4,0,9.6,0.8l1.2,0.4h0.4h0.4h0.4l2,0.8l2.4,1.2l2,1.2c5.6,3.6,10.4,8.8,13.2,14.8c2.8,6.4,2.8,14,0.4,20.4
		c-2.4,6.4-7.2,12.4-13.6,15.6c-3.2,1.6-7.2,2.4-10.8,2.4c-2,0-3.6-0.4-5.6-0.8h-0.4l0,0c0,0,0.4,0-0.4,0l0,0h-0.4
		c-0.4,0-0.8-0.4-1.2-0.4c-1.2-0.4-2-0.8-2.8-1.6c-6.4-4-10.8-12-9.6-20l0,0c0.4-3.2,3.2-5.2,6.4-4.8s5.2,3.2,4.8,6.4l0,0
		c-0.4,3.6,1.2,7.2,4.4,9.6c0.4,0.4,0.8,0.4,1.2,0.8c0,0,1.6,0.8,1.6,0.4c0.8,0.4,2,0.4,2.8,0.4c2,0,4-0.4,6-1.2
		c4-1.6,7.2-5.2,8.8-9.6c1.6-4.4,1.6-9.2,0-13.2c-1.6-4.4-4.8-8.4-9.2-10.8l-1.6-0.8l-1.6-0.8l-2-0.8l-1.6-0.4
		c-2.4-0.4-4.8-0.8-7.2-0.8c-4.8,0-10,1.6-14,4.4c-4.4,2.8-7.6,6.8-10,11.2c-4.4,9.2-4,20.8,1.2,30c0.4,1.2,1.2,2.4,2,3.2
		s1.6,2,2.4,2.8l2.8,2.8l3.2,3.2l12.4,12l50,48l0,0c1.2,0.8,2,2,3.2,3.2c0.8,1.2,1.6,2.4,2.4,3.6c0.8,1.2,1.2,2.8,1.6,4
		c0.4,1.2,0.4,2.8,0.4,4.4s0,2.8-0.4,4.4s-0.8,2.8-1.2,4s-1.2,2.4-2,3.6l-1.6,1.6l-1.6,1.2c-0.8,0.8-2,0.4-2.4,0
		C184,277.2,184,276.4,184.8,275.6z"/>
</g>
<g>
	<path style="fill:#FFD05B;" d="M167.2,106c-3.6,15.6-6,32.4-6,50c0,79.2,41.6,143.2,92.8,143.2s92.8-64,92.8-143.2
		c0-17.6-2-34.4-6-50L167.2,106L167.2,106z"/>
	<path style="fill:#FFD05B;" d="M308.8,437.2H199.2c-5.6,0-10-4.4-10-10l0,0c0-5.6,4.4-10,10-10h109.6c5.6,0,10,4.4,10,10l0,0
		C318.8,432.4,314.4,437.2,308.8,437.2z"/>
	<ellipse style="fill:#FFD05B;" cx="254" cy="348.8" rx="24" ry="13.2"/>
</g>
<g>
</g>
<g>
</g>
<g>
</g>
<g>
</g>
<g>
</g>
<g>
</g>
<g>
</g>
<g>
</g>
<g>
</g>
<g>
</g>
<g>
</g>
<g>
</g>
<g>
</g>
<g>
</g>
<g>
</g>
</svg>
