<?xml version="1.0" encoding="iso-8859-1"?>
<!-- Generator: Adobe Illustrator 19.0.0, SVG Export Plug-In . SVG Version: 6.00 Build 0)  -->
<svg version="1.1" id="Layer_1" xmlns="http://www.w3.org/2000/svg" xmlns:xlink="http://www.w3.org/1999/xlink" x="0px" y="0px"
	 viewBox="0 0 508 508" style="enable-background:new 0 0 508 508;" xml:space="preserve">
<path style="fill:#FF7058;" d="M508,254c0,140.4-113.6,254-254,254S0,394.4,0,254S113.6,0,254,0c110.8,0,204.8,70.8,239.6,169.6
	c7.6,21.2,12,43.6,13.6,66.8C508,242.4,508,248,508,254z"/>
<path style="fill:#F1543F;" d="M73.6,432.8c46,46.4,110,75.2,180.4,75.2s134.4-28.8,180.4-75.2"/>
<path style="fill:#84DBFF;" d="M347.6,355.2h-222c-2.8,0-4.8,2-4.8,4.8l0,0c0,2.8,2,4.8,4.8,4.8H348c15.6,0,29.2,12,30,27.6
	c0.8,16.8-12.4,30.4-29.2,30.4H125.6c-2.8,0-4.8,2-4.8,4.8l0,0c0,2.8,2,4.8,4.8,4.8h223.2c10.8,0,20.4-4.4,27.2-11.2
	c7.2-7.2,11.6-16.8,11.2-28C387.2,372.4,368.8,355.2,347.6,355.2z"/>
<path style="fill:#FFFFFF;" d="M348.4,364.8H130v58.4h218.4c16,0,29.2-13.2,29.2-29.2C377.6,378,364.8,364.8,348.4,364.8z"/>
<path style="fill:#324A5E;" d="M314.8,355.2H189.6c-3.2,0-5.6-2.4-5.6-5.6v-70.8c0-3.2,2.4-5.6,5.6-5.6h125.2c3.2,0,5.6,2.4,5.6,5.6
	V350C320,352.8,317.6,355.2,314.8,355.2z"/>
<path style="fill:#2B3B4E;" d="M323.6,355.2H180.4c-3.2,0-5.6-2.4-5.6-5.6v-5.2c0-3.2,2.4-5.6,5.6-5.6h143.2c3.2,0,5.6,2.4,5.6,5.6
	v5.6C329.2,352.8,326.8,355.2,323.6,355.2z"/>
<path style="fill:#FFD05B;" d="M264.8,178.4h-8h-4.4h-8c0,0,2,72.8-36.8,94.8h44.8h4.4h44.8C262.4,251.2,264.8,178.4,264.8,178.4z"
	/>
<g>
	<path style="fill:#F9B54C;" d="M243.6,195.6h21.6c-0.8-10.4-0.8-17.2-0.8-17.2H244C244.4,178.4,244.4,185.2,243.6,195.6z"/>
	<path style="fill:#F9B54C;" d="M296.4,164.4c-2,0-3.6-1.6-3.6-3.6s1.6-3.6,3.6-3.6c22.8,0,40.4-6,51.6-17.6s17.2-28.8,17.2-51.6
		c-14,9.2-45.6,4.8-49.2,4.4c-2-0.4-3.2-2-3.2-4c0.4-2,2-3.2,4-3.2c9.2,1.6,35.2,3.6,44.4-3.6c2-1.6,2.8-3.2,3.2-5.2
		c0.4-2,2-3.2,3.6-3.2c2,0,3.2,1.6,3.6,3.6v6.8c0.8,26.8-5.6,47.2-19.2,60.8C340.4,157.6,321.2,164.4,296.4,164.4z"/>
	<path style="fill:#F9B54C;" d="M212.4,164.4c-24.8,0-44-6.8-56.8-20c-13.6-13.6-20-34.4-19.2-60.8v-6.8c0-2,1.6-3.6,3.6-3.6
		s3.6,1.2,3.6,3.2c0.4,2,1.2,3.6,3.2,5.2c9.6,7.2,35.2,4.8,44.4,3.6c2-0.4,4,1.2,4,3.2c0.4,2-1.2,4-3.2,4
		c-3.6,0.4-34.8,5.2-49.2-4.4c0,22.4,6,40,17.2,51.6c11.6,11.6,28.8,17.6,51.6,17.6c2,0,3.6,1.6,3.6,3.6
		C216,162.8,214.4,164.4,212.4,164.4z"/>
</g>
<path style="fill:#FFD05B;" d="M183.2,72c-2.8,8.8-4,18.8-4,28.8c0,48.8,33.6,88,75.2,88s75.2-39.6,75.2-88c0-10-1.6-19.6-4-28.8
	H183.2z"/>
<g>
</g>
<g>
</g>
<g>
</g>
<g>
</g>
<g>
</g>
<g>
</g>
<g>
</g>
<g>
</g>
<g>
</g>
<g>
</g>
<g>
</g>
<g>
</g>
<g>
</g>
<g>
</g>
<g>
</g>
</svg>
