<?xml version="1.0" encoding="iso-8859-1"?>
<!-- Generator: Adobe Illustrator 19.0.0, SVG Export Plug-In . SVG Version: 6.00 Build 0)  -->
<svg version="1.1" id="Layer_1" xmlns="http://www.w3.org/2000/svg" xmlns:xlink="http://www.w3.org/1999/xlink" x="0px" y="0px"
	 viewBox="0 0 508 508" style="enable-background:new 0 0 508 508;" xml:space="preserve">
<circle style="fill:#324A5E;" cx="254" cy="254" r="254"/>
<path style="fill:#2B3B4E;" d="M78,436.8c45.6,44,107.6,71.2,176,71.2s130.4-27.2,176-71.2H78z"/>
<g>
	<rect x="300" y="210.4" style="fill:#FFFFFF;" width="8.4" height="78.8"/>
	<rect x="218.8" y="210.4" style="fill:#FFFFFF;" width="8.4" height="78.8"/>
</g>
<g>
	<rect x="300" y="210.4" style="fill:#E6E9EE;" width="8.4" height="29.6"/>
	<rect x="218.8" y="210.4" style="fill:#E6E9EE;" width="8.4" height="29.6"/>
</g>
<path style="fill:#FFFFFF;" d="M148.8,262v-79.2h-8.4V262c0,17.2,14,31.6,31.6,31.6h25.6v-8.4H172
	C159.2,284.8,148.8,274.8,148.8,262z"/>
<rect x="140.8" y="182.8" style="fill:#E6E9EE;" width="8.4" height="15.6"/>
<g>
	<polygon style="fill:#FFFFFF;" points="348,432.4 325.6,293.2 310.8,293.2 333.6,432.4 	"/>
	<polygon style="fill:#FFFFFF;" points="194,432.4 216.4,293.2 202,293.2 179.2,432.4 	"/>
</g>
<g>
	<polygon style="fill:#E6E9EE;" points="328.8,313.6 325.6,293.2 310.8,293.2 314.4,313.6 	"/>
	<polygon style="fill:#E6E9EE;" points="213.2,313.6 216.4,293.2 202,293.2 198.4,313.6 	"/>
</g>
<g>
	<path style="fill:#54C0EB;" d="M351.2,302.8H176c-2.8,0-5.2-2.4-5.2-5.2v-16.4c0-2.8,2.4-5.2,5.2-5.2h174.8c2.8,0,5.2,2.4,5.2,5.2
		v16.4C356.4,300.4,354,302.8,351.2,302.8z"/>
	<path style="fill:#54C0EB;" d="M320.8,230.8H206.4c-10.4,0-18.8-8-19.2-18c-2.8-48.8-5.6-63.2-8-110c-0.4-8.4,4.4-16,12.4-19.2
		c46.4-18,97.6-18,144,0c8,3.2,12.8,10.8,12.4,19.2c-2.8,46.8-5.2,61.2-8,110C339.6,222.8,330.8,230.8,320.8,230.8z"/>
</g>
<path style="fill:#FFD05B;" d="M250.8,190.8h-122c-4.4,0-8-3.6-8-8l0,0c0-4.4,3.6-8,8-8h122.4c4.4,0,8,3.6,8,8l0,0
	C259.2,187.2,255.6,190.8,250.8,190.8z"/>
<g>
	<path style="fill:#ACB3BA;" d="M324,423.6l2,10.4c0.4,2.4,2.4,4,4.4,4h16.4c2.8,0,4.8-2.4,4.4-5.2l-2-11.2
		c-0.4-3.6-3.6-6.4-7.6-6.4h-10.4C326.8,415.2,323.6,419.2,324,423.6z"/>
	<path style="fill:#ACB3BA;" d="M175.6,421.2l-2,11.2c-0.4,2.8,1.6,5.2,4.4,5.2h16.4c2.4,0,4-1.6,4.4-4l1.6-10
		c0.8-4.4-2.8-8.8-7.6-8.8h-10.4C179.2,415.2,176,417.6,175.6,421.2z"/>
</g>
<g>
</g>
<g>
</g>
<g>
</g>
<g>
</g>
<g>
</g>
<g>
</g>
<g>
</g>
<g>
</g>
<g>
</g>
<g>
</g>
<g>
</g>
<g>
</g>
<g>
</g>
<g>
</g>
<g>
</g>
</svg>
