<?xml version="1.0" encoding="iso-8859-1"?>
<!-- Generator: Adobe Illustrator 19.0.0, SVG Export Plug-In . SVG Version: 6.00 Build 0)  -->
<svg version="1.1" id="Layer_1" xmlns="http://www.w3.org/2000/svg" xmlns:xlink="http://www.w3.org/1999/xlink" x="0px" y="0px"
	 viewBox="0 0 508 508" style="enable-background:new 0 0 508 508;" xml:space="preserve">
<circle style="fill:#324A5E;" cx="254" cy="254" r="254"/>
<path style="fill:#2B3B4E;" d="M58.4,416c46.4,56.4,116.8,92,195.6,92s149.2-36,195.6-92H58.4z"/>
<path style="fill:#CED5E0;" d="M342,409.6c-2.4,0-4.4-1.6-5.2-4l-25.2-93.2c-2.4-9.2-11.2-16-20.8-16h-74c-9.6,0-18.4,6.4-20.8,16
	L170.8,406c-0.8,2.8-3.6,4.4-6.4,3.6c-2.8-0.8-4.4-3.6-3.6-6.4L186,310c3.6-14,16.4-23.6,30.8-23.6h74.4c14.4,0,27.2,9.6,30.8,23.6
	l25.2,93.2c0.8,2.8-0.8,5.6-3.6,6.4C342.8,409.6,342.4,409.6,342,409.6z"/>
<g>
	<path style="fill:#E6E9EE;" d="M191.2,338.4l4.8-17.6c0.4-1.2-0.8-2.8-2-2.8h-10.8c-0.8,0-1.6,0.8-2,1.6l-4.8,17.6
		c-0.4,1.2,0.8,2.8,2,2.8h10.8C190.4,340,191.2,339.2,191.2,338.4z"/>
	<path style="fill:#E6E9EE;" d="M331.6,337.2l-4.8-17.6c-0.4-0.8-1.2-1.6-2-1.6H314c-1.2,0-2.4,1.2-2,2.8l4.8,17.6
		c0.4,0.8,1.2,1.6,2,1.6h10.8C330.8,340,332,338.8,331.6,337.2z"/>
</g>
<g>
	<path style="fill:#4CDBC4;" d="M346.8,416h-7.2c-4,0-7.2-2.8-7.6-6.4l-4.4-28H344l10,23.6C356,410.4,352.4,416,346.8,416z"/>
	<path style="fill:#4CDBC4;" d="M161.2,416h7.2c4,0,7.2-2.8,7.6-6.4l4.4-28H164l-10,23.6C152,410.4,155.6,416,161.2,416z"/>
</g>
<g>
	<rect x="281.2" y="176.4" style="fill:#CED5E0;" width="8.4" height="116"/>
	<rect x="218.4" y="176.4" style="fill:#CED5E0;" width="8.4" height="116"/>
</g>
<path style="fill:#FF7058;" d="M312,197.6c-38,10-77.6,10-116,0c-7.6-2-12.4-9.6-10.8-16c4-16.8,7.6-33.6,11.6-50.4
	c1.6-6.8,7.6-10.4,13.2-9.2c29.2,7.6,59.2,7.6,88,0c5.6-1.6,11.6,2.4,13.2,9.2c4,16.8,7.6,33.6,11.6,50.4
	C324.4,188,319.6,195.6,312,197.6z"/>
<path style="fill:#FFD05B;" d="M426.8,254H81.2c-3.6,0-6.8-3.2-6.8-6.8v-11.6c0-3.6,3.2-6.8,6.8-6.8h345.6c3.6,0,6.8,3.2,6.8,6.8
	v11.6C433.6,250.8,430.4,254,426.8,254z"/>
<g>
	<rect x="397.2" y="254" style="fill:#CED5E0;" width="10.8" height="162"/>
	<rect x="100" y="254" style="fill:#CED5E0;" width="10.8" height="162"/>
</g>
<path style="fill:#FF7058;" d="M254,300c-26.8,0-53.2-3.6-79.2-10.8c-6.4-1.6-10-8.4-8.4-14.8s8.4-10,14.8-8.4
	c47.6,13.2,98,13.2,145.6,0c6.4-1.6,13.2,2,14.8,8.4c1.6,6.4-2,13.2-8.4,14.8C307.2,296.4,280.8,300,254,300z"/>
<g>
</g>
<g>
</g>
<g>
</g>
<g>
</g>
<g>
</g>
<g>
</g>
<g>
</g>
<g>
</g>
<g>
</g>
<g>
</g>
<g>
</g>
<g>
</g>
<g>
</g>
<g>
</g>
<g>
</g>
</svg>
