<?xml version="1.0" encoding="iso-8859-1"?>
<!-- Generator: Adobe Illustrator 19.0.0, SVG Export Plug-In . SVG Version: 6.00 Build 0)  -->
<svg version="1.1" id="Layer_1" xmlns="http://www.w3.org/2000/svg" xmlns:xlink="http://www.w3.org/1999/xlink" x="0px" y="0px"
	 viewBox="0 0 508 508" style="enable-background:new 0 0 508 508;" xml:space="preserve">
<circle style="fill:#90DFAA;" cx="254" cy="254" r="254"/>
<path style="fill:#FFFFFF;" d="M408,373.2H92.4c-6.4,0-11.2-5.2-11.2-11.2V140.8c0-6.4,5.2-11.2,11.2-11.2H408
	c6.4,0,11.2,5.2,11.2,11.2V362C419.2,368,414.4,373.2,408,373.2z"/>
<path style="fill:#E6E9EE;" d="M372.4,353.6H128c-2,0-3.6-1.6-3.6-3.6c0-10.8-8.8-19.6-19.6-19.6c-2,0-3.6-1.6-3.6-3.6V176
	c0-2,1.6-3.6,3.6-3.6c10.8,0,19.6-8.8,19.6-19.6c0-2,1.6-3.6,3.6-3.6h244.4c2,0,3.6,1.6,3.6,3.6c0,10.8,8.8,19.6,19.6,19.6
	c2,0,3.6,1.6,3.6,3.6v150.4c0,2-1.6,3.6-3.6,3.6c-10.8,0-19.6,8.8-19.6,19.6C376,351.6,374.4,353.6,372.4,353.6z M131.2,346h237.6
	c1.6-12,11.2-21.6,23.2-23.2V179.6c-12-1.6-21.6-11.2-23.2-23.2H131.2c-1.6,12-11.2,21.6-23.2,23.2v143.6
	C120.4,324.8,129.6,334,131.2,346z"/>
<rect x="186" y="175.2" style="fill:#84DBFF;" width="128" height="17.6"/>
<g>
	<rect x="135.2" y="211.2" style="fill:#E6E9EE;" width="218" height="11.2"/>
	<rect x="135.2" y="234.4" style="fill:#E6E9EE;" width="218" height="11.2"/>
	<rect x="164" y="258" style="fill:#E6E9EE;" width="160.4" height="11.2"/>
</g>
<polygon style="fill:#2B3B4E;" points="298.8,326.4 318,336 271.2,429.6 259.2,406 233.2,410.4 280,316.8 "/>
<polygon style="fill:#324A5E;" points="310,338.8 290.8,348.4 337.6,442 349.6,418.8 375.6,423.2 328.8,329.6 "/>
<path style="fill:#FF7058;" d="M377.6,304.8L377.6,304.8c4.4-4.4,4.4-11.6,0-16l0,0c-3.2-3.2-4.4-8-2.4-12.4l0,0
	c2.4-6-0.4-12.4-6-14.8l0,0c-4.4-1.6-7.2-6-7.2-10.4l0,0c0-6.4-5.2-11.6-11.6-11.6l0,0c-4.8,0-8.8-2.8-10.4-7.2l0,0
	c-2.4-6-9.2-8.4-14.8-6l0,0c-4.4,1.6-9.2,0.8-12.4-2.4l0,0c-4.4-4.4-11.6-4.4-16,0l0,0c-3.2,3.2-8,4.4-12.4,2.4l0,0
	c-6-2.4-12.4,0.4-14.8,6l0,0c-1.6,4.4-6,7.2-10.4,7.2l0,0c-6.4,0-11.6,5.2-11.6,11.6l0,0c0,4.8-2.8,8.8-7.2,10.4l0,0
	c-6,2.4-8.4,9.2-6,14.8l0,0c1.6,4.4,0.8,9.2-2.4,12.4l0,0c-4.4,4.4-4.4,11.6,0,16l0,0c3.2,3.2,4.4,8,2.4,12.4l0,0
	c-2.4,6,0.4,12.4,6,14.8l0,0c4.4,1.6,7.2,6,7.2,10.4l0,0c0,6.4,5.2,11.6,11.6,11.6l0,0c4.8,0,8.8,2.8,10.4,7.2l0,0
	c2.4,6,9.2,8.4,14.8,6l0,0c4.4-1.6,9.2-0.8,12.4,2.4l0,0c4.4,4.4,11.6,4.4,16,0l0,0c3.2-3.2,8-4.4,12.4-2.4l0,0
	c6,2.4,12.4-0.4,14.8-6l0,0c1.6-4.4,6-7.2,10.4-7.2l0,0c6.4,0,11.6-5.2,11.6-11.6l0,0c0-4.8,2.8-8.8,7.2-10.4l0,0
	c6-2.4,8.4-9.2,6-14.8l0,0C373.2,313.2,374.4,308,377.6,304.8z"/>
<circle style="fill:#FFFFFF;" cx="304.4" cy="296.8" r="53.2"/>
<circle style="fill:#FF7058;" cx="304.4" cy="296.8" r="46.8"/>
<g>
</g>
<g>
</g>
<g>
</g>
<g>
</g>
<g>
</g>
<g>
</g>
<g>
</g>
<g>
</g>
<g>
</g>
<g>
</g>
<g>
</g>
<g>
</g>
<g>
</g>
<g>
</g>
<g>
</g>
</svg>
