<?xml version="1.0" encoding="iso-8859-1"?>
<!-- Generator: Adobe Illustrator 19.0.0, SVG Export Plug-In . SVG Version: 6.00 Build 0)  -->
<svg version="1.1" id="Layer_1" xmlns="http://www.w3.org/2000/svg" xmlns:xlink="http://www.w3.org/1999/xlink" x="0px" y="0px"
	 viewBox="0 0 508 508" style="enable-background:new 0 0 508 508;" xml:space="preserve">
<circle style="fill:#FD8469;" cx="254" cy="254" r="254"/>
<path style="fill:#324A5E;" d="M419.6,129.2H88.4c-6.8,0-12.4,5.6-12.4,12.4v224c0,6.8,5.6,12.4,12.4,12.4H420
	c6.8,0,12.4-5.6,12.4-12.4V142C432.4,135.2,426.8,129.2,419.6,129.2z"/>
<path style="fill:#FFFFFF;" d="M91.6,330.8V177.2c17.6,0,32-14.4,32-32h260.8c0,17.6,14.4,32,32,32v153.6c-17.6,0-32,14.4-32,32
	H123.6C123.6,345.2,109.2,330.8,91.6,330.8z"/>
<g>
	<rect x="168.8" y="179.6" style="fill:#E6E9EE;" width="170.4" height="13.2"/>
	<rect x="129.6" y="204.8" style="fill:#E6E9EE;" width="248.8" height="13.2"/>
	<rect x="145.6" y="233.2" style="fill:#E6E9EE;" width="216.8" height="13.2"/>
</g>
<g>
</g>
<g>
</g>
<g>
</g>
<g>
</g>
<g>
</g>
<g>
</g>
<g>
</g>
<g>
</g>
<g>
</g>
<g>
</g>
<g>
</g>
<g>
</g>
<g>
</g>
<g>
</g>
<g>
</g>
</svg>
