<?xml version="1.0" encoding="iso-8859-1"?>
<!-- Generator: Adobe Illustrator 19.0.0, SVG Export Plug-In . SVG Version: 6.00 Build 0)  -->
<svg version="1.1" id="Layer_1" xmlns="http://www.w3.org/2000/svg" xmlns:xlink="http://www.w3.org/1999/xlink" x="0px" y="0px"
	 viewBox="0 0 508 508" style="enable-background:new 0 0 508 508;" xml:space="preserve">
<circle style="fill:#84DBFF;" cx="254" cy="254" r="254"/>
<path style="fill:#FFFFFF;" d="M379.6,434.8H128.4c-8,0-14.4-6.4-14.4-14.4V87.6c0-8,6.4-14.4,14.4-14.4h250.8
	c8,0,14.4,6.4,14.4,14.4v332.8C394,428.4,387.6,434.8,379.6,434.8z"/>
<g>
	<rect x="139.6" y="106" style="fill:#E6E9EE;" width="228.8" height="12.4"/>
	<rect x="139.6" y="142" style="fill:#E6E9EE;" width="228.8" height="12.4"/>
	<rect x="139.6" y="178" style="fill:#E6E9EE;" width="228.8" height="12.4"/>
	<rect x="139.6" y="214.4" style="fill:#E6E9EE;" width="228.8" height="12.4"/>
	<rect x="139.6" y="250.4" style="fill:#E6E9EE;" width="228.8" height="12.4"/>
	<rect x="139.6" y="286.4" style="fill:#E6E9EE;" width="120.4" height="12.4"/>
	<rect x="139.6" y="322.4" style="fill:#E6E9EE;" width="120.4" height="12.4"/>
</g>
<g>
	<polygon style="fill:#FFD05B;" points="362.8,408.8 346.4,398.8 338.4,416.4 324.4,370 321.6,361.6 316.4,344.8 321.6,343.2 
		328.8,340.8 340.8,337.2 347.6,359.2 	"/>
	<polygon style="fill:#FFD05B;" points="326.8,344.8 321.6,361.6 319.2,370 304.8,416.4 297.2,398.8 280.8,408.8 296,359.2 
		302.8,337.2 314.8,340.8 321.6,343.2 	"/>
</g>
<path style="fill:#F9B54C;" d="M347.6,359.2c-2,0.4-3.2,2-4,4l0,0c-1.2,2.8-3.6,4.4-6.4,4.4c-0.8,0-2,0-2.8-0.4s-1.6-0.4-2.8-0.4
	c-2,0-3.6,0.8-4.8,2c-0.8,0.8-1.6,1.2-2.4,1.6L322,362l-2.8,8c-0.8-0.4-1.6-0.8-2.4-1.6c-1.2-1.2-3.2-2-4.8-2c-0.8,0-1.6,0-2.8,0.4
	c-3.6,1.6-7.6,0-9.2-3.6l0,0c-0.8-2-2.4-3.2-4-4l6.8-22l12,3.6l6.8,2l6.8-2l12-3.6L347.6,359.2z"/>
<path style="fill:#FF7058;" d="M366.4,324.8L366.4,324.8c2.8-2.8,2.8-7.2,0-10l0,0c-2-2-2.4-4.8-1.6-7.6l0,0
	c1.6-3.6-0.4-7.6-3.6-9.2l0,0c-2.8-1.2-4.4-3.6-4.4-6.4l0,0c0-4-3.2-6.8-6.8-6.8l0,0c-2.8,0-5.2-1.6-6.4-4.4l0,0
	c-1.6-3.6-5.6-5.2-9.2-3.6l0,0c-2.8,1.2-5.6,0.4-7.6-1.6l0,0c-2.8-2.8-7.2-2.8-10,0l0,0c-2,2-4.8,2.4-7.6,1.6l0,0
	c-3.6-1.6-7.6,0.4-9.2,3.6l0,0c-1.2,2.8-3.6,4.4-6.4,4.4l0,0c-4,0-6.8,3.2-6.8,6.8l0,0c0,2.8-1.6,5.2-4.4,6.4l0,0
	c-3.6,1.6-5.2,5.6-3.6,9.2l0,0c1.2,2.8,0.4,5.6-1.6,7.6l0,0c-2.8,2.8-2.8,7.2,0,10l0,0c2,2,2.4,4.8,1.6,7.6l0,0
	c-1.6,3.6,0.4,7.6,3.6,9.2l0,0c2.8,1.2,4.4,3.6,4.4,6.4l0,0c0,4,3.2,6.8,6.8,6.8l0,0c2.8,0,5.2,1.6,6.4,4.4l0,0
	c1.6,3.6,5.6,5.2,9.2,3.6l0,0c2.8-1.2,5.6-0.4,7.6,1.6l0,0c2.8,2.8,7.2,2.8,10,0l0,0c2-2,4.8-2.4,7.6-1.6l0,0
	c3.6,1.6,7.6-0.4,9.2-3.6l0,0c1.2-2.8,3.6-4.4,6.4-4.4l0,0c4,0,6.8-3.2,6.8-6.8l0,0c0-2.8,1.6-5.2,4.4-6.4l0,0
	c3.6-1.6,5.2-5.6,3.6-9.2l0,0C363.6,329.6,364.4,326.8,366.4,324.8z"/>
<circle style="fill:#FFFFFF;" cx="321.6" cy="319.6" r="31.2"/>
<circle style="fill:#FF7058;" cx="321.6" cy="319.6" r="27.2"/>
<g>
</g>
<g>
</g>
<g>
</g>
<g>
</g>
<g>
</g>
<g>
</g>
<g>
</g>
<g>
</g>
<g>
</g>
<g>
</g>
<g>
</g>
<g>
</g>
<g>
</g>
<g>
</g>
<g>
</g>
</svg>
