<?xml version="1.0" encoding="iso-8859-1"?>
<!-- Generator: Adobe Illustrator 19.0.0, SVG Export Plug-In . SVG Version: 6.00 Build 0)  -->
<svg version="1.1" id="Layer_1" xmlns="http://www.w3.org/2000/svg" xmlns:xlink="http://www.w3.org/1999/xlink" x="0px" y="0px"
	 viewBox="0 0 508 508" style="enable-background:new 0 0 508 508;" xml:space="preserve">
<circle style="fill:#FFD05B;" cx="254" cy="254" r="254"/>
<path style="fill:#F9B54C;" d="M79.6,438.4C125.2,481.6,186.4,508,254,508s129.2-26.4,174.4-69.6H79.6z"/>
<path style="fill:#FFFFFF;" d="M315.2,424v-0.8c-0.4,0-0.8,0-1.2,0c-1.2-0.8-2.8-1.2-4-1.2h-6.8c-30.4-6.8-38-44.8-39.6-71.6h-18.8
	c-1.6,27.2-9.2,64.8-39.6,71.6H198c-1.6,0-2.8,0.4-4,1.2c-0.4,0-0.8,0-1.2,0v0.8c-2,1.6-3.2,4-3.2,6.4c0,4.8,3.6,8.4,8.4,8.4h112
	c4.8,0,8.4-3.6,8.4-8.4C318.4,427.6,317.2,425.6,315.2,424z"/>
<path style="fill:#2B3B4E;" d="M126.4,321.6c-1.2,0-2.4-0.4-3.6-1.6c-2-2-2-5.2,0-7.2L349.2,86.4c2-2,5.2-2,7.2,0s2,5.2,0,7.2
	L130,320C128.8,320.8,127.6,321.6,126.4,321.6z"/>
<circle style="fill:#FFFFFF;" cx="239.6" cy="203.2" r="116.4"/>
<path style="fill:#324A5E;" d="M239.6,356.4c-40.8,0-79.2-16-108.4-44.8c-2.4-2.4-4.8-5.2-7.6-8.4c-2.4-2.8-2-7.2,0.8-9.6
	c2.8-2.4,7.2-2,9.6,0.8s4.8,5.2,6.8,7.6c26.4,26.4,61.2,40.8,98.4,40.8s72.4-14.4,98.4-40.8c54.4-54.4,54.4-142.8,0-197.2
	c-2-2-4.4-4.4-7.6-6.8c-2.8-2.4-3.2-6.8-0.8-9.6c2.4-2.8,6.8-3.2,9.6-0.8c3.2,2.8,6,5.2,8.4,7.6c59.6,59.6,59.6,156.8,0,216.4
	C318.8,340.4,280.4,356.4,239.6,356.4z"/>
<g>
	<path style="fill:#84DBFF;" d="M182,194.4c0.4-2,2.8-2.8,4-4.4c1.6-2.4-0.4-5.6-2-8.4c-1.6-2.4-2.8-6.4,0-8c-2-2.4-3.2-5.6-4.4-8.4
		c-1.6-2.8-4-5.6-7.2-5.2c-2.4,0-4.4,2-6.4,3.2c-2.8,1.6-6,2-8.8,3.2s-6,3.2-6.4,6.4s1.6,6.4,0,9.2c-1.6,3.2-6.8,4.8-5.6,8
		c0.4,0.8,0.8,1.6,1.2,2c1.2,2.4-1.6,5.2-3.6,6.8L123.6,214c0.4,4,0.8,8.4,2,12.4c0.4,0,0.4,0,0.8,0c2.4,0,5.6-1.6,7.6,0.4
		c0.4,0.8,1.2,1.6,2,1.6c0.4,0,0.8-0.4,1.2-0.8c0.8-1.6,1.6-3.6,1.6-5.6c2.8,2.8,5.6,5.6,8.4,8.4c4.4-1.6,5.6-8,10-9.2
		c4.8-1.2,9.6,4,14,2.4c3.2-1.2,4.8-5.2,7.6-7.2c3.2-2.4,8-2,12.4-1.2c0.8-5.6-1.2-11.6-5.2-15.6C183.6,198,181.2,196.4,182,194.4z"
		/>
	<path style="fill:#84DBFF;" d="M224,126.4c0.4-2.8-3.6-4.8-5.6-3.2c-0.4-0.4-1.2-0.8-1.6-1.2c2-3.2,6.8-2,9.6,0.4s4.8,6,8,7.6
		c2.4,0,3.6-3.2,4-5.6c0-2.4-0.4-5.2,1.2-7.2c0.4-0.8,1.2-1.6,1.6-2.4c0.8-3.2-4-4.4-5.2-7.2c-0.8-2.4,0.4-4.8,1.2-7.2
		c0.8-2.4,0.4-5.6-2-6c-3.2,4.8-12,4-14,9.2c-0.8,2.8,0,6.4-2.8,7.6c-2,0.8-4-1.6-4.4-4c0-2.4,0.8-4.4,0.8-6.8c0-1.2-0.4-2-0.4-3.2
		c0-1.6,1.2-3.6,1.6-5.2c0.4-0.8,0.4-1.6,0-2.4c-21.6,4.4-42,15.2-58.4,31.6c-0.8,0.8-1.6,2-2.8,2.8c0.4,5.6,5.2,11.2,6.8,17.2
		c0.8,2.4,0.8,4.8,1.6,7.2s2.4,4.4,4.8,4.8c2-2.4,2.4-6,0.4-8.4c1.6-0.8,3.2-1.2,4-2.8c0.8-1.2,0.8-3.6-0.8-4c-0.8-0.4-2,0-3.2,0
		c-3.2,0-5.2-3.6-6.8-6.8c6.4-2.4,14,0,17.6,5.6c-0.8-0.8-1.2-2-2-2.8c5.2-1.6,10.8-2.4,16-2c1.6,0,3.2,0.4,4.4-0.4
		c2-0.8,3.2-3.2,5.2-3.2c1.6,0,2.8,0.8,4.4,1.2C213.2,130.8,219.2,123.2,224,126.4z"/>
	<path style="fill:#84DBFF;" d="M263.6,126.8c3.2,1.6,7.6,0.4,10-2c0.8-0.8,1.6-1.2,2.4-1.2c1.2,0,2.4,1.2,3.2,2.4
		c4.4,5.6,12,8.8,19.2,7.2c0.4-2.4-3.2-3.6-3.2-6c0-2,2.8-2.8,4.8-2s3.2,2.8,4.8,3.6c2,0.8,4.8,0.4,6.4-0.8c1.6-1.6,2.4-4,1.6-6
		c-0.4-0.8-0.8-2-0.4-2.8c0.4-1.2,2-0.8,3.2-0.8c1.6,0.4,3.2,0.8,4.8,1.2c-14-13.6-30-22.8-47.6-28V92c-1.2,3.6-3.2,6.8-4.4,10
		c-1.2,4-1.6,8.8-4.4,12c-1.2,1.2-2.4,2-3.2,3.6C258.8,120.8,260.4,125.2,263.6,126.8z"/>
	<path style="fill:#84DBFF;" d="M349.2,199.6c-3.2-2-6-6-5.6-10c0-1.6,0.4-2.8,0.4-4.4c-0.4-2.4-2-4-3.2-5.6c-3.2-3.2-6.4-6-9.6-8.8
		c-4-3.2-9.6-5.6-13.2-2.4c-0.8,0.8-1.2,1.6-2,2.4c-2,1.2-4.4,0.4-6.4-0.4c-2-0.8-5.2-0.4-5.6,2c-0.4,2.8,3.6,4,4.4,6.8
		c0.4,0.8,0,1.6,0.4,2.4c0.4,4,6.4,5.6,8.8,2.4c1.6-2.4,2-6.4,4.8-6.4c2.8,1.2,4.8,4.4,4.8,7.2c-0.8-2-4-1.2-5.2,0.4
		c-1.2,1.6-1.6,4-2.8,5.2c-2.8,2.8-7.6,2-11.2,0.4c-8-2.8-15.6-5.6-23.6-8.4c-0.8-0.4-2-0.8-2.8-0.4c-1.2,0.4-1.6,2-2.8,2.8
		c-1.6,1.2-4,0.8-5.6-0.4s-3.2-2.4-5.2-3.2s-4.4,0.4-4.8,2.4c0,0.8,0,1.6,0.4,2.4c3.6,6.8,12.4,8,18.4,12.4c0.4-2.8,4.4-3.2,6.8-2
		c2.4,1.6,3.2,4.4,3.6,7.2s0.4,5.6,2,8c2,3.6,7.2,5.2,10.8,3.6c2.4-1.2,5.2-3.2,7.2-1.6c2,1.6,0.4,4.8,1.2,7.2
		c0.4,0.8,1.2,1.6,1.2,2.8c0.4,2-2.8,3.2-4.8,2.4s-3.2-2.8-4.8-4.4c-1.6-1.6-3.6-3.2-5.6-2.4c-2.4-0.4-4,2.8-3.2,5.2
		s3.2,3.6,5.2,4.8c-0.4,2-2.4,2.8-4.4,2.8s-3.6-0.8-5.2-1.6c-4.8-2.4-10.4-6-10.8-11.2c0-1.6,0.4-3.2,0-5.2
		c-0.4-5.2-4.4-9.2-8.4-12.4c-6.8-3.6-13.6-7.6-21.2-6.8c-2.8,0.4-5.6,1.6-8,2.8c-4.8,2.4-9.6,5.6-13.6,9.2c-2.8,2.8-5.6,6-6,10
		c-0.4,5.2,3.6,9.6,7.6,12.8s8.8,6.4,10.8,11.2c-3.6,1.2-4,6-5.2,9.6c-2.8,8-13.2,11.2-17.6,18.8c-2.4,4-2.8,9.2-5.6,12.8
		c-1.2,1.6-2.4,2.8-3.2,4.8c-2.4,5.2,2.8,11.6,8.8,12.4s11.6-2.4,16.4-6c1.2-0.8,2.4-2,4-2.4c1.2-0.4,2.4-0.4,3.6-0.4
		c2.8,0,5.6-0.4,8.4-0.4c-1.2,0-1.6-2-0.8-2.8s2-1.2,2.8-2c4-2,6.4-6,8-10c2,4,8,3.2,12.4,1.6c4-1.6,8.4-2.8,12.4-4.4
		c-2.8,0.4-5.6-2-6.8-4.8c-0.8-2.8-0.4-6,0.8-8.8c1.2-2.4,2.8-4.8,3.6-7.6c0.8-2.8,0.8-5.6,1.6-8c0.8-2.8,2-5.6,4.8-6.4
		c1.2,5.6,0.4,11.2-2,16.4c-2,4-4.8,8.8-2,12c1.2,1.6,3.2,2,5.2,2.4c4.8,0.8,9.6,1.6,14,2.4c-1.6-6-2.4-12.4-2.4-18.4
		c0-1.6,0.4-3.2,1.6-3.6c2,7.2,4.8,14,9.2,20c0.8,0.8,1.2,2,1.6,3.2c0,1.2,0,2-0.4,3.2c-1.6,5.2-4.4,9.6-4.8,14.8
		c0,2.4,0.4,5.2-0.4,7.6c4-3.2,8-6.8,12-10.4c23.2-23.2,34.4-53.2,34-83.6C353.6,201.6,351.2,200.8,349.2,199.6z"/>
	<path style="fill:#84DBFF;" d="M260,293.2c-1.6,1.6-3.6,2-6,1.6c-1.2-0.4-2.4-0.8-3.6-0.8c-1.6,0.4-2.4,1.6-3.6,2.8
		c-1.2,1.6-2.4,3.6-4,5.2c-0.4,0.4-0.8,1.2-0.8,2c0,1.6,2,2,3.2,2c1.6-0.4,2.8-1.2,4-1.6c1.6-0.4,2.8,0,4.4-0.4c2-0.4,3.6-2,4.8-3.2
		c1.2-1.2,2-2.4,2.4-3.6C262,295.6,261.6,293.6,260,293.2z"/>
	<path style="fill:#84DBFF;" d="M286.8,140.4c-1.6,0.8-1.2,2.8-0.8,4.4V144c0.4,2,2.4,4,4.8,4c2,0.4,4.4-0.8,5.6-2.8
		c-2.4-1.6-4.8-2.8-7.2-4.4C288.8,140.8,287.6,140,286.8,140.4z"/>
</g>
<g>
</g>
<g>
</g>
<g>
</g>
<g>
</g>
<g>
</g>
<g>
</g>
<g>
</g>
<g>
</g>
<g>
</g>
<g>
</g>
<g>
</g>
<g>
</g>
<g>
</g>
<g>
</g>
<g>
</g>
</svg>
