<?xml version="1.0" encoding="iso-8859-1"?>
<!-- Generator: Adobe Illustrator 19.0.0, SVG Export Plug-In . SVG Version: 6.00 Build 0)  -->
<svg version="1.1" id="Layer_1" xmlns="http://www.w3.org/2000/svg" xmlns:xlink="http://www.w3.org/1999/xlink" x="0px" y="0px"
	 viewBox="0 0 508 508" style="enable-background:new 0 0 508 508;" xml:space="preserve">
<circle style="fill:#FD8469;" cx="254" cy="254" r="254"/>
<path style="fill:#324A5E;" d="M380,428.4H128c-11.2,0-20.4-9.2-20.4-20.4V100c0-11.2,9.2-20.4,20.4-20.4h251.6
	c11.2,0,20.4,9.2,20.4,20.4v307.6C400.4,419.2,391.2,428.4,380,428.4z"/>
<rect x="131.6" y="113.6" style="fill:#FFFFFF;" width="245.2" height="264.4"/>
<g>
	<circle style="fill:#2B3B4E;" cx="254" cy="403.2" r="14.4"/>
	<path style="fill:#2B3B4E;" d="M294.8,92.4h-62.4c-2,0-3.6,1.6-3.6,3.6s1.6,3.6,3.6,3.6h62.4c2,0,3.6-1.6,3.6-3.6
		S296.8,92.4,294.8,92.4z"/>
	<path style="fill:#2B3B4E;" d="M220,92.4h-6.8c-2,0-3.6,1.6-3.6,3.6s1.6,3.6,3.6,3.6h6.8c2,0,3.6-1.6,3.6-3.6S222,92.4,220,92.4z"
		/>
</g>
<rect x="152.8" y="136.4" style="fill:#84DBFF;" width="202.4" height="43.6"/>
<g>
	<rect x="167.2" y="200.8" style="fill:#E6E9EE;" width="84.4" height="13.2"/>
	<rect x="167.2" y="226.8" style="fill:#E6E9EE;" width="123.6" height="13.2"/>
	<rect x="167.2" y="252.4" style="fill:#E6E9EE;" width="72.8" height="13.2"/>
	<rect x="167.2" y="278.4" style="fill:#E6E9EE;" width="46.8" height="13.2"/>
	<rect x="167.2" y="304" style="fill:#E6E9EE;" width="142" height="13.2"/>
	<rect x="167.2" y="330" style="fill:#E6E9EE;" width="96" height="13.2"/>
	<rect x="256" y="200.8" style="fill:#E6E9EE;" width="84.4" height="13.2"/>
	<rect x="295.2" y="226.8" style="fill:#E6E9EE;" width="45.6" height="13.2"/>
	<rect x="244.4" y="252.4" style="fill:#E6E9EE;" width="96.4" height="13.2"/>
	<rect x="218.4" y="278.4" style="fill:#E6E9EE;" width="122" height="13.2"/>
	<rect x="313.6" y="304" style="fill:#E6E9EE;" width="27.2" height="13.2"/>
	<rect x="267.6" y="330" style="fill:#E6E9EE;" width="73.2" height="13.2"/>
</g>
<g>
</g>
<g>
</g>
<g>
</g>
<g>
</g>
<g>
</g>
<g>
</g>
<g>
</g>
<g>
</g>
<g>
</g>
<g>
</g>
<g>
</g>
<g>
</g>
<g>
</g>
<g>
</g>
<g>
</g>
</svg>
