<?xml version="1.0" encoding="iso-8859-1"?>
<!-- Generator: Adobe Illustrator 19.0.0, SVG Export Plug-In . SVG Version: 6.00 Build 0)  -->
<svg version="1.1" id="Layer_1" xmlns="http://www.w3.org/2000/svg" xmlns:xlink="http://www.w3.org/1999/xlink" x="0px" y="0px"
	 viewBox="0 0 508 508" style="enable-background:new 0 0 508 508;" xml:space="preserve">
<circle style="fill:#90DFAA;" cx="254" cy="254" r="254"/>
<path style="fill:#FFFFFF;" d="M122.8,102.4v302.8c0,8.8,7.2,16.4,16.4,16.4H316v-52.4c0-9.2,7.2-16.4,16.4-16.4h52.4V102.4
	c0-8.8-7.2-16.4-16.4-16.4H139.2C130,86.4,122.8,93.6,122.8,102.4z"/>
<g>
	<path style="fill:#E6E9EE;" d="M316,421.6l68.8-68.8h-52c-9.2,0-16.4,7.2-16.4,16.4v52.4H316z"/>
	<rect x="144" y="256.4" style="fill:#E6E9EE;" width="219.6" height="5.6"/>
	<rect x="144" y="200.4" style="fill:#E6E9EE;" width="219.6" height="5.6"/>
	<rect x="144" y="144" style="fill:#E6E9EE;" width="219.6" height="5.6"/>
</g>
<path style="fill:#FF7058;" d="M260.4,262l-10.8-25.6H200L188.8,262h-28l50.8-118h25.6l51.2,118H260.4z M224.8,179.2L210,213.6h29.6
	L224.8,179.2z"/>
<path style="fill:#FFD05B;" d="M347.2,262h-16v-7.2c-4.4,5.6-9.6,8.4-16,8.4s-12-2-16-5.6c-4.4-3.6-6.4-8.8-6.4-14.8
	s2.4-10.8,6.8-14s10.8-4.8,18.4-4.8h12.8v-0.4c0-6.4-3.6-9.6-10.4-9.6c-2.8,0-6,0.4-9.2,1.6c-3.2,1.2-6,2.8-8.4,4.4l-7.6-10.8
	c8-5.6,17.2-8.8,27.2-8.8c7.2,0,13.2,2,18,5.6s6.8,9.6,6.8,17.6L347.2,262L347.2,262z M330,239.2v-2.8h-10.8c-6.8,0-10,2-10,6.4
	c0,2,0.8,4,2.4,5.2s4,1.6,6.8,1.6c3.2,0,5.6-0.8,8-2.8C328.8,244.4,330,242,330,239.2z"/>
<g>
</g>
<g>
</g>
<g>
</g>
<g>
</g>
<g>
</g>
<g>
</g>
<g>
</g>
<g>
</g>
<g>
</g>
<g>
</g>
<g>
</g>
<g>
</g>
<g>
</g>
<g>
</g>
<g>
</g>
</svg>
