<?xml version="1.0" encoding="iso-8859-1"?>
<!-- Generator: Adobe Illustrator 19.0.0, SVG Export Plug-In . SVG Version: 6.00 Build 0)  -->
<svg version="1.1" id="Layer_1" xmlns="http://www.w3.org/2000/svg" xmlns:xlink="http://www.w3.org/1999/xlink" x="0px" y="0px"
	 viewBox="0 0 508 508" style="enable-background:new 0 0 508 508;" xml:space="preserve">
<circle style="fill:#324A5E;" cx="254" cy="254" r="254"/>
<path style="fill:#FFFFFF;" d="M101.6,127.6L159.2,428c1.2,6,6.8,10,12.8,8.8l183.2-35.2l-8-42.4c-1.2-6,2.8-11.6,8.8-12.8l42.4-8
	L348.4,80c-1.2-6-6.8-10-12.8-8.8l-225.2,43.6C104.4,116,100.8,121.6,101.6,127.6z"/>
<g>
	<path style="fill:#E6E9EE;" d="M355.2,401.2L398,338l-42.4,8c-6,1.2-10,6.8-8.8,12.8L355.2,401.2z"/>
	
		<rect x="126.346" y="118.428" transform="matrix(-0.982 0.1888 -0.1888 -0.982 477.226 202.9956)" style="fill:#E6E9EE;" width="205.197" height="11.6"/>
	
		<rect x="131.999" y="147.2" transform="matrix(-0.982 0.1888 -0.1888 -0.982 493.862 258.9555)" style="fill:#E6E9EE;" width="205.197" height="11.6"/>
	
		<rect x="137.572" y="175.58" transform="matrix(-0.982 0.1888 -0.1888 -0.982 510.2661 314.1519)" style="fill:#E6E9EE;" width="205.197" height="11.6"/>
	
		<rect x="142.756" y="204.035" transform="matrix(-0.982 0.1888 -0.1888 -0.982 525.9139 369.5714)" style="fill:#E6E9EE;" width="205.197" height="11.6"/>
	
		<rect x="148.409" y="232.823" transform="matrix(-0.982 0.1888 -0.1888 -0.982 542.5529 425.5631)" style="fill:#E6E9EE;" width="205.197" height="11.6"/>
	
		<rect x="153.982" y="261.186" transform="matrix(-0.982 0.1888 -0.1888 -0.982 558.954 480.7278)" style="fill:#E6E9EE;" width="205.197" height="11.6"/>
	
		<rect x="159.559" y="289.566" transform="matrix(-0.982 0.1888 -0.1888 -0.982 575.3661 535.9235)" style="fill:#E6E9EE;" width="205.197" height="11.6"/>
	
		<rect x="165.577" y="325.606" transform="matrix(-0.982 0.1888 -0.1888 -0.982 516.4042 613.6204)" style="fill:#E6E9EE;" width="126.798" height="11.6"/>
</g>
<path style="fill:#FFD05B;" d="M316.4,121.2l53.2,53.2c2.4,2.4,2.4,6,0,8.4L165.2,387.2c-2.4,2.4-6,2.4-8.4,0L103.6,334
	c-2.4-2.4-2.4-6,0-8.4L308,121.2C310.4,119.2,314,119.2,316.4,121.2z"/>
<g>
	
		<rect x="164.204" y="336.391" transform="matrix(0.7071 0.7071 -0.7071 0.7071 294.2532 -26.408)" style="fill:#F9B54C;" width="29.6" height="11.2"/>
	
		<rect x="200.439" y="300.071" transform="matrix(0.7071 0.7071 -0.7071 0.7071 279.1841 -62.668)" style="fill:#F9B54C;" width="29.6" height="11.2"/>
	
		<rect x="236.642" y="263.751" transform="matrix(0.7071 0.7071 -0.7071 0.7071 264.1057 -98.9053)" style="fill:#F9B54C;" width="29.6" height="11.2"/>
	
		<rect x="273.451" y="227.391" transform="matrix(0.7071 0.7071 -0.7071 0.7071 249.1763 -135.5827)" style="fill:#F9B54C;" width="29.6" height="11.2"/>
	
		<rect x="309.654" y="191.071" transform="matrix(0.7071 0.7071 -0.7071 0.7071 234.0978 -171.82)" style="fill:#F9B54C;" width="29.6" height="11.2"/>
	
		<rect x="152.234" y="357.034" transform="matrix(0.7071 0.7071 -0.7071 0.7071 304.2899 -9.3524)" style="fill:#F9B54C;" width="22.4" height="11.2"/>
	
		<rect x="188.458" y="320.674" transform="matrix(0.7071 0.7071 -0.7071 0.7071 289.189 -45.6156)" style="fill:#F9B54C;" width="22.4" height="11.2"/>
	
		<rect x="224.964" y="284.637" transform="matrix(0.7071 0.7071 -0.7071 0.7071 274.3992 -81.9843)" style="fill:#F9B54C;" width="22.4" height="11.2"/>
	
		<rect x="261.195" y="248.317" transform="matrix(0.7071 0.7071 -0.7071 0.7071 259.3289 -118.2414)" style="fill:#F9B54C;" width="22.4" height="11.2"/>
	
		<rect x="297.43" y="211.997" transform="matrix(0.7071 0.7071 -0.7071 0.7071 244.2598 -154.5014)" style="fill:#F9B54C;" width="22.4" height="11.2"/>
	
		<rect x="333.916" y="175.354" transform="matrix(0.7071 0.7071 -0.7071 0.7071 229.0359 -191.0333)" style="fill:#F9B54C;" width="22.4" height="11.2"/>
</g>
<g>
</g>
<g>
</g>
<g>
</g>
<g>
</g>
<g>
</g>
<g>
</g>
<g>
</g>
<g>
</g>
<g>
</g>
<g>
</g>
<g>
</g>
<g>
</g>
<g>
</g>
<g>
</g>
<g>
</g>
</svg>
