<?xml version="1.0" encoding="iso-8859-1"?>
<!-- Generator: Adobe Illustrator 19.0.0, SVG Export Plug-In . SVG Version: 6.00 Build 0)  -->
<svg version="1.1" id="Layer_1" xmlns="http://www.w3.org/2000/svg" xmlns:xlink="http://www.w3.org/1999/xlink" x="0px" y="0px"
	 viewBox="0 0 508 508" style="enable-background:new 0 0 508 508;" xml:space="preserve">
<circle style="fill:#FD8469;" cx="254" cy="254" r="254"/>
<path style="fill:#FFFFFF;" d="M122.8,102.4v302.8c0,8.8,7.2,16.4,16.4,16.4H316v-52.4c0-9.2,7.2-16.4,16.4-16.4h52.4V102.4
	c0-8.8-7.2-16.4-16.4-16.4H139.2C130,86.4,122.8,93.6,122.8,102.4z"/>
<path style="fill:#E6E9EE;" d="M316,421.6l68.8-68.8h-52c-9.2,0-16.4,7.2-16.4,16.4v52.4H316z"/>
<g>
	<path style="fill:#84DBFF;" d="M259.6,297.2l-10.8-25.6h-49.6l-10.8,25.6h-28l50.8-118h25.6l50.8,118H259.6z M224,214.4l-14.8,34.4
		h29.6L224,214.4z"/>
	<path style="fill:#84DBFF;" d="M309.2,239.2v-22.4h-21.6v-15.2h21.6v-22.4H326v22.4h21.6v15.2H326v22.4H309.2z"/>
</g>
<g>
</g>
<g>
</g>
<g>
</g>
<g>
</g>
<g>
</g>
<g>
</g>
<g>
</g>
<g>
</g>
<g>
</g>
<g>
</g>
<g>
</g>
<g>
</g>
<g>
</g>
<g>
</g>
<g>
</g>
</svg>
