<?xml version="1.0" encoding="iso-8859-1"?>
<!-- Generator: Adobe Illustrator 19.0.0, SVG Export Plug-In . SVG Version: 6.00 Build 0)  -->
<svg version="1.1" id="Layer_1" xmlns="http://www.w3.org/2000/svg" xmlns:xlink="http://www.w3.org/1999/xlink" x="0px" y="0px"
	 viewBox="0 0 508 508" style="enable-background:new 0 0 508 508;" xml:space="preserve">
<circle style="fill:#90DFAA;" cx="254" cy="254" r="254"/>
<g>
	<rect x="204" y="94.8" style="fill:#FFFFFF;" width="100.4" height="105.6"/>
	<path style="fill:#FFFFFF;" d="M304,192.8v-98H204v98c-47.2,19.6-80.8,66.4-80.8,120.8c0,72.4,58.4,130.8,130.8,130.8
		S384.8,386,384.8,313.6C384.8,258.8,351.6,212.4,304,192.8z"/>
</g>
<rect x="204" y="94.8" style="fill:#E6E9EE;" width="100.4" height="30.4"/>
<path style="fill:#FFFFFF;" d="M306.8,110.8H201.2c-13.2,0-23.6-10.4-23.6-23.6l0,0c0-13.2,10.4-23.6,23.6-23.6h105.6
	c13.2,0,23.6,10.4,23.6,23.6l0,0C330.4,100,320,110.8,306.8,110.8z"/>
<path style="fill:#54C0EB;" d="M370.4,313.6c0,64-52,116.4-116.4,116.4s-116.8-52.4-116.8-116.4c0-21.6,6-42,16-59.2
	c27.2-4.8,62-4,104.8,12c44,16.4,78.8,15.2,105.2,7.6C368,286.4,370.4,299.6,370.4,313.6z"/>
<circle style="fill:#FFFFFF;" cx="271.2" cy="318.4" r="15.6"/>
<g>
	<circle style="fill:#54C0EB;" cx="271.2" cy="181.6" r="15.6"/>
	<circle style="fill:#54C0EB;" cx="236.8" cy="214.4" r="12.4"/>
</g>
<g>
	<circle style="fill:#FFFFFF;" cx="228.8" cy="350" r="20.8"/>
	<circle style="fill:#FFFFFF;" cx="208" cy="302.8" r="15.6"/>
</g>
<g>
</g>
<g>
</g>
<g>
</g>
<g>
</g>
<g>
</g>
<g>
</g>
<g>
</g>
<g>
</g>
<g>
</g>
<g>
</g>
<g>
</g>
<g>
</g>
<g>
</g>
<g>
</g>
<g>
</g>
</svg>
