<?xml version="1.0" encoding="iso-8859-1"?>
<!-- Generator: Adobe Illustrator 19.0.0, SVG Export Plug-In . SVG Version: 6.00 Build 0)  -->
<svg version="1.1" id="Layer_1" xmlns="http://www.w3.org/2000/svg" xmlns:xlink="http://www.w3.org/1999/xlink" x="0px" y="0px"
	 viewBox="0 0 508 508" style="enable-background:new 0 0 508 508;" xml:space="preserve">
<circle style="fill:#84DBFF;" cx="254" cy="254" r="254"/>
<path style="fill:#FFFFFF;" d="M259.6,397.2h91.6c6.8,0,13.2-2.8,17.6-8c13.2-14.8,21.2-34.4,21.2-55.6c0-36-22.4-66.4-54-78.4
	v-85.6h-61.2v85.2c-31.6,12.4-53.6,43.2-53.6,78.8c0,21.2,8,40.8,21.2,55.6C246.4,394.4,252.8,397.2,259.6,397.2z"/>
<path style="fill:#FF7058;" d="M239.6,302.8c-4.4,9.6-6.8,20-6.8,30.8c0,17.6,6.4,34.4,18,47.6c2,2.4,5.2,4,8.4,4h91.6
	c3.2,0,6.4-1.2,8.4-4c11.6-13.2,18-30,18-47.6c0-10.8-2.4-21.2-6.8-30.8H239.6z"/>
<path style="fill:#54C0EB;" d="M82.8,441.6C128,482.8,188,508,254,508s126-25.2,171.2-66.4H82.8z"/>
<path style="fill:#324A5E;" d="M376.8,441.6H131.2v-23.2c0-0.4,0.4-0.4,0.4-0.4H376c0.4,0,0.4,0.4,0.4,0.4v23.2H376.8z"/>
<g>
	<path style="fill:#2B3B4E;" d="M192.8,426L192.8,426c-2.4,0-4-2-4-4V134c0-2.4,2-4,4-4l0,0c2.4,0,4,2,4,4v288
		C196.8,424,195.2,426,192.8,426z"/>
	<path style="fill:#2B3B4E;" d="M270.4,216.4h-122c-2.4,0-4.4,2-4.4,4.4l0,0c0,2.4,2,4.4,4.4,4.4h122c2.4,0,4.4-2,4.4-4.4l0,0
		C274.8,218.4,272.8,216.4,270.4,216.4z"/>
	<path style="fill:#2B3B4E;" d="M336.8,220.8L336.8,220.8c0,2.4,2,4.4,4.4,4.4h18.4c2.4,0,4.4-2,4.4-4.4l0,0c0-2.4-2-4.4-4.4-4.4
		h-18.4C338.8,216.4,336.8,218.4,336.8,220.8z"/>
</g>
<path style="fill:#FFD05B;" d="M213.6,242.8H170c-0.4,0-0.4-0.4-0.4-0.4v-43.6c0-0.4,0.4-0.4,0.4-0.4h43.6c0.4,0,0.4,0.4,0.4,0.4
	v43.6C214,242.8,213.6,242.8,213.6,242.8z"/>
<rect x="274.8" y="169.6" style="fill:#E6E9EE;" width="60.8" height="8.4"/>
<g>
	<path style="fill:#324A5E;" d="M274.8,238.8L274.8,238.8c-3.2,0-5.6-2.4-5.6-5.6v-23.6c0-3.2,2.4-5.6,5.6-5.6l0,0V238.8z"/>
	<path style="fill:#324A5E;" d="M335.6,238.8L335.6,238.8V204l0,0c3.2,0,5.6,2.4,5.6,5.6v23.6C341.6,236.4,338.8,238.8,335.6,238.8z
		"/>
</g>
<path style="fill:#FFFFFF;" d="M335.2,169.6h-59.6c-4.4,0-8-3.6-8-8l0,0c0-4.4,3.6-8,8-8h59.6c4.4,0,8,3.6,8,8l0,0
	C343.2,166.4,339.6,169.6,335.2,169.6z"/>
<circle style="fill:#F9B54C;" cx="191.6" cy="220.8" r="13.2"/>
<g>
	<circle style="fill:#FFFFFF;" cx="339.6" cy="332" r="10.8"/>
	<circle style="fill:#FFFFFF;" cx="310" cy="327.6" r="10.8"/>
	<circle style="fill:#FFFFFF;" cx="319.6" cy="350" r="7.2"/>
</g>
<g>
</g>
<g>
</g>
<g>
</g>
<g>
</g>
<g>
</g>
<g>
</g>
<g>
</g>
<g>
</g>
<g>
</g>
<g>
</g>
<g>
</g>
<g>
</g>
<g>
</g>
<g>
</g>
<g>
</g>
</svg>
