<?xml version="1.0" encoding="iso-8859-1"?>
<!-- Generator: Adobe Illustrator 19.0.0, SVG Export Plug-In . SVG Version: 6.00 Build 0)  -->
<svg version="1.1" id="Layer_1" xmlns="http://www.w3.org/2000/svg" xmlns:xlink="http://www.w3.org/1999/xlink" x="0px" y="0px"
	 viewBox="0 0 508 508" style="enable-background:new 0 0 508 508;" xml:space="preserve">
<circle style="fill:#FD8469;" cx="254" cy="254" r="254"/>
<path style="fill:#FFFFFF;" d="M388.4,355.6l-52.8-74v-112h-60.8v112l-52.4,74c-10.4,14.8,0,34.8,18,34.8h130
	C388.4,390.4,398.8,370,388.4,355.6z"/>
<path style="fill:#54C0EB;" d="M378.4,362.4l-43.2-60.8h-60L232,362.4c-3.2,4.4-1.6,8.8-0.8,10.4s3.6,5.6,9.2,5.6h130
	c5.6,0,8-4,9.2-5.6C380.4,371.2,382,366.8,378.4,362.4z"/>
<path style="fill:#F1543F;" d="M82.8,441.6C128,482.8,188,508,254,508s126-25.2,171.2-66.4H82.8z"/>
<path style="fill:#324A5E;" d="M376.8,441.6H131.2v-10.4c0-7.2,6-13.2,13.2-13.2h218.8c7.2,0,13.2,6,13.2,13.2v10.4H376.8z"/>
<g>
	<path style="fill:#E6E9EE;" d="M192.8,418L192.8,418c-2.4,0-4-2-4-4V126c0-2.4,2-4,4-4l0,0c2.4,0,4,2,4,4v288
		C196.8,416,195.2,418,192.8,418z"/>
	<path style="fill:#E6E9EE;" d="M270.4,216.4h-122c-2.4,0-4.4,2-4.4,4.4l0,0c0,2.4,2,4.4,4.4,4.4h122c2.4,0,4.4-2,4.4-4.4l0,0
		C274.8,218.4,272.8,216.4,270.4,216.4z"/>
	<path style="fill:#E6E9EE;" d="M336.8,220.8L336.8,220.8c0,2.4,2,4.4,4.4,4.4h18.4c2.4,0,4.4-2,4.4-4.4l0,0c0-2.4-2-4.4-4.4-4.4
		h-18.4C338.8,216.4,336.8,218.4,336.8,220.8z"/>
</g>
<path style="fill:#324A5E;" d="M207.6,242.8H176c-3.6,0-6.4-2.8-6.4-6.4v-31.6c0-3.6,2.8-6.4,6.4-6.4h31.6c3.6,0,6.4,2.8,6.4,6.4
	v31.6C214,240,211.2,242.8,207.6,242.8z"/>
<rect x="274.8" y="169.6" style="fill:#E6E9EE;" width="60.8" height="8.4"/>
<g>
	<path style="fill:#324A5E;" d="M274.8,238.8L274.8,238.8c-3.2,0-5.6-2.4-5.6-5.6v-23.6c0-3.2,2.4-5.6,5.6-5.6l0,0V238.8z"/>
	<path style="fill:#324A5E;" d="M335.6,238.8L335.6,238.8V204l0,0c3.2,0,5.6,2.4,5.6,5.6v23.6C341.6,236.4,338.8,238.8,335.6,238.8z
		"/>
</g>
<path style="fill:#FFFFFF;" d="M335.2,169.6h-59.6c-4.4,0-8-3.6-8-8l0,0c0-4.4,3.6-8,8-8h59.6c4.4,0,8,3.6,8,8l0,0
	C343.2,166.4,339.6,169.6,335.2,169.6z"/>
<circle style="fill:#2B3B4E;" cx="191.6" cy="220.8" r="13.2"/>
<g>
	<circle style="fill:#FFFFFF;" cx="318.8" cy="331.6" r="13.6"/>
	<circle style="fill:#FFFFFF;" cx="286.8" cy="334.4" r="8"/>
	<circle style="fill:#FFFFFF;" cx="298.4" cy="355.6" r="8"/>
</g>
<g>
</g>
<g>
</g>
<g>
</g>
<g>
</g>
<g>
</g>
<g>
</g>
<g>
</g>
<g>
</g>
<g>
</g>
<g>
</g>
<g>
</g>
<g>
</g>
<g>
</g>
<g>
</g>
<g>
</g>
</svg>
