<?xml version="1.0" encoding="iso-8859-1"?>
<!-- Generator: Adobe Illustrator 19.0.0, SVG Export Plug-In . SVG Version: 6.00 Build 0)  -->
<svg version="1.1" id="Layer_1" xmlns="http://www.w3.org/2000/svg" xmlns:xlink="http://www.w3.org/1999/xlink" x="0px" y="0px"
	 viewBox="0 0 508 508" style="enable-background:new 0 0 508 508;" xml:space="preserve">
<circle style="fill:#54C0EB;" cx="254" cy="254" r="254"/>
<path style="fill:#324A5E;" d="M442.8,190.4c-4.4-0.8-9.6-0.8-14.8,0c-0.8,0-1.2,0.4-2,0.4c-8.8,1.6-17.6,0.8-26-2
	c-9.2-3.2-20-4.8-32-4.8c-40,0-68.4,6.4-84.8,18.8c-8.4,6.4-18.4,10-28.8,10H254c-10.4,0-20.4-3.6-28.8-10
	c-16.4-12.4-44.8-18.8-84.8-18.8c-12.4,0-22.8,1.6-32,4.8c-8.4,2.8-17.2,4-26,2c-0.8,0-1.2-0.4-2-0.4c-5.2-0.8-10-0.8-14.8,0
	l-6,36.8c0,0,0,0.4,0.4,0.4c6.4,1.6,10.4,7.6,9.6,14c-0.4,4-0.8,8-0.8,12.4c0,46,24.8,70,71.6,70c46.4,0,88-36,98.8-70.8
	c2-6.8,8-11.6,14.8-11.6h0.4c6.8,0,12.8,5.2,14.8,11.6C280,288,322,324,368,324c46.8,0,71.6-24.4,71.6-70c0-4.4-0.4-8.4-0.8-12.4
	c-0.8-6.4,3.2-12.4,9.6-14c0,0,0-0.4,0.4-0.4L442.8,190.4z"/>
<path style="fill:#FFFFFF;" d="M427.2,254c0,32.4-12.8,58.4-60,58.4c-47.6,0-90-43.6-90-76s42.4-41.2,90-41.2
	c5.6,0,10.8,0.4,15.6,1.2C417.6,202,427.2,225.6,427.2,254z"/>
<path style="fill:#E6E9EE;" d="M382.8,196.8l-27.6,114.8c4,0.8,8,0.8,12,0.8c47.6,0,60-26,60-58.4
	C427.2,225.6,417.6,202,382.8,196.8z"/>
<path style="fill:#FFFFFF;" d="M79.2,254c0,32.4,12.8,58.4,60,58.4s90-43.6,90-76s-42.4-40.8-89.6-40.8S79.2,221.6,79.2,254z"/>
<path style="fill:#E6E9EE;" d="M147.6,312c44-4.8,81.6-45.2,81.6-75.6c0-21.6-19.2-32.8-46.4-37.6L147.6,312z"/>
<g>
	<circle style="fill:#2B3B4E;" cx="434" cy="200" r="3.2"/>
	<circle style="fill:#2B3B4E;" cx="438.4" cy="220" r="3.2"/>
	<circle style="fill:#2B3B4E;" cx="74" cy="200" r="3.2"/>
	<circle style="fill:#2B3B4E;" cx="69.6" cy="220" r="3.2"/>
</g>
<g>
</g>
<g>
</g>
<g>
</g>
<g>
</g>
<g>
</g>
<g>
</g>
<g>
</g>
<g>
</g>
<g>
</g>
<g>
</g>
<g>
</g>
<g>
</g>
<g>
</g>
<g>
</g>
<g>
</g>
</svg>
