<?xml version="1.0" encoding="iso-8859-1"?>
<!-- Generator: Adobe Illustrator 19.0.0, SVG Export Plug-In . SVG Version: 6.00 Build 0)  -->
<svg version="1.1" id="Layer_1" xmlns="http://www.w3.org/2000/svg" xmlns:xlink="http://www.w3.org/1999/xlink" x="0px" y="0px"
	 viewBox="0 0 508 508" style="enable-background:new 0 0 508 508;" xml:space="preserve">
<circle style="fill:#54C0EB;" cx="254" cy="254" r="254"/>
<rect x="222.8" y="167.2" style="fill:#E6E9EE;" width="62.4" height="28"/>
<path style="fill:#FFFFFF;" d="M335.6,425.6H172.4c-8.4,0-14.8-6.8-14.8-14.8V206c0-8.4,6.8-14.8,14.8-14.8H336
	c8.4,0,14.8,6.8,14.8,14.8v204.8C350.8,418.8,344,425.6,335.6,425.6z"/>
<path style="fill:#324A5E;" d="M294.4,167.2c0.4-5.2,0.4-10.8,0.4-16.4c0-58.8-18.4-106.4-40.8-106.4S213.2,92,213.2,150.8
	c0,5.6,0,11.2,0.4,16.4H294.4z"/>
<rect x="157.2" y="261.2" style="fill:#FF7058;" width="193.6" height="91.6"/>
<g>
	<path style="fill:#FFFFFF;" d="M244,66.4c-1.6,1.6-4,4.4-6.4,8s-4.8,8-6.8,12.8c-0.8,2.4-2,5.2-2.8,7.6c-0.8,2.8-1.6,5.6-2,8
		c-0.4,2.8-1.2,5.6-1.2,8.4c-0.4,2.8-0.4,5.6-0.4,8c0,2.8,0,5.2,0,7.6c0,2.4,0.4,4.8,0.4,6.8c0.4,4,1.2,7.6,1.6,10
		c0.4,2.4,0.8,3.6,0.8,3.6s0-1.6,0-4s0-6,0.4-10c0-2,0.4-4.4,0.4-6.8c0.4-2.4,0.4-4.8,0.8-7.2c0-2.4,0.8-5.2,0.8-8
		c0.4-2.8,0.8-5.2,1.2-8s1.2-5.2,1.6-8c0.8-2.4,1.2-5.2,2-7.6s1.6-4.8,2.4-6.8c0.8-2,1.6-4,2.4-6c0.8-2,1.6-3.6,2.4-4.8
		C242.4,68.4,243.2,67.2,244,66.4c1.2-2,2-3.2,2-3.2S245.6,64.4,244,66.4z"/>
	<path style="fill:#FFFFFF;" d="M207.6,306.8h8.8v14.4c-4,4.4-9.6,6.8-16.4,6.8c-6,0-10.8-2-14.8-6s-6-8.8-6-14.8s2-10.8,6-14.8
		s8.8-6,14.8-6s10.8,2,14.8,5.6l-4.8,6.8c-1.6-1.6-3.6-2.8-4.8-3.2c-1.6-0.4-3.2-0.8-4.8-0.8c-3.2,0-6.4,1.2-8.4,3.6
		c-2.4,2.4-3.6,5.2-3.6,9.2c0,3.6,1.2,6.8,3.2,9.2c2.4,2.4,4.8,3.6,8,3.6s5.6-0.4,7.6-1.6v-12H207.6z"/>
	<path style="fill:#FFFFFF;" d="M224.4,327.2v-40h8.8v32h17.2v8H224.4z"/>
	<path style="fill:#FFFFFF;" d="M266.8,316.8c1.6,2,3.6,2.8,6,2.8s4.4-0.8,6-2.8s2.4-4.4,2.4-7.6v-22h8.8v22.4
		c0,6-1.6,10.4-4.8,13.2c-3.2,3.2-7.2,4.8-12.4,4.8s-9.2-1.6-12.4-4.8s-4.8-7.6-4.8-13.2v-22.4h8.8v22
		C264.4,312.4,265.2,314.8,266.8,316.8z"/>
	<path style="fill:#FFFFFF;" d="M328,287.2v8h-20v8.4h18v7.6h-18v8.4h20.4v8h-29.6v-40H328V287.2z"/>
</g>
<g>
</g>
<g>
</g>
<g>
</g>
<g>
</g>
<g>
</g>
<g>
</g>
<g>
</g>
<g>
</g>
<g>
</g>
<g>
</g>
<g>
</g>
<g>
</g>
<g>
</g>
<g>
</g>
<g>
</g>
</svg>
