<?xml version="1.0" encoding="iso-8859-1"?>
<!-- Generator: Adobe Illustrator 19.0.0, SVG Export Plug-In . SVG Version: 6.00 Build 0)  -->
<svg version="1.1" id="Layer_1" xmlns="http://www.w3.org/2000/svg" xmlns:xlink="http://www.w3.org/1999/xlink" x="0px" y="0px"
	 viewBox="0 0 508 508" style="enable-background:new 0 0 508 508;" xml:space="preserve">
<circle style="fill:#90DFAA;" cx="254" cy="254" r="254"/>
<rect x="220.8" y="81.2" style="fill:#FFFFFF;" width="66.4" height="345.6"/>
<polygon style="fill:#FF7058;" points="365.2,159.2 365.2,110.8 294,94.8 214,94.8 142.8,110.8 142.8,159.2 "/>
<g>
	<rect x="220.8" y="390.4" style="fill:#E6E9EE;" width="18.4" height="7.2"/>
	<rect x="220.8" y="370" style="fill:#E6E9EE;" width="18.4" height="7.2"/>
	<rect x="220.8" y="350" style="fill:#E6E9EE;" width="18.4" height="7.2"/>
	<rect x="220.8" y="330" style="fill:#E6E9EE;" width="18.4" height="7.2"/>
	<rect x="220.8" y="309.6" style="fill:#E6E9EE;" width="18.4" height="7.2"/>
	<rect x="220.8" y="289.6" style="fill:#E6E9EE;" width="18.4" height="7.2"/>
	<rect x="220.8" y="269.6" style="fill:#E6E9EE;" width="18.4" height="7.2"/>
	<rect x="220.8" y="249.6" style="fill:#E6E9EE;" width="18.4" height="7.2"/>
	<rect x="220.8" y="229.2" style="fill:#E6E9EE;" width="18.4" height="7.2"/>
	<rect x="220.8" y="209.2" style="fill:#E6E9EE;" width="18.4" height="7.2"/>
	<rect x="220.8" y="189.2" style="fill:#E6E9EE;" width="18.4" height="7.2"/>
	<rect x="220.8" y="169.2" style="fill:#E6E9EE;" width="18.4" height="7.2"/>
</g>
<g>
</g>
<g>
</g>
<g>
</g>
<g>
</g>
<g>
</g>
<g>
</g>
<g>
</g>
<g>
</g>
<g>
</g>
<g>
</g>
<g>
</g>
<g>
</g>
<g>
</g>
<g>
</g>
<g>
</g>
</svg>
