<?xml version="1.0" encoding="iso-8859-1"?>
<!-- Generator: Adobe Illustrator 19.0.0, SVG Export Plug-In . SVG Version: 6.00 Build 0)  -->
<svg version="1.1" id="Layer_1" xmlns="http://www.w3.org/2000/svg" xmlns:xlink="http://www.w3.org/1999/xlink" x="0px" y="0px"
	 viewBox="0 0 508 508" style="enable-background:new 0 0 508 508;" xml:space="preserve">
<circle style="fill:#324A5E;" cx="254" cy="254" r="254"/>
<path style="fill:#FFFFFF;" d="M268.8,254c25.6-21.2,74.8-69.2,75.6-125.6H163.6c0.8,56.4,50.4,104.4,75.6,125.6
	c-25.2,21.2-74.8,69.2-75.6,125.6h180.8C343.6,323.2,294,275.2,268.8,254z"/>
<g>
	<path style="fill:#FF7058;" d="M368.8,128.4H139.2c-6.4,0-11.6-5.2-11.6-11.6l0,0c0-6.4,5.2-11.6,11.6-11.6h229.2
		c6.4,0,11.6,5.2,11.6,11.6l0,0C380,123.2,375.2,128.4,368.8,128.4z"/>
	<path style="fill:#FF7058;" d="M368.8,402.4H139.2c-6.4,0-11.6-5.2-11.6-11.6l0,0c0-6.4,5.2-11.6,11.6-11.6h229.2
		c6.4,0,11.6,5.2,11.6,11.6l0,0C380,397.2,375.2,402.4,368.8,402.4z"/>
</g>
<g>
	<path style="fill:#84DBFF;" d="M199.6,196c19.2,26.8,44,47.2,54.4,55.2c10.8-8,35.2-28.4,54.4-55.2H199.6z"/>
	<path style="fill:#84DBFF;" d="M200,311.2c-12,16.8-22,36-25.2,56.4h158c-3.2-20.4-13.2-39.6-25.2-56.4H200z"/>
	<ellipse style="fill:#84DBFF;" cx="254" cy="268.8" rx="6" ry="6.8"/>
	<ellipse style="fill:#84DBFF;" cx="254" cy="288.8" rx="6" ry="6.8"/>
</g>
<g>
	<rect x="354" y="128.4" style="fill:#E6E9EE;" width="12" height="250.8"/>
	<rect x="142.4" y="128.4" style="fill:#E6E9EE;" width="12" height="250.8"/>
</g>
<g>
</g>
<g>
</g>
<g>
</g>
<g>
</g>
<g>
</g>
<g>
</g>
<g>
</g>
<g>
</g>
<g>
</g>
<g>
</g>
<g>
</g>
<g>
</g>
<g>
</g>
<g>
</g>
<g>
</g>
</svg>
