<?xml version="1.0" encoding="iso-8859-1"?>
<!-- Generator: Adobe Illustrator 19.0.0, SVG Export Plug-In . SVG Version: 6.00 Build 0)  -->
<svg version="1.1" id="Layer_1" xmlns="http://www.w3.org/2000/svg" xmlns:xlink="http://www.w3.org/1999/xlink" x="0px" y="0px"
	 viewBox="0 0 508 508" style="enable-background:new 0 0 508 508;" xml:space="preserve">
<circle style="fill:#FD8469;" cx="254" cy="254" r="254"/>
<path style="fill:#F1543F;" d="M81.6,440.4c45.2,42,106,67.6,172.4,67.6c66.8,0,127.2-25.6,172.4-67.6H81.6z"/>
<polygon style="fill:#324A5E;" points="376,255.2 381.6,251.6 292.4,126.4 282.4,133.6 368.8,254.8 339.2,427.2 353.2,429.6 
	382.8,256.4 "/>
<path style="fill:#2B3B4E;" d="M390.8,440.4H245.2v-5.2c0-10.4,8.4-18.4,18.4-18.4h108.8c10.4,0,18.4,8.4,18.4,18.4L390.8,440.4
	L390.8,440.4z"/>
<g>
	<circle style="fill:#FFFFFF;" cx="375.6" cy="255.2" r="24.8"/>
	<circle style="fill:#FFFFFF;" cx="191.6" cy="187.6" r="25.2"/>
</g>
<path style="fill:#F9B54C;" d="M260,167.2l-48-48l36-36c13.2-13.2,34.8-13.2,48,0l0,0c13.2,13.2,13.2,34.8,0,48L260,167.2z"/>
<path style="fill:#FFD05B;" d="M238.4,234l33.2-52.8c13.2-21.2,10.4-48.4-7.2-66l0,0c-17.6-17.6-45.2-20.8-66-7.2l-52.8,33.2
	L238.4,234z"/>
<g>
</g>
<g>
</g>
<g>
</g>
<g>
</g>
<g>
</g>
<g>
</g>
<g>
</g>
<g>
</g>
<g>
</g>
<g>
</g>
<g>
</g>
<g>
</g>
<g>
</g>
<g>
</g>
<g>
</g>
</svg>
