<?xml version="1.0" encoding="iso-8859-1"?>
<!-- Generator: Adobe Illustrator 19.0.0, SVG Export Plug-In . SVG Version: 6.00 Build 0)  -->
<svg version="1.1" id="Layer_1" xmlns="http://www.w3.org/2000/svg" xmlns:xlink="http://www.w3.org/1999/xlink" x="0px" y="0px"
	 viewBox="0 0 508 508" style="enable-background:new 0 0 508 508;" xml:space="preserve">
<circle style="fill:#90DFAA;" cx="254" cy="254" r="254"/>
<path style="fill:#FFFFFF;" d="M298.8,341.2c21.6-15.2,35.6-40.8,35.6-70c0-21.2-7.6-40.4-19.6-55.2c-16-19.2-24.4-42.4-24.4-66l0,0
	h-72.8l0,0c0,23.6-8.4,46.8-24.4,66c-12.4,14.8-19.6,34-19.6,55.2c0,29.2,14,54.8,35.6,70H298.8z"/>
<path style="fill:#FF7058;" d="M237.2,318c0,0.4,0.4,1.2,0.8,1.6h33.6c0-0.4,0-0.4,0-0.8c0-2.4,0-4.8,0-7.2c0-2-0.4-4.4-1.2-6
	c-0.8-1.2-1.6-2.4-2.4-4c-0.4-1.2-0.8-2.8-0.8-4c-0.4-5.6-0.4-11.2-2-16.8c-2-5.2-6.4-10-12-10.4c2.8,5.6,4,12,3.2,18
	c-0.4-2.8-0.8-5.2-1.6-7.6c-2-5.2-6.4-10-12-10.4c4.4,8.4,5.2,19.6,0,27.6c-2,2.8-4.8,5.6-5.6,8.8c-0.4,1.6-0.4,3.2-0.4,4.8
	C236.8,313.6,236.8,316,237.2,318z"/>
<g>
	<path style="fill:#2B3B4E;" d="M308,378.8l-5.2-11.6l48.8-21.6c7.2-3.2,11.6-11.2,10.4-18.8l-27.2-179.2
		c-1.2-8.4-8.4-14.8-17.2-15.2l-36-1.2l0.4-12.8l36,1.2c14.8,0.4,27.2,11.2,29.2,26l27.2,179.2c2,13.6-5.2,26.8-17.6,32.4L308,378.8
		z"/>
	<path style="fill:#2B3B4E;" d="M200,378.8l-48.8-21.6c-12.4-5.6-20-18.8-17.6-32.4l27.2-179.2c2.4-14.4,14.4-25.6,29.2-26l36-1.2
		l0.4,12.8l-36,1.2c-8.8,0.4-16,6.8-17.2,15.2L146,326.4c-1.2,8,3.2,15.6,10.4,18.8l48.8,21.6L200,378.8z"/>
</g>
<path style="fill:#324A5E;" d="M292.4,98.8C292.4,98.8,292.4,98.4,292.4,98.8c0-18.8-38.4-34-38.4-34s-38.4,15.2-38.4,34
	c0,0,0,0,0,0.4h76.8V98.8z"/>
<rect x="219.6" y="113.2" style="fill:#E6E9EE;" width="68.8" height="23.6"/>
<path style="fill:#324A5E;" d="M341.2,420.8c-4.4-26.8-20.4-49.6-43.2-62.8h-88c-22.8,13.2-38.8,36-43.2,62.8H341.2z"/>
<path style="fill:#E6E9EE;" d="M286.4,341.2c-1.6-10-7.6-18.4-16-23.2h-32.8c-8.4,4.8-14.4,13.2-16,23.2H286.4z"/>
<g>
	<path style="fill:#2B3B4E;" d="M342.4,420.8H165.6c-6.4,0-11.2,5.2-11.2,11.2l0,0c0,6.4,5.2,11.2,11.2,11.2h177.2
		c6.4,0,11.2-5.2,11.2-11.2l0,0C354,426,348.8,420.8,342.4,420.8z"/>
	<path style="fill:#2B3B4E;" d="M297.2,358h-86.4c-4.8,0-8.4-3.6-8.4-8.4l0,0c0-4.8,3.6-8.4,8.4-8.4h86.4c4.8,0,8.4,3.6,8.4,8.4l0,0
		C305.6,354.4,302,358,297.2,358z"/>
	<path style="fill:#2B3B4E;" d="M299.6,150.4h-91.2l0,0c0-7.2,6-13.2,13.2-13.2H286C293.6,136.8,299.6,142.8,299.6,150.4
		L299.6,150.4z"/>
	<path style="fill:#2B3B4E;" d="M292.4,113.2h-76.8c-4,0-7.2-3.2-7.2-7.2l0,0c0-4,3.2-7.2,7.2-7.2h76.8c4,0,7.2,3.2,7.2,7.2l0,0
		C299.6,110,296.4,113.2,292.4,113.2z"/>
</g>
<g>
	<path style="fill:#CED5E0;" d="M275.6,132.8L275.6,132.8c-2,0-3.6-1.6-3.6-3.6v-8c0-2,1.6-3.6,3.6-3.6l0,0c2,0,3.6,1.6,3.6,3.6v8
		C279.2,131.2,277.6,132.8,275.6,132.8z"/>
	<path style="fill:#CED5E0;" d="M261.2,132.8L261.2,132.8c-2,0-3.6-1.6-3.6-3.6v-8c0-2,1.6-3.6,3.6-3.6l0,0c2,0,3.6,1.6,3.6,3.6v8
		C264.8,131.2,263.2,132.8,261.2,132.8z"/>
	<path style="fill:#CED5E0;" d="M246.8,132.8L246.8,132.8c-2,0-3.6-1.6-3.6-3.6v-8c0-2,1.6-3.6,3.6-3.6l0,0c2,0,3.6,1.6,3.6,3.6v8
		C250.4,131.2,248.8,132.8,246.8,132.8z"/>
	<path style="fill:#CED5E0;" d="M232.4,132.8L232.4,132.8c-2,0-3.6-1.6-3.6-3.6v-8c0-2,1.6-3.6,3.6-3.6l0,0c2,0,3.6,1.6,3.6,3.6v8
		C236.4,131.2,234.4,132.8,232.4,132.8z"/>
</g>
<g>
</g>
<g>
</g>
<g>
</g>
<g>
</g>
<g>
</g>
<g>
</g>
<g>
</g>
<g>
</g>
<g>
</g>
<g>
</g>
<g>
</g>
<g>
</g>
<g>
</g>
<g>
</g>
<g>
</g>
</svg>
