<?xml version="1.0" encoding="iso-8859-1"?>
<!-- Generator: Adobe Illustrator 19.0.0, SVG Export Plug-In . SVG Version: 6.00 Build 0)  -->
<svg version="1.1" id="Layer_1" xmlns="http://www.w3.org/2000/svg" xmlns:xlink="http://www.w3.org/1999/xlink" x="0px" y="0px"
	 viewBox="0 0 508 508" style="enable-background:new 0 0 508 508;" xml:space="preserve">
<circle style="fill:#FFD05B;" cx="254" cy="254" r="254"/>
<path style="fill:#324A5E;" d="M84,350V140.4c0-7.6,6-13.6,13.6-13.6h313.2c7.6,0,13.6,6,13.6,13.6V350H84z"/>
<rect x="105.6" y="148.4" style="fill:#54C0EB;" width="297.2" height="179.6"/>
<polygon style="fill:#84DBFF;" points="305.2,148.4 105.6,148.4 105.6,328.4 205.2,328.4 "/>
<path style="fill:#E6E9EE;" d="M61.2,349.6c0,19.6,20.4,35.6,45.6,35.6h294c25.2,0,45.6-16,45.6-35.6H61.2z"/>
<polygon style="fill:#CED5E0;" points="296,349.6 214,349.6 220,358.4 290.4,358.4 "/>
<circle style="fill:#2B3B4E;" cx="254" cy="137.6" r="6.4"/>
<g>
</g>
<g>
</g>
<g>
</g>
<g>
</g>
<g>
</g>
<g>
</g>
<g>
</g>
<g>
</g>
<g>
</g>
<g>
</g>
<g>
</g>
<g>
</g>
<g>
</g>
<g>
</g>
<g>
</g>
</svg>
