<?xml version="1.0" encoding="iso-8859-1"?>
<!-- Generator: Adobe Illustrator 19.0.0, SVG Export Plug-In . SVG Version: 6.00 Build 0)  -->
<svg version="1.1" id="Layer_1" xmlns="http://www.w3.org/2000/svg" xmlns:xlink="http://www.w3.org/1999/xlink" x="0px" y="0px"
	 viewBox="0 0 508 508" style="enable-background:new 0 0 508 508;" xml:space="preserve">
<circle style="fill:#90DFAA;" cx="254" cy="254" r="254"/>
<path style="fill:#324A5E;" d="M403.6,357.2H104.4c-7.2,0-13.2-6-13.2-13.2V136.4c0-7.2,6-13.2,13.2-13.2h299.2
	c7.2,0,13.2,6,13.2,13.2V344C416.8,351.2,410.8,357.2,403.6,357.2z"/>
<g>
	<rect x="106.4" y="144" style="fill:#FFFFFF;" width="295.6" height="185.6"/>
	<path style="fill:#FFFFFF;" d="M403.2,384.4H104.8c-14.8,0-26.8-12-26.8-26.8l0,0h352l0,0C430,372.4,418,384.4,403.2,384.4z"/>
</g>
<polygon style="fill:#CED5E0;" points="306,357.6 202,357.6 210,367.2 298,367.2 "/>
<rect x="320.125" y="279.659" transform="matrix(-0.7071 0.7071 -0.7071 -0.7071 772.8543 267.9907)" style="fill:#324A5E;" width="21.6" height="28.8"/>
<path style="fill:#54C0EB;" d="M220.8,183.6L220.8,183.6c-28.8,28.8-28.8,76,0,104.8l0,0c28.8,28.8,76,28.8,104.8,0l0,0
	c28.8-28.8,28.8-76,0-104.8l0,0C296.4,154.8,249.6,154.8,220.8,183.6z"/>
<path style="fill:#FFFFFF;" d="M330.8,236c0,0.8,0,1.6,0,2c0,5.6-1.2,11.6-3.2,16.8c-2.8,8-7.2,15.2-13.6,21.6l0,0
	c-11.2,11.2-26,16.8-40.8,16.8s-29.6-5.6-40.8-16.8l0,0c-6.4-6.4-10.8-13.6-13.6-21.6c-2-5.6-2.8-11.2-3.2-16.8
	c-0.4-7.2,0.8-14.8,3.2-22c2-6,5.2-11.6,9.6-16.8c1.2-1.6,2.4-2.8,3.6-4c11.2-11.2,26-16.8,40.8-16.8s29.6,5.6,40.8,16.8
	c1.2,1.2,2.8,2.8,3.6,4c4.4,5.2,7.6,10.8,9.6,16.8C329.6,222.8,330.8,229.6,330.8,236z"/>
<path style="fill:#FF7058;" d="M427.2,373.6L410.8,390c-2.8,2.8-7.2,2.8-10,0l-72.4-72.4c-2.8-2.8-2.8-7.2,0-10l16.4-16.4
	c2.8-2.8,7.2-2.8,10,0l72.4,72.4C430,366.4,430,371.2,427.2,373.6z"/>
<g>
</g>
<g>
</g>
<g>
</g>
<g>
</g>
<g>
</g>
<g>
</g>
<g>
</g>
<g>
</g>
<g>
</g>
<g>
</g>
<g>
</g>
<g>
</g>
<g>
</g>
<g>
</g>
<g>
</g>
</svg>
