<?xml version="1.0" encoding="iso-8859-1"?>
<!-- Generator: Adobe Illustrator 19.0.0, SVG Export Plug-In . SVG Version: 6.00 Build 0)  -->
<svg version="1.1" id="Layer_1" xmlns="http://www.w3.org/2000/svg" xmlns:xlink="http://www.w3.org/1999/xlink" x="0px" y="0px"
	 viewBox="0 0 508 508" style="enable-background:new 0 0 508 508;" xml:space="preserve">
<circle style="fill:#4CDBC4;" cx="254" cy="254" r="254"/>
<path style="fill:#FFFFFF;" d="M386,400.8H122c-3.2,0-5.6-2.4-5.6-5.6V239.6c0-3.2,2.4-5.6,5.6-5.6h264c3.2,0,5.6,2.4,5.6,5.6v155.6
	C391.6,398,389.2,400.8,386,400.8z"/>
<g>
	<path style="fill:#E6E9EE;" d="M148.8,252.4h-14c-0.8,0-1.6,0.8-1.6,1.6v14c0,0.8,0.8,1.6,1.6,1.6h14c0.8,0,1.6-0.8,1.6-1.6v-14
		C150.4,253.2,149.6,252.4,148.8,252.4z"/>
	<path style="fill:#E6E9EE;" d="M171.2,252.4h-14c-0.8,0-1.6,0.8-1.6,1.6v14c0,0.8,0.8,1.6,1.6,1.6h14c0.8,0,1.6-0.8,1.6-1.6v-14
		C172.8,253.2,172,252.4,171.2,252.4z"/>
	<path style="fill:#E6E9EE;" d="M193.6,252.4h-14c-0.8,0-1.6,0.8-1.6,1.6v14c0,0.8,0.8,1.6,1.6,1.6h14c0.8,0,1.6-0.8,1.6-1.6v-14
		C195.2,253.2,194.4,252.4,193.6,252.4z"/>
	<path style="fill:#E6E9EE;" d="M216,252.4h-14c-0.8,0-1.6,0.8-1.6,1.6v14c0,0.8,0.8,1.6,1.6,1.6h14c0.8,0,1.6-0.8,1.6-1.6v-14
		C217.6,253.2,216.8,252.4,216,252.4z"/>
	<path style="fill:#E6E9EE;" d="M238.4,252.4h-14c-0.8,0-1.6,0.8-1.6,1.6v14c0,0.8,0.8,1.6,1.6,1.6h14c0.8,0,1.6-0.8,1.6-1.6v-14
		C240,253.2,239.2,252.4,238.4,252.4z"/>
	<path style="fill:#E6E9EE;" d="M260.8,252.4h-14c-0.8,0-1.6,0.8-1.6,1.6v14c0,0.8,0.8,1.6,1.6,1.6h14c0.8,0,1.6-0.8,1.6-1.6v-14
		C262.4,253.2,261.6,252.4,260.8,252.4z"/>
	<path style="fill:#E6E9EE;" d="M283.2,252.4h-14c-0.8,0-1.6,0.8-1.6,1.6v14c0,0.8,0.8,1.6,1.6,1.6h14c0.8,0,1.6-0.8,1.6-1.6v-14
		C284.8,253.2,284,252.4,283.2,252.4z"/>
	<path style="fill:#E6E9EE;" d="M306,252.4h-14c-0.8,0-1.6,0.8-1.6,1.6v14c0,0.8,0.8,1.6,1.6,1.6h14c0.8,0,1.6-0.8,1.6-1.6v-14
		C307.2,253.2,306.8,252.4,306,252.4z"/>
	<path style="fill:#E6E9EE;" d="M328.4,252.4h-14c-0.8,0-1.6,0.8-1.6,1.6v14c0,0.8,0.8,1.6,1.6,1.6h14c0.8,0,1.6-0.8,1.6-1.6v-14
		C329.6,253.2,329.2,252.4,328.4,252.4z"/>
	<path style="fill:#E6E9EE;" d="M350.8,252.4h-14c-0.8,0-1.6,0.8-1.6,1.6v14c0,0.8,0.8,1.6,1.6,1.6h14c0.8,0,1.6-0.8,1.6-1.6v-14
		C352,253.2,351.6,252.4,350.8,252.4z"/>
	<path style="fill:#E6E9EE;" d="M373.2,252.4h-14c-0.8,0-1.6,0.8-1.6,1.6v14c0,0.8,0.8,1.6,1.6,1.6h14c0.8,0,1.6-0.8,1.6-1.6v-14
		C374.4,253.2,374,252.4,373.2,252.4z"/>
	<path style="fill:#E6E9EE;" d="M148.8,275.6h-14c-0.8,0-1.6,0.8-1.6,1.6v14c0,0.8,0.8,1.6,1.6,1.6h14c0.8,0,1.6-0.8,1.6-1.6v-14
		C150.4,276,149.6,275.6,148.8,275.6z"/>
	<path style="fill:#E6E9EE;" d="M171.2,275.6h-14c-0.8,0-1.6,0.8-1.6,1.6v14c0,0.8,0.8,1.6,1.6,1.6h14c0.8,0,1.6-0.8,1.6-1.6v-14
		C172.8,276,172,275.6,171.2,275.6z"/>
	<path style="fill:#E6E9EE;" d="M193.6,275.6h-14c-0.8,0-1.6,0.8-1.6,1.6v14c0,0.8,0.8,1.6,1.6,1.6h14c0.8,0,1.6-0.8,1.6-1.6v-14
		C195.2,276,194.4,275.6,193.6,275.6z"/>
	<path style="fill:#E6E9EE;" d="M216,275.6h-14c-0.8,0-1.6,0.8-1.6,1.6v14c0,0.8,0.8,1.6,1.6,1.6h14c0.8,0,1.6-0.8,1.6-1.6v-14
		C217.6,276,216.8,275.6,216,275.6z"/>
	<path style="fill:#E6E9EE;" d="M238.4,275.6h-14c-0.8,0-1.6,0.8-1.6,1.6v14c0,0.8,0.8,1.6,1.6,1.6h14c0.8,0,1.6-0.8,1.6-1.6v-14
		C240,276,239.2,275.6,238.4,275.6z"/>
	<path style="fill:#E6E9EE;" d="M260.8,275.6h-14c-0.8,0-1.6,0.8-1.6,1.6v14c0,0.8,0.8,1.6,1.6,1.6h14c0.8,0,1.6-0.8,1.6-1.6v-14
		C262.4,276,261.6,275.6,260.8,275.6z"/>
	<path style="fill:#E6E9EE;" d="M283.2,275.6h-14c-0.8,0-1.6,0.8-1.6,1.6v14c0,0.8,0.8,1.6,1.6,1.6h14c0.8,0,1.6-0.8,1.6-1.6v-14
		C284.8,276,284,275.6,283.2,275.6z"/>
	<path style="fill:#E6E9EE;" d="M306,275.6h-14c-0.8,0-1.6,0.8-1.6,1.6v14c0,0.8,0.8,1.6,1.6,1.6h14c0.8,0,1.6-0.8,1.6-1.6v-14
		C307.2,276,306.8,275.6,306,275.6z"/>
	<path style="fill:#E6E9EE;" d="M328.4,275.6h-14c-0.8,0-1.6,0.8-1.6,1.6v14c0,0.8,0.8,1.6,1.6,1.6h14c0.8,0,1.6-0.8,1.6-1.6v-14
		C329.6,276,329.2,275.6,328.4,275.6z"/>
	<path style="fill:#E6E9EE;" d="M350.8,275.6h-14c-0.8,0-1.6,0.8-1.6,1.6v14c0,0.8,0.8,1.6,1.6,1.6h14c0.8,0,1.6-0.8,1.6-1.6v-14
		C352,276,351.6,275.6,350.8,275.6z"/>
	<path style="fill:#E6E9EE;" d="M373.2,275.6h-14c-0.8,0-1.6,0.8-1.6,1.6v14c0,0.8,0.8,1.6,1.6,1.6h14c0.8,0,1.6-0.8,1.6-1.6v-14
		C374.4,276,374,275.6,373.2,275.6z"/>
	<path style="fill:#E6E9EE;" d="M148.8,298.4h-14c-0.8,0-1.6,0.8-1.6,1.6v14c0,0.8,0.8,1.6,1.6,1.6h14c0.8,0,1.6-0.8,1.6-1.6v-14
		C150.4,299.2,149.6,298.4,148.8,298.4z"/>
	<path style="fill:#E6E9EE;" d="M171.2,298.4h-14c-0.8,0-1.6,0.8-1.6,1.6v14c0,0.8,0.8,1.6,1.6,1.6h14c0.8,0,1.6-0.8,1.6-1.6v-14
		C172.8,299.2,172,298.4,171.2,298.4z"/>
	<path style="fill:#E6E9EE;" d="M193.6,298.4h-14c-0.8,0-1.6,0.8-1.6,1.6v14c0,0.8,0.8,1.6,1.6,1.6h14c0.8,0,1.6-0.8,1.6-1.6v-14
		C195.2,299.2,194.4,298.4,193.6,298.4z"/>
	<path style="fill:#E6E9EE;" d="M216,298.4h-14c-0.8,0-1.6,0.8-1.6,1.6v14c0,0.8,0.8,1.6,1.6,1.6h14c0.8,0,1.6-0.8,1.6-1.6v-14
		C217.6,299.2,216.8,298.4,216,298.4z"/>
	<path style="fill:#E6E9EE;" d="M238.4,298.4h-14c-0.8,0-1.6,0.8-1.6,1.6v14c0,0.8,0.8,1.6,1.6,1.6h14c0.8,0,1.6-0.8,1.6-1.6v-14
		C240,299.2,239.2,298.4,238.4,298.4z"/>
	<path style="fill:#E6E9EE;" d="M260.8,298.4h-14c-0.8,0-1.6,0.8-1.6,1.6v14c0,0.8,0.8,1.6,1.6,1.6h14c0.8,0,1.6-0.8,1.6-1.6v-14
		C262.4,299.2,261.6,298.4,260.8,298.4z"/>
	<path style="fill:#E6E9EE;" d="M283.2,298.4h-14c-0.8,0-1.6,0.8-1.6,1.6v14c0,0.8,0.8,1.6,1.6,1.6h14c0.8,0,1.6-0.8,1.6-1.6v-14
		C284.8,299.2,284,298.4,283.2,298.4z"/>
	<path style="fill:#E6E9EE;" d="M306,298.4h-14c-0.8,0-1.6,0.8-1.6,1.6v14c0,0.8,0.8,1.6,1.6,1.6h14c0.8,0,1.6-0.8,1.6-1.6v-14
		C307.2,299.2,306.8,298.4,306,298.4z"/>
	<path style="fill:#E6E9EE;" d="M328.4,298.4h-14c-0.8,0-1.6,0.8-1.6,1.6v14c0,0.8,0.8,1.6,1.6,1.6h14c0.8,0,1.6-0.8,1.6-1.6v-14
		C329.6,299.2,329.2,298.4,328.4,298.4z"/>
	<path style="fill:#E6E9EE;" d="M373.2,298.4h-36.4c-0.8,0-1.6,0.8-1.6,1.6v14c0,0.8,0.8,1.6,1.6,1.6h36.4c0.8,0,1.6-0.8,1.6-1.6
		v-14C374.4,299.2,374,298.4,373.2,298.4z"/>
	<path style="fill:#E6E9EE;" d="M148.8,321.6h-14c-0.8,0-1.6,0.8-1.6,1.6v14c0,0.8,0.8,1.6,1.6,1.6h14c0.8,0,1.6-0.8,1.6-1.6v-14
		C150.4,322,149.6,321.6,148.8,321.6z"/>
	<path style="fill:#E6E9EE;" d="M238.4,321.6h-81.2c-0.8,0-1.6,0.8-1.6,1.6v14c0,0.8,0.8,1.6,1.6,1.6h81.2c0.8,0,1.6-0.8,1.6-1.6
		v-14C240,322,239.2,321.6,238.4,321.6z"/>
	<path style="fill:#E6E9EE;" d="M260.8,321.6h-14c-0.8,0-1.6,0.8-1.6,1.6v14c0,0.8,0.8,1.6,1.6,1.6h14c0.8,0,1.6-0.8,1.6-1.6v-14
		C262.4,322,261.6,321.6,260.8,321.6z"/>
	<path style="fill:#E6E9EE;" d="M283.2,321.6h-14c-0.8,0-1.6,0.8-1.6,1.6v14c0,0.8,0.8,1.6,1.6,1.6h14c0.8,0,1.6-0.8,1.6-1.6v-14
		C284.8,322,284,321.6,283.2,321.6z"/>
	<path style="fill:#E6E9EE;" d="M306,321.6h-14c-0.8,0-1.6,0.8-1.6,1.6v14c0,0.8,0.8,1.6,1.6,1.6h14c0.8,0,1.6-0.8,1.6-1.6v-14
		C307.2,322,306.8,321.6,306,321.6z"/>
	<path style="fill:#E6E9EE;" d="M328.4,321.6h-14c-0.8,0-1.6,0.8-1.6,1.6v14c0,0.8,0.8,1.6,1.6,1.6h14c0.8,0,1.6-0.8,1.6-1.6v-14
		C329.6,322,329.2,321.6,328.4,321.6z"/>
	<path style="fill:#E6E9EE;" d="M350.8,321.6h-14c-0.8,0-1.6,0.8-1.6,1.6v14c0,0.8,0.8,1.6,1.6,1.6h14c0.8,0,1.6-0.8,1.6-1.6v-14
		C352,322,351.6,321.6,350.8,321.6z"/>
	<path style="fill:#E6E9EE;" d="M373.2,321.6h-14c-0.8,0-1.6,0.8-1.6,1.6v14c0,0.8,0.8,1.6,1.6,1.6h14c0.8,0,1.6-0.8,1.6-1.6v-14
		C374.4,322,374,321.6,373.2,321.6z"/>
	<path style="fill:#E6E9EE;" d="M278,386.8h-57.6c-1.6,0-2.8-1.2-2.8-2.8v-30.8c0-1.6,1.2-2.8,2.8-2.8H278c1.6,0,2.8,1.2,2.8,2.8
		V384C280.8,385.6,279.6,386.8,278,386.8z"/>
</g>
<rect x="130" y="222.8" style="fill:#2B3B4E;" width="247.6" height="15.6"/>
<path style="fill:#FFFFFF;" d="M419.2,124v-6c0-6-4.4-10.4-9.2-10.4H98c-5.2,0-9.2,4.8-9.2,10.4v6H419.2z"/>
<path style="fill:#324A5E;" d="M412.4,113.6H95.6c-5.2,0-8,6-6.4,13.2L114,222c1.2,5.2,6,9.2,10.4,9.2h259.2c4.4,0,8.8-4,10.4-9.2
	l24.8-95.2C420.4,119.2,417.6,113.6,412.4,113.6z"/>
<polygon style="fill:#84DBFF;" points="379.2,220.4 401.2,125.2 106.8,125.2 128.8,220.4 "/>
<polygon style="fill:#54C0EB;" points="379.2,220.4 401.2,125.2 355.2,125.2 278.4,220.4 "/>
<g>
</g>
<g>
</g>
<g>
</g>
<g>
</g>
<g>
</g>
<g>
</g>
<g>
</g>
<g>
</g>
<g>
</g>
<g>
</g>
<g>
</g>
<g>
</g>
<g>
</g>
<g>
</g>
<g>
</g>
</svg>
