<?xml version="1.0" encoding="iso-8859-1"?>
<!-- Generator: Adobe Illustrator 19.0.0, SVG Export Plug-In . SVG Version: 6.00 Build 0)  -->
<svg version="1.1" id="Layer_1" xmlns="http://www.w3.org/2000/svg" xmlns:xlink="http://www.w3.org/1999/xlink" x="0px" y="0px"
	 viewBox="0 0 508 508" style="enable-background:new 0 0 508 508;" xml:space="preserve">
<circle style="fill:#90DFAA;" cx="254" cy="254" r="254"/>
<path style="fill:#2C9984;" d="M41.6,393.6C87.2,462.4,165.2,508,254,508s166.8-45.6,212.4-114.4H41.6z"/>
<rect x="70.4" y="379.2" style="fill:#324A5E;" width="367.2" height="14"/>
<ellipse style="fill:#F9B54C;" cx="191.2" cy="236" rx="20.8" ry="36"/>
<path style="fill:#FF7058;" d="M265.2,356.4c3.6-14,5.6-28.4,5.6-42c0-56.8-35.6-74-79.6-74s-79.6,17.2-79.6,74
	c0,13.2,2,27.6,5.6,42H265.2z"/>
<g>
	<path style="fill:#E6E9EE;" d="M211.6,234c0,0-12,7.6-20.4,7.6l11.2,24l16-22.4L211.6,234z"/>
	<path style="fill:#E6E9EE;" d="M170.4,234c0,0,12,7.6,20.4,7.6l-11.2,24l-16-22.4L170.4,234z"/>
</g>
<path style="fill:#324A5E;" d="M249.2,133.2c0,33.6-26,80.8-58,80.8s-58-47.2-58-80.8s26-48.4,58-48.4S249.2,99.6,249.2,133.2z"/>
<path style="fill:#FFD05B;" d="M234.4,166.8c0,34.4-19.2,62-43.2,62c-23.6,0-43.2-27.6-43.2-62c0-20.4,6.8-38.4,17.6-50
	c7.6,7.6,16.8,14.8,27.2,21.6c14,8.8,28,14.8,40.8,18C234,159.6,234.4,163.2,234.4,166.8z"/>
<path style="fill:#E6E9EE;" d="M382.4,341.6c2.4-8.8,3.6-18,3.6-26.4c0-36-22.8-46.8-50.4-46.8c-28,0-50.4,10.8-50.4,46.8
	c0,8.4,1.2,17.6,3.6,26.4H382.4z"/>
<path style="fill:#F9B54C;" d="M351.6,270c0,8.8-7.2,16.4-16.4,16.4c-8.8,0-16.4-7.2-16.4-16.4c0-8.8,7.2-34.4,16.4-34.4
	C344,235.6,351.6,261.2,351.6,270z"/>
<circle style="fill:#324A5E;" cx="336.4" cy="218" r="42"/>
<ellipse style="fill:#FFD05B;" cx="336.4" cy="235.6" rx="34.4" ry="31.2"/>
<g>
	<path style="fill:#324A5E;" d="M364.4,224c-10.8-6-9.2-18-9.2-18s-12.4-10-18.8-3.6c-6.8-6-18.8,3.6-18.8,3.6s1.6,12-9.2,18
		c0,0,18-4.8,17.6-18c0,0,4,16-4,19.6c0,0,9.2-1.6,14.4-6.8c5.2,5.2,14.4,6.8,14.4,6.8c-7.6-3.6-4-19.6-4-19.6
		C346,219.6,364.4,224,364.4,224z"/>
	<path style="fill:#324A5E;" d="M396.4,175.6c-5.6-1.2-11.2-0.8-17.2,0.8c-5.6,2-10.8,5.2-14.4,9.2c0-10,4-18,10.8-20
		C382.4,163.2,390.4,167.6,396.4,175.6z"/>
</g>
<path style="fill:#E6E9EE;" d="M368.8,180.4c1.6,1.2,0.8,4.4-1.6,6.4c-2.4,2.4-5.2,2.8-6.8,1.6c-1.6-1.2-0.8-4.4,1.6-6.4
	S367.6,179.2,368.8,180.4z"/>
<path style="fill:#324A5E;" d="M274,175.6c5.6-1.2,11.2-0.8,17.2,0.8c5.6,2,10.8,5.2,14.4,9.2c0-10-4-18-10.8-20
	C288,163.2,280,167.6,274,175.6z"/>
<path style="fill:#E6E9EE;" d="M301.6,180.4c-1.6,1.2-0.8,4.4,1.6,6.4c2.4,2.4,5.2,2.8,6.8,1.6c1.6-1.2,0.8-4.4-1.6-6.4
	S302.8,179.2,301.6,180.4z"/>
<g>
	
		<ellipse transform="matrix(0.5007 -0.8656 0.8656 0.5007 -15.3928 433.923)" style="fill:#FFD05B;" cx="368.448" cy="230.305" rx="6.8" ry="5.2"/>
	
		<ellipse transform="matrix(0.5007 0.8656 -0.8656 0.5007 351.2304 -147.7871)" style="fill:#FFD05B;" cx="303.724" cy="230.569" rx="6.8" ry="5.2"/>
</g>
<path style="fill:#FFFFFF;" d="M388,333.2H274.8c-11.6,0-20.8,9.2-20.8,20.8c0-11.6-9.2-20.8-20.8-20.8H120l-29.2,46h326.4
	L388,333.2z"/>
<g>
</g>
<g>
</g>
<g>
</g>
<g>
</g>
<g>
</g>
<g>
</g>
<g>
</g>
<g>
</g>
<g>
</g>
<g>
</g>
<g>
</g>
<g>
</g>
<g>
</g>
<g>
</g>
<g>
</g>
</svg>
