<?xml version="1.0" encoding="iso-8859-1"?>
<!-- Generator: Adobe Illustrator 19.0.0, SVG Export Plug-In . SVG Version: 6.00 Build 0)  -->
<svg version="1.1" id="Layer_1" xmlns="http://www.w3.org/2000/svg" xmlns:xlink="http://www.w3.org/1999/xlink" x="0px" y="0px"
	 viewBox="0 0 508 508" style="enable-background:new 0 0 508 508;" xml:space="preserve">
<circle style="fill:#54C0EB;" cx="254" cy="253.6" r="253.6"/>
<polygon style="fill:#FFFFFF;" points="316.4,417.2 256.8,371.6 253.2,368.8 251.2,370.8 190.8,417.2 "/>
<path style="fill:#324A5E;" d="M179.2,191.2c-1.6-2.8-0.8-6,0.8-8.8s4-4.8,6-7.2c4.8-5.2,8.4-11.6,7.6-18.4
	c-0.4-3.6-2.4-6.8-3.6-10.4c-1.2-3.6-2-7.6,0-10.8c0.8-0.8,1.6-1.6,2-2.8c5.2-6.8,2-16,1.6-24.4c-0.8-14,6-27.2,12.4-39.6
	c4.4-8.4,9.2-17.6,17.2-22.8c4.8-3.2,10.8-4.8,16.4-6c15.2-2.4,31.6,0.4,44,9.6c9.6,7.2,16.4,17.6,20.8,28.8
	c4.4,11.2,6.8,23.2,8.8,34.8c1.2,6.8,2,14.8-2,20.4c-1.6,2.4-4,4-5.6,6.4c-2,3.2-2.8,6.8-3.6,10.4c-0.8,3.6-1.2,7.6,0,11.2
	c2,4.8,6.8,7.2,10.4,10.8c4.4,4.4,6,10.8,7.6,16.8c0.8,2.4,1.2,5.2,1.2,7.6c-0.8,6.4-6.8,10.4-12.8,12.8
	c-20,8.8-42.8,10.8-64.8,10.8c-6,0-12,0-17.6-2c-8.8-2.4-16-8.4-23.2-14.4C199.2,201.2,182,196,179.2,191.2z"/>
<polygon style="fill:#F9B54C;" points="280.4,163.6 292.8,173.6 292.8,214.4 294.8,251.6 256.8,260.4 210.8,245.6 210.8,201.6 
	218.8,171.6 227.6,163.6 254,160.8 "/>
<path style="fill:#FFFFFF;" d="M213.6,245.6c0,0,29.6,10.8,79.2,0l-23.6,105.2l-56,8.4V245.6H213.6z"/>
<path style="fill:#FF7058;" d="M175.2,417.2l9.6-23.6c0,0-8.8-99.2,6-119.6l-9.6-57.2L160.4,206c0,0-28,79.2,2,211.2H175.2z"/>
<g>
	<path style="fill:#F1543F;" d="M169.6,417.2H244c6.8-27.6,13.6-52.4,17.2-54.8L226,310l-12.4-64l5.6-62.4l8-20
		c0,0-18,26.4-67.2,42.4C160.4,206,220.4,282.8,169.6,417.2z"/>
	<path style="fill:#F1543F;" d="M323.2,393.6l9.6,23.6H346c30-132,2-211.2,2-211.2l-21.2,10.4l-9.6,57.2
		C332,294.4,323.2,393.6,323.2,393.6z"/>
</g>
<path style="fill:#FF7058;" d="M246.8,362c3.6,2.4,10.4,27.6,17.2,54.8h74.4c-50.8-134,9.2-210.8,9.2-210.8
	c-49.2-16-67.2-42.4-67.2-42.4l8,20l6,62.4L282,310L246.8,362z"/>
<path style="fill:#F9B54C;" d="M257.2,167.6l23.6-4c0,0-10.4-15.2-10.8-38.4h-12.8h-6h-12.8c-0.4,23.2-10.8,38.4-10.8,38.4l23.6,4
	v1.2l2.8-0.4l2.8,0.4v-1.2H257.2z"/>
<ellipse style="fill:#FFD05B;" cx="252.8" cy="116.8" rx="40.8" ry="57.6"/>
<g>
	<path style="fill:#324A5E;" d="M244.4,53.2c0,0,20,53.6,60,68.4l-14.8-58l-33.2-16.4L244.4,53.2z"/>
	<path style="fill:#324A5E;" d="M255.6,53.6c0,0-29.6,43.6-50,53.2l5.6-33.6l19.6-18.4L255.6,53.6z"/>
</g>
<path style="fill:#FFFFFF;" d="M294,188.8c-8,11.2-23.6,19.2-41.6,19.2s-33.2-7.6-41.6-19.2h-1.6c8,12,24.4,20.4,42.8,20.4
	c18.8,0,34.8-8.4,42.8-20.4H294z"/>
<path style="fill:#324A5E;" d="M256.8,209.2c0,2-0.8,9.6-2.8,9.6c-2,0-2.8-7.6-2.8-9.6v-0.4c0-0.4,0-0.8,0-1.2
	c0.4-2,1.2-2.4,2.8-2.4c1.2,0,2.4,0.4,2.8,2.4c-0.4,0-0.8,0-1.2,0c0-1.6-0.8-1.6-1.6-1.6c-0.8,0-1.2,0-1.6,1.6c0,0.4,0,0.8,0,1.2
	v0.4c0,4,1.2,8,1.6,8.4c0.8-0.4,1.6-4.4,1.6-8.4v-0.4c0.4,0,0.8,0,1.2,0C256.8,208.8,256.8,209.2,256.8,209.2z"/>
<circle style="fill:#E6E9EE;" cx="254" cy="224" r="8"/>
<g>
	<ellipse style="fill:#CED5E0;" cx="254" cy="220.8" rx="0.8" ry="3.2"/>
	<ellipse style="fill:#CED5E0;" cx="254" cy="227.2" rx="0.8" ry="3.2"/>
	<ellipse style="fill:#CED5E0;" cx="257.6" cy="224" rx="3.2" ry="0.8"/>
	<ellipse style="fill:#CED5E0;" cx="250.8" cy="224" rx="3.2" ry="0.8"/>
	
		<ellipse transform="matrix(0.7071 -0.7071 0.7071 0.7071 -81.5424 246.2236)" style="fill:#CED5E0;" cx="256.447" cy="221.542" rx="3.2" ry="0.8"/>
	
		<ellipse transform="matrix(0.707 -0.7072 0.7072 0.707 -86.2955 244.2251)" style="fill:#CED5E0;" cx="251.599" cy="226.26" rx="3.2" ry="0.8"/>
	
		<ellipse transform="matrix(0.707 0.7072 -0.7072 0.707 235.1654 -115.0733)" style="fill:#CED5E0;" cx="256.461" cy="226.276" rx="3.2" ry="0.8"/>
	
		<ellipse transform="matrix(0.707 0.7072 -0.7072 0.707 230.4942 -113.2204)" style="fill:#CED5E0;" cx="251.889" cy="221.565" rx="3.2" ry="0.8"/>
</g>
<path style="fill:#FF7058;" d="M227.6,163.6c0,0-28.4,101.2,33.6,198.4c0,0-57.6-33.6-70-142.8l19.2-2.8l-13.2-8.8
	C197.6,208,196,173.2,227.6,163.6z"/>
<path style="fill:#F1543F;" d="M280.4,163.6c0,0,28.4,101.2-33.6,198.4c0,0,57.6-33.6,70-142.8l-19.2-2.8l13.2-8.8
	C310.4,208,312,173.2,280.4,163.6z"/>
<polygon style="fill:#F9B54C;" points="414,322.4 388.4,368 388.4,319.6 "/>
<path style="fill:#FFD05B;" d="M392.8,320.8l-13.6,154.4C342.4,496,299.6,508,254,508s-88-12-125.2-32.8l-13.6-154.4H392.8z"/>
<g>
	<polygon style="fill:#F9B54C;" points="391.2,336.4 392.8,320.8 115.2,320.8 116.8,336.4 	"/>
	<polygon style="fill:#F9B54C;" points="115.2,319.6 94,322.4 119.6,368 	"/>
</g>
<path style="fill:none;stroke:#FFFFFF;stroke-width:1.01;stroke-miterlimit:10;" d="M128.4,303.2c0,0-0.8-68,43.6-69.2"/>
<rect x="94" y="293.2" style="fill:#FFD05B;" width="320" height="29.2"/>
<ellipse style="fill:#84DBFF;" cx="172.4" cy="233.6" rx="10.8" ry="8"/>
<g>
</g>
<g>
</g>
<g>
</g>
<g>
</g>
<g>
</g>
<g>
</g>
<g>
</g>
<g>
</g>
<g>
</g>
<g>
</g>
<g>
</g>
<g>
</g>
<g>
</g>
<g>
</g>
<g>
</g>
</svg>
