<?xml version="1.0" encoding="iso-8859-1"?>
<!-- Generator: Adobe Illustrator 19.0.0, SVG Export Plug-In . SVG Version: 6.00 Build 0)  -->
<svg version="1.1" id="Layer_1" xmlns="http://www.w3.org/2000/svg" xmlns:xlink="http://www.w3.org/1999/xlink" x="0px" y="0px"
	 viewBox="0 0 508 508" style="enable-background:new 0 0 508 508;" xml:space="preserve">
<circle style="fill:#90DFAA;" cx="254" cy="254" r="254"/>
<g>
	<polygon style="fill:#F9B54C;" points="414.4,322 388.8,367.6 388.8,319.6 	"/>
	<path style="fill:#F9B54C;" d="M287.6,189.2c0,22.4-14.8,29.6-33.6,29.6s-33.6-7.2-33.6-29.6s14.8-52,33.6-52
		S287.6,166.8,287.6,189.2z"/>
</g>
<path style="fill:#E6E9EE;" d="M288.8,184l-1.6,92.4l-10.4,30.4L258,360c-0.8,0-2,0-2.8,0c-0.4,0-0.8,0-1.2,0s-0.8,0-1.2,0
	c-0.8,0-2,0-2.8,0l-18.8-52l-15.6-43.6v-70.8l5.2-12.8l0.4,0.4l2,2l20.8,21.2l3.6,3.6l6.4-3.6l0.4-0.4l5.6-3.2l0,0l25.2-14.4
	l2.4-1.2l0,0L288.8,184z"/>
<polygon style="fill:#F1543F;" points="242.8,204 235.6,213.2 244.4,224.4 263.6,224.4 272.4,213.2 265.2,204 "/>
<path style="fill:#FF7058;" d="M281.2,335.2L272,346l0,0l-12.4,14c-0.4,0-1.2,0-1.6,0c-0.8,0-2,0-2.8,0c-0.4,0-0.8,0-1.2,0
	s-0.8,0-1.2,0c-0.8,0-2,0-2.8,0c-0.4,0-0.8,0-1.6,0L236,346l0,0l-9.2-10.8l1.2-7.6l3.2-20l4.4-28.8l0,0l8.8-54.4h19.2l8.8,54.4l0,0
	l0,0l4.4,27.6l3.2,20.8L281.2,335.2z"/>
<path style="fill:#324A5E;" d="M185.2,296.8c-2.4,1.6-4.8,20-7.2,44.4c-0.4,0-0.4,0-0.8-0.4c-14-7.2-26.8-16.8-38-27.6
	c4-54.4,8-100.4,8-100.4l0,0l0,0L185.2,296.8z"/>
<path style="fill:#2B3B4E;" d="M252.8,360c-0.8,0-2,0-2.8,0c-0.4,0-0.8,0-1.6,0c-1.6,0-3.6,0-5.2-0.4c-23.2-1.6-45.2-8-65.2-18
	c-0.4,0-0.4,0-0.8-0.4c-10-65.6-28.8-123.6-30-127.6l0,0l0,0c49.2-10.4,74-41.2,76.8-44.8l0,0c0,0,0-0.4,0.4-0.4c0,0.4,0,0.4,0,0.8
	c-0.8,3.6-1.2,8-1.2,14c0,5.6,0.4,12,0.8,18.8l0,0c0,1.2,0.4,2.8,0.4,4l0,0c2,21.6,6.8,48.4,11.2,73.2l0,0
	c8,42.4,16.8,80.4,16.8,80.4C252.8,359.6,252.8,359.6,252.8,360z"/>
<path style="fill:#ACB3BA;" d="M252.8,360c-0.8,0-2,0-2.8,0c-0.4,0-0.8,0-1.6,0c-1.6,0-3.6,0-5.2-0.4c-2.4-4.4-4.8-8.8-7.2-13.6l0,0
	c-2.8-6-5.6-12-8-18c-20.8-48.8-34.4-105.2-34.4-105.2c4,0.4,15.6-4.8,15.6-4.8l-15.6-18c16.4-4,28-26,30.4-30.8
	c0.4-0.4,0.4-0.8,0.4-0.8c0,0.4,0,0.4,0,0.8c-0.8,3.6-1.2,8-1.2,14c0,5.6,0.4,12,0.8,18.8l0,0c0,1.2,0.4,2.8,0.4,4l0,0
	c2,21.6,6.8,48.4,11.2,73.2l0,0c8,42.4,16.8,80.4,16.8,80.4C252.8,359.6,252.8,359.6,252.8,360z"/>
<path style="fill:#2B3B4E;" d="M368.8,313.6c-11.2,10.8-24,20.4-38.4,27.6c-0.4,0-0.4,0.4-0.8,0.4c-2.4-24.8-4.8-42.8-7.2-44.4
	l38-83.2l0,0l0,0C360.4,214,364.4,259.2,368.8,313.6z"/>
<path style="fill:#324A5E;" d="M360.4,213.2L360.4,213.2C360.4,213.2,360.4,213.6,360.4,213.2c-1.6,4.4-20,62.4-30,128
	c-0.4,0-0.4,0.4-0.8,0.4c-19.6,10-41.6,16.4-64.8,18c-1.6,0-3.6,0.4-5.2,0.4c-0.4,0-1.2,0-1.6,0c-0.8,0-2,0-2.8,0c0-0.4,0-0.4,0-0.8
	c0,0,8.8-37.6,16.8-80.4l0,0l0,0c4.8-25.2,9.2-51.6,11.2-73.2l0,0c0-1.2,0.4-2.8,0.4-4l0,0c0.4-5.6,0.8-10.4,0.8-15.2
	c0.4-7.6,0-13.6-1.2-17.6l0,0c0-0.4,0-0.4,0-0.8l0,0c0,0,0,0,0,0.4l0,0C286,171.6,311.2,202.8,360.4,213.2z"/>
<path style="fill:#CED5E0;" d="M314.4,222.4c0,0-14,56.4-34.4,105.2c-2.8,6.4-5.2,12.4-8,18l0,0c-2.4,4.8-4.8,9.2-7.2,13.6
	c-1.6,0-3.6,0.4-5.2,0.4c-0.4,0-1.2,0-1.6,0c-0.8,0-2,0-2.8,0c0-0.4,0-0.4,0-0.8c0,0,8.8-37.6,16.8-80.4l0,0l0,0
	c4.8-25.2,9.2-51.6,11.2-73.2l0,0c0-1.2,0.4-2.8,0.4-4l0,0c0.4-5.6,0.8-10.4,0.8-15.2c0.4-7.6,0-13.6-1.2-17.6l0,0
	c0-0.4,0-0.4,0-0.8l0,0c0,0,0,0.4,0.4,0.8l0,0c2.4,4.8,14,26.8,30.4,31.2L299.2,218C299.2,218,310.4,223.2,314.4,222.4z"/>
<g>
	<path style="fill:#FFFFFF;" d="M283.2,168c0,0,7.2,16.4-29.2,35.6l16.4,24.8C270.4,228.8,296.8,191.2,283.2,168z"/>
	<path style="fill:#FFFFFF;" d="M224.4,168c0,0-7.2,16.4,29.2,35.6l-16.4,24.8C237.2,228.8,211.2,191.2,224.4,168z"/>
</g>
<g>
	<path style="fill:#FFD05B;" d="M297.6,114c0,32.4-19.6,74.4-43.6,74.4s-43.6-42-43.6-74.4S230,71.6,254,71.6
		C278,71.6,297.6,81.6,297.6,114z"/>
	<path style="fill:#FFD05B;" d="M307.2,129.6c-2.8,6-7.6,9.6-10.8,8.4c-3.6-1.2-4-7.2-1.6-13.2c2.8-6,7.6-9.6,10.8-8.4
		C309.2,118,309.6,123.6,307.2,129.6z"/>
	<path style="fill:#FFD05B;" d="M200.8,129.6c2.8,6,7.6,9.6,10.8,8.4c3.6-1.2,4-7.2,1.6-13.2c-2.8-6-7.6-9.6-10.8-8.4
		C198.8,118,198,123.6,200.8,129.6z"/>
</g>
<path style="fill:#324A5E;" d="M253.6,83.2C266.4,76,296.4,66,296,130c0,0,28.4-73.2-15.2-74.4c0,0-30.8-31.2-70.4,14.4l6.4-3.2
	c0,0-32,18.8-4.8,63.2c0,0-4.8-64,30.8-46.4C246,85.2,250.4,84.8,253.6,83.2z"/>
<path style="fill:#FFD05B;" d="M392.8,320.4l-13.6,154.4C342.4,495.6,299.6,508,254,508s-88.4-12-125.2-33.2l-13.6-154.4H392.8z"/>
<g>
	<polygon style="fill:#F9B54C;" points="391.6,336 392.8,320.4 115.2,320.4 116.4,336 	"/>
	<polygon style="fill:#F9B54C;" points="115.2,319.6 93.6,322 119.2,367.6 	"/>
</g>
<path style="fill:none;stroke:#FFFFFF;stroke-width:1.01;stroke-miterlimit:10;" d="M128,302.8c0,0-0.8-68.4,43.6-69.2"/>
<rect x="93.6" y="292.8" style="fill:#FFD05B;" width="320.4" height="29.2"/>
<ellipse style="fill:#FF7058;" cx="172" cy="232.8" rx="10.8" ry="8"/>
<g>
</g>
<g>
</g>
<g>
</g>
<g>
</g>
<g>
</g>
<g>
</g>
<g>
</g>
<g>
</g>
<g>
</g>
<g>
</g>
<g>
</g>
<g>
</g>
<g>
</g>
<g>
</g>
<g>
</g>
</svg>
