<?xml version="1.0" encoding="iso-8859-1"?>
<!-- Generator: Adobe Illustrator 19.0.0, SVG Export Plug-In . SVG Version: 6.00 Build 0)  -->
<svg version="1.1" id="Layer_1" xmlns="http://www.w3.org/2000/svg" xmlns:xlink="http://www.w3.org/1999/xlink" x="0px" y="0px"
	 viewBox="0 0 508 508" style="enable-background:new 0 0 508 508;" xml:space="preserve">
<circle style="fill:#324A5E;" cx="254" cy="254" r="254"/>
<path style="fill:#FFD05B;" d="M98.8,195.6v205.2c0,13.2,10.8,23.6,23.6,23.6h263.2c13.2,0,23.6-10.8,23.6-23.6V195.6H98.8z"/>
<polygon style="fill:#F9B54C;" points="409.2,195.6 254,332.4 98.8,195.6 254,83.6 "/>
<polygon style="fill:#FFFFFF;" points="382,106.4 382,219.2 254,332.4 126,219.2 126,106.4 "/>
<path style="fill:#F9B54C;" d="M402.4,416.4c-4.4,5.2-10.4,8.4-16.8,8.4H122.4c-6.4,0-12.4-3.2-16.8-8.4l122-107.2l26.4,23.2
	l26.4-23.2L402.4,416.4z"/>
<path style="fill:#FFD05B;" d="M402.4,417.6c-4.4,4.4-10.4,6.8-16.8,6.8H122.4c-6.4,0-12.4-2.8-16.8-6.8L236.4,314
	c10.4-8,24.8-8,35.2,0L402.4,417.6z"/>
<g>
	<rect x="154.8" y="131.2" style="fill:#E6E9EE;" width="198" height="12.4"/>
	<rect x="154.8" y="162.8" style="fill:#E6E9EE;" width="198" height="12.4"/>
	<rect x="154.8" y="194.8" style="fill:#E6E9EE;" width="198" height="12.4"/>
</g>
<g>
</g>
<g>
</g>
<g>
</g>
<g>
</g>
<g>
</g>
<g>
</g>
<g>
</g>
<g>
</g>
<g>
</g>
<g>
</g>
<g>
</g>
<g>
</g>
<g>
</g>
<g>
</g>
<g>
</g>
</svg>
