<?xml version="1.0" encoding="iso-8859-1"?>
<!-- Generator: Adobe Illustrator 19.0.0, SVG Export Plug-In . SVG Version: 6.00 Build 0)  -->
<svg version="1.1" id="Layer_1" xmlns="http://www.w3.org/2000/svg" xmlns:xlink="http://www.w3.org/1999/xlink" x="0px" y="0px"
	 viewBox="0 0 508 508" style="enable-background:new 0 0 508 508;" xml:space="preserve">
<circle style="fill:#FFD05B;" cx="254" cy="254" r="254"/>
<path style="fill:#F9B54C;" d="M69.2,428.4c46.4,49.2,112,79.6,184.8,79.6s138.4-30.8,184.8-79.6H69.2z"/>
<path style="fill:#324A5E;" d="M110.8,384.8c1.2,17.6,16.4,30.8,34.4,30.8H390c3.6,0,6.4,2.8,6.4,6.4l0,0c0,3.6-2.8,6.4-6.4,6.4
	H145.6c-24,0-45.2-18.4-46.8-42.4c-0.8-14,4.4-26.8,13.2-35.6c8.4-8.4,19.6-13.2,32.4-13.2H390c3.6,0,6.4,2.8,6.4,6.4l0,0
	c0,3.6-2.8,6.4-6.4,6.4H144C125.2,349.2,109.6,365.6,110.8,384.8z"/>
<path style="fill:#FFFFFF;" d="M384.8,349.2H144c-18.4,0-33.2,14.8-33.2,33.2c0,18.4,14.8,33.2,33.2,33.2h240.8V349.2z"/>
<path style="fill:#324A5E;" d="M233.6,140c11.6,15.2,16.8,36.8,10.8,58.8c13.2-18.4,18-43.6,10.8-68.8
	C247.6,133.6,240.4,136.8,233.6,140z"/>
<path style="fill:#FF7058;" d="M301.2,162.4c-8.4-0.4-16.8,1.2-24.8,5.2c-16.4,8-36.4,8-52.8,0c-8-4-16.4-5.6-24.8-5.2
	c-34,2.4-56.4,43.2-49.6,91.6c6.8,48,40,85.2,74,82.8c3.2-0.4,6.8-0.8,9.6-2c10.8-3.2,22.8-3.2,34,0c3.2,0.8,6.4,1.6,9.6,2
	c34.4,2.4,67.6-34.8,74.4-82.8C357.6,205.6,335.6,164.8,301.2,162.4z"/>
<path style="fill:#4CDBC4;" d="M315.6,106L315.6,106c-33.2-5.2-56,17.6-50.8,50.8l0,0l0,0C298,162,320.8,139.6,315.6,106z"/>
<g>
</g>
<g>
</g>
<g>
</g>
<g>
</g>
<g>
</g>
<g>
</g>
<g>
</g>
<g>
</g>
<g>
</g>
<g>
</g>
<g>
</g>
<g>
</g>
<g>
</g>
<g>
</g>
<g>
</g>
</svg>
