<?xml version="1.0" encoding="iso-8859-1"?>
<!-- Generator: Adobe Illustrator 19.0.0, SVG Export Plug-In . SVG Version: 6.00 Build 0)  -->
<svg version="1.1" id="Layer_1" xmlns="http://www.w3.org/2000/svg" xmlns:xlink="http://www.w3.org/1999/xlink" x="0px" y="0px"
	 viewBox="0 0 508 508" style="enable-background:new 0 0 508 508;" xml:space="preserve">
<circle style="fill:#FD8469;" cx="254" cy="254" r="254"/>
<path style="fill:#FFFFFF;" d="M359.6,173.2c0-59.2-48.8-107.2-108.8-105.6c-54.4,1.6-99.2,45.2-102.4,99.6
	c-1.2,22,4.4,42.8,14.8,60.4c19.6,32.8,30,70,30,108l0,0c0,8.4,6.8,15.2,15.2,15.2h90.8c8.4,0,15.2-6.8,15.2-15.2l0,0
	c0-38.4,11.2-76,30.8-109.2C354.4,210.8,359.6,192.8,359.6,173.2z"/>
<path style="fill:#2B3B4E;" d="M301.2,350.8h-94.4v68.4c0,11.6,9.6,21.2,21.2,21.2h51.6c11.6,0,21.2-9.6,21.2-21.2v-68.4H301.2z"/>
<g>
	<path style="fill:#324A5E;" d="M302.8,368.4l-96.8,8c-2.4,0-4.4-1.6-4.8-4l0,0c0-2.4,1.6-4.4,4-4.8l96.8-8c2.4,0,4.4,1.6,4.8,4l0,0
		C306.8,366,305.2,368.4,302.8,368.4z"/>
	<path style="fill:#324A5E;" d="M302.8,383.2l-96.8,8c-2.4,0-4.4-1.6-4.8-4l0,0c0-2.4,1.6-4.4,4-4.8l96.8-8c2.4,0,4.4,1.6,4.8,4l0,0
		C306.8,380.8,305.2,382.8,302.8,383.2z"/>
	<path style="fill:#324A5E;" d="M302.8,397.6l-96.8,8c-2.4,0-4.4-1.6-4.8-4l0,0c0-2.4,1.6-4.4,4-4.8l96.8-8c2.4,0,4.4,1.6,4.8,4l0,0
		C306.8,395.2,305.2,397.6,302.8,397.6z"/>
	<path style="fill:#324A5E;" d="M302.8,412.4l-96.8,8c-2.4,0-4.4-1.6-4.8-4l0,0c0-2.4,1.6-4.4,4-4.8l96.8-8c2.4,0,4.4,1.6,4.8,4l0,0
		C306.8,410,305.2,412,302.8,412.4z"/>
</g>
<g>
	<path style="fill:#CED5E0;" d="M282.4,350.8h-56.8l0,0c0-14.8,12-27.2,27.2-27.2h2.8C270.4,323.6,282.4,336,282.4,350.8
		L282.4,350.8z"/>
	<path style="fill:#CED5E0;" d="M268.4,337.2H240V228.8c0-8,6.4-14.4,14.4-14.4l0,0c8,0,14.4,6.4,14.4,14.4v108.4H268.4z"/>
	<g>
		<line style="fill:none;stroke:#CED5E0;stroke-width:1.206;stroke-miterlimit:10;" x1="258.8" y1="226.4" x2="312.8" y2="157.6"/>
		<line style="fill:none;stroke:#CED5E0;stroke-width:1.206;stroke-miterlimit:10;" x1="195.2" y1="157.6" x2="249.2" y2="226.4"/>
	</g>
</g>
<polyline style="fill:none;stroke:#FFD05B;stroke-width:0.595;stroke-miterlimit:10;" points="215.6,150.4 225.2,166 234.8,150.4 
	244.4,166 254,150.4 263.6,166 273.2,150.4 282.8,166 292.4,150.4 "/>
<g>
</g>
<g>
</g>
<g>
</g>
<g>
</g>
<g>
</g>
<g>
</g>
<g>
</g>
<g>
</g>
<g>
</g>
<g>
</g>
<g>
</g>
<g>
</g>
<g>
</g>
<g>
</g>
<g>
</g>
</svg>
