<?xml version="1.0" encoding="iso-8859-1"?>
<!-- Generator: Adobe Illustrator 19.0.0, SVG Export Plug-In . SVG Version: 6.00 Build 0)  -->
<svg version="1.1" id="Layer_1" xmlns="http://www.w3.org/2000/svg" xmlns:xlink="http://www.w3.org/1999/xlink" x="0px" y="0px"
	 viewBox="0 0 508 508" style="enable-background:new 0 0 508 508;" xml:space="preserve">
<circle style="fill:#FD8469;" cx="254" cy="254" r="254"/>
<path style="fill:#FFFFFF;" d="M256.4,438.8c-77.2,1.6-140.8-63.2-140.8-140.8V168.8c0-4.8,4-8.8,8.8-8.8h56.8c4.8,0,8.8,4,8.8,8.8
	v130.4c0,34.8,26.8,64.4,61.6,65.6c36.4,1.2,66.4-28,66.4-64v-132c0-4.8,4-8.8,8.8-8.8h56.8c4.8,0,8.8,4,8.8,8.8v132
	C392.4,376,331.6,437.6,256.4,438.8z"/>
<path style="fill:#FFD05B;" d="M253.2,364.8c-0.4,0-1.2,0-1.6,0c-34.8-1.6-61.6-31.2-61.6-65.6V168.8c0-4.8-4-8.8-8.8-8.8h-56.8
	c-4.8,0-8.8,4-8.8,8.8v129.6c0,76.4,61.6,140.4,137.6,140.8L253.2,364.8L253.2,364.8z"/>
<path style="fill:#E6E9EE;" d="M392.4,223.6v-54.8c0-4.8-4-8.8-8.8-8.8h-56.8c-4.8,0-8.8,4-8.8,8.8v54.8H392.4z"/>
<path style="fill:#F9B54C;" d="M190,223.6v-54.8c0-4.8-4-8.8-8.8-8.8h-56.8c-4.8,0-8.8,4-8.8,8.8v54.8H190z"/>
<polygon style="fill:#FFFFFF;" points="302,128 270,128 283.2,69.2 224,158 256,158 242.8,216.8 "/>
<g>
</g>
<g>
</g>
<g>
</g>
<g>
</g>
<g>
</g>
<g>
</g>
<g>
</g>
<g>
</g>
<g>
</g>
<g>
</g>
<g>
</g>
<g>
</g>
<g>
</g>
<g>
</g>
<g>
</g>
</svg>
