<?xml version="1.0" encoding="iso-8859-1"?>
<!-- Generator: Adobe Illustrator 19.0.0, SVG Export Plug-In . SVG Version: 6.00 Build 0)  -->
<svg version="1.1" id="Layer_1" xmlns="http://www.w3.org/2000/svg" xmlns:xlink="http://www.w3.org/1999/xlink" x="0px" y="0px"
	 viewBox="0 0 508 508" style="enable-background:new 0 0 508 508;" xml:space="preserve">
<circle style="fill:#90DFAA;" cx="254" cy="254" r="254"/>
<polygon style="fill:#324A5E;" points="167.2,179.6 260,99.2 352.8,179.6 369.6,179.6 260,84.4 150.4,179.6 "/>
<path style="fill:#FFFFFF;" d="M399.6,396.4H108.4c-7.2,0-13.2-6-13.2-13.2V189.6c0-7.2,6-13.2,13.2-13.2h291.2
	c7.2,0,13.2,6,13.2,13.2v193.6C412.8,390.4,406.8,396.4,399.6,396.4z"/>
<g>
	<path style="fill:#84DBFF;" d="M330,327.6c1.6-1.2,3.6-0.8,5.6-0.8s4.4-0.4,4.8-2.4c0.4-1.2,0-2.8,0.8-4c0.4-0.8,1.2-1.2,1.6-1.6
		c4-2,8.4-3.2,13.2-3.2c0.4,0,1.2,0,1.6,0.4c1.2,0.8,0.4,2.4,0.4,4c0,4,3.6,6.4,5.6,9.6c2.8,4.4,1.6,10,0.4,14.8
		c-0.4,1.2-0.4,2.4-1.2,3.2c-0.8,0.8-2,1.2-2.8,0.8c-1.2-0.8-1.2-2.4-1.6-3.6c-0.8-2-2.8-3.2-4.8-3.6c-2-0.8-4-1.2-5.6-2.4
		c-0.8-0.4-1.6-1.2-2.4-1.2c-1.2,0-1.6,1.2-2.4,2c-2.8,3.6-8.4,4.4-11.6,1.6c-0.8-0.4-1.2-1.2-1.6-2c0-0.8,0-1.6,0-2.4
		C330,333.6,330,330.8,330,327.6z"/>
	<path style="fill:#84DBFF;" d="M265.6,276.8c-1.6,0.4-3.2,0.4-4.4-0.4c-0.8-0.4-1.2-1.6-2-2c-3.6-4-10.4-2-14.8,0.4
		c-1.6,1.2-3.6,2-5.6,2.4c-2,0-4.4-1.2-4.4-3.2c-0.4-3.2,3.6-4.8,6.8-5.2c1.2-2.8,0.8-6-0.4-8.4c-0.8-1.2-1.6-2.4-2.4-3.6
		s-0.4-3.2,1.2-4c1.6-0.8,2.8,0.8,3.6,2.4c0.8,1.6,0.8,3.2,1.6,4.4c2.4,2.8,6.8,1.6,10,0c2-0.8,3.6-2,5.6-2.8
		c3.2-1.6,6.8-3.6,8.8-6.8s1.6-8.4-1.6-10.4c0-1.2,1.6-2,2.8-1.6c1.2,0.4,2,1.6,3.2,2.4c3.2,2.8,8,3.2,11.6,1.2
		c1.6-0.8,3.2-2,4.4-3.2c8.4-5.6,20.4-2.4,27.6-9.6c1.2-0.8,2-2,3.2-2.8c0,0,0.8,0,1.6,0c3.2,0,6.4,0,9.6,0c0.8,2.8,0,6.4-2,8.8
		c10.8,0.4,21.2,0.8,32-0.8c2.8-0.4,5.6-0.8,8.4,0s4.8,3.2,7.6,3.2c3.2,0.4,6-2,8.8-0.8c2.4,0.8,4,3.2,6.4,4c0.8,0,1.2,0,1.6,0.4
		c0.8,0.8,0.4,2-0.4,2.8s-1.6,0.8-2.8,1.2c-5.6,0.8-11.2,1.6-16.8,2c-0.8,0-1.2,0-1.6,0.8c-0.4,0.4-0.4,1.2-0.4,1.6
		c0,2.8,0.8,5.6-0.8,8c-1.2,2.4-5.2,3.2-6.4,0.4c-0.4-1.2,0-2.8-0.4-4c-0.8-1.2-2-1.6-3.2-1.6c-2.8-0.4-5.6-0.8-8,0.8
		c-2.4,1.6-3.2,5.6-0.8,7.2c1.6,0.8,3.2,0.4,4.8,1.2c2.4,1.6,1.6,5.2,0,7.6s-4,4-4.4,6.8c-0.4,1.2-0.4,2.4-0.8,3.2
		c-1.2,2.8-5.2,2.8-7.6,0.8c-2.4-1.6-4-4.4-6.4-5.6c-1.2,3.2-0.4,7.2,1.6,10c-2.8,0.4-5.2,2.8-7.2,4.8s-4.4,4.4-7.6,4.4
		c-2.8,0-6-3.2-4.8-6c-1.2,4.8-5.6,8-10,8c-0.8,0-1.6,0-2.4,0.4c-1.6,1.2,0,3.6-0.4,5.6c-0.4,3.2-4.4,3.6-7.2,3.2
		c-1.2,0-2-0.4-2.8-0.8c-1.2-0.8-1.6-2.8-1.6-4.4c0-5.6,4.8-10,6-15.2c0.8-2.4-0.4-6-2.8-6c-2,0-2.8,2-4,3.6s-3.2,2.8-4.4,1.6
		c0-1.6-0.4-3.2-0.4-4.8c4.4,0.8,8.4-2.8,11.6-6.4c2.4-2.4,4.4-4.4,6.8-6.8c0.4-0.4,0.8-1.2,0.8-1.6c0-0.8-0.8-1.2-1.6-1.6
		c-3.2-1.6-6.8-2.8-10-4.4c-2.4-1.2-5.6-2-7.6,0c-0.8,0.8-1.2,2-2,2.8c-2.4,2.8-7.2,1.2-9.6,4.4c-2,2.4-0.4,6.8-2.8,8.8
		c-0.8,0.8-2,1.2-3.2,1.2C271.6,275.6,268.4,276,265.6,276.8z"/>
	<path style="fill:#84DBFF;" d="M192,332.8c-0.4-0.8-0.8-1.6-1.2-2.4c-4.8,8.4-5.2,19.2-1.6,28.4c2.8-2.8,2.8-8,5.2-11.2
		c2.8-3.6,8.4-4.4,10.8-8.8c0.8-2,1.2-4,1.6-6c0.4-2,1.6-4.4,3.6-4.8c0.8,0,1.2,0,2-0.8c0.4-0.4,0.8-1.2,0.8-1.6
		c0.8-3.6,1.2-7.2,2-10.8c-2.8-1.6-6.4-3.2-9.6-4c-2-0.4-4-0.8-6-2c-2.4-1.2-4.4-3.2-6.8-4.8c-2.4-1.6-5.2-2.4-7.6-1.6
		c0.4,6.4-2.8,12.8-8,16.4c4,1.2,7.2,4.4,9.2,8.4c1.6-2,2.8-4.8,2.4-7.6c1.2-1.2,4-0.4,4.4,1.6c0,0.8-0.4,2,0,2.8
		c0.8,3.2,5.6,2,6.8,4.8c0.8,1.6-0.8,4-2.4,4.4C195.6,334,194,333.2,192,332.8z"/>
	<path style="fill:#84DBFF;" d="M194,241.6c-0.8-1.6-2.8-2-4-2.8c-3.2-1.2-5.6-4-7.2-7.2c-0.4-1.2-0.8-2.8,0-4
		c0.4-0.8,1.2-1.2,2-1.6c3.6-2,6.8-5.2,8.4-9.2c-5.6-4-13.6-1.6-19.6,2c-2,1.2-3.6,2-4.8,4c-1.2,1.6-1.6,4.4-0.4,6
		c-1.6-1.2-3.6,0.4-4.8,2.4s-1.2,4-2.4,5.6c-2,3.2-6.4,3.2-9.6,2.4c-6.4-0.8-12.8-2.4-19.2-2.4c-6.4-0.4-13.2,0.8-18.4,4.8
		c-0.4,0.4-1.2,0.8-1.2,1.6s0.8,1.6,1.2,2c1.2,1.2,1.2,3.2,0.8,4.8c-0.4,1.2-1.6,2.4-1.2,3.6c0.4,0.8,1.2,1.6,2,1.6
		c4,0.8,7.2-3.2,11.2-4c3.6-0.8,7.6,1.6,10,4.8c2.8,3.2,4.4,6.8,7.6,9.6c0.8,0.4,1.2,1.2,1.6,2c0.4,0.8,0.4,1.6,0.4,2.4
		c0.8,5.6,2,11.6,3.6,17.2c0.4,1.2,0.8,2,1.2,2.8c2.8,3.2,8.8-0.4,11.2,3.2c0.8,1.6,0.4,3.2,1.2,4.8c0.8,2,3.2,2.8,5.2,2.8
		c1.6,0,3.2,0,4.4-1.6c1.2-1.2,0.8-3.6-0.4-4c-0.8-0.4-1.6,0-2.4-0.4c-3.2-0.4-3.2-5.2-2.8-8.4c0-0.8,0.4-1.6,0.8-2
		c0.4-0.4,1.2-0.4,1.6-0.4c2.8,0,6,0.8,8.8,0.4s6-2.4,6-5.6c0-2.4-1.2-5.2,0.4-6.8c1.2-1.2,3.2-0.4,4.8-0.4c4,0,6-5.2,6.8-9.2
		s1.2-8.8-2-10.8c-2.8-1.6-6.4,0.4-8.8-1.2c-0.8-0.4-1.6-1.2-2.4-1.6c-1.6-0.4-3.2,1.2-3.2,2.8s0.8,3.2,1.6,4.8
		c-2.8,2.4-6.8,2.4-10,0.8c-2-1.2-3.6-4.4-2-6.4c0.4-0.8,1.2-1.2,2-1.6c4.8-2,10.4-0.8,15.6-1.2c1.6,0,3.2-0.4,4.4-1.6
		C194,245.2,194.8,243.2,194,241.6z"/>
</g>
<circle style="fill:#FFFFFF;" cx="260" cy="94.4" r="37.2"/>
<circle style="fill:#FF7058;" cx="260" cy="94.4" r="21.6"/>
<g>
</g>
<g>
</g>
<g>
</g>
<g>
</g>
<g>
</g>
<g>
</g>
<g>
</g>
<g>
</g>
<g>
</g>
<g>
</g>
<g>
</g>
<g>
</g>
<g>
</g>
<g>
</g>
<g>
</g>
</svg>
