<?xml version="1.0" encoding="iso-8859-1"?>
<!-- Generator: Adobe Illustrator 19.0.0, SVG Export Plug-In . SVG Version: 6.00 Build 0)  -->
<svg version="1.1" id="Layer_1" xmlns="http://www.w3.org/2000/svg" xmlns:xlink="http://www.w3.org/1999/xlink" x="0px" y="0px"
	 viewBox="0 0 508 508" style="enable-background:new 0 0 508 508;" xml:space="preserve">
<circle style="fill:#324A5E;" cx="254" cy="254" r="254"/>
<path style="fill:#F1543F;" d="M181.2,73.6c0,0.4,0.4,0.8,0.4,1.2l40.8,86.8H284l-41.6-88C242.4,73.6,181.2,73.6,181.2,73.6z"/>
<polygon style="fill:#E6E9EE;" points="196.8,73.6 238.4,161.6 268.8,161.6 227.2,73.6 "/>
<path style="fill:#FF7058;" d="M264.8,73.6l-41.6,88h61.6l40.8-86.8c0-0.4,0.4-0.8,0.4-1.2C326,73.6,264.8,73.6,264.8,73.6z"/>
<polygon style="fill:#FFFFFF;" points="279.6,73.6 238,161.6 268.4,161.6 310,73.6 "/>
<circle style="fill:#F9B54C;" cx="254" cy="188.8" r="15.2"/>
<circle style="fill:#FFD05B;" cx="254" cy="309.6" r="124.8"/>
<g>
	<circle style="fill:#F9B54C;" cx="254" cy="309.6" r="96.8"/>
	<path style="fill:#F9B54C;" d="M157.2,309.2L157.2,309.2c0,54,43.2,97.2,96.8,97.2s96.8-43.2,96.8-96.8v-0.4L157.2,309.2
		L157.2,309.2z"/>
</g>
<ellipse style="fill:#FFD05B;" cx="254" cy="309.6" rx="96.8" ry="90.4"/>
<path style="fill:none;stroke:#F9B54C;stroke-miterlimit:10;" d="M287.2,173.2h-66.4c-2.8,0-4.8-2-4.8-4.8V164c0-2.8,2-4.8,4.8-4.8
	h66.4c2.8,0,4.8,2,4.8,4.8v4.4C292,171.2,289.6,173.2,287.2,173.2z"/>
<path style="fill:#FFFFFF;" d="M224,250h47.6v118h-25.2v-95.2H224L224,250L224,250z"/>
<g>
</g>
<g>
</g>
<g>
</g>
<g>
</g>
<g>
</g>
<g>
</g>
<g>
</g>
<g>
</g>
<g>
</g>
<g>
</g>
<g>
</g>
<g>
</g>
<g>
</g>
<g>
</g>
<g>
</g>
</svg>
