<?xml version="1.0" encoding="iso-8859-1"?>
<!-- Generator: Adobe Illustrator 19.0.0, SVG Export Plug-In . SVG Version: 6.00 Build 0)  -->
<svg version="1.1" id="Layer_1" xmlns="http://www.w3.org/2000/svg" xmlns:xlink="http://www.w3.org/1999/xlink" x="0px" y="0px"
	 viewBox="0 0 508 508" style="enable-background:new 0 0 508 508;" xml:space="preserve">
<circle style="fill:#324A5E;" cx="254" cy="254" r="254"/>
<path style="fill:#F1543F;" d="M280,157.6h-52.4L159.6,18c1.6-0.8,3.2-1.2,5.2-2c1.6-0.8,3.2-1.2,4.8-1.6c8.4-2.8,16.8-5.2,25.2-7.6
	c1.6-0.4,3.6-0.8,5.2-1.2c2-0.4,3.6-0.8,5.6-1.2L254,104l3.2,6.4l0,0l2.8,6l14.4,29.6l2.8,6l0,0L280,157.6z"/>
<path style="fill:#FFD05B;" d="M274,157.6h-40.4l-2.8-5.6l-66-136c1.6-0.8,3.2-1.2,4.8-1.6c8.4-2.8,16.8-5.2,25.2-7.6
	c1.6-0.4,3.6-0.8,5.2-1.2L250.8,110l3.2,6.4l0,0l2.8,6l14.4,29.6l0,0L274,157.6z"/>
<path style="fill:#F1543F;" d="M268.4,157.6h-28.8l-2.8-5.2l-3.2-6.4l-64-131.6c8.4-2.8,16.8-5.2,25.2-7.6L248,116l3.2,6.4l0,0
	l2.8,6L268.4,157.6z"/>
<path style="fill:#FFFFFF;" d="M281.2,207.2h-54.4c-1.6,0-3.2-1.2-3.6-2.8L212.4,170c-1.6-4.8-0.8-10,2.4-14s7.6-6.4,12.8-6.4h53.2
	c5.2,0,9.6,2.4,12.8,6.4c3.2,4,4,9.2,2.4,14l-10.4,34.4C284.4,206,283.2,207.2,281.2,207.2z M229.6,199.2h48.8l9.6-31.6
	c0.8-2.4,0.4-4.8-1.2-6.8s-3.6-3.2-6.4-3.2h-52.8c-2.4,0-4.8,1.2-6.4,3.2c-1.6,2-2,4.4-1.2,6.8L229.6,199.2z"/>
<path style="fill:#FFD05B;" d="M389.2,341.6L389.2,341.6c8.4-8.4,8.4-21.6,0-30l0,0c-6-6-8-15.2-4.4-23.2l0,0
	c4.4-10.8-0.8-23.2-11.6-27.6l0,0c-8-3.2-13.2-10.8-13.2-19.6l0,0c0-11.6-9.6-21.2-21.2-21.2l0,0c-8.4,0-16.4-5.2-19.6-13.2l0,0
	c-4.4-10.8-16.8-16-27.6-11.6l0,0c-8,3.2-16.8,1.6-23.2-4.4l0,0c-8.4-8.4-21.6-8.4-30,0l0,0c-6,6-15.2,8-23.2,4.4l0,0
	c-10.8-4.4-23.2,0.8-27.6,11.6l0,0c-3.2,8-10.8,13.2-19.6,13.2l0,0c-11.6,0-21.2,9.6-21.2,21.2l0,0c0,8.4-5.2,16.4-13.2,19.6l0,0
	c-10.8,4.4-16,16.8-11.6,27.6l0,0c3.2,8,1.6,16.8-4.4,23.2l0,0c-8.4,8.4-8.4,21.6,0,30l0,0c6,6,8,15.2,4.4,23.2l0,0
	c-4.4,10.8,0.8,23.2,11.6,27.6l0,0c8,3.2,13.2,10.8,13.2,19.6l0,0c0,11.6,9.6,21.2,21.2,21.2l0,0c8.4,0,16.4,5.2,19.6,13.2l0,0
	c4.4,10.8,16.8,16,27.6,11.6l0,0c8-3.2,16.8-1.6,23.2,4.4l0,0c8.4,8.4,21.6,8.4,30,0l0,0c6-6,15.2-8,23.2-4.4l0,0
	c10.8,4.4,23.2-0.8,27.6-11.6l0,0c3.2-8,10.8-13.2,19.6-13.2l0,0c11.6,0,21.2-9.6,21.2-21.2l0,0c0-8.4,5.2-16.4,13.2-19.6l0,0
	c10.8-4.4,16-16.8,11.6-27.6l0,0C381.6,356.4,383.2,347.6,389.2,341.6z"/>
<circle style="fill:#F9B54C;" cx="254" cy="326.4" r="110.8"/>
<g>
	<path style="fill:#FFD05B;" d="M254,431.2L254,431.2c-1.6,0-2.8,0-4.4,0v-4.4c1.2,0,2.8,0,4,0L254,431.2z M258.4,430.8v-4.4
		c1.2,0,2.8,0,4-0.4l0.4,4.4C261.2,430.8,260,430.8,258.4,430.8z M245.6,430.8c-1.6,0-2.8-0.4-4.4-0.4l0.4-4.4c1.2,0,2.8,0.4,4,0.4
		V430.8z M267.2,430.4l-0.4-4.4c1.2,0,2.8-0.4,4-0.4l0.8,4C270,430,268.4,430,267.2,430.4z M236.8,429.6c-1.6-0.4-2.8-0.4-4.4-0.8
		l0.8-4c1.2,0.4,2.8,0.4,4,0.8L236.8,429.6z M275.6,428.8l-0.8-4c1.2-0.4,2.8-0.4,4-0.8l1.2,4C278.4,428,276.8,428.4,275.6,428.8z
		 M228.4,428c-1.6-0.4-2.8-0.8-4-1.2l1.2-4c1.2,0.4,2.8,0.8,4,1.2L228.4,428z M284,426.8l-1.2-4c1.2-0.4,2.8-0.8,4-1.2l1.2,4
		C286.8,426,285.2,426.4,284,426.8z M220,425.6c-1.2-0.4-2.8-0.8-4-1.6l1.6-4c1.2,0.4,2.4,0.8,4,1.6L220,425.6z M292,424l-1.6-4
		c1.2-0.4,2.4-1.2,4-1.6l1.6,4C294.8,422.8,293.6,423.2,292,424z M212,422.4c-1.2-0.4-2.8-1.2-4-2l2-4c1.2,0.8,2.4,1.2,3.6,1.6
		L212,422.4z M300,420.4l-2-4c1.2-0.8,2.4-1.2,3.6-2l2,3.6C302.4,419.2,301.2,419.6,300,420.4z M204.4,418.4c-1.2-0.8-2.4-1.2-3.6-2
		l2-3.6c1.2,0.8,2.4,1.2,3.6,2L204.4,418.4z M307.6,416.4l-2-3.6c1.2-0.8,2.4-1.6,3.6-2l2.4,3.6C310,414.8,308.8,415.6,307.6,416.4z
		 M196.8,414c-1.2-0.8-2.4-1.6-3.6-2.4l2.4-3.6c1.2,0.8,2.4,1.6,3.6,2.4L196.8,414z M314.8,411.6l-2.4-3.6c1.2-0.8,2.4-1.6,3.2-2.4
		l2.8,3.2C317.2,410,316,410.8,314.8,411.6z M190,409.2c-1.2-0.8-2.4-1.6-3.2-2.8l2.8-3.2c1.2,0.8,2,1.6,3.2,2.8L190,409.2z
		 M321.6,406.4l-2.8-3.2c1.2-0.8,2-2,3.2-2.8l2.8,3.2C323.6,404.4,322.8,405.2,321.6,406.4z M183.2,403.6c-1.2-0.8-2-2-3.2-2.8
		l2.8-3.2c0.8,0.8,2,2,2.8,2.8L183.2,403.6z M328,400.4l-3.2-3.2c0.8-0.8,2-2,2.8-2.8l3.2,2.8C330,398.4,328.8,399.2,328,400.4z
		 M177.2,397.2c-0.8-1.2-2-2-2.8-3.2l3.2-2.8c0.8,1.2,2,2,2.8,3.2L177.2,397.2z M333.6,394l-3.2-2.8c0.8-1.2,1.6-2,2.8-3.2l3.2,2.8
		C335.6,392,334.8,392.8,333.6,394z M171.6,390.8c-0.8-1.2-1.6-2.4-2.4-3.6l3.6-2.4c0.8,1.2,1.6,2.4,2.4,3.2L171.6,390.8z
		 M339.2,387.2l-3.6-2.4c0.8-1.2,1.6-2.4,2.4-3.6l3.6,2.4C340.8,384.8,340,386,339.2,387.2z M166.4,383.6c-0.8-1.2-1.6-2.4-2.4-3.6
		l3.6-2c0.8,1.2,1.6,2.4,2.4,3.6L166.4,383.6z M344,380l-4-2c0.8-1.2,1.2-2.4,2-3.6l3.6,2C345.2,377.6,344.4,378.8,344,380z
		 M162,376.4c-0.8-1.2-1.2-2.4-2-4l4-2c0.8,1.2,1.2,2.4,2,3.6L162,376.4z M348,372.4l-4-2c0.8-1.2,1.2-2.4,1.6-3.6l4,1.6
		C349.2,370,348.4,371.2,348,372.4z M158.4,368.8c-0.4-1.2-1.2-2.8-1.6-4l4-1.6c0.4,1.2,1.2,2.4,1.6,4L158.4,368.8z M351.6,364.4
		l-4-1.6c0.4-1.2,0.8-2.4,1.6-4l4,1.2C352.4,361.6,352,363.2,351.6,364.4z M155.2,360.8c-0.4-1.2-0.8-2.8-1.2-4l4-1.2
		c0.4,1.2,0.8,2.8,1.2,4L155.2,360.8z M354.4,356.4l-4-1.2c0.4-1.2,0.8-2.8,1.2-4l4,1.2C355.2,353.6,354.8,354.8,354.4,356.4z
		 M152.8,352.4c-0.4-1.2-0.8-2.8-0.8-4.4l4-0.8c0.4,1.2,0.4,2.8,0.8,4L152.8,352.4z M356.4,348l-4-0.8c0.4-1.2,0.4-2.8,0.8-4l4,0.8
		C356.8,345.2,356.8,346.4,356.4,348z M150.8,344c-0.4-1.6-0.4-2.8-0.8-4.4l4.4-0.4c0,1.2,0.4,2.8,0.8,4L150.8,344z M357.6,339.6
		l-4.4-0.4c0-1.2,0.4-2.8,0.4-4l4.4,0.4C358,336.4,358,338,357.6,339.6z M150,335.2c0-1.6-0.4-2.8-0.4-4.4h4.4c0,1.2,0,2.8,0.4,4
		L150,335.2z M358.4,330.8H354c0-1.2,0-2.8,0-4l4.4-0.4v0.4C358.4,328,358.4,329.2,358.4,330.8z M149.6,326.8L149.6,326.8
		c0-1.6,0-2.8,0-4.4h4.4c0,1.2,0,2.8,0,4L149.6,326.8z M354.4,322c0-1.2,0-2.8-0.4-4l4.4-0.4c0,1.6,0.4,2.8,0.4,4.4H354.4z
		 M154,318.4l-4.4-0.4c0-1.6,0.4-2.8,0.4-4.4l4.4,0.4C154.4,315.6,154,317.2,154,318.4z M353.6,313.6c0-1.2-0.4-2.8-0.8-4l4-0.8
		c0.4,1.6,0.4,2.8,0.8,4.4L353.6,313.6z M155.2,310l-4-0.8c0.4-1.6,0.4-2.8,0.8-4.4l4,0.8C155.6,307.6,155.2,308.8,155.2,310z
		 M352,305.6c-0.4-1.2-0.8-2.8-0.8-4l4-1.2c0.4,1.2,0.8,2.8,0.8,4.4L352,305.6z M156.8,302l-4-1.2c0.4-1.6,0.8-2.8,1.2-4l4,1.2
		C157.2,299.2,157.2,300.8,156.8,302z M350,297.6c-0.4-1.2-0.8-2.8-1.2-4l4-1.2c0.4,1.2,0.8,2.8,1.2,4L350,297.6z M159.2,294l-4-1.2
		c0.4-1.2,0.8-2.8,1.6-4l4,1.6C160,291.6,159.6,292.8,159.2,294z M347.2,289.6c-0.4-1.2-1.2-2.4-1.6-4l4-1.6c0.4,1.2,1.2,2.8,1.6,4
		L347.2,289.6z M162,286.4l-4-1.6c0.4-1.2,1.2-2.8,2-4l4,2C163.2,284,162.4,285.2,162,286.4z M344,282c-0.8-1.2-1.2-2.4-2-3.6l3.6-2
		c0.8,1.2,1.2,2.4,2,4L344,282z M165.6,278.8l-3.6-2c0.8-1.2,1.2-2.4,2-3.6l3.6,2C167.2,276.4,166.4,277.6,165.6,278.8z M340,274.8
		c-0.8-1.2-1.6-2.4-2.4-3.6l3.6-2.4c0.8,1.2,1.6,2.4,2.4,3.6L340,274.8z M170,271.6l-3.6-2.4c0.8-1.2,1.6-2.4,2.4-3.6l3.6,2.4
		C171.6,269.6,170.8,270.8,170,271.6z M335.6,268c-0.8-1.2-1.6-2.4-2.4-3.2l3.2-2.8c0.8,1.2,1.6,2.4,2.4,3.6L335.6,268z
		 M174.8,265.2l-3.2-2.8c0.8-1.2,1.6-2.4,2.8-3.2l3.2,2.8C176.4,262.8,175.6,264,174.8,265.2z M330.4,261.6c-0.8-1.2-2-2-2.8-3.2
		l3.2-2.8c0.8,1.2,2,2,2.8,3.2L330.4,261.6z M180,258.8l-3.2-2.8c0.8-1.2,2-2,2.8-3.2l3.2,2.8C182,256.8,180.8,257.6,180,258.8z
		 M324.8,255.2c-0.8-0.8-2-2-2.8-2.8l2.8-3.2c1.2,0.8,2,2,3.2,2.8L324.8,255.2z M186,252.8l-2.8-3.2c1.2-0.8,2-2,3.2-2.8l2.8,3.2
		C188,250.8,186.8,252,186,252.8z M318.8,249.6c-1.2-0.8-2-1.6-3.2-2.8l2.8-3.2c1.2,0.8,2.4,1.6,3.2,2.8L318.8,249.6z M192.4,247.6
		l-2.8-3.2c1.2-0.8,2.4-1.6,3.6-2.4l2.4,3.6C194.4,245.6,193.2,246.4,192.4,247.6z M312,244.8c-1.2-0.8-2.4-1.6-3.6-2.4l2.4-3.6
		c1.2,0.8,2.4,1.6,3.6,2.4L312,244.8z M198.8,242.8l-2.4-3.6c1.2-0.8,2.4-1.6,3.6-2.4l2,3.6C201.2,241.2,200,242,198.8,242.8z
		 M305.2,240c-1.2-0.8-2.4-1.2-3.6-2l2-3.6c1.2,0.8,2.4,1.2,3.6,2L305.2,240z M206,238.4l-2-3.6c1.2-0.8,2.4-1.2,4-2l2,4
		C208.4,237.2,207.2,237.6,206,238.4z M297.6,236c-1.2-0.8-2.4-1.2-3.6-1.6l1.6-4c1.2,0.4,2.8,1.2,4,2L297.6,236z M213.6,234.8
		l-1.6-4c1.2-0.4,2.8-1.2,4-1.6l1.6,4C216,233.6,214.8,234,213.6,234.8z M290,232.8c-1.2-0.4-2.4-0.8-4-1.6l1.2-4
		c1.2,0.4,2.8,0.8,4,1.6L290,232.8z M221.2,231.6l-1.2-4c1.2-0.4,2.8-0.8,4-1.2l1.2,4C223.6,230.8,222.4,231.2,221.2,231.6z
		 M282.4,230.4c-1.2-0.4-2.8-0.8-4-1.2l1.2-4c1.6,0.4,2.8,0.8,4,1.2L282.4,230.4z M229.2,229.2l-1.2-4c1.2-0.4,2.8-0.8,4.4-0.8
		l0.8,4C231.6,228.8,230.4,228.8,229.2,229.2z M274.4,228.4c-1.2-0.4-2.8-0.4-4-0.8l0.8-4c1.6,0.4,2.8,0.4,4.4,0.8L274.4,228.4z
		 M237.2,227.6l-0.8-4c1.6-0.4,2.8-0.4,4.4-0.8l0.4,4.4C240,227.2,238.4,227.2,237.2,227.6z M266,226.8c-1.2,0-2.8-0.4-4-0.4
		l0.4-4.4c1.6,0,2.8,0.4,4.4,0.4L266,226.8z M245.6,226.4l-0.4-4.4c1.6,0,2.8-0.4,4.4-0.4v4.4C248,226.4,246.8,226.4,245.6,226.4z
		 M258,226.4c-1.2,0-2.4,0-4,0l-0.4-2.8v-1.2l0,0c1.2,0,2.8,0,4,0L258,226.4z"/>
	<circle style="fill:#FFD05B;" cx="254" cy="326.4" r="95.2"/>
</g>
<path style="fill:#FF7058;" d="M348.4,18l-68,139.6H228l2.8-5.6l2.8-6l14.4-29.6l2.8-6l3.2-6.4l48.4-99.6c2,0.4,3.6,0.8,5.6,1.2
	c1.6,0.4,3.6,0.8,5.2,1.2c8.8,2,17.2,4.4,25.2,7.6c1.6,0.4,3.2,1.2,4.8,1.6C344.8,16.8,346.8,17.6,348.4,18z"/>
<path style="fill:#FFD05B;" d="M343.2,16l-66,135.6l-2.8,5.6H234l2.8-5.2l14.4-29.6l2.8-6l3.2-6.4L308,5.6c1.6,0.4,3.6,0.8,5.2,1.2
	c8.8,2,17.2,4.4,25.2,7.6C340,14.8,341.6,15.6,343.2,16z"/>
<path style="fill:#FF7058;" d="M338.4,14.4l-64,131.6l-3.2,6.4l-2.8,5.2h-28.8l14.4-29.2l2.8-6l3.2-6.4L313.2,6.8
	C321.6,8.8,330,11.6,338.4,14.4z"/>
<polygon style="fill:#F9B54C;" points="254,244.8 277.6,292.8 330.4,300.4 292,337.6 301.2,390.4 254,365.6 206.8,390.4 216,337.6 
	177.6,300.4 230.4,292.8 "/>
<g>
</g>
<g>
</g>
<g>
</g>
<g>
</g>
<g>
</g>
<g>
</g>
<g>
</g>
<g>
</g>
<g>
</g>
<g>
</g>
<g>
</g>
<g>
</g>
<g>
</g>
<g>
</g>
<g>
</g>
</svg>
