<?xml version="1.0" encoding="iso-8859-1"?>
<!-- Generator: Adobe Illustrator 19.0.0, SVG Export Plug-In . SVG Version: 6.00 Build 0)  -->
<svg version="1.1" id="Layer_1" xmlns="http://www.w3.org/2000/svg" xmlns:xlink="http://www.w3.org/1999/xlink" x="0px" y="0px"
	 viewBox="0 0 508 508" style="enable-background:new 0 0 508 508;" xml:space="preserve">
<circle style="fill:#90DFAA;" cx="254" cy="254" r="254"/>
<path style="fill:#FFFFFF;" d="M84,282.4c-2,0-3.6-1.6-3.6-3.6V232c0-2,1.6-3.6,3.6-3.6h68.4c2,0,3.6,1.6,3.6,3.6s-1.6,3.6-3.6,3.6
	H87.6v43.2C87.6,280.8,86,282.4,84,282.4z"/>
<polygon style="fill:#2B3B4E;" points="268.8,136 84,232 268.8,328 453.6,232 "/>
<path style="fill:#324A5E;" d="M365.6,242.8c-8-38.4-96.8-38.4-96.8-38.4s-89.2,0-96.8,38.4c-8.4,41.6-16.4,106.4-16.4,106.4
	s85.2-32,113.2,29.6c28-61.6,113.2-29.6,113.2-29.6S374.4,284.4,365.6,242.8z"/>
<polygon style="fill:#F1543F;" points="112.4,356 55.6,356 74.8,276.4 93.2,276.4 "/>
<circle style="fill:#FF7058;" cx="84" cy="278.8" r="13.6"/>
<g>
</g>
<g>
</g>
<g>
</g>
<g>
</g>
<g>
</g>
<g>
</g>
<g>
</g>
<g>
</g>
<g>
</g>
<g>
</g>
<g>
</g>
<g>
</g>
<g>
</g>
<g>
</g>
<g>
</g>
</svg>
