<?xml version="1.0" encoding="iso-8859-1"?>
<!-- Generator: Adobe Illustrator 19.0.0, SVG Export Plug-In . SVG Version: 6.00 Build 0)  -->
<svg version="1.1" id="Layer_1" xmlns="http://www.w3.org/2000/svg" xmlns:xlink="http://www.w3.org/1999/xlink" x="0px" y="0px"
	 viewBox="0 0 508.4 508.4" style="enable-background:new 0 0 508.4 508.4;" xml:space="preserve">
<circle style="fill:#FFD05B;" cx="254.2" cy="254" r="254"/>
<path style="fill:#F9B54C;" d="M52.2,408c7.2,9.6,14.8,18.4,23.2,26.8c46,45.6,109.2,73.6,178.8,73.6s132.8-28,178.8-73.6
	c8.4-8.4,16-17.2,23.2-26.8H52.2z"/>
<rect x="155.4" y="157.2" style="fill:#324A5E;" width="195.6" height="202.8"/>
<path style="fill:#FFFFFF;" d="M424.2,160.4L254.6,54.8c-0.8-0.8-2.4-0.8-3.2,0L81.8,160.4c-2.8,1.6-1.6,5.6,1.6,5.6H423
	C425.8,166,427,162,424.2,160.4z"/>
<g>
	<polygon style="fill:#E6E9EE;" points="132.2,148.8 253,73.6 373.8,148.8 	"/>
	<rect x="84.2" y="383.6" style="fill:#E6E9EE;" width="344" height="24"/>
</g>
<g>
	<rect x="111" y="359.6" style="fill:#FFFFFF;" width="290" height="24"/>
	<rect x="325" y="166" style="fill:#FFFFFF;" width="40" height="194"/>
	<rect x="233" y="166" style="fill:#FFFFFF;" width="40" height="194"/>
	<rect x="141.4" y="166" style="fill:#FFFFFF;" width="40" height="194"/>
</g>
<g>
	<path style="fill:#E6E9EE;" d="M189.8,166H133v12c0,5.2,4,9.2,9.2,9.2h38.4c5.2,0,9.2-4,9.2-9.2L189.8,166L189.8,166z"/>
	<path style="fill:#E6E9EE;" d="M281.4,166h-56.8v12c0,5.2,4,9.2,9.2,9.2h38.4c5.2,0,9.2-4,9.2-9.2V166z"/>
	<path style="fill:#E6E9EE;" d="M373.4,166h-57.2v12c0,5.2,4,9.2,9.2,9.2h38.4c5.2,0,9.2-4,9.2-9.2v-12H373.4z"/>
	<path style="fill:#E6E9EE;" d="M189.8,359.6H133v-12c0-5.2,4-9.2,9.2-9.2h38.4c5.2,0,9.2,4,9.2,9.2L189.8,359.6L189.8,359.6z"/>
	<path style="fill:#E6E9EE;" d="M281.4,359.6h-56.8v-12c0-5.2,4-9.2,9.2-9.2h38.4c5.2,0,9.2,4,9.2,9.2V359.6z"/>
	<path style="fill:#E6E9EE;" d="M373.4,359.6h-57.2v-12c0-5.2,4-9.2,9.2-9.2h38.4c5.2,0,9.2,4,9.2,9.2v12H373.4z"/>
</g>
<g>
</g>
<g>
</g>
<g>
</g>
<g>
</g>
<g>
</g>
<g>
</g>
<g>
</g>
<g>
</g>
<g>
</g>
<g>
</g>
<g>
</g>
<g>
</g>
<g>
</g>
<g>
</g>
<g>
</g>
</svg>
