<?xml version="1.0" encoding="iso-8859-1"?>
<!-- Generator: Adobe Illustrator 19.0.0, SVG Export Plug-In . SVG Version: 6.00 Build 0)  -->
<svg version="1.1" id="Layer_1" xmlns="http://www.w3.org/2000/svg" xmlns:xlink="http://www.w3.org/1999/xlink" x="0px" y="0px"
	 viewBox="0 0 508 508" style="enable-background:new 0 0 508 508;" xml:space="preserve">
<circle style="fill:#90DFAA;" cx="254" cy="254" r="254"/>
<circle style="fill:#FFD05B;" cx="254" cy="197.6" r="138.8"/>
<ellipse style="fill:#324A5E;" cx="192.8" cy="177.2" rx="36" ry="42.4"/>
<ellipse style="fill:#FFFFFF;" cx="192.8" cy="179.2" rx="36" ry="40.4"/>
<ellipse style="fill:#84DBFF;" cx="197.6" cy="186" rx="21.2" ry="24"/>
<ellipse style="fill:#54C0EB;" cx="197.6" cy="188" rx="17.6" ry="20"/>
<ellipse transform="matrix(0.2742 -0.9617 0.9617 0.2742 -37.3941 326.4405)" style="fill:#324A5E;" cx="197.565" cy="187.993" rx="9.2" ry="8"/>
<g>
	
		<ellipse transform="matrix(0.2742 -0.9617 0.9617 0.2742 -40.124 318.8909)" style="fill:#FFFFFF;" cx="191.199" cy="186.027" rx="4.8" ry="2.8"/>
	
		<ellipse transform="matrix(0.2742 -0.9617 0.9617 0.2742 -34.3412 334.4055)" style="fill:#FFFFFF;" cx="204.368" cy="189.953" rx="3.2" ry="2"/>
</g>
<ellipse style="fill:#324A5E;" cx="315.2" cy="177.2" rx="36" ry="42.4"/>
<ellipse style="fill:#FFFFFF;" cx="315.2" cy="179.2" rx="36" ry="40.4"/>
<ellipse style="fill:#84DBFF;" cx="310.4" cy="186" rx="21.2" ry="24"/>
<ellipse style="fill:#54C0EB;" cx="310.4" cy="188" rx="17.6" ry="20"/>
<ellipse transform="matrix(0.2742 0.9617 -0.9617 0.2742 405.7744 -162.0859)" style="fill:#324A5E;" cx="310.267" cy="187.777" rx="9.2" ry="8"/>
<g>
	
		<ellipse transform="matrix(0.2742 0.9617 -0.9617 0.2742 408.9333 -169.7148)" style="fill:#FFFFFF;" cx="316.9" cy="186.055" rx="4.8" ry="2.8"/>
	
		<ellipse transform="matrix(0.2742 0.9617 -0.9617 0.2742 402.5642 -153.8083)" style="fill:#FFFFFF;" cx="303.178" cy="189.789" rx="3.2" ry="2"/>
	<path style="fill:#FFFFFF;" d="M277.2,249.6H256v24c0,1.2,0.8,2,2,2h17.2c1.2,0,2-0.8,2-2V249.6z"/>
	<path style="fill:#FFFFFF;" d="M251.6,249.6h-21.2v24c0,1.2,0.8,2,2,2h17.2c1.2,0,2-0.8,2-2V249.6z"/>
</g>
<path style="fill:#F9B54C;" d="M202.8,237.2c0,0,1.6,0.8,4.4,2c2.8,1.2,6.8,2.8,11.6,4c9.6,2.8,22.4,5.2,35.6,4.8
	c6.8,0,12.8-0.4,19.2-1.2c6-0.8,11.6-2,16.4-3.6s8.8-2.8,11.6-4c2.8-1.2,4.4-2,4.4-2s-5.2,5.2-14.8,10c-4.8,2.4-10.4,4.4-16.8,5.6
	c-6,1.6-13.2,2-19.6,2.4c-6.8,0-13.6-0.8-20-2.4s-12-3.6-16.8-5.6C208,242.4,202.8,237.2,202.8,237.2z"/>
<g>
	<polygon style="fill:#E6E9EE;" points="260.8,302.8 372.8,275.6 400,286.8 268.4,319.6 	"/>
	<polygon style="fill:#E6E9EE;" points="247.2,302.8 135.2,275.6 108,286.8 239.6,319.6 	"/>
	<path style="fill:#E6E9EE;" d="M276.4,310.4c0,5.2-10,9.2-22.4,9.2s-22-4-22.4-9.2c0-5.2,10-9.6,22.4-9.6S276.4,305.2,276.4,310.4z
		"/>
</g>
<path style="fill:#F1543F;" d="M275.6,302.8L272,444.4c0,2.8-8,4.8-18,4.8s-18-2.4-18-4.8l-3.6-141.6c0,4,9.6,7.2,21.6,7.2
	S275.6,306.8,275.6,302.8z"/>
<g>
	<polygon style="fill:#FF7058;" points="382,430.8 272,444.4 275.6,302.8 408.4,282.8 	"/>
	<polygon style="fill:#FF7058;" points="126,430.8 236,444.4 232.4,302.8 99.6,282.8 	"/>
</g>
<path style="fill:#2B3B4E;" d="M381.2,127.6c-3.2-0.4-6.4-0.4-10,0c-0.4,0-0.8,0-1.2,0.4c-6,1.6-12,0.8-17.6-1.6
	c-6-2.8-13.6-4-21.6-4c-27.2,0-46,5.2-57.2,15.2c-5.6,5.2-12.4,8-19.6,8h0c-7.2,0-14-2.8-19.6-8c-11.2-10-30-15.2-57.2-15.2
	c-8.4,0-15.6,1.2-21.6,4c-5.6,2.4-11.6,3.2-17.6,1.6c-0.4,0-0.8-0.4-1.2-0.4c-3.6-0.8-6.8-0.8-10,0l-4,29.6c0,0,0,0,0,0.4
	c4.4,1.6,7.2,6,6.4,11.2c-0.4,3.2-0.4,6.4-0.4,10c0,36.8,16.8,56.4,48.4,56.4c31.2,0,59.2-29.2,66.8-57.2c1.6-5.2,5.2-9.2,10-9.6h0
	c4.8,0,8.4,4,10,9.6c7.2,28,35.6,57.2,66.8,57.2c31.6,0,48.4-19.6,48.4-56.4c0-3.6,0-6.8-0.4-10c-0.4-5.2,2.4-10,6.4-11.2
	c0,0,0,0,0-0.4L381.2,127.6z M237.2,169.2c0,0.4,0,1.2-0.4,1.6c0,1.2-0.4,2-0.8,3.2c0,0.8-0.4,1.6-0.8,2.4c0,0.4-0.4,1.2-0.4,1.6
	c-0.4,1.2-0.8,2.4-1.2,4c0,0.4-0.4,1.2-0.8,1.6c0,0.4,0,0.4-0.4,0.8c-0.4,0.8-0.8,1.6-0.8,2c-0.4,0.8-0.8,1.6-1.2,2
	c0,0.4-0.4,0.4-0.4,0.8c-0.4,0.8-0.8,1.2-1.2,2s-0.8,1.6-1.6,2.4c-0.4,0.8-1.2,1.6-1.6,2.4c-0.4,0.8-1.2,1.6-1.6,2.4
	c-1.2,1.6-2.4,3.2-3.6,4.4c-1.2,1.6-2.4,2.8-4,4.4c-0.8,0.8-1.2,1.2-2,2c-1.6,1.2-2.8,2.4-4.4,3.6c-0.8,0.8-1.6,1.2-2.4,1.6
	c-0.8,0.4-1.6,1.2-2.4,1.6c-0.8,0.4-1.6,1.2-2.4,1.6l0,0c-0.8,0.4-1.6,0.8-2.4,1.2c-0.8,0.4-1.6,0.8-2.4,1.2c0,0-0.4,0-0.4,0.4
	c-0.8,0.4-1.6,0.8-2.4,1.2c0,0,0,0-0.4,0c-0.8,0.4-1.6,0.8-2.4,0.8c-1.6,0.8-3.6,1.2-5.2,1.6c-0.8,0.4-1.6,0.4-2.8,0.4
	c-0.4,0-0.4,0-0.8,0c-0.8,0-1.6,0.4-2,0.4c-1.2,1.2-2.8,1.2-4.8,1.2c-32,0-40.4-21.2-40.4-47.2s8.4-47.2,40.4-47.2
	c10.4,0,20.4,0.8,29.2,2.8c1.6,0.4,3.6,0.8,5.2,1.2c0.4,0,0.8,0.4,1.6,0.4c0.4,0,1.2,0.4,1.6,0.4c0.4,0,1.2,0.4,1.6,0.4
	c2.4,0.8,4.8,2,7.2,3.2c0.4,0,0.8,0.4,1.2,0.8c0.4,0.4,0.8,0.4,1.2,0.8c0.4,0.4,0.8,0.8,1.6,1.2c1.2,0.8,2.4,2,3.6,2.8
	c0.4,0.4,0.8,0.8,1.2,1.6c0.4,0.4,0.8,0.8,1.2,1.2l0.4,0.4c0.4,0.4,0.8,0.8,0.8,1.6c0.4,0.4,0.8,1.2,0.8,1.6c0.8,1.2,1.2,2.4,1.6,4
	c0,0.4,0.4,0.8,0.4,1.2l0,0c0,0.4,0,0.8,0.4,1.2c0,0.4,0.4,1.2,0.4,1.6c0,0.4,0,0.8,0,1.2s0,0.8,0,1.6s0,1.6,0,2
	C237.6,166,237.2,167.6,237.2,169.2z M330.4,226c-0.8,0-1.2,0-2,0c-0.4,0-1.2,0-1.6,0s-1.2,0-1.6,0c-0.8,0-2-0.4-2.8-0.4
	c-28.4-5.2-52.4-36.8-52.4-60.4c0-26,28.8-33.2,60.8-33.2c3.6,0,7.2,0.4,10.4,0.8c23.6,4,30,23.2,30,46.4
	C370.8,204.8,362.4,226,330.4,226z"/>
<g>
	<path style="fill:#FFFFFF;" d="M188,224.4c2-0.4,3.6-0.8,5.2-1.6C191.6,223.6,189.6,224,188,224.4z"/>
	<path style="fill:#FFFFFF;" d="M210.4,212.8c1.6-1.2,2.8-2.4,4.4-3.6C213.6,210.4,212,212,210.4,212.8z"/>
</g>
<g>
</g>
<g>
</g>
<g>
</g>
<g>
</g>
<g>
</g>
<g>
</g>
<g>
</g>
<g>
</g>
<g>
</g>
<g>
</g>
<g>
</g>
<g>
</g>
<g>
</g>
<g>
</g>
<g>
</g>
</svg>
