<?xml version="1.0" encoding="iso-8859-1"?>
<!-- Generator: Adobe Illustrator 19.0.0, SVG Export Plug-In . SVG Version: 6.00 Build 0)  -->
<svg version="1.1" id="Layer_1" xmlns="http://www.w3.org/2000/svg" xmlns:xlink="http://www.w3.org/1999/xlink" x="0px" y="0px"
	 viewBox="0 0 508 508" style="enable-background:new 0 0 508 508;" xml:space="preserve">
<path style="fill:#FFD05B;" d="M508,254c0,70.8-28.8,134.4-75.2,180.4C386.8,480,323.6,508,254,508s-132.8-28-178.8-73.6
	C28.8,388.4,0,324.8,0,254C0,113.6,113.6,0,254,0S508,113.6,508,254z"/>
<g>
	<polyline style="fill:none;stroke:#324A5E;stroke-width:3;stroke-miterlimit:10;" points="132,226.8 270,260 270,113.2 	"/>
	<polyline style="fill:none;stroke:#324A5E;stroke-width:3;stroke-miterlimit:10;" points="401.2,287.2 270,264.4 239.6,401.2 	"/>
</g>
<g>
	<circle style="fill:#FFFFFF;" cx="270" cy="113.2" r="38.8"/>
	<circle style="fill:#FFFFFF;" cx="401.2" cy="287.2" r="40"/>
</g>
<g>
	<circle style="fill:#84DBFF;" cx="401.2" cy="287.2" r="22.4"/>
	<circle style="fill:#84DBFF;" cx="270" cy="113.2" r="22.4"/>
</g>
<circle style="fill:#FFFFFF;" cx="270" cy="264.4" r="51.2"/>
<circle style="fill:#FF7058;" cx="270" cy="264.4" r="35.2"/>
<g>
	<circle style="fill:#FFFFFF;" cx="239.6" cy="401.2" r="40"/>
	<circle style="fill:#FFFFFF;" cx="134.8" cy="226.8" r="39.6"/>
</g>
<g>
	<circle style="fill:#84DBFF;" cx="134.8" cy="226.8" r="22.4"/>
	<circle style="fill:#84DBFF;" cx="239.6" cy="401.2" r="22.4"/>
</g>
<g>
</g>
<g>
</g>
<g>
</g>
<g>
</g>
<g>
</g>
<g>
</g>
<g>
</g>
<g>
</g>
<g>
</g>
<g>
</g>
<g>
</g>
<g>
</g>
<g>
</g>
<g>
</g>
<g>
</g>
</svg>
