<?xml version="1.0" encoding="iso-8859-1"?>
<!-- Generator: Adobe Illustrator 19.0.0, SVG Export Plug-In . SVG Version: 6.00 Build 0)  -->
<svg version="1.1" id="Layer_1" xmlns="http://www.w3.org/2000/svg" xmlns:xlink="http://www.w3.org/1999/xlink" x="0px" y="0px"
	 viewBox="0 0 508 508" style="enable-background:new 0 0 508 508;" xml:space="preserve">
<circle style="fill:#FFD05B;" cx="254" cy="254" r="254"/>
<path style="fill:#324A5E;" d="M389.2,155.6c-2.4-3.6-7.6-4.4-11.2-1.6l-124,90.4l-126-83.6c-3.6-2.4-8.4-1.6-11.2,2.4
	c-2.4,3.6-1.6,8.4,2.4,11.2L244.8,258l-41.6,147.2c-1.2,4.4,1.2,8.8,5.6,9.6c0.8,0.4,1.6,0.4,2,0.4c3.6,0,6.8-2.4,7.6-5.6
	l42.4-150.4l126.4-92C390.8,164,391.6,159.2,389.2,155.6z"/>
<circle style="fill:#FFFFFF;" cx="254" cy="254" r="69.6"/>
<circle style="fill:#FF7058;" cx="254" cy="254" r="48.4"/>
<g>
	<circle style="fill:#FFFFFF;" cx="382.8" cy="160.4" r="38.8"/>
	<circle style="fill:#FFFFFF;" cx="123.6" cy="167.2" r="38.8"/>
	<circle style="fill:#FFFFFF;" cx="210.8" cy="406.8" r="38.8"/>
</g>
<g>
</g>
<g>
</g>
<g>
</g>
<g>
</g>
<g>
</g>
<g>
</g>
<g>
</g>
<g>
</g>
<g>
</g>
<g>
</g>
<g>
</g>
<g>
</g>
<g>
</g>
<g>
</g>
<g>
</g>
</svg>
