<?xml version="1.0" encoding="iso-8859-1"?>
<!-- Generator: Adobe Illustrator 19.0.0, SVG Export Plug-In . SVG Version: 6.00 Build 0)  -->
<svg version="1.1" id="Layer_1" xmlns="http://www.w3.org/2000/svg" xmlns:xlink="http://www.w3.org/1999/xlink" x="0px" y="0px"
	 viewBox="0 0 508 508" style="enable-background:new 0 0 508 508;" xml:space="preserve">
<circle style="fill:#84DBFF;" cx="254" cy="254" r="254"/>
<g>
	<rect x="159.2" y="103.6" style="fill:#324A5E;" width="4" height="199.6"/>
	<rect x="204.8" y="103.6" style="fill:#324A5E;" width="4" height="199.6"/>
	<rect x="250.8" y="103.6" style="fill:#324A5E;" width="4" height="199.6"/>
	<rect x="296.8" y="103.6" style="fill:#324A5E;" width="4" height="199.6"/>
	
		<rect x="297.636" y="182.992" transform="matrix(-0.5052 -0.863 0.863 -0.5052 430.746 616.9507)" style="fill:#324A5E;" width="189.2" height="4"/>
</g>
<path style="fill:#FFFFFF;" d="M394.4,403.6H111.6c-3.6,0-6.4-2.8-6.4-6.4V103.6c0-3.6,2.8-6.4,6.4-6.4h282.8c3.6,0,6.4,2.8,6.4,6.4
	v293.6C400.8,400.8,398,403.6,394.4,403.6z M117.6,390.8H388V109.6H117.6V390.8z"/>
<path style="fill:#54C0EB;" d="M70,429.2c46.4,48.4,111.6,78.8,184,78.8s137.6-30.4,184-78.8H70z"/>
<path style="fill:#324A5E;" d="M414.8,413.6H91.2c-4.4,0-7.6-3.6-7.6-7.6v-16.8c0-4.4,3.6-7.6,7.6-7.6h323.6c4.4,0,7.6,3.6,7.6,7.6
	V406C422.4,410,418.8,413.6,414.8,413.6z"/>
<g>
	<path style="fill:#2B3B4E;" d="M367.2,413.6v9.6c0,3.2,2.8,6,6,6h22c3.2,0,6-2.8,6-6v-9.6H367.2z"/>
	<path style="fill:#2B3B4E;" d="M104.4,413.6v9.6c0,3.2,2.8,6,6,6h22c3.2,0,6-2.8,6-6v-9.6H104.4z"/>
</g>
<circle style="fill:#FF7058;" cx="161.2" cy="303.2" r="22.8"/>
<path style="fill:#F1543F;" d="M173.2,283.6c5.6,3.2,9.6,8.8,10.8,15.6c2,12.4-6.4,24.4-18.8,26.4c-8,1.2-15.6-1.6-20.8-7.2
	c4.4,2.8,10,4,15.6,3.2c12.4-2,20.8-14,18.8-26.4C178,290.8,176,286.8,173.2,283.6z"/>
<ellipse transform="matrix(0.707 -0.7072 0.7072 0.707 -162.5563 191.3649)" style="fill:#FFFFFF;" cx="149.674" cy="291.866" rx="5.6" ry="3.2"/>
<circle style="fill:#FF7058;" cx="207.2" cy="303.2" r="22.8"/>
<path style="fill:#F1543F;" d="M219.2,283.6c5.6,3.2,9.6,8.8,10.8,15.6c2,12.4-6.4,24.4-18.8,26.4c-8,1.2-15.6-1.6-20.8-7.2
	c4.4,2.8,10,4,15.6,3.2c12.4-2,20.8-14,18.8-26.4C224,290.8,222,286.8,219.2,283.6z"/>
<ellipse transform="matrix(0.707 -0.7072 0.7072 0.707 -149.1592 223.9059)" style="fill:#FFFFFF;" cx="195.645" cy="291.968" rx="5.6" ry="3.2"/>
<circle style="fill:#FF7058;" cx="252.8" cy="303.2" r="22.8"/>
<path style="fill:#F1543F;" d="M264.8,283.6c5.6,3.2,9.6,8.8,10.8,15.6c2,12.4-6.4,24.4-18.8,26.4c-8,1.2-15.6-1.6-20.8-7.2
	c4.4,2.8,10,4,15.6,3.2c12.4-2,20.8-14,18.8-26.4C269.6,290.8,267.6,286.8,264.8,283.6z"/>
<ellipse transform="matrix(0.707 -0.7072 0.7072 0.707 -135.7754 256.4227)" style="fill:#FFFFFF;" cx="241.58" cy="292.074" rx="5.6" ry="3.2"/>
<circle style="fill:#FF7058;" cx="298.8" cy="303.2" r="22.8"/>
<path style="fill:#F1543F;" d="M310.8,283.6c5.6,3.2,9.6,8.8,10.8,15.6c2,12.4-6.4,24.4-18.8,26.4c-8,1.2-15.6-1.6-20.8-7.2
	c4.4,2.8,10,4,15.6,3.2c12.4-2,20.8-14,18.8-26.4C315.6,290.8,313.6,286.8,310.8,283.6z"/>
<ellipse transform="matrix(0.7069 -0.7073 0.7073 0.7069 -122.2578 288.749)" style="fill:#FFFFFF;" cx="287.283" cy="291.894" rx="5.6" ry="3.2"/>
<circle style="fill:#FF7058;" cx="440.4" cy="266.8" r="22.8"/>
<ellipse transform="matrix(0.707 -0.7072 0.7072 0.707 -55.3903 378.1291)" style="fill:#FFFFFF;" cx="428.656" cy="255.913" rx="5.6" ry="3.2"/>
<g>
</g>
<g>
</g>
<g>
</g>
<g>
</g>
<g>
</g>
<g>
</g>
<g>
</g>
<g>
</g>
<g>
</g>
<g>
</g>
<g>
</g>
<g>
</g>
<g>
</g>
<g>
</g>
<g>
</g>
</svg>
