<?xml version="1.0" encoding="iso-8859-1"?>
<!-- Generator: Adobe Illustrator 19.0.0, SVG Export Plug-In . SVG Version: 6.00 Build 0)  -->
<svg version="1.1" id="Layer_1" xmlns="http://www.w3.org/2000/svg" xmlns:xlink="http://www.w3.org/1999/xlink" x="0px" y="0px"
	 viewBox="0 0 508 508" style="enable-background:new 0 0 508 508;" xml:space="preserve">
<circle style="fill:#90DFAA;" cx="254" cy="254" r="254"/>
<g>
	<path style="fill:#FFFFFF;" d="M393.2,416.4H114.8c-8.4,0-15.2-6.8-15.2-15.2V120.4c0-8.4,6.8-15.2,15.2-15.2h278
		c8.4,0,15.2,6.8,15.2,15.2v280.8C408.4,409.6,401.6,416.4,393.2,416.4z"/>
	<g>
		<line style="fill:none;stroke:#CED5E0;stroke-width:0.501;stroke-miterlimit:10;" x1="111.6" y1="164.4" x2="396.4" y2="164.4"/>
		<line style="fill:none;stroke:#CED5E0;stroke-width:0.501;stroke-miterlimit:10;" x1="111.6" y1="184.8" x2="396.4" y2="184.8"/>
		<line style="fill:none;stroke:#CED5E0;stroke-width:0.501;stroke-miterlimit:10;" x1="111.6" y1="205.2" x2="396.4" y2="205.2"/>
		<line style="fill:none;stroke:#CED5E0;stroke-width:0.501;stroke-miterlimit:10;" x1="111.6" y1="225.6" x2="396.4" y2="225.6"/>
		<line style="fill:none;stroke:#CED5E0;stroke-width:0.501;stroke-miterlimit:10;" x1="111.6" y1="246" x2="396.4" y2="246"/>
		<line style="fill:none;stroke:#CED5E0;stroke-width:0.501;stroke-miterlimit:10;" x1="111.6" y1="266.8" x2="396.4" y2="266.8"/>
		<line style="fill:none;stroke:#CED5E0;stroke-width:0.501;stroke-miterlimit:10;" x1="111.6" y1="287.2" x2="396.4" y2="287.2"/>
		<line style="fill:none;stroke:#CED5E0;stroke-width:0.501;stroke-miterlimit:10;" x1="111.6" y1="307.6" x2="396.4" y2="307.6"/>
		<line style="fill:none;stroke:#CED5E0;stroke-width:0.501;stroke-miterlimit:10;" x1="111.6" y1="328" x2="396.4" y2="328"/>
		<line style="fill:none;stroke:#CED5E0;stroke-width:0.501;stroke-miterlimit:10;" x1="111.6" y1="348.4" x2="396.4" y2="348.4"/>
		<line style="fill:none;stroke:#CED5E0;stroke-width:0.501;stroke-miterlimit:10;" x1="111.6" y1="368.8" x2="396.4" y2="368.8"/>
		<line style="fill:none;stroke:#CED5E0;stroke-width:0.501;stroke-miterlimit:10;" x1="111.6" y1="389.6" x2="396.4" y2="389.6"/>
	</g>
</g>
<g>
	<circle style="fill:#90DFAA;" cx="383.6" cy="120.8" r="7.2"/>
	<circle style="fill:#90DFAA;" cx="351.2" cy="120.8" r="7.2"/>
	<circle style="fill:#90DFAA;" cx="318.8" cy="120.8" r="7.2"/>
	<circle style="fill:#90DFAA;" cx="286.4" cy="120.8" r="7.2"/>
	<circle style="fill:#90DFAA;" cx="254" cy="120.8" r="7.2"/>
	<circle style="fill:#90DFAA;" cx="221.6" cy="120.8" r="7.2"/>
	<circle style="fill:#90DFAA;" cx="189.2" cy="120.8" r="7.2"/>
	<circle style="fill:#90DFAA;" cx="156.8" cy="120.8" r="7.2"/>
	<circle style="fill:#90DFAA;" cx="124.4" cy="120.8" r="7.2"/>
</g>
<g>
	
		<line style="fill:none;stroke:#324A5E;stroke-width:0.75;stroke-linecap:round;stroke-miterlimit:10;" x1="386.4" y1="120.8" x2="386.4" y2="96"/>
	
		<line style="fill:none;stroke:#324A5E;stroke-width:0.75;stroke-linecap:round;stroke-miterlimit:10;" x1="380.4" y1="120.8" x2="380.4" y2="96"/>
	
		<line style="fill:none;stroke:#324A5E;stroke-width:0.75;stroke-linecap:round;stroke-miterlimit:10;" x1="354" y1="120.8" x2="354" y2="96"/>
	
		<line style="fill:none;stroke:#324A5E;stroke-width:0.75;stroke-linecap:round;stroke-miterlimit:10;" x1="348" y1="120.8" x2="348" y2="96"/>
	
		<line style="fill:none;stroke:#324A5E;stroke-width:0.75;stroke-linecap:round;stroke-miterlimit:10;" x1="321.6" y1="120.8" x2="321.6" y2="96"/>
	
		<line style="fill:none;stroke:#324A5E;stroke-width:0.75;stroke-linecap:round;stroke-miterlimit:10;" x1="315.6" y1="120.8" x2="315.6" y2="96"/>
	
		<line style="fill:none;stroke:#324A5E;stroke-width:0.75;stroke-linecap:round;stroke-miterlimit:10;" x1="289.6" y1="120.8" x2="289.6" y2="96"/>
	
		<line style="fill:none;stroke:#324A5E;stroke-width:0.75;stroke-linecap:round;stroke-miterlimit:10;" x1="283.2" y1="120.8" x2="283.2" y2="96"/>
	
		<line style="fill:none;stroke:#324A5E;stroke-width:0.75;stroke-linecap:round;stroke-miterlimit:10;" x1="257.2" y1="120.8" x2="257.2" y2="96"/>
	
		<line style="fill:none;stroke:#324A5E;stroke-width:0.75;stroke-linecap:round;stroke-miterlimit:10;" x1="250.8" y1="120.8" x2="250.8" y2="96"/>
	
		<line style="fill:none;stroke:#324A5E;stroke-width:0.75;stroke-linecap:round;stroke-miterlimit:10;" x1="224.8" y1="120.8" x2="224.8" y2="96"/>
	
		<line style="fill:none;stroke:#324A5E;stroke-width:0.75;stroke-linecap:round;stroke-miterlimit:10;" x1="218.4" y1="120.8" x2="218.4" y2="96"/>
	
		<line style="fill:none;stroke:#324A5E;stroke-width:0.75;stroke-linecap:round;stroke-miterlimit:10;" x1="192.4" y1="120.8" x2="192.4" y2="96"/>
	
		<line style="fill:none;stroke:#324A5E;stroke-width:0.75;stroke-linecap:round;stroke-miterlimit:10;" x1="186.4" y1="120.8" x2="186.4" y2="96"/>
	
		<line style="fill:none;stroke:#324A5E;stroke-width:0.75;stroke-linecap:round;stroke-miterlimit:10;" x1="160" y1="120.8" x2="160" y2="96"/>
	
		<line style="fill:none;stroke:#324A5E;stroke-width:0.75;stroke-linecap:round;stroke-miterlimit:10;" x1="154" y1="120.8" x2="154" y2="96"/>
	
		<line style="fill:none;stroke:#324A5E;stroke-width:0.75;stroke-linecap:round;stroke-miterlimit:10;" x1="127.6" y1="120.8" x2="127.6" y2="96"/>
	
		<line style="fill:none;stroke:#324A5E;stroke-width:0.75;stroke-linecap:round;stroke-miterlimit:10;" x1="121.6" y1="120.8" x2="121.6" y2="96"/>
</g>
<path style="fill:#FF7058;" d="M188.8,369.2L171.6,352l158.8-158.8c1.2-1.2,3.2-1.2,4.4,0l12.4,12.4c1.2,1.2,1.2,3.2,0,4.4
	L188.8,369.2z"/>
<path style="fill:#F1543F;" d="M304.4,254l43.2-43.2c1.2-1.2,1.2-3.2,0-4.4L335.2,194c-1.2-1.2-3.2-1.2-4.4,0l-43.6,42.8L304.4,254z
	"/>
<path style="fill:#FFD05B;" d="M188.8,369.2l-26.4,12c-1.6,0.8-3.6-0.8-2.8-2.8l12-26.4L188.8,369.2z"/>
<path style="fill:#324A5E;" d="M163.6,370l-4,8.8c-0.8,1.6,0.8,3.6,2.8,2.8l8.8-4L163.6,370z"/>
<g>
</g>
<g>
</g>
<g>
</g>
<g>
</g>
<g>
</g>
<g>
</g>
<g>
</g>
<g>
</g>
<g>
</g>
<g>
</g>
<g>
</g>
<g>
</g>
<g>
</g>
<g>
</g>
<g>
</g>
</svg>
