<?xml version="1.0" encoding="iso-8859-1"?>
<!-- Generator: Adobe Illustrator 19.0.0, SVG Export Plug-In . SVG Version: 6.00 Build 0)  -->
<svg version="1.1" id="Layer_1" xmlns="http://www.w3.org/2000/svg" xmlns:xlink="http://www.w3.org/1999/xlink" x="0px" y="0px"
	 viewBox="0 0 508 508" style="enable-background:new 0 0 508 508;" xml:space="preserve">
<circle style="fill:#FFD05B;" cx="254" cy="254" r="254"/>
<path style="fill:#F1543F;" d="M394,401.2H114c-6.4,0-12-5.2-12-12V118.8c0-6.4,5.2-12,12-12h280c6.4,0,12,5.2,12,12v270.8
	C405.6,396,400.4,401.2,394,401.2z"/>
<rect x="121.6" y="116.8" style="fill:#FFFFFF;" width="265.2" height="261.6"/>
<g>
	<rect x="140" y="132.8" style="fill:#ACB3BA;" width="28.8" height="10.8"/>
	<rect x="190" y="132.8" style="fill:#ACB3BA;" width="28.8" height="10.8"/>
	<rect x="239.6" y="132.8" style="fill:#ACB3BA;" width="28.8" height="10.8"/>
	<rect x="289.2" y="132.8" style="fill:#ACB3BA;" width="28.8" height="10.8"/>
	<rect x="339.2" y="132.8" style="fill:#ACB3BA;" width="28.8" height="10.8"/>
</g>
<path style="fill:#324A5E;" d="M347.6,140c-1.2,0-2-0.8-2-2V92.8c0-1.2,0.8-2,2-2s2,0.8,2,2V138C349.6,139.2,348.8,140,347.6,140z"
	/>
<path style="fill:#324A5E;" d="M359.2,140c-1.2,0-2-0.8-2-2V92.8c0-1.2,0.8-2,2-2s2,0.8,2,2V138C361.2,139.2,360.4,140,359.2,140z"
	/>
<path style="fill:#324A5E;" d="M298,140c-1.2,0-2-0.8-2-2V92.8c0-1.2,0.8-2,2-2s2,0.8,2,2V138C300,139.2,298.8,140,298,140z"/>
<path style="fill:#324A5E;" d="M309.6,140c-1.2,0-2-0.8-2-2V92.8c0-1.2,0.8-2,2-2s2,0.8,2,2V138C311.6,139.2,310.8,140,309.6,140z"
	/>
<path style="fill:#324A5E;" d="M248,140c-1.2,0-2-0.8-2-2V92.8c0-1.2,0.8-2,2-2s2,0.8,2,2V138C250,139.2,249.2,140,248,140z"/>
<path style="fill:#324A5E;" d="M260,140c-1.2,0-2-0.8-2-2V92.8c0-1.2,0.8-2,2-2s2,0.8,2,2V138C262,139.2,260.8,140,260,140z"/>
<path style="fill:#324A5E;" d="M198.4,140c-1.2,0-2-0.8-2-2V92.8c0-1.2,0.8-2,2-2s2,0.8,2,2V138C200.4,139.2,199.6,140,198.4,140z"
	/>
<path style="fill:#324A5E;" d="M210,140c-1.2,0-2-0.8-2-2V92.8c0-1.2,0.8-2,2-2s2,0.8,2,2V138C212,139.2,211.2,140,210,140z"/>
<path style="fill:#324A5E;" d="M148.8,140c-1.2,0-2-0.8-2-2V92.8c0-1.2,0.8-2,2-2s2,0.8,2,2V138C150.8,139.2,150,140,148.8,140z"/>
<path style="fill:#324A5E;" d="M160.4,140c-1.2,0-2-0.8-2-2V92.8c0-1.2,0.8-2,2-2s2,0.8,2,2V138C162.4,139.2,161.6,140,160.4,140z"
	/>
<path style="fill:#E6E9EE;" d="M360.8,175.6H147.2c-0.4,0-0.8-0.4-0.8-0.8c0-0.4,0.4-0.8,0.8-0.8h213.6c0.4,0,0.8,0.4,0.8,0.8
	C361.6,175.2,361.2,175.6,360.8,175.6z"/>
<path style="fill:#E6E9EE;" d="M360.8,198.4H147.2c-0.4,0-0.8-0.4-0.8-0.8c0-0.4,0.4-0.8,0.8-0.8h213.6c0.4,0,0.8,0.4,0.8,0.8
	C361.6,198,361.2,198.4,360.8,198.4z"/>
<path style="fill:#E6E9EE;" d="M360.8,221.6H147.2c-0.4,0-0.8-0.4-0.8-0.8c0-0.4,0.4-0.8,0.8-0.8h213.6c0.4,0,0.8,0.4,0.8,0.8
	C361.6,220.8,361.2,221.6,360.8,221.6z"/>
<path style="fill:#E6E9EE;" d="M360.8,244.4H147.2c-0.4,0-0.8-0.4-0.8-0.8c0-0.4,0.4-0.8,0.8-0.8h213.6c0.4,0,0.8,0.4,0.8,0.8
	C361.6,244,361.2,244.4,360.8,244.4z"/>
<path style="fill:#E6E9EE;" d="M360.8,267.2H147.2c-0.4,0-0.8-0.4-0.8-0.8s0.4-0.8,0.8-0.8h213.6c0.4,0,0.8,0.4,0.8,0.8
	C361.6,266.8,361.2,267.2,360.8,267.2z"/>
<path style="fill:#E6E9EE;" d="M360.8,290H147.2c-0.4,0-0.8-0.4-0.8-0.8s0.4-0.8,0.8-0.8h213.6c0.4,0,0.8,0.4,0.8,0.8
	C361.6,289.6,361.2,290,360.8,290z"/>
<path style="fill:#E6E9EE;" d="M360.8,312.8H147.2c-0.4,0-0.8-0.4-0.8-0.8s0.4-0.8,0.8-0.8h213.6c0.4,0,0.8,0.4,0.8,0.8
	C361.6,312.4,361.2,312.8,360.8,312.8z"/>
<path style="fill:#E6E9EE;" d="M360.8,336H147.2c-0.4,0-0.8-0.4-0.8-0.8s0.4-0.8,0.8-0.8h213.6c0.4,0,0.8,0.4,0.8,0.8
	C361.6,335.6,361.2,336,360.8,336z"/>
<path style="fill:#E6E9EE;" d="M360.8,358.8H147.2c-0.4,0-0.8-0.4-0.8-0.8s0.4-0.8,0.8-0.8h213.6c0.4,0,0.8,0.4,0.8,0.8
	C361.6,358.4,361.2,358.8,360.8,358.8z"/>
<rect x="257.85" y="221.082" transform="matrix(0.7071 0.7071 -0.7071 0.7071 262.9225 -112.9884)" style="fill:#54C0EB;" width="20" height="79.599"/>
<rect x="271.85" y="235.123" transform="matrix(0.7071 0.7071 -0.7071 0.7071 276.9517 -118.7753)" style="fill:#84DBFF;" width="20" height="79.599"/>
<rect x="285.85" y="249.164" transform="matrix(0.7071 0.7071 -0.7071 0.7071 290.9808 -124.5622)" style="fill:#54C0EB;" width="20" height="79.599"/>
<polygon style="fill:#FFD05B;" points="232.4,281.6 218.4,338.4 274.8,324 "/>
<polygon style="fill:#324A5E;" points="224,314.8 218.4,338.4 241.6,332.4 "/>
<rect x="288.112" y="227.061" transform="matrix(0.7071 0.7071 -0.7071 0.7071 261.7318 -154.9541)" style="fill:#E6E9EE;" width="59.599" height="22.8"/>
<path style="fill:#FF7058;" d="M327.2,198.4l30.8,30.8c3.2,3.2,3.2,8.4,0,11.2l-10.4,10.4l-42.4-41.6l10.4-10.4
	C318.8,195.6,324,195.6,327.2,198.4z"/>
<g>
</g>
<g>
</g>
<g>
</g>
<g>
</g>
<g>
</g>
<g>
</g>
<g>
</g>
<g>
</g>
<g>
</g>
<g>
</g>
<g>
</g>
<g>
</g>
<g>
</g>
<g>
</g>
<g>
</g>
</svg>
