<?xml version="1.0" encoding="iso-8859-1"?>
<!-- Generator: Adobe Illustrator 19.0.0, SVG Export Plug-In . SVG Version: 6.00 Build 0)  -->
<svg version="1.1" id="Layer_1" xmlns="http://www.w3.org/2000/svg" xmlns:xlink="http://www.w3.org/1999/xlink" x="0px" y="0px"
	 viewBox="0 0 508 508" style="enable-background:new 0 0 508 508;" xml:space="preserve">
<circle style="fill:#324A5E;" cx="254" cy="254" r="254"/>
<path style="fill:#FFFFFF;" d="M368.8,421.2H139.2c-9.2,0-16.8-7.6-16.8-16.8V103.6c0-9.2,7.6-16.8,16.8-16.8h229.6
	c9.2,0,16.8,7.6,16.8,16.8v300.8C385.6,413.6,378,421.2,368.8,421.2z"/>
<g>
	<rect x="321.2" y="66" style="fill:#84DBFF;" width="21.2" height="44.8"/>
	<rect x="269.2" y="66" style="fill:#84DBFF;" width="21.2" height="44.8"/>
	<rect x="217.6" y="66" style="fill:#84DBFF;" width="21.2" height="44.8"/>
	<rect x="165.6" y="66" style="fill:#84DBFF;" width="21.2" height="44.8"/>
</g>
<g>
	<rect x="145.6" y="154.8" style="fill:#E6E9EE;" width="216.8" height="14.4"/>
	<rect x="145.6" y="192.4" style="fill:#E6E9EE;" width="216.8" height="14.4"/>
	<rect x="145.6" y="230" style="fill:#E6E9EE;" width="216.8" height="14.4"/>
	<rect x="145.6" y="267.6" style="fill:#E6E9EE;" width="216.8" height="14.4"/>
	<rect x="145.6" y="305.6" style="fill:#E6E9EE;" width="216.8" height="14.4"/>
	<rect x="145.6" y="343.2" style="fill:#E6E9EE;" width="149.6" height="14.4"/>
</g>
<g>
</g>
<g>
</g>
<g>
</g>
<g>
</g>
<g>
</g>
<g>
</g>
<g>
</g>
<g>
</g>
<g>
</g>
<g>
</g>
<g>
</g>
<g>
</g>
<g>
</g>
<g>
</g>
<g>
</g>
</svg>
