<?xml version="1.0" encoding="iso-8859-1"?>
<!-- Generator: Adobe Illustrator 19.0.0, SVG Export Plug-In . SVG Version: 6.00 Build 0)  -->
<svg version="1.1" id="Layer_1" xmlns="http://www.w3.org/2000/svg" xmlns:xlink="http://www.w3.org/1999/xlink" x="0px" y="0px"
	 viewBox="0 0 508 508" style="enable-background:new 0 0 508 508;" xml:space="preserve">
<circle style="fill:#FFD05B;" cx="254" cy="254" r="254"/>
<g>
	<path style="fill:#FF7058;" d="M369.2,421.6H138.8c-7.2,0-12.8-5.6-12.8-12.8V99.2c0-7.2,5.6-12.8,12.8-12.8h230.4
		c7.2,0,12.8,5.6,12.8,12.8v309.6C382,415.6,376.4,421.6,369.2,421.6z"/>
	<path style="fill:#FF7058;" d="M382,99.2v309.6c0,6.8-5.6,12.8-12.8,12.8H138.8c-6.8,0-12.8-5.6-12.8-12.8V99.2
		c0-6.8,5.6-12.8,12.8-12.8h230.4C376.4,86.4,382,92.4,382,99.2z"/>
</g>
<g>
	<path style="fill:#FFFFFF;" d="M336,396.8H172c-0.8,0-1.6-0.8-1.6-1.6c0-10-8-18-18-18c-0.8,0-1.6-0.8-1.6-1.6V132.4
		c0-0.8,0.8-1.6,1.6-1.6c10,0,18-8,18-18c0-0.8,0.8-1.6,1.6-1.6h164.4c0.8,0,1.6,0.8,1.6,1.6c0,10,8,18,18,18c0.8,0,1.6,0.8,1.6,1.6
		v243.2c0,0.8-0.8,1.6-1.6,1.6c-10,0-18,8-18,18C337.6,396,337.2,396.8,336,396.8z M173.6,393.6h161.2c0.8-10.4,9.2-18.8,19.6-19.6
		V134c-10.4-0.8-18.8-9.2-19.6-19.6H173.6c-0.8,10.4-9.2,18.8-19.6,19.6v240C164.4,374.8,172.8,383.2,173.6,393.6z"/>
	<path style="fill:#FFFFFF;" d="M372.8,421.6h-44.4l6.8-11.6h35.2v-35.2L382,368v44.4C382,417.2,378,421.6,372.8,421.6z"/>
	<path style="fill:#FFFFFF;" d="M382,95.6V140l-11.6-6.8V98h-35.2l-6.8-11.6h44.4C378,86.4,382,90.8,382,95.6z"/>
	<path style="fill:#FFFFFF;" d="M282.4,189.2V232c-3.2-3.6-8.4-6-13.6-6c-6,0-11.6,2.8-14.8,7.6c-3.2-4.8-8.8-7.6-14.8-7.6
		c-5.6,0-10.4,2.4-13.6,6v-42.8H282.4z"/>
</g>
<polygon style="fill:#E6E9EE;" points="282.4,189.2 282.4,202 254,212.4 225.6,202 225.6,189.2 "/>
<g>
	<polygon style="fill:#FFFFFF;" points="254,170.4 201.2,189.2 254,208 306.8,189.2 	"/>
	<rect x="190" y="270.8" style="fill:#FFFFFF;" width="128" height="12"/>
	<rect x="190" y="294" style="fill:#FFFFFF;" width="128" height="12"/>
	<rect x="190" y="317.2" style="fill:#FFFFFF;" width="90.8" height="12"/>
</g>
<g>
</g>
<g>
</g>
<g>
</g>
<g>
</g>
<g>
</g>
<g>
</g>
<g>
</g>
<g>
</g>
<g>
</g>
<g>
</g>
<g>
</g>
<g>
</g>
<g>
</g>
<g>
</g>
<g>
</g>
</svg>
