<?xml version="1.0" encoding="iso-8859-1"?>
<!-- Generator: Adobe Illustrator 19.0.0, SVG Export Plug-In . SVG Version: 6.00 Build 0)  -->
<svg version="1.1" id="Layer_1" xmlns="http://www.w3.org/2000/svg" xmlns:xlink="http://www.w3.org/1999/xlink" x="0px" y="0px"
	 viewBox="0 0 508 508" style="enable-background:new 0 0 508 508;" xml:space="preserve">
<circle style="fill:#54C0EB;" cx="254" cy="254" r="254"/>
<path style="fill:#E6E9EE;" d="M332,410.8c-1.6-0.4-3.2-0.8-4.8-1.2h-0.4c-1.2,1.2-3.2,1.6-5.2,1.2c-3.2-0.8-5.2-4-4.4-7.2
	c0.8-3.2,4-5.2,7.2-4.4c2,0.4,3.2,2,4,3.6h0.4c1.6,0.4,3.2,0.8,4.8,1.2l4.4-18.4c-1.2-0.4-2.4-0.8-3.6-1.2c-0.4,0-1.2-0.4-1.6-0.8
	c-1.2,1.2-3.2,1.6-5.2,1.2c-3.2-0.8-5.2-4-4.4-7.2c0.8-3.2,4-5.2,7.2-4.4c2,0.4,3.6,2,4,4c0.4,0,0.8,0,1.2,0
	c1.2,0.4,2.4,0.8,3.6,1.2l4.8-18.8c-1.2-0.4-2.8-0.8-4-0.8c-0.4,0-1.2-0.4-1.6-0.4c-1.2,0.8-3.2,1.2-4.8,0.8c-3.2-0.8-5.2-4-4.4-7.2
	c0.8-3.2,4-5.2,7.2-4.4c2,0.4,3.6,2,4,4c1.6,0.4,3.2,0.4,4.8,0.8l4.4-17.6c-2-0.8-3.6-1.2-5.6-1.6l0,0c-1.2,0.8-2.8,0.8-4.4,0.4
	c-3.2-0.8-5.2-4-4.4-7.2c0.8-3.2,4-5.2,7.2-4.4c2.4,0.4,3.6,2.4,4.4,4.4c1.6,0.4,3.2,0.8,4.8,1.6l4.4-17.6c-2-0.8-4-1.6-6-2.4l0,0
	c-1.2,0.4-2.4,0.8-4,0.4c-3.2-0.8-5.2-4-4.4-7.2c0.8-3.2,4-5.2,7.2-4.4c2.4,0.4,4,2.4,4.4,4.8c1.6,0.4,2.8,1.2,4.4,1.6l4.8-19.6
	c-1.6-0.4-3.2-0.8-4.8-1.2c-0.4,0-0.4,0-0.4-0.4c-1.2,0.8-3.2,1.2-4.8,0.8c-3.2-0.8-5.2-4-4.4-7.2s4-5.2,7.2-4.4c2,0.4,3.6,2,4,4
	l0,0c1.6,0.4,3.2,0.8,4.8,1.2l4.8-19.2c-1.6-0.8-3.2-1.2-4.8-1.6c-1.6,1.2-3.6,2-5.6,1.6c-3.2-0.8-5.2-4-4.4-7.2
	c0.8-3.2,4-5.2,7.2-4.4c1.6,0.4,2.8,1.6,3.6,2.8c2,0.4,3.6,1.2,5.6,1.6l4.4-17.6c-2-0.4-4-0.8-6.4-1.6c-1.2,0.4-2.4,0.8-4,0.4
	c-3.2-0.8-5.2-4-4.4-7.2c0.8-3.2,4-5.2,7.2-4.4c2.4,0.4,4,2.4,4.4,4.4c1.6,0.4,3.2,0.8,4.8,1.2l4.4-18.4c-2-0.4-4-1.2-6-1.6
	c-1.2,0.8-2.8,0.8-4,0.4c-3.2-0.8-5.2-4-4.4-7.2c0.8-3.2,4-5.2,7.2-4.4c2.4,0.4,3.6,2.4,4.4,4.4c1.6,0.4,3.2,0.8,4.8,1.2l4.8-19.2
	c-1.6-0.8-3.2-1.6-4.8-2.4c-1.6,1.6-3.6,2.4-5.6,1.6c-3.2-0.8-5.2-4-4.4-7.2c0.8-3.2,4-5.2,7.2-4.4c1.2,0.4,2.4,1.2,3.2,2.4
	c0.4,0,0.8,0,0.8,0.4c1.6,0.8,3.2,1.6,4.8,2.4l4.4-18.4c-2-0.4-3.6-0.8-5.6-1.6c-1.2,0.8-2.8,1.2-4.8,0.8c-3.2-0.8-5.2-4-4.4-7.2
	c0.8-3.2,4-5.2,7.2-4.4c1.2,0.4,2.4,1.2,3.2,2c0.4,0,0.4,0,0.8,0c2,0.4,4,1.2,5.6,1.6l4.4-17.2l-214.4-50L112,376l215.6,53.2
	L332,410.8z"/>
<g>
	
		<rect x="187.236" y="140.555" transform="matrix(0.9709 0.2393 -0.2393 0.9709 41.8948 -62.3331)" style="fill:#CED5E0;" width="180.792" height="1.6"/>
	
		<rect x="182.836" y="157.532" transform="matrix(0.9709 0.2393 -0.2393 0.9709 45.8299 -60.7867)" style="fill:#CED5E0;" width="180.792" height="1.6"/>
	
		<rect x="178.784" y="174.606" transform="matrix(0.9709 0.2393 -0.2393 0.9709 49.798 -59.3209)" style="fill:#CED5E0;" width="180.792" height="1.6"/>
	
		<rect x="174.288" y="191.972" transform="matrix(0.9709 0.2393 -0.2393 0.9709 53.8232 -57.7403)" style="fill:#CED5E0;" width="180.792" height="1.6"/>
	
		<rect x="170.276" y="209.005" transform="matrix(0.9709 0.2393 -0.2393 0.9709 57.7829 -56.2852)" style="fill:#CED5E0;" width="180.792" height="1.6"/>
	
		<rect x="165.875" y="225.983" transform="matrix(0.9709 0.2393 -0.2393 0.9709 61.718 -54.7388)" style="fill:#CED5E0;" width="180.792" height="1.6"/>
	
		<rect x="161.863" y="243.056" transform="matrix(0.9709 0.2393 -0.2393 0.9709 65.6873 -53.2826)" style="fill:#CED5E0;" width="180.792" height="1.6"/>
	
		<rect x="157.367" y="260.423" transform="matrix(0.9709 0.2393 -0.2393 0.9709 69.7125 -51.702)" style="fill:#CED5E0;" width="180.792" height="1.6"/>
	
		<rect x="153.315" y="277.496" transform="matrix(0.9709 0.2393 -0.2393 0.9709 73.6807 -50.2362)" style="fill:#CED5E0;" width="180.792" height="1.6"/>
	
		<rect x="149.303" y="294.529" transform="matrix(0.9709 0.2393 -0.2393 0.9709 77.6404 -48.7811)" style="fill:#CED5E0;" width="180.792" height="1.6"/>
	
		<rect x="144.902" y="311.507" transform="matrix(0.9709 0.2393 -0.2393 0.9709 81.5754 -47.2347)" style="fill:#CED5E0;" width="180.792" height="1.6"/>
	
		<rect x="140.89" y="328.581" transform="matrix(0.9709 0.2393 -0.2393 0.9709 85.5447 -45.7785)" style="fill:#CED5E0;" width="180.792" height="1.6"/>
	
		<rect x="136.394" y="345.947" transform="matrix(0.9709 0.2393 -0.2393 0.9709 89.57 -44.1979)" style="fill:#CED5E0;" width="180.792" height="1.6"/>
	
		<rect x="132.342" y="363.02" transform="matrix(0.9709 0.2393 -0.2393 0.9709 93.5381 -42.7321)" style="fill:#CED5E0;" width="180.792" height="1.6"/>
	
		<rect x="127.942" y="379.958" transform="matrix(0.9709 0.2393 -0.2393 0.9709 97.4636 -41.1869)" style="fill:#CED5E0;" width="180.792" height="1.6"/>
	
		<rect x="280.691" y="33.739" transform="matrix(-0.2394 0.9709 -0.9709 -0.2394 469.4088 -119.4492)" style="fill:#CED5E0;" width="1.6" height="180.796"/>
</g>
<path style="fill:#FFFFFF;" d="M329.2,378c-1.6,0-3.2,0-5.2,0h-0.4c-1.2,1.6-2.8,2.4-4.8,2.4c-3.2,0-6-2.8-6-6s2.8-6,6-6
	c2,0,3.6,1.2,4.8,2.4h0.4c1.6,0,3.2,0,5.2,0V352c-1.2,0-2.4,0-3.6,0c-0.8,0-1.2,0-1.6-0.4c-1.2,1.6-2.8,2.4-4.8,2.4
	c-3.2,0-6-2.8-6-6s2.8-6,6-6c2,0,4,1.2,4.8,2.8c0.4,0,0.8-0.4,1.2-0.4c1.2,0,2.4,0,3.6,0V326c-1.2,0-2.8,0-4,0.4c-0.4,0-1.2,0-1.6,0
	c-1.2,1.2-2.8,2-4.4,2c-3.2,0-6-2.8-6-6s2.8-6,6-6c2,0,4,1.2,5.2,2.8c1.6-0.4,3.2-0.4,5.2-0.4v-18.4c-2-0.4-4-0.4-6-0.4l0,0
	c-1.2,0.8-2.4,1.6-4,1.6c-3.2,0-6-2.8-6-6s2.8-6,6-6c2.4,0,4.4,1.2,5.2,3.2c1.6,0,3.2,0,4.8,0.4v-18.4c-2-0.4-4.4-0.4-6.4-0.8l0,0
	c-1.2,0.8-2.4,1.2-3.6,1.2c-3.2,0-6-2.8-6-6s2.8-6,6-6c2.4,0,4.4,1.6,5.6,3.6c1.6,0,3.2,0.4,4.8,0.4v-20.4c-1.6,0-3.2,0-5.2,0
	c-0.4,0-0.4,0-0.8,0c-1.2,1.2-2.8,2-4.4,2c-3.2,0-6-2.8-6-6s2.8-6,6-6c2,0,4,1.2,4.8,2.8l0,0c1.6,0,3.2,0,5.2,0V220
	c-1.6-0.4-3.2-0.4-5.2-0.4c-1.2,1.6-2.8,2.8-4.8,2.8c-3.2,0-6-2.8-6-6s2.8-6,6-6c1.6,0,3.2,0.8,4.4,2c2,0,4,0,6,0.4v-18
	c-2,0-4.4,0-6.4,0c-1.2,0.8-2.4,1.2-3.6,1.2c-3.2,0-6-2.8-6-6s2.8-6,6-6c2.4,0,4.4,1.2,5.2,3.2c1.6,0,3.2,0,4.8,0V170
	c-2,0-4-0.4-6-0.4c-1.2,0.8-2.4,1.6-4,1.6c-3.2,0-6-2.8-6-6s2.8-6,6-6c2.4,0,4.4,1.2,5.2,3.2c1.6,0,3.2,0,4.8,0v-19.6
	c-1.6-0.4-3.2-0.8-5.2-1.2c-1.2,1.6-2.8,2.8-5.2,2.8c-3.2,0-6-2.8-6-6s2.8-6,6-6c1.6,0,2.8,0.4,3.6,1.2c0.4,0,0.8,0,0.8,0
	c1.6,0.4,3.6,0.8,5.2,1.2V116c-2,0-4,0-5.6,0c-1.2,1.2-2.4,2-4.4,2c-3.2,0-6-2.8-6-6s2.8-6,6-6c1.2,0,2.4,0.4,3.6,1.2
	c0.4,0,0.4,0,0.8,0c2,0,4,0,6,0V89.6h-222v305.6h222V378z"/>
<g>
	<rect x="121.6" y="110.8" style="fill:#E6E9EE;" width="180.8" height="1.6"/>
	<rect x="121.6" y="128.4" style="fill:#E6E9EE;" width="180.8" height="1.6"/>
	<rect x="121.6" y="146" style="fill:#E6E9EE;" width="180.8" height="1.6"/>
	<rect x="121.6" y="163.6" style="fill:#E6E9EE;" width="180.8" height="1.6"/>
	<rect x="121.6" y="181.6" style="fill:#E6E9EE;" width="180.8" height="1.6"/>
	<rect x="121.6" y="199.2" style="fill:#E6E9EE;" width="180.8" height="1.6"/>
	<rect x="121.6" y="216.8" style="fill:#E6E9EE;" width="180.8" height="1.6"/>
	<rect x="121.6" y="234.4" style="fill:#E6E9EE;" width="180.8" height="1.6"/>
	<rect x="121.6" y="252" style="fill:#E6E9EE;" width="180.8" height="1.6"/>
	<rect x="121.6" y="269.6" style="fill:#E6E9EE;" width="180.8" height="1.6"/>
	<rect x="121.6" y="287.2" style="fill:#E6E9EE;" width="180.8" height="1.6"/>
	<rect x="121.6" y="304.8" style="fill:#E6E9EE;" width="180.8" height="1.6"/>
	<rect x="121.6" y="322.4" style="fill:#E6E9EE;" width="180.8" height="1.6"/>
	<rect x="121.6" y="340" style="fill:#E6E9EE;" width="180.8" height="1.6"/>
	<rect x="121.6" y="357.6" style="fill:#E6E9EE;" width="180.8" height="1.6"/>
	<rect x="121.6" y="375.2" style="fill:#E6E9EE;" width="180.8" height="1.6"/>
</g>
<g>
</g>
<g>
</g>
<g>
</g>
<g>
</g>
<g>
</g>
<g>
</g>
<g>
</g>
<g>
</g>
<g>
</g>
<g>
</g>
<g>
</g>
<g>
</g>
<g>
</g>
<g>
</g>
<g>
</g>
</svg>
