<?xml version="1.0" encoding="iso-8859-1"?>
<!-- Generator: Adobe Illustrator 19.0.0, SVG Export Plug-In . SVG Version: 6.00 Build 0)  -->
<svg version="1.1" id="Layer_1" xmlns="http://www.w3.org/2000/svg" xmlns:xlink="http://www.w3.org/1999/xlink" x="0px" y="0px"
	 viewBox="0 0 508 508" style="enable-background:new 0 0 508 508;" xml:space="preserve">
<circle style="fill:#324A5E;" cx="254" cy="254" r="254"/>
<path style="fill:#FFFFFF;" d="M374.4,422.4H157.2c-11.2,0-20.4-9.2-20.4-20.4V105.6c0-11.2,9.2-20.4,20.4-20.4h217.2
	c11.2,0,20.4,9.2,20.4,20.4v296.8C394.8,413.6,385.6,422.4,374.4,422.4z"/>
<g>
	<path style="fill:#4CDBC4;" d="M149.2,140.8h-26.4c-1.6,0-2.8-1.2-2.8-2.8v-7.2c0-1.6,1.2-2.8,2.8-2.8h26.4c1.6,0,2.8,1.2,2.8,2.8
		v7.2C152,139.6,150.8,140.8,149.2,140.8z"/>
	<path style="fill:#4CDBC4;" d="M149.2,188h-26.4c-1.6,0-2.8-1.2-2.8-2.8V178c0-1.6,1.2-2.8,2.8-2.8h26.4c1.6,0,2.8,1.2,2.8,2.8v7.2
		C152,186.8,150.8,188,149.2,188z"/>
	<path style="fill:#4CDBC4;" d="M149.2,235.2h-26.4c-1.6,0-2.8-1.2-2.8-2.8v-7.2c0-1.6,1.2-2.8,2.8-2.8h26.4c1.6,0,2.8,1.2,2.8,2.8
		v7.2C152,233.6,150.8,235.2,149.2,235.2z"/>
	<path style="fill:#4CDBC4;" d="M149.2,282h-26.4c-1.6,0-2.8-1.2-2.8-2.8V272c0-1.6,1.2-2.8,2.8-2.8h26.4c1.6,0,2.8,1.2,2.8,2.8v7.2
		C152,280.8,150.8,282,149.2,282z"/>
	<path style="fill:#4CDBC4;" d="M149.2,329.2h-26.4c-1.6,0-2.8-1.2-2.8-2.8v-7.2c0-1.6,1.2-2.8,2.8-2.8h26.4c1.6,0,2.8,1.2,2.8,2.8
		v7.2C152,328,150.8,329.2,149.2,329.2z"/>
	<path style="fill:#4CDBC4;" d="M149.2,376h-26.4c-1.6,0-2.8-1.2-2.8-2.8V366c0-1.6,1.2-2.8,2.8-2.8h26.4c1.6,0,2.8,1.2,2.8,2.8v7.2
		C152,374.8,150.8,376,149.2,376z"/>
</g>
<g>
	<rect x="183.2" y="133.2" style="fill:#E6E9EE;" width="124.8" height="15.2"/>
	<rect x="183.2" y="171.2" style="fill:#E6E9EE;" width="86.8" height="15.2"/>
	<rect x="183.2" y="208.8" style="fill:#E6E9EE;" width="49.2" height="15.2"/>
	<rect x="183.2" y="246.4" style="fill:#E6E9EE;" width="104" height="15.2"/>
	<rect x="183.2" y="284" style="fill:#E6E9EE;" width="120.8" height="15.2"/>
	<rect x="183.2" y="322" style="fill:#E6E9EE;" width="86.8" height="15.2"/>
	<rect x="183.2" y="359.6" style="fill:#E6E9EE;" width="112" height="15.2"/>
	<rect x="316" y="133.2" style="fill:#E6E9EE;" width="48.8" height="15.2"/>
	<rect x="278" y="171.2" style="fill:#E6E9EE;" width="86.8" height="15.2"/>
	<rect x="240.8" y="208.8" style="fill:#E6E9EE;" width="124.4" height="15.2"/>
	<rect x="295.2" y="246.4" style="fill:#E6E9EE;" width="69.6" height="15.2"/>
	<rect x="312" y="284" style="fill:#E6E9EE;" width="52.8" height="15.2"/>
	<rect x="278" y="322" style="fill:#E6E9EE;" width="86.8" height="15.2"/>
	<rect x="303.2" y="359.6" style="fill:#E6E9EE;" width="61.6" height="15.2"/>
</g>
<g>
</g>
<g>
</g>
<g>
</g>
<g>
</g>
<g>
</g>
<g>
</g>
<g>
</g>
<g>
</g>
<g>
</g>
<g>
</g>
<g>
</g>
<g>
</g>
<g>
</g>
<g>
</g>
<g>
</g>
</svg>
