<?xml version="1.0" encoding="iso-8859-1"?>
<!-- Generator: Adobe Illustrator 19.0.0, SVG Export Plug-In . SVG Version: 6.00 Build 0)  -->
<svg version="1.1" id="Layer_1" xmlns="http://www.w3.org/2000/svg" xmlns:xlink="http://www.w3.org/1999/xlink" x="0px" y="0px"
	 viewBox="0 0 508 508" style="enable-background:new 0 0 508 508;" xml:space="preserve">
<circle style="fill:#84DBFF;" cx="254" cy="254" r="254"/>
<path style="fill:#324A5E;" d="M420,382.4H88c-6.8,0-12-5.2-12-12V170c0-6.8,5.2-12,12-12h331.6c6.8,0,12,5.2,12,12v200.4
	C432,376.8,426.4,382.4,420,382.4z"/>
<polygon style="fill:#CED5E0;" points="417.6,172 417.6,368.4 90.4,368.4 90.4,172 119.6,125.6 119.6,172 388.4,172 388.4,125.6 "/>
<path style="fill:#E6E9EE;" d="M388.4,125.6v208.8H274.8c-10.8,0-20,8.8-20.8,19.6l0,0c-0.8-10.8-9.6-19.6-20.8-19.6H119.6V125.6
	h113.6c11.6,0,20.8,9.2,20.8,20.8c0-11.6,9.2-20.8,20.8-20.8C274.8,125.6,388.4,125.6,388.4,125.6z"/>
<path style="fill:#FFFFFF;" d="M254,145.6c0,0.4,0,0.4,0,0.8c0-11.6-9.2-20.8-20.8-20.8H119.6v208.8h113.6c10.8,0,20,8.8,20.8,19.6
	l0,0l0,0V145.6z"/>
<g>
	<rect x="135.2" y="155.2" style="fill:#FFD05B;" width="102.4" height="28"/>
	<rect x="135.2" y="183.2" style="fill:#FFD05B;" width="102.4" height="9.6"/>
</g>
<g>
	<rect x="135.2" y="210.8" style="fill:#E6E9EE;" width="102.4" height="9.6"/>
	<rect x="135.2" y="238.8" style="fill:#E6E9EE;" width="102.4" height="9.6"/>
	<rect x="135.2" y="266.8" style="fill:#E6E9EE;" width="102.4" height="9.6"/>
	<rect x="135.2" y="294.8" style="fill:#E6E9EE;" width="102.4" height="9.6"/>
</g>
<g>
	<rect x="270.4" y="155.2" style="fill:#ACB3BA;" width="102.4" height="9.6"/>
	<rect x="270.4" y="183.2" style="fill:#ACB3BA;" width="102.4" height="9.6"/>
	<rect x="270.4" y="210.8" style="fill:#ACB3BA;" width="102.4" height="9.6"/>
	<rect x="270.4" y="238.8" style="fill:#ACB3BA;" width="102.4" height="9.6"/>
	<rect x="270.4" y="266.8" style="fill:#ACB3BA;" width="102.4" height="9.6"/>
	<rect x="270.4" y="294.8" style="fill:#ACB3BA;" width="102.4" height="9.6"/>
</g>
<path style="fill:#CED5E0;" d="M255.6,212c-0.4-12-0.4-23.6-0.4-33.2c-0.4-19.6-0.8-32.4-0.8-32.4s-0.4,12.8-0.8,32.4
	c0,9.6-0.4,21.2-0.4,33.2s0,25.2-0.4,38c0,12.8,0,26,0.4,38s0.4,23.6,0.4,33.2c0,19.6,0.4,32.8,0.4,32.8s0.4-12.8,0.8-32.4
	c0-9.6,0.4-21.2,0.4-33.2s0-25.2,0.4-38C255.6,237.2,255.6,224.4,255.6,212z"/>
<polygon style="fill:#E6E9EE;" points="119.6,334.4 90.4,368.4 90.4,172 119.6,125.6 "/>
<g>
	<polygon style="fill:#ACB3BA;" points="388.4,125.6 417.6,172 417.6,368.4 388.4,334.4 	"/>
	<path style="fill:#ACB3BA;" d="M255.6,358.4c-0.4-0.8-0.4-1.6-0.4-2.4c-0.8-1.2-1.2-2-1.2-2s-0.4,0.8-0.8,2.4
		c0,0.8-0.4,1.6-0.4,2.4s0,1.6-0.4,2.8c0,0.8,0,1.6,0.4,2.8c0.4,0.8,0.4,1.6,0.4,2.4c0.4,1.2,1.2,2.4,1.2,2.4s0.4-0.8,0.8-2.4
		c0-0.8,0.4-1.6,0.4-2.4s0-1.6,0.4-2.8C255.6,360.4,255.6,359.2,255.6,358.4z"/>
</g>
<g>
</g>
<g>
</g>
<g>
</g>
<g>
</g>
<g>
</g>
<g>
</g>
<g>
</g>
<g>
</g>
<g>
</g>
<g>
</g>
<g>
</g>
<g>
</g>
<g>
</g>
<g>
</g>
<g>
</g>
</svg>
