<?xml version="1.0" encoding="iso-8859-1"?>
<!-- Generator: Adobe Illustrator 19.0.0, SVG Export Plug-In . SVG Version: 6.00 Build 0)  -->
<svg version="1.1" id="Layer_1" xmlns="http://www.w3.org/2000/svg" xmlns:xlink="http://www.w3.org/1999/xlink" x="0px" y="0px"
	 viewBox="0 0 508 508" style="enable-background:new 0 0 508 508;" xml:space="preserve">
<circle style="fill:#54C0EB;" cx="254" cy="254" r="254"/>
<path style="fill:#FFFFFF;" d="M280.4,411.2c-20.8,8-43.6,12-67.2,11.2C126.4,418.8,55.6,348.8,51.6,262
	C47.2,165.2,124,85.6,220,85.6c21.6,0,42,4,60.8,11.2c16,6,20,26.8,8,38.8C258.4,166,240,208,240,254s18.4,88,48.4,118.4
	C300.8,384.4,296.4,405.2,280.4,411.2z"/>
<circle style="fill:#FF7058;" cx="224.4" cy="132" r="32.4"/>
<circle style="fill:#4CDBC4;" cx="148.4" cy="175.2" r="32.4"/>
<circle style="fill:#84DBFF;" cx="107.2" cy="254" r="32.4"/>
<g>
	<circle style="fill:#324A5E;" cx="224.4" cy="374" r="32.4"/>
	
		<ellipse transform="matrix(0.7071 0.7071 -0.7071 0.7071 224.8143 -130.976)" style="fill:#324A5E;" cx="270.509" cy="205.887" rx="21.6" ry="168.398"/>
</g>
<path style="fill:#E6E9EE;" d="M203.6,245.2c-36.4,41.6-58,73.6-52,79.6s38-15.6,79.6-52L203.6,245.2z"/>
<path style="fill:#FF7058;" d="M183.6,310.8l-18-18c-10.8-4-23.6-1.6-32.4,7.2c-35.2,35.2-46,92.4-35.6,79.2
	c24.4-31.6,52-8.4,79.2-35.6C185.2,334.4,187.6,321.6,183.6,310.8z"/>
<path style="fill:#FFFFFF;" d="M226,240.4c0,0,6.8-8.4,17.6-20c5.2-6,11.6-12.8,18.8-20c3.6-3.6,7.2-7.2,10.8-11.2
	c3.6-3.6,7.6-7.6,11.2-11.2c3.6-3.6,7.6-7.6,11.2-11.2c3.6-3.6,7.6-7.2,11.2-10.8c7.2-6.8,14-13.2,20-18.8
	c11.6-10.8,20-17.6,20-17.6s-6.8,8.4-17.6,20c-5.2,6-11.6,12.8-18.8,20c-3.6,3.6-7.2,7.2-10.8,11.2c-3.6,3.6-7.6,7.6-11.2,11.2
	c-3.6,3.6-7.6,7.6-11.2,11.2c-3.6,3.6-7.6,7.2-11.2,10.8c-7.2,6.8-14,13.2-20,18.8C234.4,233.6,226,240.4,226,240.4z"/>
<g>
</g>
<g>
</g>
<g>
</g>
<g>
</g>
<g>
</g>
<g>
</g>
<g>
</g>
<g>
</g>
<g>
</g>
<g>
</g>
<g>
</g>
<g>
</g>
<g>
</g>
<g>
</g>
<g>
</g>
</svg>
