<?xml version="1.0" encoding="iso-8859-1"?>
<!-- Generator: Adobe Illustrator 19.0.0, SVG Export Plug-In . SVG Version: 6.00 Build 0)  -->
<svg version="1.1" id="Layer_1" xmlns="http://www.w3.org/2000/svg" xmlns:xlink="http://www.w3.org/1999/xlink" x="0px" y="0px"
	 viewBox="0 0 508 508" style="enable-background:new 0 0 508 508;" xml:space="preserve">
<circle style="fill:#324A5E;" cx="254" cy="254" r="254"/>
<rect x="285.559" y="160.029" transform="matrix(-0.8925 -0.451 0.451 -0.8925 462.4273 613.8557)" style="fill:#FFD05B;" width="37.599" height="183.596"/>
<polygon style="fill:#F9B54C;" points="362.4,178.4 364.4,133.2 328.8,161.2 "/>
<polygon style="fill:#FFD05B;" points="363.6,148.8 364.4,133.2 352,142.8 "/>
<rect x="258.001" y="158.8" transform="matrix(-1 -0.0026 0.0026 -1 552.9398 501.93)" style="fill:#4CDBC4;" width="37.6" height="183.601"/>
<polygon style="fill:#FFD05B;" points="296,158.8 277.2,117.6 258.4,158.8 "/>
<polygon style="fill:#2C9984;" points="283.6,132 277.2,117.6 270.8,132 "/>
<rect x="217.61" y="157.581" transform="matrix(-0.9892 0.1468 -0.1468 -0.9892 506.8689 461.362)" style="fill:#FF7058;" width="37.601" height="183.606"/>
<polygon style="fill:#F9B54C;" points="241.6,156 216.8,118 204,161.6 "/>
<polygon style="fill:#F1543F;" points="225.2,131.2 216.8,118 212.4,132.8 "/>
<rect x="169.191" y="157.61" transform="matrix(-0.9932 0.1168 -0.1168 -0.9932 403.8268 475.1656)" style="fill:#84DBFF;" width="37.602" height="183.608"/>
<polygon style="fill:#F9B54C;" points="196,156 172.4,117.2 158.4,160.4 "/>
<polygon style="fill:#54C0EB;" points="180.8,130.8 172.4,117.2 167.6,132 "/>
<polygon style="fill:#CED5E0;" points="332.4,407.2 175.6,407.2 158.4,230 349.6,230 "/>
<path style="fill:#2B3B4E;" d="M64.4,423.2c46.4,52,114,84.8,189.6,84.8c75.2,0,143.2-32.8,189.6-84.8H64.4z"/>
<g>
	<path style="fill:#E6E9EE;" d="M346,246.4H162c-8.8,0-16-7.2-16-16l0,0c0-8.8,7.2-16,16-16h184c8.8,0,16,7.2,16,16l0,0
		C362.4,239.2,355.2,246.4,346,246.4z"/>
	<path style="fill:#E6E9EE;" d="M335.2,421.6H172.8c-8,0-14.4-6.4-14.4-14.4l0,0c0-8,6.4-14.4,14.4-14.4h162.4
		c8,0,14.4,6.4,14.4,14.4l0,0C349.6,415.2,343.2,421.6,335.2,421.6z"/>
</g>
<g>
</g>
<g>
</g>
<g>
</g>
<g>
</g>
<g>
</g>
<g>
</g>
<g>
</g>
<g>
</g>
<g>
</g>
<g>
</g>
<g>
</g>
<g>
</g>
<g>
</g>
<g>
</g>
<g>
</g>
</svg>
