<?xml version="1.0" encoding="iso-8859-1"?>
<!-- Generator: Adobe Illustrator 19.0.0, SVG Export Plug-In . SVG Version: 6.00 Build 0)  -->
<svg version="1.1" id="Layer_1" xmlns="http://www.w3.org/2000/svg" xmlns:xlink="http://www.w3.org/1999/xlink" x="0px" y="0px"
	 viewBox="0 0 508 508" style="enable-background:new 0 0 508 508;" xml:space="preserve">
<circle style="fill:#FD8469;" cx="254" cy="254" r="254"/>
<path style="fill:#FFFFFF;" d="M342,406.4l-240-240c-2-2-2-5.6,0-7.6l56.8-56.8c2-2,5.6-2,7.6,0l240,240c2,2,2,5.6,0,7.6l-56.8,56.8
	C347.2,408.4,344,408.4,342,406.4z"/>
<g>
	
		<rect x="115.883" y="151.045" transform="matrix(0.7071 0.7071 -0.7071 0.7071 147.9989 -38.0108)" style="fill:#E6E9EE;" width="8" height="17.2"/>
	
		<rect x="127.399" y="162.68" transform="matrix(0.7071 0.7071 -0.7071 0.7071 159.5992 -42.746)" style="fill:#E6E9EE;" width="8" height="17.2"/>
	
		<rect x="144.262" y="165.283" transform="matrix(0.7071 0.7071 -0.7071 0.7071 170.4797 -52.2088)" style="fill:#E6E9EE;" width="8" height="28.8"/>
	
		<rect x="151.567" y="186.66" transform="matrix(0.7071 0.7071 -0.7071 0.7071 183.6337 -52.812)" style="fill:#E6E9EE;" width="8" height="17.2"/>
	
		<rect x="164.22" y="199.481" transform="matrix(0.7071 0.7071 -0.7071 0.7071 196.4056 -58.0039)" style="fill:#E6E9EE;" width="8" height="17.2"/>
	
		<rect x="179.934" y="200.897" transform="matrix(0.7071 0.7071 -0.7071 0.7071 206.1111 -67.0015)" style="fill:#E6E9EE;" width="8" height="28.8"/>
	
		<rect x="188.408" y="223.46" transform="matrix(0.7071 0.7071 -0.7071 0.7071 220.446 -68.0841)" style="fill:#E6E9EE;" width="8" height="17.2"/>
	
		<rect x="199.904" y="235.055" transform="matrix(0.7071 0.7071 -0.7071 0.7071 232.0122 -72.8168)" style="fill:#E6E9EE;" width="8" height="17.2"/>
	
		<rect x="216.499" y="237.018" transform="matrix(0.7071 0.7071 -0.7071 0.7071 242.3617 -82.2776)" style="fill:#E6E9EE;" width="8" height="28.8"/>
	
		<rect x="223.663" y="259.072" transform="matrix(0.7071 0.7071 -0.7071 0.7071 255.9531 -82.5826)" style="fill:#E6E9EE;" width="8" height="17.2"/>
	
		<rect x="236.343" y="271.495" transform="matrix(0.7071 0.7071 -0.7071 0.7071 268.452 -87.9099)" style="fill:#E6E9EE;" width="8" height="17.2"/>
	
		<rect x="252.046" y="273.309" transform="matrix(0.7071 0.7071 -0.7071 0.7071 278.4352 -96.7834)" style="fill:#E6E9EE;" width="8" height="28.8"/>
	
		<rect x="260.543" y="295.475" transform="matrix(0.7071 0.7071 -0.7071 0.7071 292.4959 -97.9985)" style="fill:#E6E9EE;" width="8" height="17.2"/>
	
		<rect x="272.023" y="307.07" transform="matrix(0.7071 0.7071 -0.7071 0.7071 304.0574 -102.7199)" style="fill:#E6E9EE;" width="8" height="17.2"/>
	
		<rect x="288.902" y="309.712" transform="matrix(0.7071 0.7071 -0.7071 0.7071 314.9709 -112.1823)" style="fill:#E6E9EE;" width="8" height="28.8"/>
	
		<rect x="296.18" y="331.446" transform="matrix(0.7071 0.7071 -0.7071 0.7071 328.3696 -112.6619)" style="fill:#E6E9EE;" width="8" height="17.2"/>
	
		<rect x="308.705" y="344.15" transform="matrix(0.7071 0.7071 -0.7071 0.7071 341.0213 -117.798)" style="fill:#E6E9EE;" width="8" height="17.2"/>
	
		<rect x="324.582" y="345.327" transform="matrix(0.7071 0.7071 -0.7071 0.7071 350.6046 -126.9807)" style="fill:#E6E9EE;" width="8" height="28.8"/>
	
		<rect x="332.623" y="367.847" transform="matrix(0.7071 0.7071 -0.7071 0.7071 364.7823 -127.7695)" style="fill:#E6E9EE;" width="8" height="17.2"/>
	
		<rect x="344.143" y="379.482" transform="matrix(0.7071 0.7071 -0.7071 0.7071 376.3839 -132.5075)" style="fill:#E6E9EE;" width="8" height="17.2"/>
</g>
<rect x="213.984" y="121.13" transform="matrix(-0.7071 -0.7071 0.7071 -0.7071 244.1651 616.5932)" style="fill:#FFD05B;" width="71.599" height="273.197"/>
<polygon style="fill:#FFFFFF;" points="128,329.2 112,396 178.8,380 "/>
<g>
	<polygon style="fill:#324A5E;" points="117.2,374.4 112,396 133.6,390.8 	"/>
	<path style="fill:#324A5E;" d="M321.2,136l50.4,50.4l20-20c5.2-5.2,5.2-13.2,0-18.4l-32-32c-5.2-5.2-13.2-5.2-18.4,0L321.2,136z"/>
</g>
<g>
</g>
<g>
</g>
<g>
</g>
<g>
</g>
<g>
</g>
<g>
</g>
<g>
</g>
<g>
</g>
<g>
</g>
<g>
</g>
<g>
</g>
<g>
</g>
<g>
</g>
<g>
</g>
<g>
</g>
</svg>
