<?xml version="1.0" encoding="iso-8859-1"?>
<!-- Generator: Adobe Illustrator 19.0.0, SVG Export Plug-In . SVG Version: 6.00 Build 0)  -->
<svg version="1.1" id="Layer_1" xmlns="http://www.w3.org/2000/svg" xmlns:xlink="http://www.w3.org/1999/xlink" x="0px" y="0px"
	 viewBox="0 0 508 508" style="enable-background:new 0 0 508 508;" xml:space="preserve">
<circle style="fill:#FD8469;" cx="254" cy="254" r="254"/>
<rect x="206.998" y="129.7" transform="matrix(-0.7071 -0.7071 0.7071 -0.7071 215.1576 562.1185)" style="fill:#2B3B4E;" width="34" height="213.598"/>
<rect x="230.894" y="153.167" transform="matrix(-0.7071 -0.7071 0.7071 -0.7071 239.3569 619.0764)" style="fill:#324A5E;" width="34" height="213.598"/>
<rect x="254.814" y="177.208" transform="matrix(-0.7071 -0.7071 0.7071 -0.7071 263.1915 677.0306)" style="fill:#2B3B4E;" width="34" height="213.598"/>
<polygon style="fill:#FFFFFF;" points="208.4,371.6 105.6,402.4 136.4,299.6 "/>
<polygon style="fill:#324A5E;" points="115.2,370 105.6,402.4 138,392.8 "/>
<rect x="318.061" y="120.689" transform="matrix(-0.7071 0.7071 -0.7071 -0.7071 695.9763 54.6942)" style="fill:#FFFFFF;" width="37.2" height="101.599"/>
<path style="fill:#FFD05B;" d="M414,165.6l-28.8,28.8l-71.6-72l28.8-28.8c6-6,16-6,22,0l49.6,50C420.4,149.6,420.4,159.6,414,165.6z
	"/>
<g>
</g>
<g>
</g>
<g>
</g>
<g>
</g>
<g>
</g>
<g>
</g>
<g>
</g>
<g>
</g>
<g>
</g>
<g>
</g>
<g>
</g>
<g>
</g>
<g>
</g>
<g>
</g>
<g>
</g>
</svg>
