<?xml version="1.0" encoding="iso-8859-1"?>
<!-- Generator: Adobe Illustrator 19.0.0, SVG Export Plug-In . SVG Version: 6.00 Build 0)  -->
<svg version="1.1" id="Layer_1" xmlns="http://www.w3.org/2000/svg" xmlns:xlink="http://www.w3.org/1999/xlink" x="0px" y="0px"
	 viewBox="0 0 508 508" style="enable-background:new 0 0 508 508;" xml:space="preserve">
<circle style="fill:#324A5E;" cx="254" cy="254" r="254"/>
<polygon style="fill:#FFFFFF;" points="179.6,166.8 144.8,91.6 110,166.8 "/>
<g>
	<path style="fill:#FF7058;" d="M158,120c-1.2-1.2-6.8-2-13.2-2s-12,0.8-13.2,2l13.2-28.4L158,120z"/>
	<ellipse style="fill:#FF7058;" cx="144.8" cy="169.2" rx="35.6" ry="12"/>
	<path style="fill:#FF7058;" d="M158.4,120.8L158.4,120.8L158,120C158,120.4,158.4,120.4,158.4,120.8z"/>
	<rect x="109.2" y="169.2" style="fill:#FF7058;" width="71.2" height="235.2"/>
</g>
<ellipse style="fill:#FFFFFF;" cx="144.8" cy="404.4" rx="35.6" ry="12"/>
<ellipse style="fill:#FF7058;" cx="144.8" cy="404.4" rx="9.2" ry="3.2"/>
<polygon style="fill:#FFFFFF;" points="288.8,166.8 254,91.6 219.2,166.8 "/>
<g>
	<path style="fill:#84DBFF;" d="M267.2,120c-1.2-1.2-6.8-2-13.2-2s-12,0.8-13.2,2L254,91.6L267.2,120z"/>
	<ellipse style="fill:#84DBFF;" cx="254" cy="169.2" rx="35.6" ry="12"/>
</g>
<path style="fill:#FF7058;" d="M267.6,120.8L267.6,120.8l-0.4-0.4C267.2,120.4,267.6,120.4,267.6,120.8z"/>
<rect x="218.4" y="169.2" style="fill:#84DBFF;" width="71.2" height="235.2"/>
<ellipse style="fill:#FFFFFF;" cx="254" cy="404.4" rx="35.6" ry="12"/>
<ellipse style="fill:#54C0EB;" cx="254" cy="404.4" rx="9.2" ry="3.2"/>
<polygon style="fill:#FFFFFF;" points="398,166.8 363.2,91.6 328.4,166.8 "/>
<path style="fill:#FFD05B;" d="M376.4,120c-1.2-1.2-6.8-2-13.2-2c-6.4,0-12,0.8-13.2,2l13.2-28.4L376.4,120z"/>
<path style="fill:#FF7058;" d="M376.8,120.8L376.8,120.8l-0.4-0.4C376.4,120.4,376.8,120.4,376.8,120.8z"/>
<path style="fill:#FFD05B;" d="M398.8,169.2v235.2h-71.2V169.2c0-6.8,16-12,35.6-12C382.8,157.2,398.8,162.4,398.8,169.2z"/>
<ellipse style="fill:#FFFFFF;" cx="363.2" cy="404.4" rx="35.6" ry="12"/>
<ellipse style="fill:#FFD05B;" cx="363.2" cy="404.4" rx="9.2" ry="3.2"/>
<g>
</g>
<g>
</g>
<g>
</g>
<g>
</g>
<g>
</g>
<g>
</g>
<g>
</g>
<g>
</g>
<g>
</g>
<g>
</g>
<g>
</g>
<g>
</g>
<g>
</g>
<g>
</g>
<g>
</g>
</svg>
