<?xml version="1.0" encoding="iso-8859-1"?>
<!-- Generator: Adobe Illustrator 19.0.0, SVG Export Plug-In . SVG Version: 6.00 Build 0)  -->
<svg version="1.1" id="Layer_1" xmlns="http://www.w3.org/2000/svg" xmlns:xlink="http://www.w3.org/1999/xlink" x="0px" y="0px"
	 viewBox="0 0 508 508" style="enable-background:new 0 0 508 508;" xml:space="preserve">
<circle style="fill:#F1543F;" cx="254" cy="254" r="254"/>
<path style="fill:#FFFFFF;" d="M205.2,368.4l-80,29.6c-10,3.6-19.6-6-15.6-15.6l29.6-80l34-34l65.6,65.6L205.2,368.4z"/>
<g>
	<path style="fill:#324A5E;" d="M120.4,353.6l-10.8,28.8c-3.6,10,6,19.6,15.6,15.6l28.8-10.8L120.4,353.6z"/>
</g>
<g>
	<path style="fill:#54C0EB;" d="M331.6,209.2L205.2,335.6c-9.2,9.2-9.2,24,0,32.8L348,225.6L331.6,209.2z"/>
	<path style="fill:#54C0EB;" d="M282.4,160L139.6,302.8c9.2,9.2,24,9.2,32.8,0l126.4-126.4L282.4,160z"/>
</g>
<path style="fill:#84DBFF;" d="M298.8,176.4L172.4,302.8c-9.2,9.2-9.2,24,0,32.8c9.2,9.2,24,9.2,32.8,0l126.4-126.4L298.8,176.4z"/>
<rect x="284.759" y="153.495" transform="matrix(-0.7071 -0.7071 0.7071 -0.7071 440.8643 535.6024)" style="fill:#E6E9EE;" width="93.199" height="46"/>
<path style="fill:#FFD05B;" d="M403.6,151.2l-46.8-46.8c-5.2-5.2-13.6-5.2-18.8,0l-23.2,23.2l65.6,65.6l23.2-23.2
	C408.8,164.8,408.8,156.4,403.6,151.2z"/>
<g>
	<path style="fill:#FFFFFF;" d="M366.8,206L302,141.2c-1.6-1.6-1.6-4.8,0-6.4l0,0c1.6-1.6,4.8-1.6,6.4,0l64.8,64.8
		c1.6,1.6,1.6,4.8,0,6.4l0,0C371.6,208,368.8,208,366.8,206z"/>
	<path style="fill:#FFFFFF;" d="M354.4,218.4l-64.8-64.8c-1.6-1.6-1.6-4.8,0-6.4l0,0c1.6-1.6,4.8-1.6,6.4,0l64.8,64.8
		c1.6,1.6,1.6,4.8,0,6.4l0,0C359.2,220,356.4,220,354.4,218.4z"/>
</g>
<g>
</g>
<g>
</g>
<g>
</g>
<g>
</g>
<g>
</g>
<g>
</g>
<g>
</g>
<g>
</g>
<g>
</g>
<g>
</g>
<g>
</g>
<g>
</g>
<g>
</g>
<g>
</g>
<g>
</g>
</svg>
