<?xml version="1.0" encoding="iso-8859-1"?>
<!-- Generator: Adobe Illustrator 19.0.0, SVG Export Plug-In . SVG Version: 6.00 Build 0)  -->
<svg version="1.1" id="Layer_1" xmlns="http://www.w3.org/2000/svg" xmlns:xlink="http://www.w3.org/1999/xlink" x="0px" y="0px"
	 viewBox="0 0 508 508" style="enable-background:new 0 0 508 508;" xml:space="preserve">
<circle style="fill:#FFD05B;" cx="254" cy="254" r="254"/>
<path style="fill:#FFFFFF;" d="M418.8,382H89.2c-6,0-10.4-4.8-10.4-10.4V136.4c0-6,4.8-10.4,10.4-10.4h329.6c6,0,10.4,4.8,10.4,10.4
	v234.8C429.2,377.2,424.4,382,418.8,382z"/>
<rect x="98.4" y="146" style="fill:#84DBFF;" width="310.8" height="216.4"/>
<polygon style="fill:#2B3B4E;" points="298.8,292.4 233.2,226.8 98.4,361.2 298.8,361.2 "/>
<g>
	<polygon style="fill:#324A5E;" points="409.6,292.4 343.6,226.8 209.2,361.2 409.6,361.2 	"/>
	<polygon style="fill:#324A5E;" points="169.2,290.8 127.6,249.2 99.6,277.2 99.6,361.2 	"/>
</g>
<circle style="fill:#FFFFFF;" cx="290.8" cy="199.6" r="24"/>
<g>
	<path style="fill:#54C0EB;" d="M166.4,168.4c-1.2-0.4-2.4-0.4-3.2-0.4c-0.4,0-1.2,0-1.6,0c-0.4,0-1.2,0-1.6,0h-1.6
		c-0.4,0-1.2,0.4-1.6,0.4c-0.4,0-1.2,0.4-1.6,0.4c-0.4,0.4-1.2,0.4-1.6,0.8c-0.4,0.4-1.2,0.4-1.6,0.8c-0.4,0.4-1.2,0.8-1.6,1.2
		c-0.4,0.4-0.8,0.8-1.2,1.2s-0.8,0.8-1.2,1.6c-0.4,0.4-0.4,0.8-0.8,1.2c-0.4-0.4-0.8-0.4-1.6-0.4s-1.2-0.4-2-0.4s-1.2,0-2,0
		s-1.2,0.4-2,0.4s-1.2,0.4-1.6,0.8c-0.4,0.4-1.2,0.8-1.6,1.2c-0.4,0.4-0.8,0.8-1.2,1.2l1.6-0.4c0.4,0,1.2-0.4,1.6-0.4
		c0.4,0,1.2,0,1.6,0c0.4,0,1.2,0,1.6,0c0.8,0,2,0.4,2.8,0.8c0.4,0.4,0.8,0.4,1.2,0.8l0.4,0.4l0.4,0.4l1.6,2l1.2-2.8
		c0-0.4,0.4-0.8,0.4-1.2c0.4-0.4,0.4-0.8,0.8-1.2c0.4-0.4,0.4-0.8,0.8-1.2c0.4-0.4,0.8-0.8,1.2-0.8c0.8-0.8,1.6-1.2,2.4-1.6
		c0.4-0.4,0.8-0.4,1.2-0.8c0.4-0.4,0.8-0.4,1.2-0.4s0.8-0.4,1.6-0.4l1.6-0.4c0.4,0,1.2-0.4,1.6-0.4l1.6-0.4l1.6-0.4
		c0.4,0,1.2,0,1.6-0.4c1.2,0,2.4-0.4,3.2-0.4C168.4,168.8,167.2,168.4,166.4,168.4z"/>
	<path style="fill:#54C0EB;" d="M174.4,188c-1.2-0.4-2.4-0.4-3.2-0.4c-0.4,0-1.2,0-1.6,0c-0.4,0-1.2,0-1.6,0h-1.6
		c-0.4,0-1.2,0.4-1.6,0.4c-0.4,0-1.2,0.4-1.6,0.4c-0.4,0.4-1.2,0.4-1.6,0.8c-0.4,0.4-1.2,0.4-1.6,0.8c-0.4,0.4-1.2,0.8-1.6,1.2
		c-0.4,0.4-0.8,0.8-1.2,1.2s-0.8,0.8-1.2,1.6c-0.4,0.4-0.4,0.8-0.8,1.2c-0.4-0.4-0.8-0.4-1.6-0.4s-1.2-0.4-2-0.4s-1.2,0-2,0
		s-1.2,0.4-2,0.4s-1.2,0.4-1.6,0.8c-0.4,0.4-1.2,0.8-1.6,1.2c-0.4,0.4-0.8,0.8-1.2,1.2l1.6-0.4c0.4,0,1.2-0.4,1.6-0.4
		c0.4,0,1.2,0,1.6,0c0.4,0,1.2,0,1.6,0c0.8,0,2,0.4,2.8,0.8c0.4,0.4,0.8,0.4,1.2,0.8l0.4,0.4l0.4,0.4l1.6,2l1.2-2.8
		c0-0.4,0.4-0.8,0.4-1.2c0.4-0.4,0.4-0.8,0.8-1.2c0.4-0.4,0.4-0.8,0.8-1.2c0.4-0.4,0.8-0.8,1.2-0.8c0.8-0.8,1.6-1.2,2.4-1.6
		c0.4-0.4,0.8-0.4,1.2-0.8c0.4-0.4,0.8-0.4,1.2-0.4s0.8-0.4,1.6-0.4l1.6-0.4c0.4,0,1.2-0.4,1.6-0.4l1.6-0.4l1.6-0.4
		c0.4,0,1.2,0,1.6-0.4c1.2,0,2.4-0.4,3.2-0.4C176.4,188.4,175.6,188,174.4,188z"/>
	<path style="fill:#54C0EB;" d="M209.6,168.4c-1.2-0.4-2.4-0.4-3.2-0.4c-0.4,0-1.2,0-1.6,0c-0.4,0-1.2,0-1.6,0h-1.6
		c-0.4,0-1.2,0.4-1.6,0.4c-0.4,0-1.2,0.4-1.6,0.4c-0.4,0.4-1.2,0.4-1.6,0.8c-0.4,0.4-1.2,0.4-1.6,0.8c-0.4,0.4-1.2,0.8-1.6,1.2
		c-0.4,0.4-0.8,0.8-1.2,1.2s-0.8,0.8-1.2,1.6c-0.4,0.4-0.4,0.8-0.8,1.2c-0.4-0.4-0.8-0.4-1.6-0.4s-1.2-0.4-2-0.4s-1.2,0-2,0
		s-1.2,0.4-2,0.4s-1.2,0.4-1.6,0.8c-0.4,0.4-1.2,0.8-1.6,1.2c-0.4,0.4-0.8,0.8-1.2,1.2l1.6-0.4c0.4,0,1.2-0.4,1.6-0.4
		c0.4,0,1.2,0,1.6,0c0.4,0,1.2,0,1.6,0c0.8,0,2,0.4,2.8,0.8c0.4,0.4,0.8,0.4,1.2,0.8l0.4,0.4l0.4,0.4l1.6,2l1.2-2.8
		c0-0.4,0.4-0.8,0.4-1.2c0.4-0.4,0.4-0.8,0.8-1.2c0.4-0.4,0.4-0.8,0.8-1.2c0.4-0.4,0.8-0.8,1.2-0.8c0.8-0.8,1.6-1.2,2.4-1.6
		c0.4-0.4,0.8-0.4,1.2-0.8c0.4-0.4,0.8-0.4,1.2-0.4s0.8-0.4,1.6-0.4l1.6-0.4c0.4,0,1.2-0.4,1.6-0.4l1.6-0.4l1.6-0.4
		c0.4,0,1.2,0,1.6-0.4c1.2,0,2.4-0.4,3.2-0.4C211.6,168.8,210.4,168.4,209.6,168.4z"/>
</g>
<g>
</g>
<g>
</g>
<g>
</g>
<g>
</g>
<g>
</g>
<g>
</g>
<g>
</g>
<g>
</g>
<g>
</g>
<g>
</g>
<g>
</g>
<g>
</g>
<g>
</g>
<g>
</g>
<g>
</g>
</svg>
