<?xml version="1.0" encoding="utf-8"?>
<!-- Generator: Adobe Illustrator 19.0.0, SVG Export Plug-In . SVG Version: 6.00 Build 0)  -->
<svg version="1.1" id="Layer_1" xmlns="http://www.w3.org/2000/svg" xmlns:xlink="http://www.w3.org/1999/xlink" x="0px" y="0px"
	 viewBox="-879 2581.3 508 508" style="enable-background:new -879 2581.3 508 508;" xml:space="preserve">
<style type="text/css">
	.st0{fill:#324A5E;}
	.st1{fill:#FFFFFF;}
	.st2{fill:#84DBFF;}
	.st3{fill:#2B3B4E;}
	.st4{fill:#54C0EB;}
</style>
<circle class="st0" cx="-625" cy="2835.3" r="254"/>
<path class="st1" d="M-460.2,2963.3h-329.6c-6,0-10.4-4.8-10.4-10.4v-235.2c0-6,4.8-10.4,10.4-10.4h329.6c6,0,10.4,4.8,10.4,10.4
	v234.8C-449.8,2958.5-454.6,2963.3-460.2,2963.3z"/>
<rect x="-780.6" y="2727.3" class="st2" width="310.8" height="216.4"/>
<polygon class="st3" points="-580.2,2873.7 -645.8,2808.1 -780.6,2942.5 -580.2,2942.5 "/>
<g>
	<polygon class="st0" points="-469.4,2873.7 -535.4,2808.1 -669.8,2942.5 -469.4,2942.5 	"/>
	<polygon class="st0" points="-709.8,2872.1 -751.4,2830.5 -779.4,2858.5 -779.4,2942.5 	"/>
</g>
<circle class="st1" cx="-588.2" cy="2780.9" r="24"/>
<g>
	<path class="st4" d="M-712.6,2749.7c-1.2-0.4-2.4-0.4-3.2-0.4c-0.4,0-1.2,0-1.6,0c-0.4,0-1.2,0-1.6,0h-1.6c-0.4,0-1.2,0.4-1.6,0.4
		c-0.4,0-1.2,0.4-1.6,0.4c-0.4,0.4-1.2,0.4-1.6,0.8c-0.4,0.4-1.2,0.4-1.6,0.8c-0.4,0.4-1.2,0.8-1.6,1.2c-0.4,0.4-0.8,0.8-1.2,1.2
		c-0.4,0.4-0.8,0.8-1.2,1.6c-0.4,0.4-0.4,0.8-0.8,1.2c-0.4-0.4-0.8-0.4-1.6-0.4c-0.8,0-1.2-0.4-2-0.4c-0.8,0-1.2,0-2,0
		c-0.8,0-1.2,0.4-2,0.4c-0.8,0-1.2,0.4-1.6,0.8c-0.4,0.4-1.2,0.8-1.6,1.2c-0.4,0.4-0.8,0.8-1.2,1.2l1.6-0.4c0.4,0,1.2-0.4,1.6-0.4
		c0.4,0,1.2,0,1.6,0c0.4,0,1.2,0,1.6,0c0.8,0,2,0.4,2.8,0.8c0.4,0.4,0.8,0.4,1.2,0.8l0.4,0.4l0.4,0.4l1.6,2l1.2-2.8
		c0-0.4,0.4-0.8,0.4-1.2c0.4-0.4,0.4-0.8,0.8-1.2c0.4-0.4,0.4-0.8,0.8-1.2c0.4-0.4,0.8-0.8,1.2-0.8c0.8-0.8,1.6-1.2,2.4-1.6
		c0.4-0.4,0.8-0.4,1.2-0.8c0.4-0.4,0.8-0.4,1.2-0.4c0.4,0,0.8-0.4,1.6-0.4l1.6-0.4c0.4,0,1.2-0.4,1.6-0.4l1.6-0.4l1.6-0.4
		c0.4,0,1.2,0,1.6-0.4c1.2,0,2.4-0.4,3.2-0.4C-710.6,2750.1-711.8,2749.7-712.6,2749.7z"/>
	<path class="st4" d="M-704.6,2769.3c-1.2-0.4-2.4-0.4-3.2-0.4c-0.4,0-1.2,0-1.6,0c-0.4,0-1.2,0-1.6,0h-1.6c-0.4,0-1.2,0.4-1.6,0.4
		c-0.4,0-1.2,0.4-1.6,0.4c-0.4,0.4-1.2,0.4-1.6,0.8s-1.2,0.4-1.6,0.8c-0.4,0.4-1.2,0.8-1.6,1.2c-0.4,0.4-0.8,0.8-1.2,1.2
		c-0.4,0.4-0.8,0.8-1.2,1.6c-0.4,0.4-0.4,0.8-0.8,1.2c-0.4-0.4-0.8-0.4-1.6-0.4c-0.8,0-1.2-0.4-2-0.4c-0.8,0-1.2,0-2,0
		c-0.8,0-1.2,0.4-2,0.4c-0.8,0-1.2,0.4-1.6,0.8c-0.4,0.4-1.2,0.8-1.6,1.2c-0.4,0.4-0.8,0.8-1.2,1.2l1.6-0.4c0.4,0,1.2-0.4,1.6-0.4
		c0.4,0,1.2,0,1.6,0c0.4,0,1.2,0,1.6,0c0.8,0,2,0.4,2.8,0.8c0.4,0.4,0.8,0.4,1.2,0.8l0.4,0.4l0.4,0.4l1.6,2l1.2-2.8
		c0-0.4,0.4-0.8,0.4-1.2c0.4-0.4,0.4-0.8,0.8-1.2c0.4-0.4,0.4-0.8,0.8-1.2s0.8-0.8,1.2-0.8c0.8-0.8,1.6-1.2,2.4-1.6
		c0.4-0.4,0.8-0.4,1.2-0.8c0.4-0.4,0.8-0.4,1.2-0.4c0.4,0,0.8-0.4,1.6-0.4l1.6-0.4c0.4,0,1.2-0.4,1.6-0.4l1.6-0.4l1.6-0.4
		c0.4,0,1.2,0,1.6-0.4c1.2,0,2.4-0.4,3.2-0.4C-702.6,2769.7-703.4,2769.3-704.6,2769.3z"/>
	<path class="st4" d="M-669.4,2749.7c-1.2-0.4-2.4-0.4-3.2-0.4c-0.4,0-1.2,0-1.6,0c-0.4,0-1.2,0-1.6,0h-1.6c-0.4,0-1.2,0.4-1.6,0.4
		s-1.2,0.4-1.6,0.4c-0.4,0.4-1.2,0.4-1.6,0.8c-0.4,0.4-1.2,0.4-1.6,0.8c-0.4,0.4-1.2,0.8-1.6,1.2c-0.4,0.4-0.8,0.8-1.2,1.2
		c-0.4,0.4-0.8,0.8-1.2,1.6c-0.4,0.4-0.4,0.8-0.8,1.2c-0.4-0.4-0.8-0.4-1.6-0.4c-0.8,0-1.2-0.4-2-0.4c-0.8,0-1.2,0-2,0
		c-0.8,0-1.2,0.4-2,0.4c-0.8,0-1.2,0.4-1.6,0.8c-0.4,0.4-1.2,0.8-1.6,1.2c-0.4,0.4-0.8,0.8-1.2,1.2l1.6-0.4c0.4,0,1.2-0.4,1.6-0.4
		c0.4,0,1.2,0,1.6,0s1.2,0,1.6,0c0.8,0,2,0.4,2.8,0.8c0.4,0.4,0.8,0.4,1.2,0.8l0.4,0.4l0.4,0.4l1.6,2l1.2-2.8c0-0.4,0.4-0.8,0.4-1.2
		c0.4-0.4,0.4-0.8,0.8-1.2c0.4-0.4,0.4-0.8,0.8-1.2c0.4-0.4,0.8-0.8,1.2-0.8c0.8-0.8,1.6-1.2,2.4-1.6c0.4-0.4,0.8-0.4,1.2-0.8
		c0.4-0.4,0.8-0.4,1.2-0.4c0.4,0,0.8-0.4,1.6-0.4l1.6-0.4c0.4,0,1.2-0.4,1.6-0.4l1.6-0.4l1.6-0.4c0.4,0,1.2,0,1.6-0.4
		c1.2,0,2.4-0.4,3.2-0.4C-667.4,2750.1-668.6,2749.7-669.4,2749.7z"/>
</g>
</svg>
