<?xml version="1.0" encoding="iso-8859-1"?>
<!-- Generator: Adobe Illustrator 19.0.0, SVG Export Plug-In . SVG Version: 6.00 Build 0)  -->
<svg version="1.1" id="Layer_1" xmlns="http://www.w3.org/2000/svg" xmlns:xlink="http://www.w3.org/1999/xlink" x="0px" y="0px"
	 viewBox="0 0 508 508" style="enable-background:new 0 0 508 508;" xml:space="preserve">
<g>
	<circle style="fill:#324A5E;" cx="254" cy="254" r="254"/>
	<path style="fill:#324A5E;" d="M508,254c0,107.6-66.8,199.6-161.2,236.4c-24,9.6-49.6,15.2-76.8,16.8c-5.2,0.4-10.8,0.4-16,0.4
		c-5.2,0-10.8,0-16-0.4c-26.8-1.6-52.8-7.6-76.8-16.8C66.8,453.6,0,361.6,0,254C0,113.6,113.6,0,254,0S508,113.6,508,254z"/>
</g>
<circle style="fill:#FFFFFF;" cx="254" cy="186.4" r="116.4"/>
<g>
	<path style="fill:#84DBFF;" d="M196.4,177.2c0.4-2,2.8-2.8,4-4.4c1.6-2.4-0.4-5.6-2-8.4s-2.8-6.4,0-8c-2-2.4-3.2-5.6-4.4-8.4
		c-1.6-2.8-4-5.6-7.2-5.2c-2.4,0-4.4,2-6.4,3.2c-2.8,1.6-6,2-8.8,3.2s-6,3.2-6.4,6.4s1.6,6.4,0,9.2c-1.6,3.2-6.8,4.8-5.6,8
		c0.4,0.8,0.8,1.6,1.2,2c1.2,2.4-1.6,5.2-3.6,6.8L138,197.2c0.4,4,0.8,8.4,2,12.4c0.4,0,0.4,0,0.8,0c2.4,0,5.6-1.6,7.6,0.4
		c0.4,0.8,1.2,1.6,2,1.6c0.4,0,0.8-0.4,1.2-0.8c0.8-1.6,1.6-3.6,1.6-5.6c2.8,2.8,5.6,5.6,8.4,8.4c4.4-1.6,5.6-8,10-9.2
		c4.8-1.2,9.6,4,14,2.4c3.2-1.2,4.8-5.2,7.6-7.2c3.2-2.4,8-2,12.4-1.2c0.8-5.6-1.2-11.6-5.2-15.6C198,181.2,196,179.2,196.4,177.2z"
		/>
	<path style="fill:#84DBFF;" d="M238.4,109.6c0.4-2.8-3.6-4.8-5.6-3.2c-0.4-0.4-1.2-0.8-1.6-1.2c2-3.2,6.8-2,9.6,0.4s4.8,6,8,7.6
		c2.4,0,3.6-3.2,4-5.6c0-2.4-0.4-5.2,1.2-7.2c0.4-0.8,1.2-1.6,1.6-2.4c0.8-3.2-4-4.4-5.2-7.2c-0.8-2.4,0.4-4.8,1.2-7.2
		c0.8-2.4,0.4-5.6-2-6c-3.2,4.8-12,4-14,9.2c-0.8,2.8,0,6.4-2.8,7.6c-2,0.8-4-1.6-4.4-4c0-2.4,0.8-4.4,0.8-6.8c0-1.2-0.4-2-0.4-3.2
		c0-1.6,1.2-3.6,1.6-5.2c0.4-0.8,0.4-1.6,0-2.4c-21.6,4.4-42,15.2-58.4,31.6c-0.8,0.8-1.6,2-2.8,2.8c0.4,5.6,5.2,11.2,6.8,17.2
		c0.8,2.4,0.8,4.8,1.6,7.2s2.4,4.4,4.8,4.8c2-2.4,2.4-6,0.4-8.4c1.6-0.8,3.2-1.2,4-2.8c0.8-1.2,0.8-3.6-0.8-4c-0.8-0.4-2,0-3.2,0
		c-3.2,0-5.2-3.6-6.8-6.8c6.4-2.4,14,0,17.6,5.6c-0.8-0.8-1.2-2-2-2.8c5.2-1.6,10.8-2.4,16-2c1.6,0,3.2,0.4,4.4-0.4
		c2-0.8,3.2-3.2,5.2-3.2c1.6,0,2.8,0.8,4.4,1.2C227.6,114,233.6,106.4,238.4,109.6z"/>
	<path style="fill:#84DBFF;" d="M278.4,109.6c3.2,1.6,7.6,0.4,10-2c0.8-0.8,1.6-1.2,2.4-1.2c1.2,0,2.4,1.2,3.2,2.4
		c4.4,5.6,12,8.8,19.2,7.2c0.4-2.4-3.2-3.6-3.2-6c0-2,2.8-2.8,4.8-2s3.2,2.8,4.8,3.6c2,0.8,4.8,0.4,6.4-0.8c1.6-1.6,2.4-4,1.6-6
		c-0.4-0.8-0.8-2-0.4-2.8c0.4-1.2,2-0.8,3.2-0.8c1.6,0.4,3.2,0.8,4.8,1.2c-14-13.6-30-22.8-47.6-28v0.4c-1.2,3.6-3.2,6.8-4.4,10
		c-1.2,4-1.6,8.8-4.4,12c-1.2,1.2-2.4,2-3.2,3.6C273.2,103.6,274.8,108,278.4,109.6z"/>
	<path style="fill:#84DBFF;" d="M363.6,182.4c-3.2-2-6-6-5.6-10c0-1.6,0.4-2.8,0.4-4.4c-0.4-2.4-2-4-3.2-5.6c-3.2-3.2-6.4-6-9.6-8.8
		c-4-3.2-9.6-5.6-13.2-2.4c-0.8,0.8-1.2,1.6-2,2.4c-2,1.2-4.4,0.4-6.4-0.4c-2-0.8-5.2-0.4-5.6,2c-0.4,2.8,3.6,4,4.4,6.8
		c0.4,0.8,0,1.6,0.4,2.4c0.4,4,6.4,5.6,8.8,2.4c1.6-2.4,2-6.4,4.8-6.4c2.8,1.2,4.8,4.4,4.8,7.2c-0.8-2-4-1.2-5.2,0.4
		c-1.2,1.6-1.6,4-2.8,5.2c-2.8,2.8-7.6,2-11.2,0.4c-8-2.8-15.6-5.6-23.6-8.4c-0.8-0.4-2-0.8-2.8-0.4c-1.2,0.4-1.6,2-2.8,2.8
		c-1.6,1.2-4,0.8-5.6-0.4s-3.2-2.4-5.2-3.2s-4.4,0.4-4.8,2.4c0,0.8,0,1.6,0.4,2.4c3.6,6.8,12.4,8,18.4,12.4c0.4-2.8,4.4-3.2,6.8-2
		c2.4,1.6,3.2,4.4,3.6,7.2s0.4,5.6,2,8c2,3.6,7.2,5.2,10.8,3.6c2.4-1.2,5.2-3.2,7.2-1.6c2,1.6,0.4,4.8,1.2,7.2
		c0.4,0.8,1.2,1.6,1.2,2.8c0.4,2-2.8,3.2-4.8,2.4s-3.2-2.8-4.8-4.4c-1.6-1.6-3.6-3.2-5.6-2.4c-2.4-0.4-4,2.8-3.2,5.2
		s3.2,3.6,5.2,4.8c-0.4,2-2.4,2.8-4.4,2.8s-3.6-0.8-5.2-1.6c-4.8-2.4-10.4-6-10.8-11.2c0-1.6,0.4-3.2,0-5.2
		c-0.4-5.2-4.4-9.2-8.4-12.4c-6-4.4-13.2-8.4-20.4-7.6c-2.8,0.4-5.6,1.6-8,2.8c-4.8,2.4-9.6,5.6-13.6,9.2c-2.8,2.8-5.6,6-6,10
		c-0.4,5.2,3.6,9.6,7.6,12.8s8.8,6.4,10.8,11.2c-3.6,1.2-4,6-5.2,9.6c-2.8,8-13.2,11.2-17.6,18.8c-2.4,4-2.8,9.2-5.6,12.8
		c-1.2,1.6-2.4,2.8-3.2,4.8c-2.4,5.2,2.8,11.6,8.8,12.4s11.6-2.4,16.4-6c1.2-0.8,2.4-2,4-2.4c1.2-0.4,2.4-0.4,3.6-0.4
		c2.8,0,5.6-0.4,8.4-0.4c-1.2,0-1.6-2-0.8-2.8c0.8-0.8,2-1.2,2.8-2c4-2,6.4-6,8-10c2,4,8,3.2,12.4,1.6c4-1.6,8.4-2.8,12.4-4.4
		c-2.8,0.4-5.6-2-6.8-4.8c-0.8-2.8-0.4-6,0.8-8.8c1.2-2.4,2.8-4.8,3.6-7.6c0.8-2.8,0.8-5.6,1.6-8c0.8-2.8,2-5.6,4.8-6.4
		c1.2,5.6,0.4,11.2-2,16.4c-2,4-4.8,8.8-2,12c0,2,2,2.8,4,2.8c4.8,0.8,9.6,1.6,14,2.4c-1.6-6-2.4-12.4-2.4-18.4
		c0-1.6,0.4-3.2,1.6-3.6c2,7.2,4.8,14,9.2,20c0.8,0.8,1.2,2,1.6,3.2c0,1.2,0,2-0.4,3.2c-1.6,5.2-4.4,9.6-4.8,14.8
		c0,2.4,0.4,5.2-0.4,7.6c4-3.2,8-6.8,12-10.4c23.2-23.2,34.4-53.2,34-83.6C368,184.4,365.6,184,363.6,182.4z"/>
	<path style="fill:#84DBFF;" d="M274.4,276.4c-1.6,1.6-3.6,2-6,1.6c-1.2-0.4-2.4-0.8-3.6-0.8c-1.6,0.4-2.4,1.6-3.6,2.8
		c-1.2,1.6-2.4,3.6-4,5.2c-0.4,0.4-0.8,1.2-0.8,2c0,1.6,2,2,3.2,2c1.6-0.4,2.8-1.2,4-1.6c1.6-0.4,2.8,0,4.4-0.4c2-0.4,3.6-2,4.8-3.2
		c1.2-1.2,2-2.4,2.4-3.6C276.8,278.8,276,276.8,274.4,276.4z"/>
	<path style="fill:#84DBFF;" d="M301.6,123.6c-1.6,0.8-1.2,2.8-0.8,4.4v-0.8c0.4,2,2.4,4,4.8,4c2,0.4,4.4-0.8,5.6-2.8
		c-2.4-1.6-4.8-2.8-7.2-4.4C303.2,123.6,302.4,123.2,301.6,123.6z"/>
</g>
<path id="SVGCleanerId_0" style="fill:#F9B54C;" d="M432.4,200.8c0,0,14,41.6,5.2,66c0,0-30.8,46.4-57.6,49.2l-10.8,3.2
	c0,0,38.8-28,41.6-38.4c0,0,2.4-68.4,8.4-73.6C419.2,206.4,419.2,199.6,432.4,200.8z"/>
<path style="fill:#FFD05B;" d="M447.2,273.2c0,2,0,3.6,0,5.6c0,0.8,0,2,0,2.8s0,2-0.4,2.8c-0.4,4-0.8,8-1.6,12c-0.4,2-0.8,4-1.2,6
	c-0.4,1.2-0.4,2-0.8,3.2c-0.4,0.8-0.4,2-0.8,2.8c-0.4,1.2-0.4,2-0.8,3.2c-0.4,2-1.2,4-2,6c-0.4,0.8-0.8,2-1.2,2.8
	c-0.8,2-1.6,4.4-2.8,6.4c-0.4,1.2-0.8,2-1.6,3.2c-0.8,2-2,4-3.2,6c-0.4,0.8-0.8,1.2-1.2,2c-4.8,8-10.4,16-17.6,23.2
	c-1.2,1.2-2.4,2.4-3.6,3.6c-4.4,4-9.2,7.6-14.4,10.4l-43.2,23.2c-2.8,1.6-5.2,3.6-7.2,5.6l-10,12c-5.2,6.4-6.8,14.8-4.4,22.8
	l4.4,13.2l12.4,37.6c-24,9.6-49.6,15.2-76.8,16.8c0.8-29.2,0.8-69.2-3.2-89.2c-0.4-2.4-0.8-4.4-1.2-6.8c-0.8-7.2-0.4-14.8,1.6-22
	c0.8-3.2,2-6.8,3.2-10c8.4-20.4,26.8-45.2,67.2-54c2.8-0.8,6-0.8,8.8,0c4.4,0.8,9.2,0.4,13.2-1.6c0.8-0.4,2-1.2,3.2-1.6
	s2.4-1.2,3.6-2c0.8-0.4,1.6-0.8,2.8-1.6l0,0l0,0c7.6-4,16.8-9.6,25.2-15.2l0,0l0,0l0.4-0.4c0,0,0,0,0.4,0l0,0
	c6-4.4,11.6-8.8,15.2-12.8c0.4-0.4,0.8-0.8,1.2-1.6c2.4-2.8,3.6-5.6,4-8c0,0-4.4-57.6,18.8-61.6c0.4,0,0.8,0,0.8,0
	c0.4,0,0.4,0,0.8,0s0.4,0,0.8,0l0,0h0.4c0,0,0.4,0,0.8,0.4c0.4,0,0.8,0.4,1.2,0.8c0.8,0.8,1.6,2,2,3.2
	C444.4,236,447.6,254,447.2,273.2z"/>
<path id="SVGCleanerId_1" style="fill:#F9B54C;" d="M394,302.8l-0.4,0.4c4.8,1.2,11.2,3.6,12.8,8c0,0,2.8,8.8-6.4,16.4
	c0,0-25.6,29.6-44.4,37.6c0,0-0.8,3.2-14.8,0.8L326,387.2l19.2-19.2c0,0,11.2,8.8,52.8-34.4C398,333.2,426,306.4,394,302.8z"/>
<path id="SVGCleanerId_2" style="fill:#FFFFFF;" d="M400.4,310.4c-3.2-3.2-8.4-3.2-11.6-0.4l-6,5.6l11.2,12l6-5.6
	C403.2,318.8,403.6,313.6,400.4,310.4z"/>
<g>
	<path id="SVGCleanerId_0_1_" style="fill:#F9B54C;" d="M432.4,200.8c0,0,14,41.6,5.2,66c0,0-30.8,46.4-57.6,49.2l-10.8,3.2
		c0,0,38.8-28,41.6-38.4c0,0,2.4-68.4,8.4-73.6C419.2,206.4,419.2,199.6,432.4,200.8z"/>
</g>
<path style="fill:#FFD05B;" d="M447.2,273.2c0,2,0,3.6,0,5.6c0,0.8,0,2,0,2.8s0,2-0.4,2.8c-0.4,4-0.8,8-1.6,12c-0.4,2-0.8,4-1.2,6
	c-0.4,1.2-0.4,2-0.8,3.2c-0.4,0.8-0.4,2-0.8,2.8c-0.4,1.2-0.4,2-0.8,3.2c-0.4,2-1.2,4-2,6c-0.4,0.8-0.8,2-1.2,2.8
	c-0.8,2-1.6,4.4-2.8,6.4c-0.4,1.2-0.8,2-1.6,3.2c-0.8,2-2,4-3.2,6c-0.4,0.8-0.8,1.2-1.2,2c-4.8,8-10.4,16-17.6,23.2
	c-1.2,1.2-2.4,2.4-3.6,3.6c-4.4,4-9.2,7.6-14.4,10.4l-43.2,23.2c-2.8,1.6-5.2,3.6-7.2,5.6l-10,12c-5.2,6.4-6.8,14.8-4.4,22.8
	l4.4,13.2l12.4,37.6c-24,9.6-49.6,15.2-76.8,16.8c0.8-29.2,0.8-69.2-3.2-89.2c-0.4-2.4-0.8-4.4-1.2-6.8c-0.8-7.6-0.4-14.8,1.6-22
	c0.8-3.2,2-6.8,3.2-10c8.4-20.4,26.8-45.2,67.2-54c2.8-0.8,6-0.8,8.8,0c4.4,0.8,9.2,0.4,13.2-1.6c0.8-0.4,2-1.2,3.2-1.6
	s2.4-1.2,3.6-2c0.8-0.4,1.6-0.8,2.8-1.6l0,0l0,0c7.6-4,16.8-9.6,25.2-15.2l0,0l0,0l0.4-0.4c0,0,0,0,0.4,0l0,0
	c6-4.4,11.6-8.8,15.2-12.8c0.4-0.4,0.8-0.8,1.2-1.6c2.4-2.8,3.6-5.6,4-8c0,0-4.4-57.6,18.8-61.6c0.4,0,0.8,0,0.8,0
	c0.4,0,0.4,0,0.8,0s0.4,0,0.8,0l0,0h0.4c0,0,0.4,0,0.8,0.4c0.4,0,0.8,0.4,1.2,0.8c0.8,0.8,1.6,2,2,3.2
	C444.4,236,447.6,254,447.2,273.2z"/>
<g>
	<path id="SVGCleanerId_1_1_" style="fill:#F9B54C;" d="M394,302.8l-0.4,0.4c4.8,1.2,11.2,3.6,12.8,8c0,0,2.8,8.8-6.4,16.4
		c0,0-25.6,29.6-44.4,37.6c0,0-0.8,3.2-14.8,0.8L326,387.2l19.2-19.2c0,0,11.2,8.8,52.8-34.4C398,333.2,426,306.4,394,302.8z"/>
</g>
<g>
	<path id="SVGCleanerId_2_1_" style="fill:#FFFFFF;" d="M400.4,310.4c-3.2-3.2-8.4-3.2-11.6-0.4l-6,5.6l11.2,12l6-5.6
		C403.2,318.8,403.6,313.6,400.4,310.4z"/>
</g>
<path style="fill:#F9B54C;" d="M75.6,200.8c0,0-14,41.6-5.2,66c0,0,30.8,46.4,57.6,49.2l10.8,3.2c0,0-38.8-28-41.6-38.4
	c0,0-2.4-68.4-8.4-73.6C88.8,206.4,88.8,199.6,75.6,200.8z"/>
<path style="fill:#FFD05B;" d="M241.2,418.4c-4,20-4,60-3.2,89.2c-26.8-1.6-52.8-7.6-76.8-16.8l16.4-50.8c2.4-8,0.8-16.4-4.4-22.8
	l-10-12c-2-2.4-4.4-4.4-7.2-5.6l-43.2-23.2c-5.2-2.8-10-6.4-14.4-10.4C50,318.8,57.6,256.4,66,223.6c0.4-1.6,1.6-2.8,3.2-3.6
	c0.4,0,0.8-0.4,0.8-0.4c0.8-0.4,1.6-0.4,2.4,0c22.8,4,18.8,61.6,18.8,61.6c1.2,6.8,10,15.2,20.8,22.4c0.4,0,0.4,0.4,0.8,0.4
	c8.4,5.6,17.6,11.2,25.2,15.2c3.6,2,6.8,3.6,9.6,4.8c4,2,8.8,2.8,13.2,1.6c2.8-0.4,6-0.4,8.8,0c40.4,9.2,58.8,34,67.6,54
	C242.8,391.6,244,405.2,241.2,418.4z"/>
<path style="fill:#F9B54C;" d="M114,302.8l0.4,0.4c-4.8,1.2-11.2,3.6-12.8,8c0,0-2.8,8.8,6.4,16.4c0,0,25.6,29.6,44.4,37.6
	c0,0,0.8,3.2,14.8,0.8l14.8,21.2L162.8,368c0,0-11.2,8.8-52.8-34.4C110,333.2,82,306.4,114,302.8z"/>
<path style="fill:#FFFFFF;" d="M107.6,310.4c3.2-3.2,8.4-3.2,11.6-0.4l6,5.6l-11.2,12l-6-5.6C104.8,318.8,104.4,313.6,107.6,310.4z"
	/>
<path style="fill:#F9B54C;" d="M333.2,368c-0.4,0-1.6,0.8-3.2,2C330.8,369.2,332,368.4,333.2,368z"/>
<g>
</g>
<g>
</g>
<g>
</g>
<g>
</g>
<g>
</g>
<g>
</g>
<g>
</g>
<g>
</g>
<g>
</g>
<g>
</g>
<g>
</g>
<g>
</g>
<g>
</g>
<g>
</g>
<g>
</g>
</svg>
