<?xml version="1.0" encoding="iso-8859-1"?>
<!-- Generator: Adobe Illustrator 19.0.0, SVG Export Plug-In . SVG Version: 6.00 Build 0)  -->
<svg version="1.1" id="Layer_1" xmlns="http://www.w3.org/2000/svg" xmlns:xlink="http://www.w3.org/1999/xlink" x="0px" y="0px"
	 viewBox="0 0 508 508" style="enable-background:new 0 0 508 508;" xml:space="preserve">
<circle style="fill:#FFD05B;" cx="254" cy="254" r="254"/>
<path style="fill:#E6E9EE;" d="M358.4,420.4L87.6,149.6c-2.8-2.8-2.8-7.6,0-10.4l51.6-51.6c2.8-2.8,7.6-2.8,10.4,0L420,358
	c2.8,2.8,2.8,7.6,0,10.4L368.4,420C365.6,423.2,361.2,423.2,358.4,420.4z"/>
<path style="fill:#FFFFFF;" d="M103.6,123.6l-16,16c-2.8,2.8-2.8,7.2,0,10l270.8,270.8c2.8,2.8,7.2,2.8,10,0l16-16L103.6,123.6z"/>
<g>
	
		<rect x="134.218" y="100.431" transform="matrix(0.7071 -0.7071 0.7071 0.7071 -29.7933 134.1345)" style="fill:#CED5E0;" width="25.6" height="5.2"/>
	
		<rect x="157.146" y="101.256" transform="matrix(-0.7071 -0.7071 0.7071 -0.7071 195.3063 299.8099)" style="fill:#CED5E0;" width="5.2" height="16.4"/>
	
		<rect x="166.423" y="110.589" transform="matrix(-0.7071 -0.7071 0.7071 -0.7071 204.5437 322.3031)" style="fill:#CED5E0;" width="5.2" height="16.4"/>
	
		<rect x="162.689" y="129.103" transform="matrix(0.7071 -0.7071 0.7071 0.7071 -41.7285 162.6644)" style="fill:#CED5E0;" width="25.6" height="5.2"/>
	
		<rect x="185.535" y="129.826" transform="matrix(-0.7071 -0.7071 0.7071 -0.7071 223.5675 368.6564)" style="fill:#CED5E0;" width="5.2" height="16.4"/>
	
		<rect x="195.075" y="139.442" transform="matrix(-0.7071 -0.7071 0.7071 -0.7071 233.0536 391.8183)" style="fill:#CED5E0;" width="5.2" height="16.4"/>
	
		<rect x="191.483" y="158.062" transform="matrix(0.7071 -0.7071 0.7071 0.7071 -53.772 191.5066)" style="fill:#CED5E0;" width="25.6" height="5.2"/>
	
		<rect x="214.49" y="158.396" transform="matrix(-0.7071 -0.7071 0.7071 -0.7071 252.7944 437.9027)" style="fill:#CED5E0;" width="5.2" height="16.4"/>
	
		<rect x="224.038" y="168.012" transform="matrix(-0.7071 -0.7071 0.7071 -0.7071 262.2941 461.0703)" style="fill:#CED5E0;" width="5.2" height="16.4"/>
	
		<rect x="220.237" y="186.451" transform="matrix(0.7071 -0.7071 0.7071 0.7071 -65.4243 220.1537)" style="fill:#CED5E0;" width="25.6" height="5.2"/>
	
		<rect x="243.158" y="187.249" transform="matrix(-0.7071 -0.7071 0.7071 -0.7071 281.3316 507.4292)" style="fill:#CED5E0;" width="5.2" height="16.4"/>
	
		<rect x="252.435" y="196.574" transform="matrix(-0.7071 -0.7071 0.7071 -0.7071 290.5746 529.9087)" style="fill:#CED5E0;" width="5.2" height="16.4"/>
	
		<rect x="248.748" y="215.131" transform="matrix(0.7071 -0.7071 0.7071 0.7071 -77.3535 248.7142)" style="fill:#CED5E0;" width="25.6" height="5.2"/>
	
		<rect x="271.555" y="215.807" transform="matrix(-0.7071 -0.7071 0.7071 -0.7071 309.615 576.2608)" style="fill:#CED5E0;" width="5.2" height="16.4"/>
	
		<rect x="281.115" y="225.423" transform="matrix(-0.7071 -0.7071 0.7071 -0.7071 319.1352 599.4368)" style="fill:#CED5E0;" width="5.2" height="16.4"/>
	
		<rect x="277.502" y="244.094" transform="matrix(0.7071 -0.7071 0.7071 0.7071 -89.4115 277.5293)" style="fill:#CED5E0;" width="25.6" height="5.2"/>
	
		<rect x="300.518" y="244.373" transform="matrix(-0.7071 -0.7071 0.7071 -0.7071 338.8584 645.506)" style="fill:#CED5E0;" width="5.2" height="16.4"/>
	
		<rect x="310.078" y="253.99" transform="matrix(-0.7071 -0.7071 0.7071 -0.7071 348.3785 668.6821)" style="fill:#CED5E0;" width="5.2" height="16.4"/>
	
		<rect x="306.296" y="272.451" transform="matrix(0.7071 -0.7071 0.7071 0.7071 -101.0295 306.1953)" style="fill:#CED5E0;" width="25.6" height="5.2"/>
	
		<rect x="329.198" y="273.222" transform="matrix(-0.7071 -0.7071 0.7071 -0.7071 367.4189 715.0341)" style="fill:#CED5E0;" width="5.2" height="16.4"/>
	
		<rect x="338.758" y="282.838" transform="matrix(-0.7071 -0.7071 0.7071 -0.7071 376.9391 738.2101)" style="fill:#CED5E0;" width="5.2" height="16.4"/>
	
		<rect x="334.767" y="301.131" transform="matrix(0.7071 -0.7071 0.7071 0.7071 -112.9703 334.7275)" style="fill:#CED5E0;" width="25.6" height="5.2"/>
	
		<rect x="357.555" y="301.828" transform="matrix(-0.7071 -0.7071 0.7071 -0.7071 395.6 783.9193)" style="fill:#CED5E0;" width="5.2" height="16.4"/>
	
		<rect x="367.115" y="311.445" transform="matrix(-0.7071 -0.7071 0.7071 -0.7071 405.1201 807.0953)" style="fill:#CED5E0;" width="5.2" height="16.4"/>
	
		<rect x="386.558" y="330.394" transform="matrix(-0.7071 -0.7071 0.7071 -0.7071 424.9116 853.1928)" style="fill:#CED5E0;" width="5.2" height="16.4"/>
	
		<rect x="396.118" y="340.011" transform="matrix(-0.7071 -0.7071 0.7071 -0.7071 434.4318 876.3689)" style="fill:#CED5E0;" width="5.2" height="16.4"/>
	
		<rect x="363.561" y="330.094" transform="matrix(0.7071 -0.7071 0.7071 0.7071 -125.0166 363.5709)" style="fill:#CED5E0;" width="25.6" height="5.2"/>
	
		<rect x="392.315" y="358.491" transform="matrix(0.7071 -0.7071 0.7071 0.7071 -136.6746 392.2203)" style="fill:#CED5E0;" width="25.6" height="5.2"/>
</g>
<g>
	<path style="fill:#324A5E;" d="M123.6,126c-1.2-1.2-1.6-2.8-1.6-4c0.4-1.6,1.2-2.8,2.4-4.4c1.6-1.6,2.8-2.4,4.4-2.4
		c1.6-0.4,2.8,0.4,4,1.6s1.6,2.8,1.6,4c-0.4,1.6-1.2,2.8-2.4,4.4c-1.6,1.6-2.8,2.4-4.4,2.4C126.4,128,125.2,127.6,123.6,126z
		 M129.2,118c-0.8,0.4-1.6,0.8-2.8,1.6c-0.8,0.8-1.6,1.6-1.6,2.8c-0.4,0.8,0,1.6,0.4,2c0.8,0.8,1.2,0.8,2,0.4s1.6-0.8,2.8-1.6
		c0.8-0.8,1.6-1.6,1.6-2.8c0.4-0.8,0-1.6-0.4-2C130.8,118,130,117.6,129.2,118z"/>
	<path style="fill:#324A5E;" d="M160,143.6l3.6,3.6l-9.2,9.2l-2-2l7.6-7.6l-2-1.2L160,143.6z"/>
	<path style="fill:#324A5E;" d="M187.6,178.4c0.4,0,0.8-0.4,1.2-0.8c0.4-0.4,0.4-0.8,0.4-1.2s0-0.8-0.4-1.2s-1.6-0.8-2.8-0.4
		l-0.8-2.8c1.2-0.4,2-0.4,2.8,0c0.8,0,1.6,0.8,2.4,1.6c0.8,0.8,1.2,1.6,1.2,2.8s-0.4,2-1.2,2.8c-0.4,0.4-1.2,0.8-1.6,0.8
		c-0.8,0-1.6,0.4-2.8,0.4h-3.2l3.6,3.6l-2,2l-6.4-5.6l1.6-1.6h5.6C186,178.8,186.8,178.8,187.6,178.4z"/>
	<path style="fill:#324A5E;" d="M214.4,202l1.6-1.6l5.6,5.6l-1.6,1.6l-4,0.4c0.8,0.8,0.8,1.6,0.8,2.8c0,0.8-0.4,1.6-1.2,2.4
		c-0.8,0.8-2,1.2-3.2,1.2s-2.4-0.8-3.2-1.6c-1.2-1.2-1.6-2.4-2-4l2.4-0.8c0.4,1.6,0.8,2.4,1.6,3.2c0.4,0.4,0.8,0.8,1.2,0.8
		s0.8,0,1.2-0.4s0.4-0.8,0.4-1.2s-0.4-1.2-0.8-1.6c-0.4-0.4-0.8-0.8-1.6-0.8l1.6-1.6l4-0.4L214.4,202z"/>
	<path style="fill:#324A5E;" d="M242.8,237.2l1.6-1.6l2,2l-1.6,1.6l1.2,1.2l-2,1.6l-1.2-1.2l-2,2l-2-2l2-2l-3.6-3.6l1.6-1.6l8.8-2
		l2.4,2.4l-8.4,2L242.8,237.2z"/>
	<path style="fill:#324A5E;" d="M279.2,263.2l-1.6,1.6l-3.6-3.6l-1.6,1.6c0.4,0,0.8,0.4,1.2,0.8c0.8,0.8,1.2,2,1.6,3.2
		c0,1.2-0.4,2.4-1.2,3.2c-0.8,0.8-2,1.2-3.2,1.2s-2.4-0.4-3.2-1.6c-1.2-1.2-2-2.8-1.6-4.4l2.4-0.4c0,0,0,0.4,0,0.8s0,0.8,0.4,1.2
		c0,0.4,0.4,0.8,0.8,1.2c0.4,0.4,0.8,0.4,1.2,0.8c0.4,0,0.8,0,1.2-0.4c0.4-0.4,0.4-0.8,0.4-1.2c0-0.4-0.4-1.2-0.8-1.6
		s-1.2-0.8-2-1.2v-1.6l4.4-4.4L279.2,263.2z"/>
	<path style="fill:#324A5E;" d="M304,291.2c-0.4-0.4-1.2-0.8-2-0.8s-1.2,0.4-2,0.8c0.8,0.4,1.6,0.8,2.4,1.2c0.8,0.8,1.2,2,1.2,2.8
		c0,1.2-0.4,2-1.2,3.2c-0.8,0.8-2,1.2-3.2,1.2s-2.4-0.4-3.2-1.6c-0.8-0.8-1.2-1.2-1.2-2c-0.4-0.8-0.4-1.6,0-2c0.4-1.2,1.2-2.8,2.4-4
		c0.8-0.8,1.6-1.6,2.4-2s1.6-0.8,2.4-0.8c1.6,0,2.8,0.4,3.6,1.6c0.4,0.4,0.8,0.8,1.2,1.6c0.4,0.4,0.4,0.8,0.4,1.2c0,0.4,0,0.8,0,1.2
		l-2.4,0.4v-0.4c0,0,0-0.4-0.4-0.8C304.4,291.6,304.4,291.2,304,291.2z M300.4,294c-0.4-0.4-0.8-0.8-1.2-0.8c-0.4,0-0.8,0-1.2,0.4
		c-0.4,0.4-0.4,0.8-0.4,1.2c0,0.4,0,0.8,0.4,1.2c0.4,0.4,0.8,0.4,1.2,0.8c0.4,0,0.8,0,1.2-0.4c0.4-0.4,0.4-0.8,0.8-1.2
		C301.2,294.8,300.8,294.4,300.4,294z"/>
	<path style="fill:#324A5E;" d="M327.6,317.2l2.8-2.8l6.8,6.8l-1.6,1.6l-11.2,4L322,324l10.8-4l-2.4-2l-1.2,1.2L327.6,317.2z"/>
	<path style="fill:#324A5E;" d="M359.6,344.4c1.2,0,2,0.8,2.8,1.6c0.8,0.8,1.6,2,1.6,2.8c0,1.2,0,2-0.8,2.8s-1.6,1.2-2.8,1.2
		c0,1.2-0.4,2.4-1.2,3.6c-0.8,0.8-2,1.2-2.8,1.2c-1.2,0-2.4-0.8-3.2-1.6c-1.2-1.2-1.6-2-1.6-3.2s0.4-2,1.2-2.8
		c0.8-0.8,2-1.2,3.6-1.2c0-1.2,0.4-2,0.8-2.8C357.6,344.8,358.4,344.4,359.6,344.4z M354,352.4c0,0.4,0.4,0.8,0.8,1.2
		c0.4,0.4,0.8,0.4,1.2,0.8c0.4,0,0.8,0,1.2-0.4c0.4-0.4,0.4-0.8,0.4-1.2c0-0.4-0.4-0.8-0.8-1.2c-0.4-0.4-0.8-0.8-1.2-0.8
		c-0.4,0-0.8,0-1.2,0.4C354,351.6,354,352,354,352.4z M358.4,348.8c0,0.4,0.4,0.8,0.4,1.2c0.4,0.4,0.8,0.4,1.2,0.4
		c0.4,0,0.8,0,1.2-0.4c0.4-0.4,0.4-0.8,0.4-1.2c0-0.4-0.4-0.8-0.4-1.2c-0.4-0.4-0.8-0.4-1.2-0.4c-0.4,0-0.8,0-1.2,0.4
		C358.4,348,358.4,348.4,358.4,348.8z"/>
	<path style="fill:#324A5E;" d="M383.2,382c0.4,0.4,1.2,0.8,2,0.8s1.2-0.4,2-0.8c-0.8,0-1.6-0.4-2.4-1.2c-0.8-0.8-1.2-2-1.2-2.8
		c0-1.2,0.4-2,1.2-3.2c0.8-0.8,2-1.2,3.2-1.2s2.4,0.4,3.2,1.6c0.8,0.8,1.2,1.2,1.2,2c0.4,0.8,0.4,1.6,0,2c-0.4,1.2-1.2,2.8-2.4,4
		c-0.8,0.8-1.6,1.6-2.4,2s-1.6,0.8-2.4,0.8c-1.6,0-2.8-0.4-3.6-1.6c-0.4-0.4-0.8-0.8-1.2-1.6c-0.4-0.4-0.4-0.8-0.4-1.2
		s0-0.8-0.4-1.2l2.4-0.4v0.4c0,0,0,0.4,0.4,0.8C382.8,381.2,382.8,381.6,383.2,382z M386.8,378.8c0.4,0.4,0.8,0.8,1.2,0.8
		c0.4,0,0.8,0,1.2-0.4c0.4-0.4,0.4-0.8,0.8-1.2c0-0.4,0-1.2-0.4-1.2c-0.4-0.4-0.8-0.4-1.2-0.4c-0.4,0-0.8,0-1.2,0.4
		c-0.4,0.4-0.4,0.8-0.8,1.2C386,378,386.4,378.4,386.8,378.8z"/>
</g>
<g>
</g>
<g>
</g>
<g>
</g>
<g>
</g>
<g>
</g>
<g>
</g>
<g>
</g>
<g>
</g>
<g>
</g>
<g>
</g>
<g>
</g>
<g>
</g>
<g>
</g>
<g>
</g>
<g>
</g>
</svg>
