<?xml version="1.0" encoding="iso-8859-1"?>
<!-- Generator: Adobe Illustrator 19.0.0, SVG Export Plug-In . SVG Version: 6.00 Build 0)  -->
<svg version="1.1" id="Layer_1" xmlns="http://www.w3.org/2000/svg" xmlns:xlink="http://www.w3.org/1999/xlink" x="0px" y="0px"
	 viewBox="0 0 508 508" style="enable-background:new 0 0 508 508;" xml:space="preserve">
<circle style="fill:#90DFAA;" cx="254" cy="254" r="254"/>
<g>
	<path style="fill:#FFD05B;" d="M428.8,238.8L382.4,226l-11.2-57.6h6c6.8,0,12.8-4.8,13.2-11.6c0.8-7.6-5.2-14-12.8-14H89.2
		c-13.6,0-24.8,11.2-24.8,24.8V330c0,7.6,6.4,14,14,14H430c7.6,0,14-6.4,14-14v-73.6C443.6,247.6,437.6,240.4,428.8,238.8z"/>
	<path style="fill:#FFD05B;" d="M443.6,256.4v74c0,7.6-6.4,14-14,14H78.4c-7.6,0-14-6.4-14-14V168c0-13.6,11.2-24.8,24.8-24.8h288.4
		c7.6,0,13.6,6.4,12.8,14c-0.8,6.8-6.8,11.6-13.2,11.6h-6l11.2,57.2v0.4l46.4,12.8C437.6,240.4,443.6,247.6,443.6,256.4z"/>
</g>
<path style="fill:#F9B54C;" d="M138.4,303.2c-22.8,0-41.2,18.4-41.2,41.2H180C179.6,321.6,161.2,303.2,138.4,303.2z"/>
<circle style="fill:#324A5E;" cx="138.4" cy="344.4" r="32.4"/>
<path style="fill:#F9B54C;" d="M380,303.2c-22.8,0-41.2,18.4-41.2,41.2h82.8C421.2,321.6,402.8,303.2,380,303.2z"/>
<circle style="fill:#324A5E;" cx="380" cy="344.4" r="32.4"/>
<g>
	<circle style="fill:#CED5E0;" cx="380" cy="344.4" r="18.4"/>
	<circle style="fill:#CED5E0;" cx="138.4" cy="344.4" r="18.4"/>
</g>
<path style="fill:#FFFFFF;" d="M133.6,225.6H90c-3.6,0-6.4-2.8-6.4-6.4v-44.4c0-3.6,2.8-6.4,6.4-6.4h43.6c3.6,0,6.4,2.8,6.4,6.4
	v44.4C140,222.8,137.2,225.6,133.6,225.6z"/>
<rect x="90" y="174.8" style="fill:#84DBFF;" width="43.6" height="44.8"/>
<path style="fill:#FFFFFF;" d="M205.6,225.6H162c-3.6,0-6.4-2.8-6.4-6.4v-44.4c0-3.6,2.8-6.4,6.4-6.4h43.6c3.6,0,6.4,2.8,6.4,6.4
	v44.4C212,222.8,209.2,225.6,205.6,225.6z"/>
<rect x="162" y="174.8" style="fill:#84DBFF;" width="43.6" height="44.8"/>
<path style="fill:#FFFFFF;" d="M274.8,168.4h-40.4c-3.6,0-6.4,2.8-6.4,6.4V310c0,3.6,2.8,6.4,6.4,6.4h40.4h40.4
	c3.6,0,6.4-2.8,6.4-6.4V174.8c0-3.6-2.8-6.4-6.4-6.4L274.8,168.4L274.8,168.4z"/>
<g>
	<rect x="234.4" y="174.8" style="fill:#84DBFF;" width="37.2" height="135.2"/>
	<rect x="278" y="174.8" style="fill:#84DBFF;" width="37.2" height="135.2"/>
</g>
<g>
	<rect x="234.4" y="174.8" style="fill:#54C0EB;" width="37.2" height="45.6"/>
	<rect x="278" y="174.8" style="fill:#54C0EB;" width="37.2" height="45.6"/>
</g>
<polygon style="fill:#FFFFFF;" points="382.4,225.6 346,225.6 346,168.4 371.2,168.4 "/>
<polygon style="fill:#84DBFF;" points="352.4,219.6 352.4,174.8 372.8,174.8 381.6,219.6 "/>
<path style="fill:#E6E9EE;" d="M450,264.4c-2-0.8-4-1.6-6.4-1.6v32c2.4,0,4.4-0.8,6.4-1.6c1.2-0.8,2-2,2-3.2v-22.4
	C452,266,451.2,264.8,450,264.4z"/>
<path style="fill:#FF7058;" d="M443.6,322h4.8c2,0,3.6-1.6,3.6-3.6v-12c0-2-1.6-3.6-3.6-3.6h-4.8V322z"/>
<path style="fill:#E6E9EE;" d="M58,320.4c2,0.8,4,1.6,6.4,1.6v-32c-2.4,0-4.4,0.8-6.4,1.6c-1.2,0.8-2,2-2,3.2v22.4
	C56,318.4,56.8,319.6,58,320.4z"/>
<path style="fill:#FF7058;" d="M64.4,262.8h-4.8c-2,0-3.6,1.6-3.6,3.6v12c0,2,1.6,3.6,3.6,3.6h4.8V262.8z"/>
<g>
</g>
<g>
</g>
<g>
</g>
<g>
</g>
<g>
</g>
<g>
</g>
<g>
</g>
<g>
</g>
<g>
</g>
<g>
</g>
<g>
</g>
<g>
</g>
<g>
</g>
<g>
</g>
<g>
</g>
</svg>
