<?xml version="1.0" encoding="iso-8859-1"?>
<!-- Generator: Adobe Illustrator 19.0.0, SVG Export Plug-In . SVG Version: 6.00 Build 0)  -->
<svg version="1.1" id="Layer_1" xmlns="http://www.w3.org/2000/svg" xmlns:xlink="http://www.w3.org/1999/xlink" x="0px" y="0px"
	 viewBox="0 0 508 508" style="enable-background:new 0 0 508 508;" xml:space="preserve">
<circle style="fill:#90DFAA;" cx="254" cy="254" r="254"/>
<polygon style="fill:#F1543F;" points="445.6,221.6 62.4,221.6 81.2,150.4 426.8,150.4 "/>
<path style="fill:#2C9984;" d="M53.2,409.2C99.6,469.2,172.4,508,254,508s154.4-38.8,200.8-98.8H53.2z"/>
<rect x="81.2" y="221.6" style="fill:#E6E9EE;" width="345.6" height="187.6"/>
<path style="fill:#FFFFFF;" d="M330,180.8c-20.8-20.8-43.6-40-65.6-59.6c-1.6-1.2-2.4-2.8-3.2-4h-18.4c-1.2,3.2-3.2,5.6-6.8,7.2
	c-6.8,2.8-9.6,10.8-12.8,16.4c-3.6,6.4-8,12.4-13.6,17.2c-9.6,9.2-21.6,15.2-32,23.2v228h153.2v-228
	C330.8,181.2,330.4,180.8,330,180.8z"/>
<rect x="81.2" y="390.8" style="fill:#2B3B4E;" width="345.6" height="18.4"/>
<rect x="177.6" y="390.8" style="fill:#324A5E;" width="153.2" height="18.4"/>
<polygon style="fill:#FF7058;" points="177.6,200.8 254,124.4 330.4,200.8 355.2,200.8 254,99.6 152.8,200.8 "/>
<g>
	<rect x="195.2" y="216.8" style="fill:#84DBFF;" width="33.2" height="33.2"/>
	<rect x="237.6" y="216.8" style="fill:#84DBFF;" width="33.2" height="33.2"/>
	<rect x="279.6" y="216.8" style="fill:#84DBFF;" width="33.2" height="33.2"/>
</g>
<rect x="222.8" y="318" style="fill:#FFD05B;" width="55.6" height="72.8"/>
<g>
	<rect x="341.2" y="249.2" style="fill:#84DBFF;" width="30.4" height="30.4"/>
	<rect x="380" y="249.2" style="fill:#84DBFF;" width="30.4" height="30.4"/>
	<rect x="341.2" y="287.6" style="fill:#84DBFF;" width="30.4" height="30.4"/>
	<rect x="380" y="287.6" style="fill:#84DBFF;" width="30.4" height="30.4"/>
	<rect x="97.6" y="249.2" style="fill:#84DBFF;" width="30.4" height="30.4"/>
	<rect x="136.4" y="249.2" style="fill:#84DBFF;" width="30.4" height="30.4"/>
	<rect x="97.6" y="287.6" style="fill:#84DBFF;" width="30.4" height="30.4"/>
	<rect x="136.4" y="287.6" style="fill:#84DBFF;" width="30.4" height="30.4"/>
</g>
<circle style="fill:#324A5E;" cx="254" cy="178.4" r="22.8"/>
<circle style="fill:#E6E9EE;" cx="254" cy="178.4" r="17.6"/>
<g>
	<rect x="253.6" y="162.8" style="fill:#ACB3BA;" width="1.2" height="2"/>
	<rect x="253.6" y="192.4" style="fill:#ACB3BA;" width="1.2" height="2"/>
	<rect x="267.6" y="178" style="fill:#ACB3BA;" width="2" height="1.2"/>
	<rect x="238.4" y="178" style="fill:#ACB3BA;" width="2" height="1.2"/>
	
		<rect x="263.904" y="167.301" transform="matrix(-0.7071 -0.7071 0.7071 -0.7071 332.5304 474.3411)" style="fill:#ACB3BA;" width="1.2" height="2"/>
	
		<rect x="243.124" y="188.134" transform="matrix(-0.7073 -0.7069 0.7069 -0.7073 282.412 495.2007)" style="fill:#ACB3BA;" width="1.2" height="2"/>
	
		<rect x="263.696" y="188.069" transform="matrix(0.7073 -0.7069 0.7069 0.7073 -56.2967 242.1719)" style="fill:#ACB3BA;" width="1.2" height="2"/>
	
		<rect x="242.791" y="167.254" transform="matrix(0.7073 -0.7069 0.7069 0.7073 -47.7006 221.3016)" style="fill:#ACB3BA;" width="1.2" height="2"/>
</g>
<g>
</g>
<g>
</g>
<g>
</g>
<g>
</g>
<g>
</g>
<g>
</g>
<g>
</g>
<g>
</g>
<g>
</g>
<g>
</g>
<g>
</g>
<g>
</g>
<g>
</g>
<g>
</g>
<g>
</g>
</svg>
