<?xml version="1.0" encoding="iso-8859-1"?>
<!-- Generator: Adobe Illustrator 19.0.0, SVG Export Plug-In . SVG Version: 6.00 Build 0)  -->
<svg version="1.1" id="Layer_1" xmlns="http://www.w3.org/2000/svg" xmlns:xlink="http://www.w3.org/1999/xlink" x="0px" y="0px"
	 viewBox="0 0 508 508" style="enable-background:new 0 0 508 508;" xml:space="preserve">
<circle style="fill:#324A5E;" cx="254" cy="254" r="254"/>
<path style="fill:#2B3B4E;" d="M40.4,391.2C85.6,461.2,164.4,508,254,508s168.4-46.4,213.6-116.8H40.4z"/>
<polygon style="fill:#FF7058;" points="403.6,137.6 104.4,137.6 118.4,100.8 389.6,100.8 "/>
<rect x="115.6" y="137.6" style="fill:#FFD05B;" width="276.8" height="92.8"/>
<path style="fill:#FFFFFF;" d="M355.2,176.8v-21.6c0-0.8,0.4-1.2,1.2-1.2H378c0.8,0,1.2,0.4,1.2,1.2v21.6c0,0.8-0.4,1.2-1.2,1.2
	h-21.6C355.6,178,355.2,177.2,355.2,176.8z"/>
<g>
	<rect x="357.2" y="156" style="fill:#84DBFF;" width="8.8" height="8.8"/>
	<rect x="357.2" y="166.8" style="fill:#84DBFF;" width="8.8" height="8.8"/>
	<rect x="368.4" y="156" style="fill:#84DBFF;" width="8.8" height="8.8"/>
	<rect x="368.4" y="166.8" style="fill:#84DBFF;" width="8.8" height="8.8"/>
</g>
<path style="fill:#FFFFFF;" d="M310,176.8v-21.6c0-0.8,0.4-1.2,1.2-1.2h21.6c0.8,0,1.2,0.4,1.2,1.2v21.6c0,0.8-0.4,1.2-1.2,1.2
	h-21.6C310.4,178,310,177.2,310,176.8z"/>
<g>
	<rect x="312" y="156" style="fill:#84DBFF;" width="8.8" height="8.8"/>
	<rect x="312" y="166.8" style="fill:#84DBFF;" width="8.8" height="8.8"/>
	<rect x="322.8" y="156" style="fill:#84DBFF;" width="8.8" height="8.8"/>
	<rect x="322.8" y="166.8" style="fill:#84DBFF;" width="8.8" height="8.8"/>
</g>
<path style="fill:#FFFFFF;" d="M174,176.8v-21.6c0-0.8,0.4-1.2,1.2-1.2h21.6c0.8,0,1.2,0.4,1.2,1.2v21.6c0,0.8-0.4,1.2-1.2,1.2
	h-21.6C174.4,178,174,177.2,174,176.8z"/>
<g>
	<rect x="176" y="156" style="fill:#84DBFF;" width="8.8" height="8.8"/>
	<rect x="176" y="166.8" style="fill:#84DBFF;" width="8.8" height="8.8"/>
	<rect x="187.2" y="156" style="fill:#84DBFF;" width="8.8" height="8.8"/>
	<rect x="187.2" y="166.8" style="fill:#84DBFF;" width="8.8" height="8.8"/>
</g>
<path style="fill:#FFFFFF;" d="M128.8,176.8v-21.6c0-0.8,0.4-1.2,1.2-1.2h21.6c0.8,0,1.2,0.4,1.2,1.2v21.6c0,0.8-0.4,1.2-1.2,1.2
	H130C129.2,178,128.8,177.2,128.8,176.8z"/>
<g>
	<rect x="130.8" y="156" style="fill:#84DBFF;" width="8.8" height="8.8"/>
	<rect x="130.8" y="166.8" style="fill:#84DBFF;" width="8.8" height="8.8"/>
	<rect x="141.6" y="156" style="fill:#84DBFF;" width="8.8" height="8.8"/>
	<rect x="141.6" y="166.8" style="fill:#84DBFF;" width="8.8" height="8.8"/>
</g>
<path style="fill:#FFFFFF;" d="M264.8,176.8v-21.6c0-0.8,0.4-1.2,1.2-1.2h21.6c0.8,0,1.2,0.4,1.2,1.2v21.6c0,0.8-0.4,1.2-1.2,1.2
	H266C265.2,178,264.8,177.2,264.8,176.8z"/>
<g>
	<rect x="266.8" y="156" style="fill:#84DBFF;" width="8.8" height="8.8"/>
	<rect x="266.8" y="166.8" style="fill:#84DBFF;" width="8.8" height="8.8"/>
	<rect x="277.6" y="156" style="fill:#84DBFF;" width="8.8" height="8.8"/>
	<rect x="277.6" y="166.8" style="fill:#84DBFF;" width="8.8" height="8.8"/>
</g>
<path style="fill:#FFFFFF;" d="M219.2,176.8v-21.6c0-0.8,0.4-1.2,1.2-1.2H242c0.8,0,1.2,0.4,1.2,1.2v21.6c0,0.8-0.4,1.2-1.2,1.2
	h-21.6C220,178,219.2,177.2,219.2,176.8z"/>
<g>
	<rect x="221.2" y="156" style="fill:#84DBFF;" width="8.8" height="8.8"/>
	<rect x="221.2" y="166.8" style="fill:#84DBFF;" width="8.8" height="8.8"/>
	<rect x="232.4" y="156" style="fill:#84DBFF;" width="8.8" height="8.8"/>
	<rect x="232.4" y="166.8" style="fill:#84DBFF;" width="8.8" height="8.8"/>
</g>
<path style="fill:#FFFFFF;" d="M355.2,213.2v-21.6c0-0.8,0.4-1.2,1.2-1.2H378c0.8,0,1.2,0.4,1.2,1.2v21.6c0,0.8-0.4,1.2-1.2,1.2
	h-21.6C355.6,214.4,355.2,213.6,355.2,213.2z"/>
<g>
	<rect x="357.2" y="192.4" style="fill:#84DBFF;" width="8.8" height="8.8"/>
	<rect x="357.2" y="203.2" style="fill:#84DBFF;" width="8.8" height="8.8"/>
	<rect x="368.4" y="192.4" style="fill:#84DBFF;" width="8.8" height="8.8"/>
	<rect x="368.4" y="203.2" style="fill:#84DBFF;" width="8.8" height="8.8"/>
</g>
<path style="fill:#FFFFFF;" d="M310,213.2v-21.6c0-0.8,0.4-1.2,1.2-1.2h21.6c0.8,0,1.2,0.4,1.2,1.2v21.6c0,0.8-0.4,1.2-1.2,1.2
	h-21.6C310.4,214.4,310,213.6,310,213.2z"/>
<g>
	<rect x="312" y="192.4" style="fill:#84DBFF;" width="8.8" height="8.8"/>
	<rect x="312" y="203.2" style="fill:#84DBFF;" width="8.8" height="8.8"/>
	<rect x="322.8" y="192.4" style="fill:#84DBFF;" width="8.8" height="8.8"/>
	<rect x="322.8" y="203.2" style="fill:#84DBFF;" width="8.8" height="8.8"/>
</g>
<path style="fill:#FFFFFF;" d="M174,213.2v-21.6c0-0.8,0.4-1.2,1.2-1.2h21.6c0.8,0,1.2,0.4,1.2,1.2v21.6c0,0.8-0.4,1.2-1.2,1.2
	h-21.6C174.4,214.4,174,213.6,174,213.2z"/>
<g>
	<rect x="176" y="192.4" style="fill:#84DBFF;" width="8.8" height="8.8"/>
	<rect x="176" y="203.2" style="fill:#84DBFF;" width="8.8" height="8.8"/>
	<rect x="187.2" y="192.4" style="fill:#84DBFF;" width="8.8" height="8.8"/>
	<rect x="187.2" y="203.2" style="fill:#84DBFF;" width="8.8" height="8.8"/>
</g>
<path style="fill:#FFFFFF;" d="M128.8,213.2v-21.6c0-0.8,0.4-1.2,1.2-1.2h21.6c0.8,0,1.2,0.4,1.2,1.2v21.6c0,0.8-0.4,1.2-1.2,1.2
	H130C129.2,214.4,128.8,213.6,128.8,213.2z"/>
<g>
	<rect x="130.8" y="192.4" style="fill:#84DBFF;" width="8.8" height="8.8"/>
	<rect x="130.8" y="203.2" style="fill:#84DBFF;" width="8.8" height="8.8"/>
	<rect x="141.6" y="192.4" style="fill:#84DBFF;" width="8.8" height="8.8"/>
	<rect x="141.6" y="203.2" style="fill:#84DBFF;" width="8.8" height="8.8"/>
</g>
<path style="fill:#FFFFFF;" d="M264.8,213.2v-21.6c0-0.8,0.4-1.2,1.2-1.2h21.6c0.8,0,1.2,0.4,1.2,1.2v21.6c0,0.8-0.4,1.2-1.2,1.2
	H266C265.2,214.4,264.8,213.6,264.8,213.2z"/>
<g>
	<rect x="266.8" y="192.4" style="fill:#84DBFF;" width="8.8" height="8.8"/>
	<rect x="266.8" y="203.2" style="fill:#84DBFF;" width="8.8" height="8.8"/>
	<rect x="277.6" y="192.4" style="fill:#84DBFF;" width="8.8" height="8.8"/>
	<rect x="277.6" y="203.2" style="fill:#84DBFF;" width="8.8" height="8.8"/>
</g>
<path style="fill:#FFFFFF;" d="M219.2,213.2v-21.6c0-0.8,0.4-1.2,1.2-1.2H242c0.8,0,1.2,0.4,1.2,1.2v21.6c0,0.8-0.4,1.2-1.2,1.2
	h-21.6C220,214.4,219.2,213.6,219.2,213.2z"/>
<g>
	<rect x="221.2" y="192.4" style="fill:#84DBFF;" width="8.8" height="8.8"/>
	<rect x="221.2" y="203.2" style="fill:#84DBFF;" width="8.8" height="8.8"/>
	<rect x="232.4" y="192.4" style="fill:#84DBFF;" width="8.8" height="8.8"/>
	<rect x="232.4" y="203.2" style="fill:#84DBFF;" width="8.8" height="8.8"/>
</g>
<polygon style="fill:#FF7058;" points="439.6,276.4 68.4,276.4 85.6,230.4 422.4,230.4 "/>
<rect x="82.4" y="276.4" style="fill:#FFD05B;" width="343.6" height="115.2"/>
<rect x="82.4" y="378" style="fill:#F9B54C;" width="343.6" height="13.6"/>
<polygon style="fill:#FFD05B;" points="330,282.4 254,216.4 178,282.4 "/>
<path style="fill:#F1543F;" d="M186,278l68-58.8l68,58.8h6l-72.8-62.8c-0.8-0.8-2-0.8-2.4,0L180,278H186z"/>
<g>
	<path style="fill:#E6E9EE;" d="M322.8,378h-14v-3.2c0-2,1.6-3.2,3.2-3.2h7.6c2,0,3.2,1.6,3.2,3.2L322.8,378L322.8,378z"/>
	<path style="fill:#E6E9EE;" d="M320,289.2h-8.4c-1.6,0-2.8-1.2-2.8-2.8v-3.6h14v3.2C322.8,287.6,321.6,289.2,320,289.2z"/>
</g>
<rect x="311.2" y="289.2" style="fill:#FFFFFF;" width="9.2" height="82.4"/>
<g>
	<path style="fill:#E6E9EE;" d="M294.4,378h-14v-3.2c0-2,1.6-3.2,3.2-3.2h7.6c2,0,3.2,1.6,3.2,3.2L294.4,378L294.4,378z"/>
	<path style="fill:#E6E9EE;" d="M291.2,289.2h-8.4c-1.6,0-2.8-1.2-2.8-2.8v-3.6h14v3.2C294.4,287.6,292.8,289.2,291.2,289.2z"/>
</g>
<rect x="282.8" y="289.2" style="fill:#FFFFFF;" width="9.2" height="82.4"/>
<g>
	<path style="fill:#E6E9EE;" d="M228,378h-14v-3.2c0-2,1.6-3.2,3.2-3.2h7.6c2,0,3.2,1.6,3.2,3.2V378z"/>
	<path style="fill:#E6E9EE;" d="M224.8,289.2h-8.4c-1.6,0-2.8-1.2-2.8-2.8v-3.6h14v3.2C228,287.6,226.4,289.2,224.8,289.2z"/>
</g>
<rect x="216.4" y="289.2" style="fill:#FFFFFF;" width="9.2" height="82.4"/>
<g>
	<path style="fill:#E6E9EE;" d="M199.2,378h-14v-3.2c0-2,1.6-3.2,3.2-3.2h7.6c2,0,3.2,1.6,3.2,3.2V378z"/>
	<path style="fill:#E6E9EE;" d="M196.4,289.2H188c-1.6,0-2.8-1.2-2.8-2.8v-3.6h14v3.2C199.2,287.6,198,289.2,196.4,289.2z"/>
</g>
<g>
	<rect x="187.6" y="289.2" style="fill:#FFFFFF;" width="9.2" height="82.4"/>
	<path style="fill:#FFFFFF;" d="M379.6,313.2V286c0-0.8,0.8-1.2,1.2-1.2H408c0.8,0,1.2,0.8,1.2,1.2v27.2c0,0.8-0.8,1.2-1.2,1.2
		h-27.2C380.4,314.4,379.6,314,379.6,313.2z"/>
</g>
<g>
	<rect x="382.4" y="287.2" style="fill:#84DBFF;" width="11.2" height="11.2"/>
	<rect x="382.4" y="300.8" style="fill:#84DBFF;" width="11.2" height="11.2"/>
	<rect x="396" y="287.2" style="fill:#84DBFF;" width="11.2" height="11.2"/>
	<rect x="396" y="300.8" style="fill:#84DBFF;" width="11.2" height="11.2"/>
</g>
<path style="fill:#FFFFFF;" d="M336.8,313.2V286c0-0.8,0.8-1.2,1.2-1.2h27.2c0.8,0,1.2,0.8,1.2,1.2v27.2c0,0.8-0.8,1.2-1.2,1.2H338
	C337.2,314.4,336.8,314,336.8,313.2z"/>
<g>
	<rect x="339.2" y="287.2" style="fill:#84DBFF;" width="11.2" height="11.2"/>
	<rect x="339.2" y="300.8" style="fill:#84DBFF;" width="11.2" height="11.2"/>
	<rect x="352.8" y="287.2" style="fill:#84DBFF;" width="11.2" height="11.2"/>
	<rect x="352.8" y="300.8" style="fill:#84DBFF;" width="11.2" height="11.2"/>
</g>
<path style="fill:#FFFFFF;" d="M379.6,358.4v-27.2c0-0.8,0.8-1.2,1.2-1.2H408c0.8,0,1.2,0.8,1.2,1.2v27.2c0,0.8-0.8,1.2-1.2,1.2
	h-27.2C380.4,359.6,379.6,359.2,379.6,358.4z"/>
<g>
	<rect x="382.4" y="332.4" style="fill:#84DBFF;" width="11.2" height="11.2"/>
	<rect x="382.4" y="346" style="fill:#84DBFF;" width="11.2" height="11.2"/>
	<rect x="396" y="332.4" style="fill:#84DBFF;" width="11.2" height="11.2"/>
	<rect x="396" y="346" style="fill:#84DBFF;" width="11.2" height="11.2"/>
</g>
<path style="fill:#FFFFFF;" d="M336.8,358.4v-27.2c0-0.8,0.8-1.2,1.2-1.2h27.2c0.8,0,1.2,0.8,1.2,1.2v27.2c0,0.8-0.8,1.2-1.2,1.2
	H338C337.2,359.6,336.8,359.2,336.8,358.4z"/>
<g>
	<rect x="339.2" y="332.4" style="fill:#84DBFF;" width="11.2" height="11.2"/>
	<rect x="339.2" y="346" style="fill:#84DBFF;" width="11.2" height="11.2"/>
	<rect x="352.8" y="332.4" style="fill:#84DBFF;" width="11.2" height="11.2"/>
	<rect x="352.8" y="346" style="fill:#84DBFF;" width="11.2" height="11.2"/>
</g>
<path style="fill:#FFFFFF;" d="M141.6,313.2V286c0-0.8,0.8-1.2,1.2-1.2H170c0.8,0,1.2,0.8,1.2,1.2v27.2c0,0.8-0.8,1.2-1.2,1.2h-27.2
	C142,314.4,141.6,314,141.6,313.2z"/>
<g>
	<rect x="144" y="287.2" style="fill:#84DBFF;" width="11.2" height="11.2"/>
	<rect x="144" y="300.8" style="fill:#84DBFF;" width="11.2" height="11.2"/>
	<rect x="157.6" y="287.2" style="fill:#84DBFF;" width="11.2" height="11.2"/>
	<rect x="157.6" y="300.8" style="fill:#84DBFF;" width="11.2" height="11.2"/>
</g>
<path style="fill:#FFFFFF;" d="M98.4,313.2V286c0-0.8,0.8-1.2,1.2-1.2h27.2c0.8,0,1.2,0.8,1.2,1.2v27.2c0,0.8-0.8,1.2-1.2,1.2H99.6
	C99.2,314.4,98.4,314,98.4,313.2z"/>
<g>
	<rect x="101.2" y="287.2" style="fill:#84DBFF;" width="11.2" height="11.2"/>
	<rect x="101.2" y="300.8" style="fill:#84DBFF;" width="11.2" height="11.2"/>
	<rect x="114.8" y="287.2" style="fill:#84DBFF;" width="11.2" height="11.2"/>
	<rect x="114.8" y="300.8" style="fill:#84DBFF;" width="11.2" height="11.2"/>
</g>
<path style="fill:#FFFFFF;" d="M141.6,358.4v-27.2c0-0.8,0.8-1.2,1.2-1.2H170c0.8,0,1.2,0.8,1.2,1.2v27.2c0,0.8-0.8,1.2-1.2,1.2
	h-27.2C142,359.6,141.6,359.2,141.6,358.4z"/>
<g>
	<rect x="144" y="332.4" style="fill:#84DBFF;" width="11.2" height="11.2"/>
	<rect x="144" y="346" style="fill:#84DBFF;" width="11.2" height="11.2"/>
	<rect x="157.6" y="332.4" style="fill:#84DBFF;" width="11.2" height="11.2"/>
	<rect x="157.6" y="346" style="fill:#84DBFF;" width="11.2" height="11.2"/>
</g>
<path style="fill:#FFFFFF;" d="M98.4,358.4v-27.2c0-0.8,0.8-1.2,1.2-1.2h27.2c0.8,0,1.2,0.8,1.2,1.2v27.2c0,0.8-0.8,1.2-1.2,1.2
	H99.6C99.2,359.6,98.4,359.2,98.4,358.4z"/>
<g>
	<rect x="101.2" y="332.4" style="fill:#84DBFF;" width="11.2" height="11.2"/>
	<rect x="101.2" y="346" style="fill:#84DBFF;" width="11.2" height="11.2"/>
	<rect x="114.8" y="332.4" style="fill:#84DBFF;" width="11.2" height="11.2"/>
	<rect x="114.8" y="346" style="fill:#84DBFF;" width="11.2" height="11.2"/>
</g>
<rect x="244.4" y="350" style="fill:#324A5E;" width="19.2" height="28"/>
<g>
	<polygon style="fill:#FFFFFF;" points="267.2,378 240.8,378 212.8,391.6 295.2,391.6 	"/>
	<path style="fill:#FFFFFF;" d="M327.2,282.4H180.8c-1.6,0-2.8-1.2-2.8-2.8l0,0c0-1.6,1.2-2.8,2.8-2.8h146.4c1.6,0,2.8,1.2,2.8,2.8
		l0,0C330,281.2,328.8,282.4,327.2,282.4z"/>
</g>
<g>
</g>
<g>
</g>
<g>
</g>
<g>
</g>
<g>
</g>
<g>
</g>
<g>
</g>
<g>
</g>
<g>
</g>
<g>
</g>
<g>
</g>
<g>
</g>
<g>
</g>
<g>
</g>
<g>
</g>
</svg>
