<?xml version="1.0" encoding="iso-8859-1"?>
<!-- Generator: Adobe Illustrator 19.0.0, SVG Export Plug-In . SVG Version: 6.00 Build 0)  -->
<svg version="1.1" id="Layer_1" xmlns="http://www.w3.org/2000/svg" xmlns:xlink="http://www.w3.org/1999/xlink" x="0px" y="0px"
	 viewBox="0 0 508 508" style="enable-background:new 0 0 508 508;" xml:space="preserve">
<circle style="fill:#84DBFF;" cx="254" cy="254" r="254"/>
<path style="fill:#54C0EB;" d="M50.8,406.4C97.2,468,170.8,508,254,508s156.8-40,203.2-101.6H50.8z"/>
<rect x="369.794" y="207.129" transform="matrix(-0.7998 0.6003 -0.6003 -0.7998 820.004 146.3598)" style="fill:#2B3B4E;" width="31.601" height="5.6"/>
<path style="fill:#324A5E;" d="M414.4,216.8h-15.6c-3.2,0-5.6-2.4-5.6-5.6v-44.4c0-3.2,2.4-5.6,5.6-5.6h15.6c3.2,0,5.6,2.4,5.6,5.6
	v44.4C420,214.4,417.6,216.8,414.4,216.8z"/>
<rect x="106.228" y="207.618" transform="matrix(0.7998 0.6002 -0.6002 0.7998 150.7236 -31.1249)" style="fill:#2B3B4E;" width="31.599" height="5.6"/>
<path style="fill:#324A5E;" d="M93.6,216.8h15.6c3.2,0,5.6-2.4,5.6-5.6v-44.4c0-3.2-2.4-5.6-5.6-5.6H93.6c-3.2,0-5.6,2.4-5.6,5.6
	v44.4C88,214.4,90.4,216.8,93.6,216.8z"/>
<path style="fill:#FFD05B;" d="M408,340.4H100v-86c0-10.8,8.8-19.2,19.2-19.2h269.6c10.8,0,19.2,8.8,19.2,19.2V340.4z"/>
<path style="fill:#F9B54C;" d="M378.4,235.2H129.6V118c0-8.8,6.8-15.6,15.6-15.6h218c8.8,0,15.6,6.8,15.6,15.6v117.2H378.4z"/>
<path style="fill:#324A5E;" d="M378.4,133.2V118c0-8.4-6.8-15.6-15.6-15.6h-218c-8.4,0-15.6,6.8-15.6,15.6v15.2H378.4z"/>
<path style="fill:#FFFFFF;" d="M140,160v74.8h228.4V160c0-8.8-7.2-16.4-16.4-16.4H156C147.2,143.6,140,151.2,140,160z"/>
<g>
	<path style="fill:#2B3B4E;" d="M390.8,365.2h-48.4v32.4c0,4.4,3.6,8,8,8h32.8c4.4,0,8-3.6,8-8v-32.4H390.8z"/>
	<path style="fill:#2B3B4E;" d="M165.6,365.2h-48.4v32.4c0,4.4,3.6,8,8,8H158c4.4,0,8-3.6,8-8v-32.4H165.6z"/>
</g>
<g>
	<path style="fill:#FFFFFF;" d="M84.8,340v25.6c0,2,1.6,4,4,4h330.4c2,0,4-1.6,4-4V340c0-2-1.6-4-4-4H88.8
		C86.4,336,84.8,337.6,84.8,340z"/>
	<circle style="fill:#FFFFFF;" cx="373.2" cy="287.6" r="21.2"/>
	<circle style="fill:#FFFFFF;" cx="134.8" cy="287.6" r="21.2"/>
</g>
<path style="fill:#F9B54C;" d="M308.8,319.6H199.2c-3.6,0-6.4-2.8-6.4-6.4v-42.8c0-3.6,2.8-6.4,6.4-6.4h109.2c3.6,0,6.4,2.8,6.4,6.4
	v42.8C314.8,316.8,312,319.6,308.8,319.6z"/>
<g>
	<path style="fill:#324A5E;" d="M203.6,314L203.6,314c-2,0-4-1.6-4-4v-36c0-2,1.6-4,4-4l0,0c2,0,4,1.6,4,4v36
		C207.2,312.4,205.6,314,203.6,314z"/>
	<path style="fill:#324A5E;" d="M220.4,314L220.4,314c-2,0-4-1.6-4-4v-36c0-2,1.6-4,4-4l0,0c2,0,4,1.6,4,4v36
		C224.4,312.4,222.4,314,220.4,314z"/>
	<path style="fill:#324A5E;" d="M237.2,314L237.2,314c-2,0-4-1.6-4-4v-36c0-2,1.6-4,4-4l0,0c2,0,4,1.6,4,4v36
		C241.2,312.4,239.2,314,237.2,314z"/>
	<path style="fill:#324A5E;" d="M254,314L254,314c-2,0-4-1.6-4-4v-36c0-2,1.6-4,4-4l0,0c2,0,4,1.6,4,4v36C258,312.4,256,314,254,314
		z"/>
	<path style="fill:#324A5E;" d="M270.8,314L270.8,314c-2,0-4-1.6-4-4v-36c0-2,1.6-4,4-4l0,0c2,0,4,1.6,4,4v36
		C274.8,312.4,273.2,314,270.8,314z"/>
	<path style="fill:#324A5E;" d="M287.6,314L287.6,314c-2,0-4-1.6-4-4v-36c0-2,1.6-4,4-4l0,0c2,0,4,1.6,4,4v36
		C291.6,312.4,290,314,287.6,314z"/>
	<path style="fill:#324A5E;" d="M304.4,314L304.4,314c-2,0-4-1.6-4-4v-36c0-2,1.6-4,4-4l0,0c2,0,4,1.6,4,4v36
		C308.4,312.4,306.8,314,304.4,314z"/>
</g>
<rect x="179.6" y="106.4" style="fill:#FFFFFF;" width="149.2" height="22"/>
<g>
	<path style="fill:#84DBFF;" d="M206.8,113.2c-0.4,0.4-0.4,0.4-0.4,0.8s0,0.8,0.4,0.8c0.4,0.4,1.2,0.4,2.4,0.8s2.4,0.8,2.8,1.6
		c0.8,0.8,1.2,1.6,1.2,2.8c0,1.2-0.4,2.4-1.2,2.8c-0.8,0.8-2,1.2-3.6,1.2c-2,0-4-0.8-5.6-2.4l2-2.4c1.6,1.2,2.8,2,4,2
		c0.4,0,0.8,0,1.2-0.4s0.4-0.4,0.4-0.8s0-0.8-0.4-0.8c-0.4-0.4-1.2-0.4-2-0.8c-1.6-0.4-2.8-0.8-3.6-1.6c-0.8-0.8-1.2-1.6-1.2-2.8
		c0-1.2,0.4-2.4,1.2-2.8c0.8-0.8,2-1.2,3.6-1.2c0.8,0,2,0,2.8,0.4s1.6,0.8,2.4,1.2l-1.6,2.4c-1.2-0.8-2.4-1.2-3.6-1.2
		C207.6,112.8,207.2,113.2,206.8,113.2z"/>
	<path style="fill:#84DBFF;" d="M226,121.6c1.6,0,2.8-0.4,3.6-1.6l2,2c-1.6,1.6-3.2,2.4-5.6,2.4c-2,0-4-0.8-5.2-2s-2-2.8-2-4.8
		s0.8-3.6,2-5.2c1.2-1.2,3.2-2,5.2-2c2.4,0,4,0.8,5.6,2.4l-1.6,2c-0.8-1.2-2-1.6-3.6-1.6c-1.2,0-2,0.4-2.8,1.2
		c-0.8,0.8-1.2,1.6-1.2,3.2c0,1.2,0.4,2.4,1.2,3.2C224,121.2,225.2,121.6,226,121.6z"/>
	<path style="fill:#84DBFF;" d="M246.4,110.8h3.2v13.6h-3.2v-5.2h-5.2v5.2H238v-13.6h3.2v5.6h5.2V110.8z"/>
	<path style="fill:#84DBFF;" d="M268,122.4c-1.2,1.2-3.2,2-5.2,2s-3.6-0.8-5.2-2c-1.2-1.2-2-3.2-2-4.8c0-2,0.8-3.6,2-4.8
		c1.2-1.2,3.2-2,5.2-2s3.6,0.8,5.2,2c1.2,1.2,2,3.2,2,4.8C270,119.2,269.6,120.8,268,122.4z M267.2,117.2c0-1.2-0.4-2.4-1.2-3.2
		c-0.8-0.8-1.6-1.2-2.8-1.2c-1.2,0-2,0.4-2.8,1.2c-0.8,0.8-1.2,2-1.2,3.2s0.4,2.4,1.2,3.2c0.8,0.8,1.6,1.2,2.8,1.2
		c1.2,0,2-0.4,2.8-1.2S267.2,118.4,267.2,117.2z"/>
	<path style="fill:#84DBFF;" d="M288,122.4c-1.2,1.2-3.2,2-5.2,2s-3.6-0.8-5.2-2c-1.2-1.2-2-3.2-2-4.8c0-2,0.8-3.6,2-4.8
		c1.2-1.2,3.2-2,5.2-2s3.6,0.8,5.2,2c1.2,1.2,2,3.2,2,4.8C290,119.2,289.2,120.8,288,122.4z M286.8,117.2c0-1.2-0.4-2.4-1.2-3.2
		c-0.8-0.8-1.6-1.2-2.8-1.2c-1.2,0-2,0.4-2.8,1.2c-0.8,0.8-1.2,2-1.2,3.2s0.4,2.4,1.2,3.2c0.8,0.8,1.6,1.2,2.8,1.2
		c1.2,0,2-0.4,2.8-1.2C286.4,119.6,286.8,118.4,286.8,117.2z"/>
	<path style="fill:#84DBFF;" d="M296.4,124v-13.6h3.2v10.8h5.6v2.8C305.2,124,296.4,124,296.4,124z"/>
</g>
<circle style="fill:#FF7058;" cx="353.6" cy="117.6" r="11.6"/>
<ellipse transform="matrix(-0.7071 -0.7071 0.7071 -0.7071 514.7347 438.0246)" style="fill:#FFFFFF;" cx="348.085" cy="112.407" rx="1.2" ry="3.6"/>
<circle style="fill:#FF7058;" cx="154.4" cy="117.6" r="11.6"/>
<ellipse transform="matrix(-0.7071 -0.7071 0.7071 -0.7071 174.0026 296.9231)" style="fill:#FFFFFF;" cx="148.496" cy="112.424" rx="1.2" ry="3.6"/>
<g>
</g>
<g>
</g>
<g>
</g>
<g>
</g>
<g>
</g>
<g>
</g>
<g>
</g>
<g>
</g>
<g>
</g>
<g>
</g>
<g>
</g>
<g>
</g>
<g>
</g>
<g>
</g>
<g>
</g>
</svg>
