<?xml version="1.0" encoding="iso-8859-1"?>
<!-- Generator: Adobe Illustrator 19.0.0, SVG Export Plug-In . SVG Version: 6.00 Build 0)  -->
<svg version="1.1" id="Layer_1" xmlns="http://www.w3.org/2000/svg" xmlns:xlink="http://www.w3.org/1999/xlink" x="0px" y="0px"
	 viewBox="0 0 508 508" style="enable-background:new 0 0 508 508;" xml:space="preserve">
<circle style="fill:#FFD05B;" cx="254" cy="254" r="254"/>
<path style="fill:#E6E9EE;" d="M264.4,50.8c0,0,17.2,84.8,9.6,192.8h-29.6L264.4,50.8z"/>
<path style="fill:#FFFFFF;" d="M252.8,50.8c0,0-17.2,84.8-9.6,192.8h29.6L252.8,50.8z"/>
<path style="fill:#F1543F;" d="M252.8,318.4v116.8c0,2-0.4,3.6-1.2,5.6c-4.4,8.8-20.4,32-56,0c-26.8-24-18.4-65.6-8.4-93.2
	c5.6-15.2,14.4-29.2,26-40.8c11.6-11.6,26.4-27.2,25.2-32.4L258,310L252.8,318.4z"/>
<path style="fill:#FF7058;" d="M252.4,419.2v-66c0,0,22.8-17.6,6.4-39.2L238,274.8v-27.2c0-10.4,8.4-19.2,19.2-19.2h0.8
	c10.4,0,19.2,8.4,19.2,19.2v32.8l50,92.4c0,0,14,33.6-13.6,52.8C313.6,426.4,273.6,446.4,252.4,419.2z"/>
<g>
	<ellipse style="fill:#FFD05B;" cx="291.2" cy="386.8" rx="24.8" ry="32.8"/>
	<path style="fill:#FFD05B;" d="M232.8,442c2.8-2.4,4-5.2,4-8.4l0,0v-1.2c0-3.2-1.6-6.4-3.6-9.6c-0.4-0.4-0.8-0.8-0.8-1.2
		c-8.8-29.6-2.8-62,1.6-77.6c2-2.8,2.8-5.6,3.2-8.8V334l0,0c0-3.2-1.6-6-4-8.4c-5.6-4.8-17.2-2.4-23.6,6c-24,31.6-24,72.4,0,104
		C215.6,444.4,227.6,446.8,232.8,442z"/>
</g>
<circle style="fill:#F1543F;" cx="258" cy="248.4" r="10"/>
<g>
</g>
<g>
</g>
<g>
</g>
<g>
</g>
<g>
</g>
<g>
</g>
<g>
</g>
<g>
</g>
<g>
</g>
<g>
</g>
<g>
</g>
<g>
</g>
<g>
</g>
<g>
</g>
<g>
</g>
</svg>
