<?xml version="1.0" encoding="iso-8859-1"?>
<!-- Generator: Adobe Illustrator 19.0.0, SVG Export Plug-In . SVG Version: 6.00 Build 0)  -->
<svg version="1.1" id="Layer_1" xmlns="http://www.w3.org/2000/svg" xmlns:xlink="http://www.w3.org/1999/xlink" x="0px" y="0px"
	 viewBox="0 0 508 508" style="enable-background:new 0 0 508 508;" xml:space="preserve">
<circle style="fill:#FD8469;" cx="254" cy="254" r="254"/>
<path style="fill:#F1543F;" d="M54.8,411.6C101.2,470.4,173.2,508,254,508s152.4-37.6,199.2-96.4H54.8z"/>
<polygon style="fill:#FFFFFF;" points="290.8,405.6 298,361.2 210,361.2 217.2,405.6 "/>
<polygon style="fill:#E6E9EE;" points="295.6,376.8 298,361.2 210,361.2 212.4,376.8 "/>
<path style="fill:#FFFFFF;" d="M404.8,367.2H103.2c-6.4,0-11.6-5.2-11.6-11.6V138.4c0-6.4,5.2-11.6,11.6-11.6h302
	c6.4,0,11.6,5.2,11.6,11.6v216.8C416.8,361.6,411.6,367.2,404.8,367.2z"/>
<rect x="112.8" y="148" style="fill:#84DBFF;" width="282.4" height="174.4"/>
<rect x="112.8" y="148" style="fill:#54C0EB;" width="282.4" height="4"/>
<g>
	<path style="fill:#E6E9EE;" d="M315.2,411.6H192.8v-6c0-6.4,5.2-11.2,11.2-11.2h99.6c6.4,0,11.2,5.2,11.2,11.2v6H315.2z"/>
	<circle style="fill:#E6E9EE;" cx="254" cy="342.8" r="12.8"/>
	<path style="fill:#E6E9EE;" d="M338,274.8H180c-3.2,0-6-2.8-6-6v-82.4c0-3.2,2.8-6,6-6h158c3.2,0,6,2.8,6,6v82.4
		C344,272,341.2,274.8,338,274.8z"/>
</g>
<g>
	<rect x="186.4" y="191.2" style="fill:#CED5E0;" width="145.2" height="6.8"/>
	<rect x="186.4" y="207.6" style="fill:#CED5E0;" width="145.2" height="6.8"/>
	<rect x="186.4" y="224.4" style="fill:#CED5E0;" width="145.2" height="6.8"/>
	<rect x="186.4" y="240.8" style="fill:#CED5E0;" width="145.2" height="6.8"/>
	<rect x="186.4" y="257.2" style="fill:#CED5E0;" width="82.4" height="6.8"/>
</g>
<polygon style="fill:#324A5E;" points="339.2,302.8 351.6,290.4 326.4,264.8 346.8,252.8 293.2,244 302,297.6 314,277.2 "/>
<g>
</g>
<g>
</g>
<g>
</g>
<g>
</g>
<g>
</g>
<g>
</g>
<g>
</g>
<g>
</g>
<g>
</g>
<g>
</g>
<g>
</g>
<g>
</g>
<g>
</g>
<g>
</g>
<g>
</g>
</svg>
