<?xml version="1.0" encoding="iso-8859-1"?>
<!-- Generator: Adobe Illustrator 19.0.0, SVG Export Plug-In . SVG Version: 6.00 Build 0)  -->
<svg version="1.1" id="Layer_1" xmlns="http://www.w3.org/2000/svg" xmlns:xlink="http://www.w3.org/1999/xlink" x="0px" y="0px"
	 viewBox="0 0 508 508" style="enable-background:new 0 0 508 508;" xml:space="preserve">
<circle style="fill:#324A5E;" cx="254" cy="254" r="254"/>
<rect x="220.4" y="356" style="fill:#E6E9EE;" width="67.6" height="43.6"/>
<g>
	<path style="fill:#CED5E0;" d="M310.8,399.6H197.2c-5.2,0-9.2,4.4-9.2,9.2l0,0c0,5.2,4.4,9.2,9.2,9.2h113.2c5.2,0,9.2-4.4,9.2-9.2
		l0,0C320,404,316,399.6,310.8,399.6z"/>
	<rect x="220.4" y="356" style="fill:#CED5E0;" width="67.6" height="22.4"/>
</g>
<path style="fill:#E6E9EE;" d="M403.6,367.2H104.4c-6,0-10.4-4.8-10.4-10.4V145.6c0-6,4.8-10.4,10.4-10.4H404
	c6,0,10.4,4.8,10.4,10.4v211.2C414.4,362.4,409.6,367.2,403.6,367.2z"/>
<rect x="113.6" y="154.8" style="fill:#54C0EB;" width="280.8" height="164.8"/>
<polygon style="fill:#FFFFFF;" points="332.4,89.6 150,89.6 150,319.6 358,319.6 358,115.2 332.4,115.2 "/>
<polygon style="fill:#CED5E0;" points="332.4,89.6 332.4,115.2 358,115.2 "/>
<g>
	<rect x="178" y="147.6" style="fill:#E6E9EE;" width="152" height="14.8"/>
	<rect x="178" y="180" style="fill:#E6E9EE;" width="152" height="14.8"/>
	<rect x="178" y="212" style="fill:#E6E9EE;" width="152" height="14.8"/>
	<rect x="178" y="244" style="fill:#E6E9EE;" width="152" height="14.8"/>
</g>
<circle style="fill:#CED5E0;" cx="254" cy="343.6" r="9.6"/>
<g>
</g>
<g>
</g>
<g>
</g>
<g>
</g>
<g>
</g>
<g>
</g>
<g>
</g>
<g>
</g>
<g>
</g>
<g>
</g>
<g>
</g>
<g>
</g>
<g>
</g>
<g>
</g>
<g>
</g>
</svg>
