<?xml version="1.0" encoding="iso-8859-1"?>
<!-- Generator: Adobe Illustrator 19.0.0, SVG Export Plug-In . SVG Version: 6.00 Build 0)  -->
<svg version="1.1" id="Layer_1" xmlns="http://www.w3.org/2000/svg" xmlns:xlink="http://www.w3.org/1999/xlink" x="0px" y="0px"
	 viewBox="0 0 508 508" style="enable-background:new 0 0 508 508;" xml:space="preserve">
<circle style="fill:#90DFAA;" cx="254" cy="254" r="254"/>
<path style="fill:#FFFFFF;" d="M109.2,386.4h257.6V128.8L109.2,386.4z M324.8,344H211.2l113.2-113.2L324.8,344z"/>
<g>
	<rect x="347.2" y="166" style="fill:#E6E9EE;" width="19.6" height="6.8"/>
	<rect x="347.2" y="188" style="fill:#E6E9EE;" width="19.6" height="6.8"/>
	<rect x="347.2" y="210" style="fill:#E6E9EE;" width="19.6" height="6.8"/>
	<rect x="347.2" y="232" style="fill:#E6E9EE;" width="19.6" height="6.8"/>
	<rect x="347.2" y="254" style="fill:#E6E9EE;" width="19.6" height="6.8"/>
	<rect x="347.2" y="276" style="fill:#E6E9EE;" width="19.6" height="6.8"/>
	<rect x="347.2" y="298" style="fill:#E6E9EE;" width="19.6" height="6.8"/>
	<rect x="347.2" y="320" style="fill:#E6E9EE;" width="19.6" height="6.8"/>
	<rect x="347.2" y="342" style="fill:#E6E9EE;" width="19.6" height="6.8"/>
	<rect x="322.4" y="366.8" style="fill:#E6E9EE;" width="6.8" height="19.6"/>
	<rect x="300.4" y="366.8" style="fill:#E6E9EE;" width="6.8" height="19.6"/>
	<rect x="278.4" y="366.8" style="fill:#E6E9EE;" width="6.8" height="19.6"/>
	<rect x="256.4" y="366.8" style="fill:#E6E9EE;" width="6.8" height="19.6"/>
	<rect x="234.4" y="366.8" style="fill:#E6E9EE;" width="6.8" height="19.6"/>
	<rect x="212.4" y="366.8" style="fill:#E6E9EE;" width="6.8" height="19.6"/>
	<rect x="190.4" y="366.8" style="fill:#E6E9EE;" width="6.8" height="19.6"/>
	<rect x="168.4" y="366.8" style="fill:#E6E9EE;" width="6.8" height="19.6"/>
	<rect x="146.4" y="366.8" style="fill:#E6E9EE;" width="6.8" height="19.6"/>
	
		<rect x="63.259" y="208.288" transform="matrix(0.7071 -0.7071 0.7071 0.7071 -101.9784 212.7787)" style="fill:#E6E9EE;" width="285.197" height="42.4"/>
</g>
<path style="fill:#FFFFFF;" d="M129.6,276.4c-82.4-82,40.8-205.2,122.8-123.2c10-10,20-20,30-30C160.4,1.6-22.4,184.4,99.6,306.4
	C109.6,296.4,119.6,286.4,129.6,276.4z"/>
<g>
	
		<rect x="292.162" y="145.511" transform="matrix(0.7071 -0.7071 0.7071 0.7071 -22.9014 255.3321)" style="fill:#CED5E0;" width="9.2" height="19.6"/>
	
		<rect x="271.522" y="166.489" transform="matrix(0.7071 -0.7071 0.7071 0.7071 -43.7807 246.8818)" style="fill:#CED5E0;" width="9.2" height="19.6"/>
	
		<rect x="250.882" y="186.898" transform="matrix(0.7071 -0.7071 0.7071 0.7071 -64.2571 238.2647)" style="fill:#CED5E0;" width="9.2" height="19.6"/>
	
		<rect x="230.242" y="207.314" transform="matrix(0.7071 -0.7071 0.7071 0.7071 -84.7391 229.6499)" style="fill:#CED5E0;" width="9.2" height="19.6"/>
	
		<rect x="209.602" y="228.313" transform="matrix(0.7071 -0.7071 0.7071 0.7071 -105.6325 221.2055)" style="fill:#CED5E0;" width="9.2" height="19.6"/>
	
		<rect x="188.962" y="248.697" transform="matrix(0.7071 -0.7071 0.7071 0.7071 -126.0919 212.5813)" style="fill:#CED5E0;" width="9.2" height="19.6"/>
	
		<rect x="168.322" y="269.687" transform="matrix(0.7071 -0.7071 0.7071 0.7071 -146.9796 204.1346)" style="fill:#CED5E0;" width="9.2" height="19.6"/>
	
		<rect x="147.682" y="290.112" transform="matrix(0.7071 -0.7071 0.7071 0.7071 -167.4674 195.5221)" style="fill:#CED5E0;" width="9.2" height="19.6"/>
	
		<rect x="127.042" y="310.497" transform="matrix(0.7071 -0.7071 0.7071 0.7071 -187.9268 186.898)" style="fill:#CED5E0;" width="9.2" height="19.6"/>
</g>
<rect x="380" y="161.2" style="fill:#324A5E;" width="24.8" height="203.6"/>
<polygon style="fill:#FFD05B;" points="404.8,161.2 392.4,128.8 380,161.2 "/>
<polygon style="fill:#324A5E;" points="397.2,141.2 392.4,128.8 387.6,141.2 "/>
<path style="fill:#FF7058;" d="M380,364.8v18.4c0,2,1.6,3.2,3.2,3.2h18.4c2,0,3.2-1.6,3.2-3.2v-18.4H380z"/>
<g>
</g>
<g>
</g>
<g>
</g>
<g>
</g>
<g>
</g>
<g>
</g>
<g>
</g>
<g>
</g>
<g>
</g>
<g>
</g>
<g>
</g>
<g>
</g>
<g>
</g>
<g>
</g>
<g>
</g>
</svg>
