<?xml version="1.0" encoding="iso-8859-1"?>
<!-- Generator: Adobe Illustrator 19.0.0, SVG Export Plug-In . SVG Version: 6.00 Build 0)  -->
<svg version="1.1" id="Layer_1" xmlns="http://www.w3.org/2000/svg" xmlns:xlink="http://www.w3.org/1999/xlink" x="0px" y="0px"
	 viewBox="0 0 508 508" style="enable-background:new 0 0 508 508;" xml:space="preserve">
<circle style="fill:#FD8469;" cx="254" cy="254" r="254"/>
<path style="fill:#FFD05B;" d="M300,335.6h-92v-194c0-25.6,20.8-76,46-76l0,0c25.6,0,46,50.4,46,76V335.6z"/>
<g>
	<path style="fill:#324A5E;" d="M360,335.6h-53.6V166c0-14.8,12-44.4,26.8-44.4l0,0c14.8,0,26.8,29.6,26.8,44.4
		C360,166,360,335.6,360,335.6z"/>
	<path style="fill:#324A5E;" d="M201.6,335.6H148V166c0-14.8,12-44.4,26.8-44.4l0,0c14.8,0,26.8,29.6,26.8,44.4V335.6z"/>
</g>
<path style="fill:#FF7058;" d="M291.2,413.2c0,8.4-14.8,29.2-14.8,29.2s-14.8-21.2-14.8-29.2c0-8.4,6.8-14.8,14.8-14.8
	C284.4,398.4,291.2,404.8,291.2,413.2z"/>
<path style="fill:#FFD05B;" d="M287.2,416c0,6-11.2,21.6-11.2,21.6S264.8,422,264.8,416s4.8-11.2,11.2-11.2
	C282.4,404.8,287.2,410,287.2,416z"/>
<path style="fill:#FF7058;" d="M246.8,413.2c0,8.4-14.8,29.2-14.8,29.2s-14.8-21.2-14.8-29.2c0-8.4,6.8-14.8,14.8-14.8
	S246.8,404.8,246.8,413.2z"/>
<path style="fill:#FFD05B;" d="M242.8,416c0,6-11.2,21.6-11.2,21.6S220.4,422,220.4,416s4.8-11.2,11.2-11.2S242.8,410,242.8,416z"/>
<g>
	<path style="fill:#E6E9EE;" d="M360.8,309.6c-32.8-17.2-56.8-40-65.6-66c-4.8-14-7.6-28.8-7.6-43.2v152.4h98.8V344
		C386.4,330,376.4,318,360.8,309.6z"/>
	<path style="fill:#E6E9EE;" d="M147.2,309.6c32.8-17.2,56.8-40,65.6-66c4.8-14,7.6-28.8,7.6-43.2v152.4h-98.8V344
		C121.6,330,131.6,318,147.2,309.6z"/>
	<path style="fill:#E6E9EE;" d="M292.4,188.4c-0.4-21.2-17.2-60-38.4-60l0,0c-20.8,0-38,38.8-38.4,60H292.4z"/>
</g>
<path style="fill:#FFFFFF;" d="M285.6,362.8h-63.2c-3.6,0-6.8-3.2-6.8-6.8V189.2c0-21.2,17.2-43.6,38.4-43.6l0,0
	c21.2,0,38.4,22.4,38.4,43.6V356C292.4,359.6,289.2,362.8,285.6,362.8z"/>
<g>
	<ellipse style="fill:#E6E9EE;" cx="254" cy="148" rx="21.2" ry="9.2"/>
	<path style="fill:#E6E9EE;" d="M291.2,390h-74.4c-4.4,0-7.6-4.4-6.4-8.8l4-14c0.8-2.8,3.6-4.8,6.4-4.8h66.8c2.8,0,5.6,2,6.4,4.8
		l4,14C299.2,385.6,296,390,291.2,390z"/>
</g>
<g>
	<polygon style="fill:#324A5E;" points="286,390 263.6,390 257.2,401.6 292.4,401.6 	"/>
	<polygon style="fill:#324A5E;" points="244.4,390 222,390 215.6,401.6 250.8,401.6 	"/>
</g>
<path style="fill:#84DBFF;" d="M284.8,208.4c-8.8-5.2-19.2-8-30.8-8c-11.6,0-22,3.2-30.8,8c4.8-15.6,16.8-26.8,30.8-26.8
	C268,181.6,279.6,192.8,284.8,208.4z"/>
<g>
</g>
<g>
</g>
<g>
</g>
<g>
</g>
<g>
</g>
<g>
</g>
<g>
</g>
<g>
</g>
<g>
</g>
<g>
</g>
<g>
</g>
<g>
</g>
<g>
</g>
<g>
</g>
<g>
</g>
</svg>
