<?xml version="1.0" encoding="iso-8859-1"?>
<!-- Generator: Adobe Illustrator 19.0.0, SVG Export Plug-In . SVG Version: 6.00 Build 0)  -->
<svg version="1.1" id="Layer_1" xmlns="http://www.w3.org/2000/svg" xmlns:xlink="http://www.w3.org/1999/xlink" x="0px" y="0px"
	 viewBox="0 0 508 508" style="enable-background:new 0 0 508 508;" xml:space="preserve">
<path style="fill:#FD8469;" d="M508,254c0,91.6-48.4,171.6-120.8,216.4c-9.6,6-20,11.6-30.4,16c-31.2,14-66,21.6-102.8,21.6
	s-71.2-7.6-102.4-21.6c-10.4-4.8-20.8-10-30.4-16C48.4,425.6,0,345.6,0,254C0,113.6,113.6,0,254,0S508,113.6,508,254z"/>
<path style="fill:#FFFFFF;" d="M408,213.6c3.6-5.6,5.6-12,5.6-19.2c0-20.4-16.4-36.8-36.8-36.8c-2,0-4,0-5.6,0.4
	c-7.6-30.8-35.6-54-68.8-54c-21.2,0-40,9.2-52.8,23.6C236,113.2,216.4,104,194.8,104c-41.6,0-75.2,33.6-75.2,75.2
	c0,10.8,2.4,21.2,6.8,30.8c-29.2,4-51.6,28.8-51.6,58.8c0,25.6,16.4,47.6,39.2,56c-0.4,14-20.4,49.2-41.2,59.6c0,0,50,19.2,96-28.4
	c10.8,10.8,25.6,17.2,42,17.2c18.4,0,35.2-8.4,46-21.6c10.8,13.2,27.6,21.6,46,21.6c30,0,54.8-22,58.8-50.8c8,3.6,16.4,6,26,6
	c32.8,0,59.6-26.8,59.6-59.6C446.4,243.6,430.4,222,408,213.6z"/>
<g>
	<path style="fill:#84DBFF;" d="M271.6,197.6c0,26.8-8,61.2-17.6,61.2c-10,0-17.6-34.4-17.6-61.2s8-35.6,17.6-35.6
		C264,162,271.6,170.8,271.6,197.6z"/>
	<circle style="fill:#84DBFF;" cx="254" cy="295.2" r="17.6"/>
</g>
<g>
</g>
<g>
</g>
<g>
</g>
<g>
</g>
<g>
</g>
<g>
</g>
<g>
</g>
<g>
</g>
<g>
</g>
<g>
</g>
<g>
</g>
<g>
</g>
<g>
</g>
<g>
</g>
<g>
</g>
</svg>
