<?xml version="1.0" encoding="iso-8859-1"?>
<!-- Generator: Adobe Illustrator 19.0.0, SVG Export Plug-In . SVG Version: 6.00 Build 0)  -->
<svg version="1.1" id="Layer_1" xmlns="http://www.w3.org/2000/svg" xmlns:xlink="http://www.w3.org/1999/xlink" x="0px" y="0px"
	 viewBox="0 0 508 508" style="enable-background:new 0 0 508 508;" xml:space="preserve">
<circle style="fill:#FD8469;" cx="254" cy="254" r="254"/>
<path style="fill:#324A5E;" d="M356,434.8H152c-15.2,0-27.2-12.4-27.2-27.2V100.4c0-15.2,12.4-27.2,27.2-27.2h203.6
	c15.2,0,27.2,12.4,27.2,27.2v306.8C383.2,422.4,370.8,434.8,356,434.8z"/>
<rect x="142.4" y="111.6" style="fill:#FFFFFF;" width="223.2" height="272.4"/>
<g>
	<circle style="fill:#ACB3BA;" cx="254" cy="408.4" r="14"/>
	<path style="fill:#ACB3BA;" d="M284.8,96.8h-40.4c-2.4,0-4.4-2-4.4-4.4l0,0c0-2.4,2-4.4,4.4-4.4h40.4c2.4,0,4.4,2,4.4,4.4l0,0
		C289.2,94.8,287.2,96.8,284.8,96.8z"/>
	<path style="fill:#ACB3BA;" d="M229.2,96.8h-6c-2.4,0-4.4-2-4.4-4.4l0,0c0-2.4,2-4.4,4.4-4.4h6c2.4,0,4.4,2,4.4,4.4l0,0
		C233.6,94.8,231.6,96.8,229.2,96.8z"/>
</g>
<rect x="310.022" y="279.69" transform="matrix(-0.7071 0.7071 -0.7071 -0.7071 755.6293 275.1875)" style="fill:#324A5E;" width="21.6" height="28.8"/>
<path style="fill:#54C0EB;" d="M210.8,183.6L210.8,183.6c-28.8,28.8-28.8,76,0,104.8l0,0c28.8,28.8,76,28.8,104.8,0l0,0
	c28.8-28.8,28.8-76,0-104.8l0,0C286.8,154.8,239.6,154.8,210.8,183.6z"/>
<path style="fill:#FFFFFF;" d="M320.8,236.4c0,0.8,0,1.6,0,2c0,5.6-1.2,11.6-3.2,16.8c-2.8,8-7.2,15.2-13.6,21.6l0,0
	c-11.2,11.6-26,17.2-40.8,17.2c-14.8,0-29.6-5.6-40.8-16.8l0,0c-6.4-6.4-10.8-13.6-13.6-21.6c-2-5.6-2.8-11.2-3.2-16.8
	c-0.4-7.2,0.8-14.8,3.2-22c2-6,5.2-11.6,9.6-16.8c1.2-1.6,2.4-2.8,3.6-4c11.2-11.2,26-16.8,40.8-16.8c14.8,0,29.6,5.6,40.8,16.8
	c1.2,1.2,2.8,2.8,3.6,4c4.4,5.2,7.6,10.8,9.6,16.8C319.6,222.8,320.8,229.6,320.8,236.4z"/>
<path style="fill:#FF7058;" d="M417.2,374l-16.4,16.4c-2.8,2.8-7.2,2.8-10,0L318.4,318c-2.8-2.8-2.8-7.2,0-10l16.4-16.4
	c2.8-2.8,7.2-2.8,10,0l72.4,72.4C420,366.8,420,371.2,417.2,374z"/>
<g>
</g>
<g>
</g>
<g>
</g>
<g>
</g>
<g>
</g>
<g>
</g>
<g>
</g>
<g>
</g>
<g>
</g>
<g>
</g>
<g>
</g>
<g>
</g>
<g>
</g>
<g>
</g>
<g>
</g>
</svg>
