<?xml version="1.0" encoding="iso-8859-1"?>
<!-- Generator: Adobe Illustrator 19.0.0, SVG Export Plug-In . SVG Version: 6.00 Build 0)  -->
<svg version="1.1" id="Layer_1" xmlns="http://www.w3.org/2000/svg" xmlns:xlink="http://www.w3.org/1999/xlink" x="0px" y="0px"
	 viewBox="0 0 508 508" style="enable-background:new 0 0 508 508;" xml:space="preserve">
<circle style="fill:#90DFAA;" cx="254" cy="254" r="254"/>
<path style="fill:#324A5E;" d="M406,343.2H102c-10,0-18-8-18-18v-204c0-10,8-18,18-18h304c10,0,18,8,18,18v204
	C423.6,335.2,415.6,343.2,406,343.2z"/>
<rect x="172" y="124" style="fill:#ACB3BA;" width="230.8" height="198.4"/>
<circle style="fill:#2B3B4E;" cx="131.2" cy="223.2" r="24"/>
<circle style="fill:#ACB3BA;" cx="131.2" cy="223.2" r="14"/>
<g>
	<path style="fill:#2B3B4E;" d="M144.8,147.6h-33.6c-2,0-4-1.6-4-4v-7.2c0-2,1.6-4,4-4h33.6c2,0,4,1.6,4,4v7.2
		C148.4,146,146.8,147.6,144.8,147.6z"/>
	<path style="fill:#2B3B4E;" d="M144.8,179.2h-33.6c-2,0-4-1.6-4-4V168c0-2,1.6-4,4-4h33.6c2,0,4,1.6,4,4v7.2
		C148.4,177.6,146.8,179.2,144.8,179.2z"/>
	<path style="fill:#2B3B4E;" d="M144.8,282.4h-33.6c-2,0-4-1.6-4-4v-7.2c0-2,1.6-4,4-4h33.6c2,0,4,1.6,4,4v7.2
		C148.4,280.4,146.8,282.4,144.8,282.4z"/>
	<path style="fill:#2B3B4E;" d="M144.8,313.6h-33.6c-2,0-4-1.6-4-4v-7.2c0-2,1.6-4,4-4h33.6c2,0,4,1.6,4,4v7.2
		C148.4,312,146.8,313.6,144.8,313.6z"/>
</g>
<rect x="205.6" y="357.6" style="fill:#324A5E;" width="177.6" height="22.8"/>
<g>
	<path style="fill:#2B3B4E;" d="M328.4,380.4h70.4c2.4,0,4.4-2,4.4-4.4v-14.4c0-2.4-2-4.4-4.4-4.4h-70.4V380.4z"/>
	<polygon style="fill:#2B3B4E;" points="205.6,357.6 183.6,368.8 205.6,380.4 	"/>
</g>
<path style="fill:#ACB3BA;" d="M250.4,368.8L250.4,368.8c0,1.6-1.2,3.2-3.2,3.2H222c-1.6,0-3.2-1.2-3.2-3.2l0,0
	c0-1.6,1.2-3.2,3.2-3.2h25.2C249.2,366,250.4,367.2,250.4,368.8z"/>
<circle style="fill:#324A5E;" cx="152.4" cy="380.4" r="24.8"/>
<circle style="fill:#2B3B4E;" cx="152.4" cy="380.4" r="15.2"/>
<g>
</g>
<g>
</g>
<g>
</g>
<g>
</g>
<g>
</g>
<g>
</g>
<g>
</g>
<g>
</g>
<g>
</g>
<g>
</g>
<g>
</g>
<g>
</g>
<g>
</g>
<g>
</g>
<g>
</g>
</svg>
