<?xml version="1.0" encoding="iso-8859-1"?>
<!-- Generator: Adobe Illustrator 19.0.0, SVG Export Plug-In . SVG Version: 6.00 Build 0)  -->
<svg version="1.1" id="Layer_1" xmlns="http://www.w3.org/2000/svg" xmlns:xlink="http://www.w3.org/1999/xlink" x="0px" y="0px"
	 viewBox="0 0 508 508" style="enable-background:new 0 0 508 508;" xml:space="preserve">
<circle style="fill:#90DFAA;" cx="254" cy="254" r="254"/>
<path style="fill:#FFFFFF;" d="M372,423.2H136c-12,0-21.6-9.6-21.6-21.6V106.4c0-12,9.6-21.6,21.6-21.6h236c12,0,21.6,9.6,21.6,21.6
	v295.2C393.6,413.2,384,423.2,372,423.2z"/>
<rect x="126.4" y="119.2" style="fill:#324A5E;" width="255.2" height="255.6"/>
<g>
	<circle style="fill:#E6E9EE;" cx="254" cy="396.8" r="12.8"/>
	<path style="fill:#E6E9EE;" d="M231.6,105.6H292c2,0,3.6-1.6,3.6-3.6l0,0c0-2-1.6-3.6-3.6-3.6h-60.4c-2,0-3.6,1.6-3.6,3.6l0,0
		C227.6,104,229.2,105.6,231.6,105.6z"/>
	<path style="fill:#E6E9EE;" d="M216,105.6h4c2,0,3.6-1.6,3.6-3.6l0,0c0-2-1.6-3.6-3.6-3.6h-4c-2,0-3.6,1.6-3.6,3.6l0,0
		C212.4,104,214,105.6,216,105.6z"/>
</g>
<g>
</g>
<g>
</g>
<g>
</g>
<g>
</g>
<g>
</g>
<g>
</g>
<g>
</g>
<g>
</g>
<g>
</g>
<g>
</g>
<g>
</g>
<g>
</g>
<g>
</g>
<g>
</g>
<g>
</g>
</svg>
