<?xml version="1.0" encoding="iso-8859-1"?>
<!-- Generator: Adobe Illustrator 19.0.0, SVG Export Plug-In . SVG Version: 6.00 Build 0)  -->
<svg version="1.1" id="Layer_1" xmlns="http://www.w3.org/2000/svg" xmlns:xlink="http://www.w3.org/1999/xlink" x="0px" y="0px"
	 viewBox="0 0 508 508" style="enable-background:new 0 0 508 508;" xml:space="preserve">
<circle style="fill:#FFD05B;" cx="254" cy="254" r="254"/>
<rect x="258.8" y="350.8" style="fill:#2B3B4E;" width="6.4" height="52"/>
<g>
	<path style="fill:#324A5E;" d="M266.8,353.2h-9.2c-1.6,0-2.8-1.2-2.8-2.8v-44.8H270v44.8C269.6,352,268.4,353.2,266.8,353.2z"/>
	<path style="fill:#324A5E;" d="M266.8,405.6h-9.6c-0.8,0-1.2-1.2-1.2-2l0.4-1.2c0-0.4,0.4-0.8,1.2-0.8h8.8c0.4,0,0.8,0.4,1.2,0.8
		l0.4,1.2C268,404.4,267.6,405.6,266.8,405.6z"/>
</g>
<rect x="217.169" y="344.014" transform="matrix(-0.9458 -0.3249 0.3249 -0.9458 304.7385 814.514)" style="fill:#2B3B4E;" width="6.4" height="75.604"/>
<g>
	<path style="fill:#324A5E;" d="M232,362l-8.8-3.2c-1.6-0.4-2.4-2-1.6-3.6l18.8-54.4l14.4,4.8L236,360
		C235.2,361.6,233.6,362.4,232,362z"/>
	<path style="fill:#324A5E;" d="M211.6,421.6l-8.8-3.2c-0.8-0.4-0.8-1.6-0.4-2.4l0.8-1.2c0.4-0.4,0.8-0.8,1.2-0.4l8,2.8
		c0.4,0,0.8,0.8,0.8,1.2v1.6C213.2,420.8,212.4,421.6,211.6,421.6z"/>
</g>
<rect x="300.347" y="343.85" transform="matrix(0.9458 -0.3249 0.3249 0.9458 -107.5262 119.3207)" style="fill:#2B3B4E;" width="6.4" height="75.604"/>
<g>
	<path style="fill:#324A5E;" d="M292,362l8.8-3.2c1.6-0.4,2.4-2,1.6-3.6l-18.8-54.4l-14.4,4.8L288,360
		C288.8,361.6,290.4,362.4,292,362z"/>
	<path style="fill:#324A5E;" d="M312.4,421.6l8.8-3.2c0.8-0.4,0.8-1.6,0.4-2.4l-0.8-1.2c-0.4-0.4-0.8-0.8-1.2-0.4l-8,2.8
		c-0.4,0-0.8,0.8-0.8,1.2v1.6C310.8,420.8,311.6,421.6,312.4,421.6z"/>
</g>
<path style="fill:#2B3B4E;" d="M276,258.8h-27.6l-17.6,37.6c-4,8.4,2,18,11.2,18h40c9.2,0,15.2-9.6,11.2-18L276,258.8z"/>
<path style="fill:#CED5E0;" d="M216.8,184L90.4,212.8c-3.2,0.8-5.2,4-4.4,7.2l10.8,48.4c0.8,3.2,4,5.2,7.2,4.4L230.4,244L216.8,184z
	"/>
<path style="fill:#E6E9EE;" d="M370.8,136.8l-174.4,39.6c-4.4,1.2-7.2,5.6-6.4,10l15.2,66.8c1.2,4.4,5.6,7.2,10,6.4L389.6,220
	L370.8,136.8z"/>
<g>
	<path style="fill:#FFFFFF;" d="M413.2,228L358,240.4c-4.8,1.2-10-2-10.8-6.8l-20.8-90.8c-1.2-4.8,2-10,6.8-10.8l55.2-12.4
		c4.8-1.2,10,2,10.8,6.8l20.8,90.8C421.2,222,418,226.8,413.2,228z"/>
	<path style="fill:#FFFFFF;" d="M108.4,279.2l-16.8,3.6c-2.4,0.4-4.4-0.8-4.8-3.2l-15.2-66.4c-0.4-2.4,0.8-4.4,3.2-4.8l16.8-3.6
		c2.4-0.4,4.4,0.8,4.8,3.2l15.2,66C112,276.4,110.8,278.4,108.4,279.2z"/>
</g>
<path style="fill:#324A5E;" d="M262,288.8L262,288.8c-16.4,0-30-13.2-30-30l0,0c0-16.4,13.2-30,30-30l0,0c16.4,0,30,13.2,30,30l0,0
	C292,275.2,278.4,288.8,262,288.8z"/>
<path style="fill:#2B3B4E;" d="M262,273.6L262,273.6c-8,0-14.8-6.8-14.8-14.8l0,0c0-8,6.8-14.8,14.8-14.8l0,0
	c8,0,14.8,6.8,14.8,14.8l0,0C276.8,267.2,270,273.6,262,273.6z"/>
<g>
</g>
<g>
</g>
<g>
</g>
<g>
</g>
<g>
</g>
<g>
</g>
<g>
</g>
<g>
</g>
<g>
</g>
<g>
</g>
<g>
</g>
<g>
</g>
<g>
</g>
<g>
</g>
<g>
</g>
</svg>
