<?xml version="1.0" encoding="iso-8859-1"?>
<!-- Generator: Adobe Illustrator 19.0.0, SVG Export Plug-In . SVG Version: 6.00 Build 0)  -->
<svg version="1.1" id="Layer_1" xmlns="http://www.w3.org/2000/svg" xmlns:xlink="http://www.w3.org/1999/xlink" x="0px" y="0px"
	 viewBox="0 0 512.55 512.55" style="enable-background:new 0 0 512.55 512.55;" xml:space="preserve">
<path style="fill:#FF757C;" d="M256.274,512.55c141.153,0,256.276-115.123,256.276-256.274C512.55,115.123,397.427,0,256.274,0
	C115.123,0,0,115.123,0,256.276C0,397.427,115.123,512.55,256.274,512.55z"/>
<g>
	<path style="fill:#666666;" d="M365.649,224.773l65.865,29.899l61.998-28.144l-65.865-29.901L365.649,224.773z"/>
	<path style="fill:#666666;" d="M384.011,328.765c6.478-10.884,16.678-23.516,6.317-42.72
		c-15.254-66.695,55.043-80.219,65.673-52.695c17.293,6.522,16.834,42.425,7.937,61.208c-0.395,7.732-8.434,14.473,6.092,34.421
		l1.044-0.232h-0.002c-18.843,5.463-67.145,2.947-87.063,0.013L384.011,328.765z"/>
</g>
<path style="fill:#F0B97D;" d="M416.325,314.707c-0.645,11.943-4.885,16.455-10.765,19.593c-2.989,2.64-29.234,5.803-32.784,15.389
	c-0.993,2.682-4.624,112.238-7.154,138.407c52.536-24.824,95.267-66.975,120.84-119.081c-0.364-12.243-0.669-20.379-0.898-20.741
	c-5.997-9.33-30.598-11.349-33.349-13.643c-5.75-3.218-9.879-7.948-10.522-19.927c0,0-8.593,6.666-13.934,5.642
	c-5.341-1.026-11.433-5.642-11.433-5.642L416.325,314.707z"/>
<path style="fill:#FED198;" d="M402.481,295.116c5.302,11.354,7.262,15.786,13.846,20.887c0,0,6.092,4.701,11.436,5.75
	c5.341,1.044,13.932-5.75,13.932-5.75c6.584-5.103,8.544-9.535,13.844-20.887c1.3,0.693,2.657,1.631,3.713,0.422
	c1.055-1.207,6.076-16.916,5.174-19.03c-0.905-2.119-1.783-0.768-3.132,0.192c0.071-0.457-1.064,5.673-1.046,4.741
	c0.126-7.412-5.083-8.586-6.717-28.204c-24.023,23.836-46.466,12.897-54.286,14.495c-2.265,0.464-2.929,6.264-2.512,8.968
	c-8.478-6.054,1.828,18.593,2.042,18.838c1.055,1.21,2.412,0.269,3.71-0.422H402.481z"/>
<path style="fill:#FFBA1B;" d="M405.558,334.296c-9.921,4.158-25.365,4.342-33.095,14.451c-2,2.616-14.256,129.143-18.218,143.108
	c0.402,0.263,0.814,0.521,1.232,0.779C413.71,468.165,460.988,422.8,487.953,365.93c-1.293-10.522-2.183-17.364-2.388-17.653
	c-7.659-10.826-25.085-9.67-33.168-14.011l-22.542,46.075L405.558,334.296z"/>
<path style="fill:#807D7D;" d="M393.067,227.827c16.971-11.376,58.294-10.888,73.438,0.607l1.563,19.035
	c-26.422-6.904-49.73-6.549-76.747,0.43L393.067,227.827z"/>
<g>
	<path style="fill:#FFFFFF;" d="M416.194,354.424c7.012,2.499,18.942,2.512,26.341-0.011l-12.683,25.93l-13.66-25.919H416.194z"/>
	<path style="fill:#FFFFFF;" d="M380.435,218.312l0.108,32.428v1.006h-1.931v-1.006v-31.812c0.071-1.861,1.695-2.115,1.825-0.616
		H380.435z"/>
</g>
<path style="fill:#FFBA1B;" d="M376.03,256.664c0,8.763-1.839,16.302-1.94,16.806c-0.104,0.503,1.666,2.156,2.009,0.503
	c0.342-1.653-0.035,0.038,1.534,0.143c1.541,0.106,1.863-0.66,1.874-0.684c0.009,0.024,0.331,0.79,1.874,0.684
	c1.563-0.108,1.19-1.797,1.532-0.143c0.342,1.651,2.11,0,2.009-0.503c-0.104-0.503-1.94-8.043-1.94-16.806
	c-0.082-3.355-1.397-4.938-3.474-5.423c-2.081,0.486-3.395,2.068-3.474,5.423H376.03z"/>
<path style="fill:#807D7D;" d="M379.506,251.241c3.441,0,3.543,2.187,3.368,4.214c-0.759-0.66-1.986-1.086-3.368-1.086
	c-1.386,0-2.613,0.428-3.37,1.086C376.012,253.104,376.063,251.241,379.506,251.241z"/>
<g>
	<path style="fill:#666666;" d="M19.715,224.773l65.865,29.899l61.998-28.144l-65.865-29.901L19.715,224.773z"/>
	<path style="fill:#666666;" d="M38.079,328.765c6.474-10.884,16.678-23.516,6.317-42.72
		c-15.256-66.695,55.041-80.219,65.673-52.695c17.293,6.522,16.834,42.425,7.937,61.208c-0.395,7.732-8.434,14.473,6.092,34.421
		l1.044-0.232h-0.002c-18.841,5.463-67.143,2.947-87.063,0.013L38.079,328.765z"/>
</g>
<path style="fill:#F0B97D;" d="M70.392,314.707c-0.649,11.943-4.887,16.455-10.767,19.593c-2.989,2.64-29.234,5.803-32.784,15.389
	c-0.245,0.66-0.647,7.789-1.154,18.532c25.151,51.713,67.183,93.691,118.926,118.783c-2.227-27.014-4.121-137.383-4.986-138.727
	c-5.997-9.33-30.598-11.349-33.349-13.643c-5.75-3.218-9.879-7.948-10.52-19.927c0,0-8.593,6.666-13.936,5.642
	c-5.341-1.026-11.433-5.642-11.433-5.642L70.392,314.707L70.392,314.707z"/>
<path style="fill:#FED198;" d="M56.549,295.116c5.302,11.354,7.257,15.786,13.844,20.887c0,0,6.09,4.701,11.433,5.75
	c5.344,1.044,13.936-5.75,13.936-5.75c6.584-5.103,8.544-9.535,13.844-20.887c1.302,0.693,2.657,1.631,3.713,0.422
	c1.055-1.207,6.074-16.916,5.174-19.03c-0.905-2.119-1.788-0.768-3.132,0.192c0.071-0.457-1.064,5.673-1.048,4.741
	c0.128-7.412-5.081-8.586-6.717-28.204c-24.025,23.836-46.466,12.897-54.286,14.495c-2.267,0.464-2.929,6.264-2.512,8.968
	c-8.48-6.054,1.825,18.593,2.042,18.838C53.893,296.747,55.251,295.807,56.549,295.116z"/>
<path style="fill:#FFBA1B;" d="M59.623,334.296c-9.921,4.158-25.365,4.342-33.097,14.451c-0.422,0.554-1.302,6.655-2.468,16.044
	c26.531,56.677,73.195,102.037,130.788,126.888c1.196-0.737,2.353-1.494,3.454-2.271c-3.849-13.815-17.775-139.864-18.673-141.133
	c-7.659-10.826-25.085-9.67-33.17-14.011l-22.54,46.075L59.62,334.295L59.623,334.296z"/>
<path style="fill:#807D7D;" d="M47.133,227.827c16.971-11.376,58.294-10.888,73.438,0.607l1.563,19.035
	c-26.422-6.904-49.73-6.549-76.747,0.43L47.133,227.827z"/>
<g>
	<path style="fill:#FFFFFF;" d="M70.262,354.424c7.01,2.499,18.942,2.512,26.341-0.011l-12.683,25.93L70.262,354.424z"/>
	<path style="fill:#FFFFFF;" d="M34.503,218.312l0.106,32.428v1.006h-1.931v-1.006v-31.812
		C32.744,217.067,34.373,216.813,34.503,218.312z"/>
</g>
<path style="fill:#FFBA1B;" d="M30.097,256.664c0,8.763-1.839,16.302-1.942,16.806c-0.102,0.503,1.669,2.156,2.011,0.503
	s-0.035,0.038,1.534,0.143c1.541,0.106,1.863-0.66,1.872-0.684c0.009,0.024,0.333,0.79,1.874,0.684
	c1.565-0.108,1.192-1.797,1.534-0.143c0.338,1.651,2.108,0,2.009-0.503c-0.104-0.503-1.942-8.043-1.942-16.806
	c-0.079-3.355-1.395-4.938-3.474-5.423C31.495,251.727,30.179,253.309,30.097,256.664z"/>
<path style="fill:#807D7D;" d="M33.569,251.241c3.445,0,3.547,2.187,3.37,4.214c-0.759-0.66-1.986-1.086-3.37-1.086
	s-2.613,0.428-3.37,1.086C30.078,253.104,30.126,251.241,33.569,251.241z"/>
<g>
	<path style="fill:#666666;" d="M119.796,125.378l145.497,66.051l136.957-62.175L256.753,63.205L119.796,125.378z"/>
	<path style="fill:#666666;" d="M160.36,355.103c14.305-24.043,36.845-51.951,13.952-94.378
		c-33.698-147.33,121.594-177.202,145.075-116.398c38.207,14.409,37.191,93.718,17.541,135.215
		c-0.874,17.077-18.633,31.971,13.455,76.031l2.311-0.503l-0.002,0.002c-41.626,12.062-148.322,6.509-192.329,0.031L160.36,355.103
		L160.36,355.103z"/>
</g>
<path style="fill:#F0B97D;" d="M231.743,324.05c-1.43,26.385-10.795,36.346-23.78,43.283c-6.606,5.834-56.328,7.403-70.858,30.868
	c-1.596,2.58-13.011,44.193-18.571,74.217c39.783,25.403,87.039,40.131,137.738,40.131c51.913,0,100.209-15.45,140.572-41.983
	c-5.408-31.314-10.146-69.125-12.153-72.363c-15.344-24.785-67.591-25.074-73.668-30.137c-12.7-7.107-21.823-17.563-23.24-44.016
	c0,0-18.982,14.724-30.784,12.455C245.2,334.241,231.743,324.05,231.743,324.05z"/>
<path style="fill:#FED198;" d="M201.16,280.774c11.709,25.076,16.04,34.867,30.583,46.137c0,0,13.457,10.387,25.257,12.698
	c11.802,2.311,30.784-12.698,30.784-12.698c14.543-11.27,18.872-21.061,30.581-46.137c2.869,1.53,5.871,3.602,8.2,0.931
	c2.331-2.671,13.422-37.363,11.427-42.043c-1.998-4.681-3.942-1.697-6.915,0.422c0.157-1.006-2.348,12.537-2.313,10.478
	c0.28-16.373-11.228-18.975-14.837-62.3c-53.072,52.653-102.648,28.491-119.922,32.015c-5.006,1.02-6.474,13.837-5.551,19.81
	c-18.733-13.369,4.033,41.074,4.509,41.619C195.293,284.374,198.291,282.303,201.16,280.774z"/>
<path style="fill:#807D7D;" d="M180.361,132.128c37.489-25.131,128.777-24.054,162.229,1.344l3.454,42.045
	c-58.369-15.247-109.859-14.466-169.535,0.949l3.854-44.338H180.361z"/>
<path style="fill:#20D0C2;" d="M229.915,414.125c15.671,5.59,42.338,5.623,58.877-0.02l-28.351,57.955l-30.528-57.935H229.915z"/>
<path style="fill:#FFFFFF;" d="M152.462,111.108l0.234,71.639v2.218h-4.262v-2.218v-70.28
	C148.58,108.363,152.176,107.798,152.462,111.108z"/>
<path style="fill:#FFBA1B;" d="M142.729,195.827c0,19.362-4.061,36.019-4.286,37.13c-0.227,1.112,3.684,4.761,4.439,1.112
	c0.753-3.653-0.075,0.077,3.386,0.313c3.406,0.236,4.116-1.455,4.139-1.505c0.022,0.053,0.735,1.741,4.139,1.505
	c3.461-0.236,2.633-3.966,3.388-0.313c0.753,3.649,4.662,0,4.439-1.112c-0.227-1.112-4.289-17.77-4.289-37.13
	c-0.181-7.412-3.086-10.91-7.677-11.976C145.814,184.917,142.912,188.413,142.729,195.827z"/>
<path style="fill:#807D7D;" d="M150.403,183.851c7.608,0,7.831,4.832,7.443,9.308c-1.675-1.457-4.384-2.404-7.443-2.404
	c-3.059,0-5.767,0.947-7.443,2.404C142.691,187.963,142.797,183.851,150.403,183.851z"/>
<path style="fill:#0E7886;" d="M256.274,512.55c51.937,0,100.34-15.601,140.791-42.335c-4.954-40.994-8.599-70.585-9.25-71.505
	c-17.516-24.76-52.915-22.585-76.29-31.21l-51.12,104.541l-54.794-104.202c-22.69,9.509-51.987,7.209-69.67,30.328
	c-0.834,1.096-12.814,47.426-17.762,73.824C158.076,497.646,205.49,512.55,256.274,512.55z"/>
<g>
</g>
<g>
</g>
<g>
</g>
<g>
</g>
<g>
</g>
<g>
</g>
<g>
</g>
<g>
</g>
<g>
</g>
<g>
</g>
<g>
</g>
<g>
</g>
<g>
</g>
<g>
</g>
<g>
</g>
</svg>
