<?xml version="1.0" encoding="iso-8859-1"?>
<!-- Generator: Adobe Illustrator 19.0.0, SVG Export Plug-In . SVG Version: 6.00 Build 0)  -->
<svg version="1.1" id="Layer_1" xmlns="http://www.w3.org/2000/svg" xmlns:xlink="http://www.w3.org/1999/xlink" x="0px" y="0px"
	 viewBox="0 0 513 513" style="enable-background:new 0 0 513 513;" xml:space="preserve">
<path style="fill:#FF757C;" d="M256.5,513C397.777,513,513,397.773,513,256.5C513,115.223,397.777,0,256.5,0S0,115.227,0,256.5
	S115.227,513,256.5,513z"/>
<path style="fill:#666666;" d="M21.792,249.017l75.812,34.412l71.361-32.395l-75.812-34.417l-71.361,32.395V249.017z"/>
<path style="fill:#F0B97D;" d="M80.274,328.129c10.07,0,20.136,0,30.206,0l2.448,25.457l7.391,5.428l43.978,13.939
	c0,0,5.766,3.17,7.46,12.042c0.745,3.892,2.319,81.755,3.961,115.01C111.229,478.62,58.093,432.342,27.702,372.556l43.034-13.735
	l7.094-5.234L80.274,328.129z"/>
<path style="fill:#FFFFFF;" d="M117.666,366.79c-7.289,8.515-31.631,12.19-45.038-2.356l22.75,67.719L117.666,366.79z"/>
<path style="fill:#FED198;" d="M57.667,289.468c-9.473-1.68-1.398,26.61,5.521,22.394l3.716,10.903
	c3.346,9.82,11.782,18.766,18.206,25.846c2.508,2.763,17.859,2.717,20.335,0.106c7.113-7.479,15.559-15.878,18.733-26.008
	l3.397-10.848c6.932,4.211,14.989-24.069,5.521-22.394c0.657-22.019-14.915-43.386-37.712-43.483
	c-22.797,0.097-38.369,21.464-37.712,43.483H57.667z"/>
<path style="fill:#FBB429;" d="M70.74,358.82l-43.034,13.735c30.483,59.981,83.865,106.356,148.631,127.648
	c-1.856-21.741-3.744-110.836-4.577-115.209c-1.694-8.871-7.46-12.042-7.46-12.042l-43.978-13.939l-24.939,73.138L70.745,358.82
	H70.74z"/>
<path style="fill:#666666;" d="M122.567,250.322c2.679-0.315,12.342,8.515,13.504,18.743c1.162,10.223-1.064,20.529-1.064,20.529
	c-6.803-0.329-4.66,10.07-6.141,11.713l-1.916,0.042l-0.717-6.979c-8.473-5.308,3.341-26.286-5.132-28.128
	c-14.504,11.949-36.023,16.368-54.793,13.3c-5.271,0.699,2.397,7.363,0.171,15.026c-1.638,2.86-0.662,7.372-0.662,7.372
	l-2.453,0.305c0,0-1.55-12.935-6.275-12.884c-1.148-5.965-1.62-9.519-1.305-14.8c1.62-27.026,37.953-42.414,66.779-24.24H122.567z"
	/>
<path style="fill:#807D7D;" d="M55.83,251.807c17.192-13.097,64.678-13.351,80.015-0.12l0.81,21.362
	c-26.767-7.946-54.39-7.219-81.755,0.815l0.935-22.061L55.83,251.807z"/>
<path style="fill:#FFFFFF;" d="M41.132,241.025l0.12,37.869v1.171h-2.221v-1.171v-37.152
	C39.109,239.567,40.979,239.271,41.132,241.025z"/>
<path style="fill:#FBB429;" d="M36.064,285.725c0,10.089-2.12,18.77-2.235,19.349c-0.12,0.578,1.921,2.48,2.314,0.578
	c0.389-1.902-0.037,0.042,1.763,0.167c1.777,0.12,2.143-0.759,2.157-0.787c0.009,0.028,0.379,0.907,2.157,0.787
	c1.8-0.125,1.374-2.069,1.763-0.167c0.393,1.902,2.43,0,2.309-0.578c-0.116-0.578-2.231-9.26-2.231-19.349
	c-0.097-3.864-1.606-5.683-3.998-6.238C37.67,280.042,36.157,281.86,36.064,285.725z"/>
<path style="fill:#807D7D;" d="M40.109,279.486c3.966,0,4.082,2.518,3.878,4.845c-0.875-0.759-2.286-1.254-3.878-1.254
	s-3.003,0.495-3.878,1.254C36.092,281.624,36.148,279.486,40.109,279.486z"/>
<g>
	<path style="fill:#666666;" d="M359.505,246.217l69.255,31.437l65.187-29.595l-69.255-31.437L359.505,246.217z"/>
	<path style="fill:#666666;" d="M378.813,355.558c6.807-11.445,17.535-24.726,6.641-44.922
		c-16.04-70.125,57.875-84.346,69.051-55.404c18.183,6.858,17.701,44.607,8.349,64.359c-0.417,8.131-8.871,15.221,6.405,36.194
		l1.101-0.241h-0.005C450.543,361.287,399.753,358.64,378.813,355.558z"/>
</g>
<path style="fill:#F0B97D;" d="M412.79,340.777c-0.68,12.555-5.137,17.299-11.32,20.603c-3.142,2.777-30.742,6.099-34.472,16.183
	c-0.791,2.138-3.179,68.857-5.442,112.997c52.84-23.754,96.179-64.877,122.757-116.102c-7.932-8.436-31.062-10.454-33.788-12.731
	c-6.044-3.383-10.389-8.358-11.06-20.95c0,0-9.033,7.006-14.652,5.928S412.79,340.777,412.79,340.777z"/>
<path style="fill:#FED198;" d="M398.235,320.178c5.572,11.935,7.636,16.595,14.554,21.964c0,0,6.405,4.942,12.023,6.044
	s14.652-6.044,14.652-6.044c6.923-5.364,8.983-10.024,14.554-21.964c1.365,0.727,2.795,1.717,3.901,0.444
	c1.111-1.273,6.391-17.785,5.438-20.011c-0.949-2.226-1.879-0.805-3.295,0.204c0.074-0.481-1.12,5.965-1.101,4.984
	c0.134-7.793-5.345-9.029-7.062-29.655c-25.259,25.064-48.856,13.564-57.079,15.239c-2.383,0.486-3.082,6.585-2.642,9.431
	c-8.913-6.363,1.921,19.548,2.147,19.807c1.111,1.273,2.536,0.287,3.901-0.444H398.235z"/>
<path style="fill:#FBB429;" d="M401.466,361.375c-10.436,4.369-26.67,4.563-34.796,15.193c-1.541,2.013-8.848,73.776-14.295,117.898
	c56.996-22.986,103.834-65.849,131.938-120.003c-8.58-9.663-25.518-8.784-33.598-13.12l-23.704,48.448L401.466,361.375z"/>
<path style="fill:#807D7D;" d="M388.332,249.429c17.845-11.963,61.295-11.449,77.219,0.639l1.643,20.015
	c-27.781-7.256-52.289-6.886-80.695,0.454l1.837-21.103L388.332,249.429z"/>
<g>
	<path style="fill:#FFFFFF;" d="M412.651,382.538c7.377,2.624,19.918,2.638,27.697-0.009l-13.337,27.262l-14.365-27.253H412.651z"/>
	<path style="fill:#FFFFFF;" d="M375.05,239.423l0.111,34.098v1.055h-2.027v-1.055v-33.45
		C373.208,238.114,374.916,237.845,375.05,239.423z"/>
</g>
<path style="fill:#FBB429;" d="M370.422,279.745c0,9.214-1.934,17.146-2.041,17.674c-0.106,0.528,1.754,2.268,2.115,0.528
	c0.356-1.735-0.037,0.037,1.615,0.153c1.62,0.111,1.958-0.694,1.967-0.717c0.009,0.028,0.347,0.828,1.971,0.717
	c1.643-0.116,1.254-1.888,1.61-0.153c0.356,1.74,2.217,0,2.11-0.528c-0.111-0.528-2.041-8.46-2.041-17.674
	c-0.088-3.526-1.472-5.192-3.656-5.701C371.889,274.553,370.51,276.219,370.422,279.745z"/>
<path style="fill:#807D7D;" d="M374.074,274.049c3.619,0,3.73,2.3,3.545,4.429c-0.796-0.694-2.087-1.143-3.545-1.143
	s-2.744,0.449-3.545,1.143C370.399,276.006,370.455,274.049,374.074,274.049z"/>
<path style="fill:#666666;" d="M119.582,139.861l145.627,66.108l137.08-62.225L256.667,77.636l-137.08,62.23L119.582,139.861z"/>
<path style="fill:#F0B97D;" d="M231.926,291.829c19.34,0,38.679,0,58.014,0l4.702,48.897l14.198,10.422l84.48,26.776
	c0,0,11.079,6.095,14.332,23.139c1.717,9.001,5.752,32.131,9.556,55.335c-43.973,35.398-99.863,56.598-160.709,56.598
	c-58.25,0-111.96-19.432-155.022-52.151c5.081-24.726,11.148-51.438,12.74-59.786c2.735-14.328,14.332-23.139,14.332-23.139
	l85.054-27.147l13.62-10.052l4.697-48.902L231.926,291.829z"/>
<path style="fill:#20D0C2;" d="M303.745,366.091c-14.004,16.355-60.758,23.417-86.512-4.526l43.705,130.078l42.812-125.552H303.745z
	"/>
<path style="fill:#FED198;" d="M188.49,217.562c-18.192-3.226-2.684,51.114,10.607,43.011l7.131,20.945
	c6.423,18.868,22.63,36.051,34.963,49.647c4.813,5.303,34.301,5.22,39.068,0.204c13.657-14.365,29.886-30.497,35.976-49.957
	l6.525-20.839c13.31,8.094,28.789-46.232,10.607-43.011c1.263-42.298-28.651-83.337-72.439-83.522
	C217.141,134.224,187.231,175.264,188.49,217.562z"/>
<path style="fill:#0E7886;" d="M213.605,350.782l-85.054,27.147c0,0-11.597,8.811-14.332,23.134
	c-1.592,8.344-7.659,35.06-12.74,59.786C144.54,493.568,198.25,513,256.5,513c60.846,0,116.736-21.2,160.709-56.603
	c-3.804-23.208-7.839-46.333-9.556-55.335c-3.258-17.04-14.332-23.134-14.332-23.134l-84.48-26.776l-47.907,140.495L213.605,350.782
	z"/>
<path style="fill:#666666;" d="M313.163,142.369c5.137-0.597,23.708,16.359,25.934,36.004c2.226,19.64-2.05,39.438-2.05,39.438
	c-13.064-0.639-8.95,19.34-11.796,22.496l-3.674,0.083l-1.374-13.407c-16.271-10.195,6.419-50.494-9.857-54.025
	c-27.859,22.949-69.19,31.441-105.25,25.545c-10.121,1.347,4.605,14.143,0.333,28.859c-3.147,5.498-1.268,14.161-1.268,14.161
	l-4.706,0.588c0,0-2.976-24.847-12.055-24.745c-2.203-11.454-3.11-18.284-2.504-28.424c3.11-51.919,72.906-81.482,128.273-46.569
	L313.163,142.369z"/>
<path style="fill:#807D7D;" d="M184.964,145.22c33.024-25.152,124.238-25.647,153.698-0.227l1.55,41.03
	c-51.415-15.262-104.472-13.865-157.044,1.564l1.796-42.372V145.22z"/>
<path style="fill:#FFFFFF;" d="M156.734,124.506l0.231,72.744v2.254h-4.262v-2.254v-71.365
	C152.851,121.716,156.447,121.142,156.734,124.506z"/>
<path style="fill:#FBB429;" d="M146.993,210.375c0,19.377-4.068,36.051-4.295,37.161s3.688,4.767,4.443,1.111
	c0.754-3.656-0.074,0.079,3.388,0.315c3.411,0.236,4.119-1.453,4.142-1.509c0.023,0.056,0.736,1.745,4.142,1.509
	c3.466-0.236,2.638-3.971,3.392-0.315c0.754,3.651,4.669,0,4.443-1.111c-0.222-1.111-4.29-17.789-4.29-37.161
	c-0.185-7.418-3.091-10.917-7.682-11.991C150.079,199.453,147.173,202.952,146.993,210.375z"/>
<path style="fill:#807D7D;" d="M154.767,198.384c7.617,0,7.839,4.836,7.451,9.316c-1.68-1.458-4.387-2.402-7.451-2.402
	s-5.771,0.944-7.451,2.402C147.048,202.498,147.155,198.384,154.767,198.384z"/>
<g>
</g>
<g>
</g>
<g>
</g>
<g>
</g>
<g>
</g>
<g>
</g>
<g>
</g>
<g>
</g>
<g>
</g>
<g>
</g>
<g>
</g>
<g>
</g>
<g>
</g>
<g>
</g>
<g>
</g>
</svg>
