<?xml version="1.0" encoding="iso-8859-1"?>
<!-- Generator: Adobe Illustrator 19.0.0, SVG Export Plug-In . SVG Version: 6.00 Build 0)  -->
<svg version="1.1" id="Layer_1" xmlns="http://www.w3.org/2000/svg" xmlns:xlink="http://www.w3.org/1999/xlink" x="0px" y="0px"
	 viewBox="0 0 512.003 512.003" style="enable-background:new 0 0 512.003 512.003;" xml:space="preserve">
<path style="fill:#FF757C;" d="M256.003,512.003c140.999,0,255.999-115,255.999-256.001C512.001,115.002,397.001,0,256.003,0
	S0.001,115.002,0.001,256.001S115.001,512.003,256.003,512.003z"/>
<path style="fill:#0E7886;" d="M32.689,29.333h166.468v230.105H32.689c-13.692,0-24.892-10.828-24.892-24.063V53.394
	C7.797,40.158,18.997,29.333,32.689,29.333z"/>
<path style="fill:#FFFFFF;" d="M39.627,21.435H199.16V251.54H39.627c-13.118,0-23.851-10.377-23.851-23.061V44.494
	c0-12.682,10.733-23.061,23.851-23.061V21.435z"/>
<path style="fill:#1A91A1;" d="M32.689,0.005h166.468V230.11H7.797V24.066C7.797,10.83,18.997,0.005,32.689,0.005z"/>
<path style="fill:#0E7886;" d="M28.912,230.11H7.799V24.066c0-11.992,9.196-22.01,21.112-23.783V230.11z"/>
<path style="fill:#DFE1E3;" d="M25.405,246.965h173.752v1.818H28.351C27.322,248.245,26.339,247.637,25.405,246.965z
	 M199.157,233.147L199.157,233.147v1.818H16.739c-0.181-0.598-0.338-1.204-0.472-1.818H199.157z M199.157,237.753L199.157,237.753
	v1.82H18.732c-0.338-0.593-0.651-1.199-0.934-1.82H199.157z M199.157,242.359L199.157,242.359v1.818H22.192
	c-0.559-0.58-1.086-1.186-1.584-1.818H199.157z"/>
<g>
	<path style="fill:#FFFFFF;" d="M72.821,193.168h62.425v3.578H72.821V193.168z M84.685,199.368L84.685,199.368h38.697v3.575H84.685
		V199.368z"/>
	<path style="fill:#FFFFFF;" d="M52.443,242.359v38.125h-0.005c0.076,1.794,0.115,3.78,0.152,5.823
		c0.365,19.185,0.839,44.161,43.951,43.917l0.01-0.01h85.142v0.01c9.516-0.066,19.449-2.206,26.356-7.919
		c5.39-4.456,8.973-11.192,9.065-20.973h-0.01V164.776c0-16.504,11.415-27.219,25.939-31.898c5.466-1.76,11.384-2.657,17.291-2.675
		c5.899-0.016,11.798,0.847,17.22,2.602c14.143,4.582,25.136,15.15,25.136,31.972v87.632l-0.01,0.029
		c-0.071,5.653,0.412,11.121,1.54,16.142c1.041,4.632,2.628,8.874,4.834,12.499l0.018,0.026l18.566,31.733l-4.053,2.376
		l-18.563-31.73l0,0c-2.473-4.076-4.241-8.779-5.388-13.87c-1.204-5.369-1.721-11.195-1.65-17.202h-0.01v-87.632
		c0-14.411-9.558-23.512-21.855-27.497c-4.96-1.605-10.369-2.395-15.785-2.379c-5.414,0.016-10.841,0.839-15.853,2.452
		c-12.687,4.087-22.657,13.314-22.657,27.423v136.556l-0.01,0.021c-0.105,11.379-4.357,19.284-10.76,24.583
		c-7.843,6.487-18.872,8.916-29.349,8.984l-0.01,0.01H96.551v-0.01c-47.733,0.268-48.255-27.334-48.659-48.538
		c-0.037-1.967-0.073-3.879-0.157-5.794l-0.01-0.102v-38.125h4.714L52.443,242.359z"/>
	<path style="fill:#FFFFFF;" d="M103.478,45.682c14.167,0,26.993,5.742,36.276,15.024c9.283,9.283,15.022,22.107,15.022,36.273
		s-5.742,26.993-15.022,36.276c-9.283,9.283-22.109,15.024-36.276,15.024s-26.991-5.742-36.273-15.024
		c-9.283-9.283-15.024-22.107-15.024-36.276c0-14.167,5.742-26.991,15.024-36.273S89.312,45.682,103.478,45.682z M140.229,125.327
		L140.229,125.327c-3.237-1.529-7.389-2.757-12.102-3.685c-0.43,0.915-0.884,1.823-1.367,2.717
		c-3.816,7.1-9.233,13.474-16.247,18.497c10.001-1.519,18.951-6.23,25.784-13.06c1.403-1.403,2.717-2.898,3.934-4.472
		L140.229,125.327z M96.446,142.859L96.446,142.859c-7.014-5.026-12.43-11.394-16.249-18.497c-0.477-0.887-0.929-1.792-1.356-2.702
		c-4.706,0.926-8.858,2.151-12.11,3.67c1.217,1.574,2.529,3.066,3.932,4.47C77.492,136.629,86.445,141.34,96.446,142.859z
		 M63.929,121.271L63.929,121.271c3.491-1.731,7.956-3.124,13.005-4.181c-2.077-5.671-3.247-11.643-3.504-17.645H57.138
		c0.42,7.977,2.849,15.418,6.794,21.829L63.929,121.271z M57.135,94.554L57.135,94.554h16.284c0.257-6.557,1.603-13.068,4.034-19.19
		c-4.889-0.994-9.246-2.298-12.732-3.913c-4.417,6.691-7.148,14.592-7.583,23.103H57.135z M67.685,67.442L67.685,67.442
		c3.253,1.39,7.289,2.515,11.811,3.371c0.26-0.514,0.527-1.026,0.803-1.532c3.801-6.985,9.159-13.238,16.074-18.167
		c-9.967,1.532-18.893,6.237-25.708,13.052c-1.047,1.044-2.038,2.138-2.982,3.279L67.685,67.442z M110.589,51.112L110.589,51.112
		c6.917,4.931,12.276,11.184,16.074,18.167c0.281,0.511,0.548,1.028,0.811,1.548c4.533-0.855,8.569-1.983,11.809-3.381
		c-0.944-1.144-1.938-2.237-2.985-3.284c-6.815-6.815-15.738-11.52-25.711-13.052L110.589,51.112z M142.254,71.463L142.254,71.463
		c-3.475,1.618-7.835,2.927-12.732,3.921c2.424,6.117,3.764,12.622,4.021,19.169h16.286
		C149.389,86.05,146.663,78.152,142.254,71.463z M149.827,99.443L149.827,99.443h-16.291c-0.257,5.996-1.424,11.961-3.499,17.624
		c5.062,1.06,9.529,2.458,13.002,4.197C146.981,114.856,149.41,107.414,149.827,99.443z M105.928,53.842L105.928,53.842v18.993
		c5.684-0.087,11.3-0.48,16.478-1.186l-0.021-0.039C118.602,64.662,113.118,58.503,105.928,53.842z M105.928,77.727L105.928,77.727
		v16.826h22.741c-0.268-6.272-1.621-12.491-4.058-18.303c-5.852,0.889-12.242,1.382-18.684,1.479V77.727z M105.928,99.443
		L105.928,99.443v15.177c6.641,0.1,13.23,0.619,19.229,1.561c2.064-5.359,3.232-11.03,3.502-16.737H105.928z M105.928,119.509
		L105.928,119.509v20.588c7.234-4.745,12.75-11.003,16.538-18.049c0.223-0.414,0.441-0.831,0.651-1.254
		C117.745,120.028,111.875,119.598,105.928,119.509z M101.036,140.097L101.036,140.097v-20.585
		c-5.938,0.097-11.803,0.53-17.178,1.301c0.21,0.414,0.422,0.826,0.643,1.235c3.79,7.048,9.301,13.304,16.538,18.049H101.036z
		 M101.036,114.619L101.036,114.619V99.443H78.308c0.268,5.713,1.44,11.389,3.51,16.758c6.001-0.944,12.588-1.471,19.219-1.579
		V114.619z M101.036,94.551L101.036,94.551V77.722c-6.429-0.102-12.819-0.601-18.676-1.492c-2.442,5.815-3.795,12.042-4.066,18.322
		H101.036z M101.036,72.833L101.036,72.833v-18.99c-7.187,4.661-12.674,10.82-16.454,17.768l-0.01,0.024
		c5.18,0.708,10.791,1.107,16.467,1.199H101.036z"/>
</g>
<path style="fill:#DFE1E3;" d="M375.328,489.267c-35.662-19.027-87.802-84.311-90.241-127.181
	c-2.442-42.87-10.474-42.13,29.189-67.663c39.038-25.488,35.423-18.985,73.69,0.491c38.267,19.481,77.276,96.29,80.14,133.778
	C471.4,471.811,410.993,508.294,375.328,489.267z"/>
<path style="fill:#FFFFFF;" d="M288.609,313.702c4.609-5.238,12.512-10.815,25.666-19.284c39.038-25.485,35.418-18.985,73.69,0.493
	c38.267,19.481,77.279,96.29,80.138,133.78c0.758,9.91-1.857,19.47-6.759,28.09c-18.749,24.716-56.284,38.959-81.483,25.514
	c-35.707-19.051-87.91-84.413-90.352-127.333c-1.264-22.217-4.029-32.735-0.897-41.26H288.609z"/>
<path style="fill:#FBB429;" d="M301.879,410.294c-9.537-16.866-15.974-33.802-16.792-48.211
	c-2.442-42.87-10.474-42.13,29.189-67.663c39.038-25.488,35.423-18.985,73.69,0.491c12.74,6.487,25.558,19.326,37.1,34.951
	l-123.184,80.431H301.879z"/>
<g>
	<path style="fill:#FBAB08;" d="M316.665,292.865l49.333,75.563l-5.052,3.3l-49.344-75.576l2.673-1.731l2.387-1.555H316.665z"/>
	<path style="fill:#FBAB08;" d="M323.723,309.198c3.979-2.597,9.361-1.466,11.958,2.513l24.307,37.228
		c2.599,3.979,1.469,9.361-2.51,11.958c-3.979,2.597-9.359,1.466-11.956-2.513l-24.307-37.231c-2.597-3.979-1.466-9.359,2.51-11.958
		L323.723,309.198z"/>
</g>
<g>
	<path style="fill:#FFFFFF;" d="M328.62,316.703h0.005c3.431-2.243,8.071-1.267,10.311,2.167l15.809,24.21
		c2.24,3.433,1.267,8.071-2.167,10.314l0,0c-3.434,2.243-8.074,1.27-10.314-2.167l-15.809-24.21
		c-2.24-3.436-1.267-8.074,2.167-10.316L328.62,316.703z"/>
	<path style="fill:#FFFFFF;" d="M258.66,318.801l-8.244-4.808l1.983-3.397l8.244,4.811l-1.983,3.397V318.801z M268.307,309.222
		L268.307,309.222l-11.914-18.694l3.308-2.106l11.914,18.691l-3.305,2.106L268.307,309.222z M281.876,304.605L281.876,304.605
		l-0.01-7.106h3.919l0.01,7.106h-3.916H281.876z M275.704,353.952L275.704,353.952l-12.619,16.307l-3.106-2.397l12.619-16.307
		L275.704,353.952z M262.754,344.682L262.754,344.682l-7.378,2.754l-1.367-3.672l7.381-2.752l1.367,3.672L262.754,344.682z
		 M256.556,331.748L256.556,331.748l-17.057-1.844l0.414-3.9l17.057,1.841L256.556,331.748z"/>
</g>
<g>
</g>
<g>
</g>
<g>
</g>
<g>
</g>
<g>
</g>
<g>
</g>
<g>
</g>
<g>
</g>
<g>
</g>
<g>
</g>
<g>
</g>
<g>
</g>
<g>
</g>
<g>
</g>
<g>
</g>
</svg>
