<?xml version="1.0" encoding="iso-8859-1"?>
<!-- Generator: Adobe Illustrator 19.0.0, SVG Export Plug-In . SVG Version: 6.00 Build 0)  -->
<svg version="1.1" id="Layer_1" xmlns="http://www.w3.org/2000/svg" xmlns:xlink="http://www.w3.org/1999/xlink" x="0px" y="0px"
	 viewBox="0 0 512 512" style="enable-background:new 0 0 512 512;" xml:space="preserve">
<path style="fill:#5DDDD3;" d="M256.001,0.001c141.384,0,255.999,114.615,255.999,256S397.385,511.999,256.001,511.999
	C114.614,511.999,0,397.385,0,256.001S114.614,0.001,256.001,0.001z"/>
<path style="fill:#FBB429;" d="M322.84,271.592l24.813,9.731l84.014-214.226l-24.813-9.731L322.84,271.592z"/>
<g>
	<path style="fill:#FF5B61;" d="M317.361,322.098l30.288-40.776l-24.809-9.731L317.361,322.098z"/>
	<path style="fill:#FF5B61;" d="M420.146,38.455l14.627,5.738c4.022,1.576,5.904,6.459,4.186,10.843l-39.057,99.59l-29.256-11.472
		l39.058-99.591C411.423,39.176,416.12,36.878,420.146,38.455z"/>
</g>
<path style="fill:#EC4B53;" d="M435.11,44.336c3.786,1.711,5.518,6.439,3.849,10.701l-39.057,99.589l-6.975-2.733L435.11,44.336
	L435.11,44.336z M377.95,146.018L377.95,146.018l42.184-107.565c-4.022-1.57-8.712,0.728-10.43,5.111l-39.058,99.591L377.95,146.018
	L377.95,146.018z"/>
<path style="fill:#666666;" d="M315.561,325.193l1.034,0.405l12.127-18.786l-9.253-3.628L315.561,325.193L315.561,325.193z"/>
<path style="fill:#0E7886;" d="M406.101,52.777l35.649,14.276l2.243,0.899l-0.956,2.437l-29.092,74.178l-0.297,0.76l-0.667,0.483
	l-5.46,3.951c-2.699,1.77-5.58-1.531-2.586-4.257l4.792-3.469l27.838-70.981l-33.407-13.378L406.101,52.777L406.101,52.777z"/>
<path style="fill:#1B1B1A;" d="M194.283,361.786c2.937,6.306,5.347,10.807,6.123,10.505c0.772-0.301-0.499-5.245-2.604-11.876
	L194.283,361.786L194.283,361.786z"/>
<g>
	<path style="fill:#0E7886;" d="M94.004,78.486c0.734,1.886-0.199,4.011-2.084,4.747l-7.307,2.849
		c-1.887,0.734-4.011-0.198-4.746-2.084l-9.622-24.676c-0.736-1.887,0.198-4.013,2.085-4.747l7.305-2.848
		c1.886-0.737,4.011,0.197,4.747,2.084L94.004,78.486z"/>
	<path style="fill:#0E7886;" d="M74.256,81.185c0,0-8.62,8.279-10.849,13.164c-2.229,4.885-2.622,9.533,0.779,16.842
		c3.401,7.311,28.328,57.108,31.15,61.518c2.822,4.412,6.223,2.535,7.15-0.031c0.928-2.566-0.884-7.922-2.214-8.507
		c-1.33-0.582-0.388,3.46-3.61,2.51c-3.222-0.946-16.089-33.955-21.457-47.016c-5.368-13.062-6.172-19.362,5.874-17.444
		L74.256,81.185z"/>
</g>
<path style="fill:#EC4953;" d="M93.676,68.332l-20.443,7.971c-1.886,0.736-2.818,2.862-2.084,4.747l41.98,107.676
	c0,0,34.101,84.861,59.356,136.824l16.835-6.561c-16.581-55.347-48.917-140.897-48.917-140.897L98.423,70.416
	C97.688,68.531,95.564,67.598,93.676,68.332z"/>
<path style="fill:#F5A209;" d="M93.676,68.332l-20.443,7.971c-1.886,0.736-2.818,2.862-2.084,4.747l41.98,107.676
	c0,0,34.101,84.861,59.356,136.824l16.835-6.561c-16.581-55.347-48.917-140.897-48.917-140.897L98.423,70.416
	C97.688,68.531,95.564,67.598,93.676,68.332z"/>
<path style="fill:#FBB429;" d="M79.263,73.9l39.154,100.425l2.231,5.722l0.73,1.873l0.007-0.001
	c5.051,12.815,35.173,89.101,55.769,138.347c10.36,24.772,18.311,42.7,19.444,42.258c1.13-0.442-5.152-19.02-14.291-44.268
	c-0.706-1.95-1.432-3.944-2.17-5.969c-18.257-50.082-45.656-121.265-50.419-133.618l0.007-0.002l-0.73-1.873l-2.231-5.724
	L87.61,70.647L79.263,73.9L79.263,73.9z"/>
<path style="fill:#0E7886;" d="M113.602,190.667l-2.919-7.49l27.766-10.823l2.919,7.487L113.602,190.667L113.602,190.667z"/>
<path style="fill:#FFFFFF;" d="M172.485,325.55c11.607,23.88,21.346,40.818,25.047,39.375c3.7-1.445-0.593-20.502-8.212-45.936
	L172.485,325.55L172.485,325.55z"/>
<path style="fill:#15BDB1;" d="M173.849,142.882l-18.397,5.428l-18.965-64.26l18.395-5.428L173.849,142.882L173.849,142.882z"/>
<path style="fill:#20D0C2;" d="M168.026,144.601l-6.751,1.991l-18.966-64.26l6.75-1.991L168.026,144.601z"/>
<path style="fill:#EC4B53;" d="M136.487,84.051c0,0-11.745-1.118-11.814-22.664c-0.068-21.548-4.322-39.515-16.327-48.909
	c0,0,49.096,12.555,46.535,66.145L136.487,84.051L136.487,84.051z"/>
<path style="fill:#FF5B61;" d="M108.347,12.478c10.41,7.25,22.837,28.144,23.876,48.262c0.669,12.962,6.489,18.628,10.249,21.544
	l3.713-1.096C155.337,46.097,108.347,12.478,108.347,12.478z"/>
<path style="fill:#0E7886;" d="M196.639,198.622c-11.91-30.639-22.815-55.734-22.815-55.734l-18.372,5.422
	c0,0,4.469,26.994,11.102,59.191L196.639,198.622z"/>
<g>
	<path style="fill:#FF5B61;" d="M166.554,207.502c4.612,22.381,10.269,47.275,16.2,67.37
		c14.452,48.967,73.039,221.266,84.413,218.171l0.001,0.004c0.005-0.001,0.007-0.004,0.012-0.005c0.005-0.002,0.008,0,0.013-0.002
		l-0.002-0.004c11.231-3.577-33.123-180.078-47.573-229.043c-5.93-20.095-14.698-44.07-22.977-65.37L166.554,207.502
		L166.554,207.502z"/>
	<path style="fill:#FF5B61;" d="M281.309,420.296c-1.694,6.801-8.581,10.944-15.384,9.251l-3.872-0.965
		c-6.804-1.693-10.946-8.58-9.252-15.384l4.677-18.786c1.695-6.801,8.581-10.942,15.384-9.251l3.875,0.967
		c6.803,1.692,10.944,8.579,9.25,15.383L281.309,420.296L281.309,420.296z"/>
</g>
<g>
	<path style="fill:#FBAB08;" d="M260.57,381.998l28.508,7.096l-3.955,15.88l-28.508-7.099L260.57,381.998z"/>
	<path style="fill:#FBAB08;" d="M265.161,363.557l28.507,7.096l-2.976,11.955l-28.508-7.097L265.161,363.557z"/>
</g>
<path style="fill:#FBB429;" d="M367.818,12.018c-0.008,0.019-32.438,66.642-31.933,67.463l13.76,5.532l14.749,1.564
	C365.227,86.09,367.818,12.038,367.818,12.018L367.818,12.018z"/>
<path style="fill:#666666;" d="M360.462,41.568c2.091,0.521,4.167,0.874,6.213,1.105c0.637-16.184,1.143-30.644,1.143-30.655
	c-0.002,0.009-6.336,13.021-13.362,27.612C356.374,40.387,358.372,41.048,360.462,41.568L360.462,41.568z"/>
<path style="fill:#FBB429;" d="M277.524,399.402l3.091-12.414l1.614-6.487l2.978-11.954l-11.583-2.884l-2.978,11.954l-1.614,6.487
	l-3.092,12.415l-0.862,3.464l11.583,2.883L277.524,399.402L277.524,399.402z"/>
<path style="fill:#FFFFFF;" d="M260.57,381.998l28.508,7.096l1.614-6.485l-28.508-7.097L260.57,381.998L260.57,381.998z"/>
<path style="fill:#15BDB1;" d="M342.675,72.475c-2.625-0.652-6.062,4.088-6.737,6.79c-0.017,0.073-0.017,0.145-0.031,0.22
	l-0.022-0.005l-70.724,284.077l9.425,2.347l71.017-285.246C345.916,77.739,345.017,73.059,342.675,72.475L342.675,72.475z"/>
<path style="fill:#20D0C2;" d="M352.177,74.841c-2.624-0.652-6.061,4.087-6.734,6.788c-0.019,0.075-0.019,0.147-0.033,0.22
	l-0.042-0.009c0.021-0.072,0.057-0.135,0.075-0.211c0.072-0.289,0.124-0.619,0.16-0.971l-71.017,285.246l9.541,2.374l70.94-284.935
	C355.483,80.458,354.608,75.446,352.177,74.841z"/>
<path style="fill:#15BDB1;" d="M361.68,77.207c-2.624-0.653-6.062,4.087-6.734,6.788c-0.019,0.075-0.019,0.147-0.033,0.22
	l-0.044-0.008c0.021-0.073,0.058-0.137,0.077-0.212c0.05-0.2,0.087-0.422,0.121-0.652l-70.94,284.935l9.541,2.375l70.725-284.077
	l-0.021-0.004c0.021-0.073,0.057-0.137,0.075-0.212C365.121,83.659,364.305,77.861,361.68,77.207L361.68,77.207z"/>
<path style="fill:#1A91A1;" d="M136.505,260.536h222.413V487.03c0,13.734-11.235,24.97-24.971,24.97H161.476
	c-13.736,0-24.971-11.236-24.971-24.97V260.536z"/>
<g>
	<path style="fill:#0E7886;" d="M356.673,497.343c-3.944,8.626-12.667,14.657-22.726,14.657H161.476
		c-10.063,0-18.783-6.031-22.728-14.657H356.673z"/>
	<path style="fill:#0E7886;" d="M136.505,275.243c10.658,0.717,19.082,9.587,19.082,20.427c0,10.839-8.423,19.709-19.082,20.426
		V275.243z M358.917,275.243L358.917,275.243v40.852c-10.657-0.718-19.082-9.587-19.082-20.426
		C339.836,284.829,348.26,275.962,358.917,275.243z M358.917,388.472L358.917,388.472v40.85
		c-10.657-0.715-19.082-9.584-19.082-20.424C339.836,398.056,348.26,389.187,358.917,388.472z M136.505,429.321L136.505,429.321
		v-40.85c10.658,0.714,19.082,9.584,19.082,20.426C155.587,419.737,147.163,428.607,136.505,429.321z M247.711,447.564
		L247.711,447.564c11.307,0,20.474,9.166,20.474,20.473c0,11.308-9.167,20.474-20.474,20.474c-11.307,0-20.473-9.166-20.473-20.474
		C227.239,456.729,236.405,447.564,247.711,447.564z M172.647,447.564L172.647,447.564c11.307,0,20.473,9.166,20.473,20.473
		c0,11.308-9.166,20.474-20.473,20.474c-11.307,0-20.474-9.166-20.474-20.474C152.173,456.729,161.34,447.564,172.647,447.564z
		 M322.777,447.564L322.777,447.564c11.307,0,20.473,9.166,20.473,20.473c0,11.308-9.166,20.474-20.473,20.474
		c-11.307,0-20.474-9.166-20.474-20.474C302.303,456.729,311.47,447.564,322.777,447.564z M285.244,388.423L285.244,388.423
		c11.307,0,20.474,9.167,20.474,20.474c0,11.305-9.167,20.473-20.474,20.473c-11.307,0-20.474-9.167-20.474-20.473
		C264.77,397.59,273.937,388.423,285.244,388.423z M210.18,388.423L210.18,388.423c11.305,0,20.473,9.167,20.473,20.474
		c0,11.305-9.167,20.473-20.473,20.473c-11.308,0-20.474-9.167-20.474-20.473C189.706,397.59,198.872,388.423,210.18,388.423z
		 M247.711,334.338L247.711,334.338c11.307,0,20.474,9.165,20.474,20.473c0,11.307-9.167,20.473-20.474,20.473
		c-11.307,0-20.473-9.166-20.473-20.473C227.239,343.503,236.405,334.338,247.711,334.338z M172.647,334.338L172.647,334.338
		c11.307,0,20.473,9.165,20.473,20.473c0,11.307-9.166,20.473-20.473,20.473c-11.307,0-20.474-9.166-20.474-20.473
		C152.173,343.503,161.34,334.338,172.647,334.338z M322.777,334.338L322.777,334.338c11.307,0,20.473,9.165,20.473,20.473
		c0,11.307-9.166,20.473-20.473,20.473c-11.307,0-20.474-9.166-20.474-20.473C302.303,343.503,311.47,334.338,322.777,334.338z
		 M285.244,275.196L285.244,275.196c11.307,0,20.474,9.165,20.474,20.473s-9.167,20.471-20.474,20.471
		c-11.307,0-20.474-9.164-20.474-20.471S273.937,275.196,285.244,275.196z M210.18,275.196L210.18,275.196
		c11.305,0,20.473,9.165,20.473,20.473s-9.167,20.471-20.473,20.471c-11.308,0-20.474-9.164-20.474-20.471
		S198.872,275.196,210.18,275.196z"/>
</g>
<path style="fill:#1A91A1;stroke:#1A91A1;stroke-width:4296.1401;" d="M138.75,252.636h217.921c3.46,0,6.289,2.83,6.289,6.288
	c0,3.462-2.829,6.292-6.289,6.292H138.75c-3.458,0-6.29-2.83-6.29-6.292C132.46,255.467,135.292,252.636,138.75,252.636z"/>
<path style="fill:#FBB429;" d="M224.477,39.505h60.698c1.516,0,2.757,1.24,2.757,2.757v210.374h-66.211V42.262
	C221.721,40.745,222.96,39.505,224.477,39.505L224.477,39.505z"/>
<path style="fill:#F5A209;" d="M279.019,39.505h6.157c1.516,0,2.756,1.239,2.756,2.756v210.375h-8.913V39.505z"/>
<path style="fill:#FFCA4F;" d="M221.721,48.594h16.629v4.046h-16.629V48.594z M221.721,235.326L221.721,235.326h10.068v4.043
	h-10.068V235.326z M221.721,222.876L221.721,222.876h16.629v4.046h-16.629V222.876z M221.721,210.427L221.721,210.427h10.068v4.044
	h-10.068V210.427z M221.721,197.98L221.721,197.98h16.629v4.043h-16.629V197.98z M221.721,185.53L221.721,185.53h10.068v4.046
	h-10.068V185.53z M221.721,173.081L221.721,173.081h16.629v4.046h-16.629V173.081z M221.721,160.633L221.721,160.633h10.068v4.043
	h-10.068V160.633z M221.721,148.184L221.721,148.184h16.629v4.044h-16.629V148.184z M221.721,135.735L221.721,135.735h10.068v4.044
	h-10.068V135.735z M221.721,123.287L221.721,123.287h16.629v4.043h-16.629V123.287z M221.721,110.839L221.721,110.839h10.068v4.043
	h-10.068V110.839z M221.721,98.389L221.721,98.389h16.629v4.046h-16.629V98.389z M221.721,85.94L221.721,85.94h10.068v4.046h-10.068
	V85.94z M221.721,73.492L221.721,73.492h16.629v4.043h-16.629V73.492z M221.721,61.044L221.721,61.044h10.068v4.044h-10.068V61.044z
	"/>
<g>
</g>
<g>
</g>
<g>
</g>
<g>
</g>
<g>
</g>
<g>
</g>
<g>
</g>
<g>
</g>
<g>
</g>
<g>
</g>
<g>
</g>
<g>
</g>
<g>
</g>
<g>
</g>
<g>
</g>
</svg>
