<?xml version="1.0" encoding="iso-8859-1"?>
<!-- Generator: Adobe Illustrator 19.0.0, SVG Export Plug-In . SVG Version: 6.00 Build 0)  -->
<svg version="1.1" id="Layer_1" xmlns="http://www.w3.org/2000/svg" xmlns:xlink="http://www.w3.org/1999/xlink" x="0px" y="0px"
	 viewBox="0 0 512.003 512.003" style="enable-background:new 0 0 512.003 512.003;" xml:space="preserve">
<path style="fill:#5DDDD3;" d="M256.003,512.003c141,0,256-115,256-256.003c0-141-115-256-256-256S0,115,0,256
	C0,397.002,115,512.003,256.003,512.003z"/>
<path style="fill:#1A91A1;" d="M15.909,345.006h480.183C459.931,442.511,366.082,512,256,512
	C145.913,512,52.067,442.511,15.909,345.006z"/>
<path style="fill:#FFBA1B;" d="M150.175,107.879c15.484-3.617,26.099-6.468,41.826-8.543c1.569-5.309,6.5-9.209,12.297-9.209
	h103.409c5.881,0,10.872,4.013,12.362,9.438c15.465,2.038,26.065,4.808,41.761,8.312c16.874,3.764,31.431,27.248,31.431,44.52v3.638
	v3.609v129.372v3.835l4.989,4.808v52.463H113.747v-53.635l4.989-3.635v-3.832V159.644v-3.609v-3.638
	c0-17.288,14.602-40.586,31.434-44.52L150.175,107.879z"/>
<path style="fill:#F5A209;" d="M337.46,323.015h44.221c2.051,0,3.73,1.676,3.73,3.727v9.057c0,2.051-1.679,3.73-3.73,3.73H337.46
	c-2.054,0-3.727-1.679-3.727-3.73v-9.057C333.733,324.691,335.409,323.015,337.46,323.015z M143.282,280.887L143.282,280.887h19.646
	c2.017,0,3.664,1.65,3.664,3.664v15.318c0,2.014-1.647,3.664-3.664,3.664h-19.646c-2.017,0-3.664-1.65-3.664-3.664v-15.318
	C139.617,282.537,141.265,280.887,143.282,280.887z M133.144,323.015L133.144,323.015h44.221c2.051,0,3.73,1.676,3.73,3.727v9.057
	c0,2.051-1.679,3.73-3.73,3.73h-44.221c-2.051,0-3.727-1.679-3.727-3.73v-9.057C129.416,324.691,131.093,323.015,133.144,323.015z
	 M351.894,280.89L351.894,280.89h19.646c2.014,0,3.664,1.65,3.664,3.662v15.318c0,2.014-1.647,3.664-3.664,3.664h-19.646
	c-2.014,0-3.662-1.65-3.662-3.664v-15.318C348.233,282.537,349.88,280.89,351.894,280.89z"/>
<path style="fill:#1A91A1;" d="M118.738,292.853l-14.584-9.401c-3.176-2.049-6.657-4.918-6.657-8.829v-0.034
	c-11.885-2.581-15.03-5.167-16.184-11.14c-6.479-0.553-11.567-5.802-11.567-12.609c0-6.804,5.666-12.656,12.656-12.656
	c6.988,0,12.651,6.196,12.651,12.656s-4.081,10.912-9.592,12.278c1.015,3.305,3.955,4.811,12.037,7.098V228.28h-4.401
	c-3.294,0-5.994-2.696-5.994-5.994v-47.618c0-3.294,2.696-5.994,5.994-5.994h4.401v-11.03c0-3.911,2.998-6.327,6.657-5.382
	l14.584,3.775v3.609l-14.875-3.848c-2.405-0.624-2.995,0.934-2.995,3.321v9.558h5.217c3.297,0,5.996,2.696,5.996,5.994v47.618
	c0,3.294-2.699,5.994-5.996,5.994h-5.217v45.226c0,3.035,2.282,5.466,4.585,6.951l13.286,8.564v3.832V292.853z"/>
<g>
	<path style="fill:#666666;" d="M183.516,391.507v14.909c0,1.889-3.52,15.457-6.529,15.457h-6.377c-0.989,0-1.826-0.551-2.062-1.296
		h-1.894c-0.236,0.745-1.07,1.296-2.064,1.296h-6.374c-0.989,0-1.828-0.551-2.064-1.296h-1.891c-0.236,0.745-1.07,1.296-2.062,1.296
		h-6.377c-3.006,0-6.526-13.569-6.526-15.457v-14.909h44.221H183.516z"/>
	<path style="fill:#666666;" d="M373.183,391.507v14.909c0,1.889-3.52,15.457-6.523,15.457h-6.379c-0.989,0-1.826-0.551-2.062-1.296
		h-1.889c-0.241,0.745-1.075,1.296-2.067,1.296h-6.377c-0.991,0-1.828-0.551-2.062-1.296h-1.891
		c-0.239,0.745-1.073,1.296-2.064,1.296h-6.374c-3.006,0-6.529-13.569-6.529-15.457v-14.909h44.221H373.183z"/>
</g>
<path style="fill:#ECF0F1;" d="M116.585,350.087h279.311c10.948,0,19.909,8.152,19.909,18.114c0,1.241-0.142,2.452-0.407,3.628
	H97.077c-0.265-1.175-0.404-2.387-0.404-3.628C96.673,358.237,105.634,350.087,116.585,350.087z"/>
<path style="fill:#C3CCCF;" d="M415.733,371.832c0.047,0.514,0.071,1.036,0.071,1.563c0,9.965-8.96,18.114-19.909,18.114h-22.713
	h-44.221H183.516h-44.221h-22.71c-10.951,0-19.911-8.15-19.911-18.114c0-0.527,0.024-1.049,0.073-1.563H415.73H415.733z"/>
<path style="fill:#F5A209;" d="M217.772,329.224h76.458c1.904,0,3.46,1.138,3.46,2.529s-1.555,2.526-3.46,2.526h-76.458
	c-1.904,0-3.46-1.136-3.46-2.526S215.868,329.224,217.772,329.224z M217.772,296.851L217.772,296.851h76.458
	c1.904,0,3.46,1.136,3.46,2.529c0,1.388-1.555,2.526-3.46,2.526h-76.458c-1.904,0-3.46-1.138-3.46-2.526
	C214.313,297.986,215.868,296.851,217.772,296.851z M217.772,307.642L217.772,307.642h76.458c1.904,0,3.46,1.138,3.46,2.529
	s-1.555,2.526-3.46,2.526h-76.458c-1.904,0-3.46-1.138-3.46-2.526C214.313,308.78,215.868,307.642,217.772,307.642z
	 M217.772,318.433L217.772,318.433h76.458c1.904,0,3.46,1.138,3.46,2.529s-1.555,2.526-3.46,2.526h-76.458
	c-1.904,0-3.46-1.136-3.46-2.526S215.868,318.433,217.772,318.433z"/>
<path style="fill:#076673;" d="M154.875,140.145h93.932v114.547H124.671v-84.345c0-16.611,13.59-30.204,30.201-30.204
	L154.875,140.145z M357.127,140.145L357.127,140.145h-93.932v114.547h124.136v-84.345c0-16.611-13.592-30.204-30.204-30.204V140.145
	z"/>
<path style="fill:#FFFFFF;" d="M336.049,321.748h44.219c2.051,0,3.73,1.676,3.73,3.727v9.06c0,2.049-1.676,3.73-3.73,3.73h-44.219
	c-2.054,0-3.73-1.679-3.73-3.73v-9.06C332.319,323.424,333.995,321.748,336.049,321.748z M141.87,279.623L141.87,279.623h19.646
	c2.014,0,3.664,1.65,3.664,3.662v15.318c0,2.014-1.647,3.664-3.664,3.664H141.87c-2.014,0-3.664-1.647-3.664-3.664v-15.318
	C138.206,281.27,139.853,279.623,141.87,279.623z M131.735,321.748L131.735,321.748h44.219c2.051,0,3.73,1.676,3.73,3.727v9.06
	c0,2.049-1.676,3.73-3.73,3.73h-44.219c-2.051,0-3.73-1.679-3.73-3.73v-9.06C128.005,323.424,129.681,321.748,131.735,321.748z
	 M350.486,279.623L350.486,279.623h19.646c2.017,0,3.664,1.647,3.664,3.662v15.318c0,2.014-1.647,3.664-3.664,3.664h-19.646
	c-2.014,0-3.662-1.647-3.662-3.664v-15.318C346.824,281.27,348.471,279.623,350.486,279.623z"/>
<path style="fill:#F5A209;" d="M315.259,102.213v19.833H196.812v-19.995c1.448-3.78,3.229-6.558,8.593-6.558h101.201
	c5.44,0,7.274,2.859,8.653,6.723V102.213z"/>
<path style="fill:#FFFFFF;" d="M216.049,104.716c0-1.262,0.299-2.227,0.9-2.901c0.601-0.674,1.5-1.012,2.702-1.012
	c1.199,0,2.098,0.338,2.699,1.012c0.601,0.674,0.902,1.639,0.902,2.901v0.488h-2.311v-0.643c0-0.564-0.108-0.96-0.323-1.188
	c-0.215-0.231-0.514-0.344-0.9-0.344c-0.386,0-0.685,0.113-0.9,0.344c-0.212,0.231-0.323,0.627-0.323,1.188
	c0,0.535,0.118,1.005,0.357,1.411c0.239,0.407,0.532,0.792,0.889,1.154c0.357,0.362,0.737,0.727,1.144,1.089
	c0.407,0.362,0.787,0.758,1.144,1.188c0.357,0.43,0.653,0.918,0.889,1.466c0.236,0.548,0.357,1.193,0.357,1.933
	c0,1.259-0.31,2.227-0.923,2.901c-0.614,0.677-1.521,1.012-2.723,1.012c-1.199,0-2.106-0.336-2.723-1.012
	c-0.614-0.674-0.921-1.642-0.921-2.901v-0.955h2.311v1.112c0,0.561,0.115,0.955,0.346,1.178c0.231,0.22,0.535,0.333,0.921,0.333
	c0.386,0,0.692-0.11,0.923-0.333c0.231-0.223,0.346-0.616,0.346-1.178c0-0.532-0.121-1.002-0.357-1.411
	c-0.236-0.407-0.535-0.792-0.889-1.154c-0.354-0.362-0.734-0.727-1.144-1.089c-0.409-0.362-0.79-0.758-1.144-1.188
	c-0.357-0.43-0.653-0.921-0.889-1.466c-0.236-0.548-0.354-1.191-0.354-1.933L216.049,104.716z M231.758,110.738L231.758,110.738
	v2.064c0,1.259-0.307,2.227-0.921,2.901c-0.614,0.677-1.524,1.012-2.723,1.012s-2.109-0.336-2.723-1.012
	c-0.616-0.674-0.921-1.642-0.921-2.901v-8.087c0-1.262,0.307-2.227,0.921-2.901c0.616-0.674,1.524-1.012,2.723-1.012
	s2.109,0.338,2.723,1.012c0.614,0.674,0.921,1.639,0.921,2.901v1.511h-2.311v-1.668c0-0.564-0.115-0.96-0.344-1.188
	c-0.231-0.231-0.535-0.344-0.921-0.344c-0.386,0-0.695,0.113-0.923,0.344c-0.231,0.231-0.344,0.627-0.344,1.188v8.399
	c0,0.561,0.115,0.955,0.344,1.178c0.228,0.22,0.538,0.333,0.923,0.333c0.386,0,0.692-0.11,0.921-0.333
	c0.228-0.223,0.344-0.616,0.344-1.178v-2.222h2.311V110.738z M235.693,116.535L235.693,116.535h-2.445V100.98h2.445v6.665h2.778
	v-6.665h2.489v15.554h-2.489v-6.665h-2.778V116.535z M244.981,112.96L244.981,112.96c0,0.561,0.115,0.96,0.346,1.188
	c0.231,0.231,0.538,0.346,0.923,0.346c0.386,0,0.692-0.115,0.921-0.346c0.228-0.228,0.344-0.627,0.344-1.188v-8.399
	c0-0.564-0.115-0.96-0.344-1.188c-0.231-0.231-0.535-0.344-0.921-0.344c-0.386,0-0.692,0.113-0.923,0.344s-0.346,0.627-0.346,1.188
	V112.96z M242.536,104.716L242.536,104.716c0-1.262,0.32-2.227,0.955-2.901c0.64-0.674,1.555-1.012,2.757-1.012
	c1.199,0,2.119,0.338,2.754,1.012c0.637,0.674,0.957,1.639,0.957,2.901v8.087c0,1.259-0.32,2.227-0.957,2.901
	c-0.637,0.677-1.555,1.012-2.754,1.012c-1.201,0-2.119-0.336-2.757-1.012c-0.635-0.674-0.955-1.642-0.955-2.901V104.716z
	 M253.778,112.96L253.778,112.96c0,0.561,0.115,0.96,0.346,1.188c0.228,0.231,0.535,0.346,0.921,0.346
	c0.386,0,0.692-0.115,0.921-0.346c0.231-0.228,0.346-0.627,0.346-1.188v-8.399c0-0.564-0.115-0.96-0.346-1.188
	c-0.231-0.231-0.535-0.344-0.921-0.344c-0.386,0-0.692,0.113-0.921,0.344c-0.231,0.231-0.346,0.627-0.346,1.188V112.96z
	 M251.336,104.716L251.336,104.716c0-1.262,0.317-2.227,0.955-2.901c0.637-0.674,1.555-1.012,2.754-1.012
	c1.201,0,2.119,0.338,2.757,1.012c0.637,0.674,0.955,1.639,0.955,2.901v8.087c0,1.259-0.32,2.227-0.955,2.901
	c-0.637,0.677-1.555,1.012-2.757,1.012c-1.199,0-2.119-0.336-2.754-1.012c-0.637-0.674-0.955-1.642-0.955-2.901V104.716z
	 M260.336,100.98L260.336,100.98h2.445v13.333h4.021v2.222h-6.466V100.98z M275.001,100.98L275.001,100.98
	c1.275,0,2.195,0.296,2.767,0.889c0.572,0.593,0.855,1.49,0.855,2.689v0.556c0,0.8-0.126,1.458-0.375,1.978
	c-0.254,0.517-0.653,0.902-1.201,1.154c0.666,0.254,1.138,0.664,1.411,1.233c0.273,0.572,0.412,1.272,0.412,2.101v1.267
	c0,1.199-0.312,2.114-0.934,2.744c-0.624,0.63-1.548,0.944-2.778,0.944h-3.843V100.98h3.688H275.001z M273.758,109.534
	L273.758,109.534v4.776h1.398c0.414,0,0.729-0.11,0.947-0.333c0.212-0.22,0.323-0.622,0.323-1.199v-1.356
	c0-0.724-0.123-1.22-0.37-1.49c-0.244-0.265-0.648-0.399-1.212-0.399h-1.089H273.758z M273.758,103.202L273.758,103.202v4.11h0.955
	c0.459,0,0.818-0.121,1.078-0.357c0.257-0.239,0.388-0.669,0.388-1.291v-0.868c0-0.564-0.097-0.971-0.299-1.222
	c-0.199-0.254-0.514-0.378-0.944-0.378h-1.178V103.202z M282.668,100.978L282.668,100.978v12c0,0.561,0.115,0.955,0.344,1.178
	c0.231,0.22,0.538,0.333,0.921,0.333c0.386,0,0.695-0.113,0.923-0.333c0.228-0.223,0.344-0.616,0.344-1.178v-12h2.311v11.843
	c0,1.256-0.307,2.227-0.921,2.898c-0.614,0.677-1.524,1.012-2.723,1.012c-1.199,0-2.109-0.338-2.723-1.012
	c-0.614-0.671-0.921-1.642-0.921-2.898v-11.843H282.668z M288.866,104.713L288.866,104.713c0-1.262,0.302-2.227,0.9-2.901
	c0.601-0.674,1.5-1.012,2.699-1.012c1.201,0,2.101,0.338,2.702,1.012c0.598,0.674,0.9,1.639,0.9,2.901v0.488h-2.311v-0.643
	c0-0.564-0.108-0.96-0.323-1.188c-0.215-0.231-0.514-0.344-0.9-0.344c-0.386,0-0.685,0.113-0.9,0.344
	c-0.215,0.231-0.323,0.627-0.323,1.188c0,0.535,0.118,1.005,0.354,1.411c0.239,0.407,0.535,0.792,0.889,1.154
	c0.357,0.362,0.737,0.727,1.144,1.089c0.409,0.362,0.79,0.758,1.146,1.188c0.354,0.43,0.651,0.918,0.889,1.466
	c0.236,0.548,0.354,1.193,0.354,1.933c0,1.259-0.307,2.227-0.921,2.901c-0.614,0.677-1.521,1.012-2.723,1.012
	c-1.199,0-2.106-0.336-2.723-1.012c-0.614-0.674-0.921-1.642-0.921-2.901v-0.955h2.311v1.112c0,0.561,0.115,0.955,0.344,1.178
	c0.231,0.22,0.538,0.333,0.923,0.333s0.69-0.11,0.921-0.333c0.228-0.223,0.346-0.616,0.346-1.178c0-0.532-0.118-1.002-0.357-1.411
	c-0.236-0.407-0.532-0.792-0.889-1.154c-0.357-0.362-0.737-0.727-1.146-1.089c-0.407-0.362-0.787-0.758-1.141-1.188
	c-0.357-0.43-0.653-0.921-0.892-1.466c-0.236-0.548-0.354-1.191-0.354-1.933V104.713z"/>
<path style="fill:#1A91A1;" d="M393.264,292.853l14.584-9.401c3.176-2.049,6.657-4.918,6.657-8.829v-0.034
	c11.885-2.581,15.03-5.167,16.184-11.14c6.481-0.553,11.567-5.802,11.567-12.609c0-6.804-5.666-12.656-12.653-12.656
	c-6.988,0-12.653,6.196-12.653,12.656s4.084,10.912,9.592,12.278c-1.015,3.305-3.953,4.811-12.037,7.098V228.28h4.399
	c3.294,0,5.994-2.696,5.994-5.994v-47.618c0-3.294-2.696-5.994-5.994-5.994h-4.399v-11.03c0-3.911-2.998-6.327-6.657-5.382
	l-14.584,3.775v3.609l14.875-3.848c2.403-0.624,2.995,0.934,2.995,3.321v9.558h-5.217c-3.294,0-5.994,2.696-5.994,5.994v47.618
	c0,3.294,2.699,5.994,5.994,5.994h5.217v45.226c0,3.035-2.282,5.466-4.585,6.951l-13.288,8.564v3.832L393.264,292.853z"/>
<path style="fill:#0E7886;" d="M124.674,226.066l78.643-85.919h45.493v2.266L146.038,254.696h-21.362v-28.627L124.674,226.066z
	 M248.81,163.072L248.81,163.072l-84.138,91.622h13.863l70.276-76.526V163.072z M357.127,140.147L357.127,140.147h-23.736
	l-70.197,76.694v37.853h12.916l99.223-108.401C370.261,142.44,363.95,140.147,357.127,140.147z M294.744,254.694L294.744,254.694
	l89.544-97.508c1.76,3.601,2.822,7.601,3.009,11.819l-78.69,85.688H294.744z"/>
<path style="fill:#FF5B61;" d="M171.99,125.262c4.186,0,7.601-3.415,7.601-7.601s-3.415-7.604-7.601-7.604
	c-4.189,0-7.604,3.418-7.604,7.604S167.801,125.262,171.99,125.262z"/>
<path style="fill:#20D0C2;" d="M154.448,125.262c2.794,0,5.068-2.277,5.068-5.068s-2.277-5.068-5.068-5.068
	s-5.068,2.279-5.068,5.068C149.38,122.987,151.66,125.262,154.448,125.262z"/>
<path style="fill:#FF5B61;" d="M340.012,125.262c4.186,0,7.604-3.415,7.604-7.601s-3.418-7.604-7.604-7.604
	c-4.186,0-7.601,3.418-7.601,7.604S335.826,125.262,340.012,125.262z"/>
<path style="fill:#20D0C2;" d="M357.555,125.262c2.791,0,5.068-2.277,5.068-5.068s-2.279-5.068-5.068-5.068
	c-2.793,0-5.068,2.279-5.068,5.068C352.487,122.987,354.764,125.262,357.555,125.262z"/>
<path style="fill:#F5A209;" d="M200.353,279.182H256h55.647l50.923-20.465H256H149.43L200.353,279.182z M362.019,260.9
	L362.019,260.9l-0.567,13.06l-16.302,1.681l-8.357,4.729l-21.779,62.619l-1.807-60.083l48.809-22.01L362.019,260.9z M149.978,260.9
	L149.978,260.9l48.809,22.01l-1.807,60.083l-21.779-62.619l-8.357-4.729l-16.302-1.681l-0.567-13.06L149.978,260.9z"/>
<g>
</g>
<g>
</g>
<g>
</g>
<g>
</g>
<g>
</g>
<g>
</g>
<g>
</g>
<g>
</g>
<g>
</g>
<g>
</g>
<g>
</g>
<g>
</g>
<g>
</g>
<g>
</g>
<g>
</g>
</svg>
